<svg xmlns="http://www.w3.org/2000/svg" fill="none" viewBox="0 0 28 28"><defs><linearGradient id="b" x1="14" x2="14" y1="0" y2="28" gradientUnits="userSpaceOnUse"><stop stop-color="#00BC7A"/><stop offset="1" stop-color="#64EDC4"/></linearGradient><linearGradient id="c" x1="15.412" x2="15.412" y1="14.7" y2="25.374" gradientUnits="userSpaceOnUse"><stop offset=".145" stop-color="#24E3A5"/><stop offset="1" stop-color="#75F9C1"/></linearGradient><linearGradient id="e" x1="14" x2="14" y1="5.6" y2="23.8" gradientUnits="userSpaceOnUse"><stop stop-color="#fff"/><stop offset="1" stop-color="#CEFFF1"/></linearGradient><filter id="a" width="28" height="30" x="0" y="0" color-interpolation-filters="sRGB" filterUnits="userSpaceOnUse"><feColorMatrix in="SourceAlpha" result="hardAlpha" values="0 0 0 0 0 0 0 0 0 0 0 0 0 0 0 0 0 0 127 0"/><feGaussianBlur stdDeviation="1"/><feColorMatrix values="0 0 0 0 0 0 0 0 0 0.737255 0 0 0 0 0.478431 0 0 0 1 0"/></filter><filter id="d" width="17.8" height="19.2" x="5.1" y="5.6" color-interpolation-filters="sRGB" filterUnits="userSpaceOnUse"><feColorMatrix in="SourceAlpha" result="hardAlpha" values="0 0 0 0 0 0 0 0 0 0 0 0 0 0 0 0 0 0 127 0"/><feGaussianBlur stdDeviation=".25"/><feColorMatrix values="0 0 0 0 0 0 0 0 0 0.623529 0 0 0 0 0.403922 0 0 0 0.6 0"/></filter></defs><g filter="url(#a)"><circle cx="14" cy="14" r="14" fill="url(#b)"/></g><path fill="url(#c)" fill-rule="evenodd" d="M13.978 28c-5.518-.009-10.287-3.21-12.56-7.854.484.103 1.386.59 2.467 1.174 1.942 1.049 4.459 2.408 6.16 2.408 1.052 0 2.325-1.043 3.861-2.304 3.204-2.627 7.556-6.196 13.447-3.205-1.788 5.664-7.079 9.771-13.33 9.781z" clip-rule="evenodd"/><g filter="url(#d)"><path fill="url(#e)" d="M22.4 23.61H21V8.4c0-.38 0-.904-.7-.904h-.661v15.167c0 .568-.382 1.137-.955 1.137H6.554c-.572 0-.954-.38-.954-.758V5.6h15.273c.763 0 1.527.569 1.527 1.327zm-5.6-7.772-.7-.57-.7.57v1.516h-2.8v-1.37l-.7-.715-.7.569v1.516H9.227v-1.516l-.763-.57-.764.57v1.706H6.555v.656H7.7v1.808H6.555v.759H7.7V22.4h1.527v-1.633H11.2V22.4h1.4V21h2.8v1.4h1.4v-1.633h.636v-.759H16.8V18.2h.636v-.656H16.8zm-5.6 4.17H9.227V18.2H11.2zm4.2 0h-2.8V18.2h2.8z"/></g></svg>