<svg xmlns="http://www.w3.org/2000/svg" fill="none" viewBox="0 0 29 28"><defs><linearGradient id="b" x1="17.015" x2="9.437" y1="28" y2=".412" gradientUnits="userSpaceOnUse"><stop stop-color="#67ECFF"/><stop offset="1" stop-color="#1EB2FB"/></linearGradient><linearGradient id="c" x1="17.015" x2="9.437" y1="28" y2=".412" gradientUnits="userSpaceOnUse"><stop stop-color="#67ECFF"/><stop offset="1" stop-color="#1EB2FB"/></linearGradient><linearGradient id="e" x1="15.75" x2="15.75" y1="16.621" y2="25.091" gradientUnits="userSpaceOnUse"><stop offset=".168" stop-color="#80E5FF"/><stop offset="1" stop-color="#6CEDFF"/></linearGradient><linearGradient id="h" x1="17" x2="17" y1="2.194" y2="30.194" gradientUnits="userSpaceOnUse"><stop stop-color="#fff"/><stop offset="1" stop-color="#E7FEFF"/></linearGradient><linearGradient id="j" x1="14.111" x2="14.111" y1="20.111" y2="20.722" gradientUnits="userSpaceOnUse"><stop stop-color="#fff"/><stop offset="1" stop-color="#F3FDFF"/></linearGradient><linearGradient id="l" x1="14.111" x2="14.111" y1="17.111" y2="17.722" gradientUnits="userSpaceOnUse"><stop stop-color="#fff"/><stop offset="1" stop-color="#F3FDFF"/></linearGradient><filter id="a" width="28" height="28.5" x=".8" y="0" color-interpolation-filters="sRGB" filterUnits="userSpaceOnUse"><feFlood flood-opacity="0" result="BackgroundImageFix"/><feBlend in="SourceGraphic" in2="BackgroundImageFix" result="shape"/><feColorMatrix in="SourceAlpha" result="hardAlpha" values="0 0 0 0 0 0 0 0 0 0 0 0 0 0 0 0 0 0 127 0"/><feOffset dy=".5"/><feGaussianBlur stdDeviation=".25"/><feComposite in2="hardAlpha" k2="-1" k3="1" operator="arithmetic"/><feColorMatrix values="0 0 0 0 0 0 0 0 0 0.546167 0 0 0 0 0.941667 0 0 0 1 0"/><feBlend in2="shape" result="effect1_innerShadow_296_1751"/></filter><filter id="f" width="12" height="11.454" x="9.089" y="5.357" color-interpolation-filters="sRGB" filterUnits="userSpaceOnUse"><feFlood flood-opacity="0" result="BackgroundImageFix"/><feColorMatrix in="SourceAlpha" result="hardAlpha" values="0 0 0 0 0 0 0 0 0 0 0 0 0 0 0 0 0 0 127 0"/><feOffset dy="1"/><feGaussianBlur stdDeviation=".5"/><feComposite in2="hardAlpha" operator="out"/><feColorMatrix values="0 0 0 0 0 0 0 0 0 0.546167 0 0 0 0 0.941667 0 0 0 0.6 0"/><feBlend in2="BackgroundImageFix" result="effect1_dropShadow_296_1751"/><feBlend in="SourceGraphic" in2="effect1_dropShadow_296_1751" result="shape"/></filter><filter id="g" width="24" height="24.5" x="3" y="2.194" color-interpolation-filters="sRGB" filterUnits="userSpaceOnUse"><feFlood flood-opacity="0" result="BackgroundImageFix"/><feBlend in="SourceGraphic" in2="BackgroundImageFix" result="shape"/><feColorMatrix in="SourceAlpha" result="hardAlpha" values="0 0 0 0 0 0 0 0 0 0 0 0 0 0 0 0 0 0 127 0"/><feOffset dy=".5"/><feGaussianBlur stdDeviation=".25"/><feComposite in2="hardAlpha" k2="-1" k3="1" operator="arithmetic"/><feColorMatrix values="0 0 0 0 0 0 0 0 0 0.545098 0 0 0 0 0.941176 0 0 0 0.8 0"/><feBlend in2="shape" result="effect1_innerShadow_296_1751"/></filter><filter id="i" width="18" height="3" x="6" y="20" color-interpolation-filters="sRGB" filterUnits="userSpaceOnUse"><feFlood flood-opacity="0" result="BackgroundImageFix"/><feColorMatrix in="SourceAlpha" result="hardAlpha" values="0 0 0 0 0 0 0 0 0 0 0 0 0 0 0 0 0 0 127 0"/><feOffset dy="1"/><feGaussianBlur stdDeviation=".5"/><feComposite in2="hardAlpha" operator="out"/><feColorMatrix values="0 0 0 0 0 0 0 0 0 0.546167 0 0 0 0 0.941667 0 0 0 0.6 0"/><feBlend in2="BackgroundImageFix" result="effect1_dropShadow_296_1751"/><feBlend in="SourceGraphic" in2="effect1_dropShadow_296_1751" result="shape"/></filter><filter id="k" width="18" height="3" x="6" y="17" color-interpolation-filters="sRGB" filterUnits="userSpaceOnUse"><feFlood flood-opacity="0" result="BackgroundImageFix"/><feColorMatrix in="SourceAlpha" result="hardAlpha" values="0 0 0 0 0 0 0 0 0 0 0 0 0 0 0 0 0 0 127 0"/><feOffset dy="1"/><feGaussianBlur stdDeviation=".5"/><feComposite in2="hardAlpha" operator="out"/><feColorMatrix values="0 0 0 0 0 0 0 0 0 0.546167 0 0 0 0 0.941667 0 0 0 0.6 0"/><feBlend in2="BackgroundImageFix" result="effect1_dropShadow_296_1751"/><feBlend in="SourceGraphic" in2="effect1_dropShadow_296_1751" result="shape"/></filter></defs><g><g><g><g filter="url(#a)"><path fill="url(#b)" d="M28.8 26a2 2 0 0 1-2 2h-24a2 2 0 0 1-2-2V2a2 2 0 0 1 2-2h24a2 2 0 0 1 2 2z"/></g><g><g><mask id="d" width="29" height="28" x="0" y="0" maskUnits="userSpaceOnUse" style="mask-type:alpha"><path fill="url(#c)" d="M28.8 26a2 2 0 0 1-2 2h-24a2 2 0 0 1-2-2V2a2 2 0 0 1 2-2h24a2 2 0 0 1 2 2z"/></mask><g mask="url(#d)"><path fill="url(#e)" d="M8.944 22.833C3.5 19.82 0 21.697 0 23.209v2.894a2 2 0 0 0 2 2h25a2 2 0 0 0 2-2v-6.47c0-2.824-7.125-2.071-7.125 5.082 0 3.032-9.982-.251-12.93-1.883"/></g></g></g><g><g filter="url(#f)"><path fill="#fff" fill-rule="evenodd" d="M11.633 5.393a.364.364 0 0 0-.52.328v2.196c0 .116-.058.255-.174.398-.353.431-.85 1.305-.85 2.775 0 1.34.63 2.291 1.586 2.891.935.587 2.17.83 3.414.83s2.479-.243 3.416-.83c.955-.6 1.584-1.551 1.584-2.89 0-1.47-.496-2.345-.85-2.776-.116-.143-.174-.282-.174-.399V5.721a.365.365 0 0 0-.52-.328L16.37 6.429l-.021-.004a13 13 0 0 0-.358-.073 5.5 5.5 0 0 0-.9-.108c-.268 0-.628.057-.9.108-.141.027-.266.053-.357.073l-.021.004zm5.593 6.123c0 .978-.957 1.568-2.137 1.568s-2.136-.545-2.136-1.568c0-1.022.957-1.568 2.136-1.568s2.137.59 2.137 1.568M13.044 9.54a.454.454 0 1 1 0-.909.454.454 0 0 1 0 .909m4.091 0a.455.455 0 1 0 0-.91.455.455 0 0 0 0 .91m-1.318 2.523a.454.454 0 1 0 0-.908.454.454 0 0 0 0 .908m-1.91-.455a.454.454 0 1 1 .909 0 .454.454 0 0 1-.909 0" clip-rule="evenodd"/></g><path fill="#3ECBFD" fill-rule="evenodd" d="M17.226 11.516c0 .978-.957 1.568-2.137 1.568s-2.136-.545-2.136-1.568c0-1.022.957-1.568 2.136-1.568s2.137.591 2.137 1.568M13.044 9.54a.455.455 0 1 1 0-.91.455.455 0 0 1 0 .91m4.091 0a.455.455 0 1 0 0-.91.455.455 0 0 0 0 .91m-1.319 2.523a.455.455 0 1 0 0-.91.455.455 0 0 0 0 .91m-1.909-.455a.455.455 0 1 1 .91 0 .455.455 0 0 1-.91 0" clip-rule="evenodd"/></g><g filter="url(#g)"><path fill="url(#h)" d="M25.007 4.2h-4.002V2.194H27v6.001h-1.993zm0 19.988v-3.995H27v6.001h-5.995v-2.006zm-20.014 0h4.002v2.006H3v-6.001h1.993zm0-19.988v3.995H3v-6h5.995V4.2z"/></g><g filter="url(#i)"><path fill="url(#j)" d="M7 20h16v1H7z"/></g><g filter="url(#k)"><path fill="url(#l)" d="M7 17h16v1H7z"/></g></g></g></g></svg>