<svg xmlns="http://www.w3.org/2000/svg" fill="none" viewBox="0 0 29 27"><defs><linearGradient id="b" x1="12.878" x2="12.878" y1=".575" y2="26.575" gradientUnits="userSpaceOnUse"><stop stop-color="#FC8731"/><stop offset="1" stop-color="#FFCC63"/></linearGradient><linearGradient id="c" x1="12.878" x2="12.878" y1=".575" y2="26.575" gradientUnits="userSpaceOnUse"><stop stop-color="#FC8731"/><stop offset="1" stop-color="#FFCC63"/></linearGradient><linearGradient id="e" x1="14" x2="14" y1="17" y2="26" gradientUnits="userSpaceOnUse"><stop stop-color="#FFC65B"/><stop offset="1" stop-color="#FFD363"/></linearGradient><linearGradient id="g" x1="14.143" x2="14.143" y1=".575" y2="26.575" gradientUnits="userSpaceOnUse"><stop stop-color="#fff"/><stop offset="1" stop-color="#FFF4DB"/></linearGradient><filter id="a" width="28" height="27" x=".143" y=".575" color-interpolation-filters="sRGB" filterUnits="userSpaceOnUse"><feFlood flood-opacity="0" result="BackgroundImageFix"/><feBlend in="SourceGraphic" in2="BackgroundImageFix" result="shape"/><feColorMatrix in="SourceAlpha" result="hardAlpha" values="0 0 0 0 0 0 0 0 0 0 0 0 0 0 0 0 0 0 127 0"/><feOffset dy="1"/><feGaussianBlur stdDeviation=".5"/><feComposite in2="hardAlpha" k2="-1" k3="1" operator="arithmetic"/><feColorMatrix values="0 0 0 0 0.995833 0 0 0 0 0.430158 0 0 0 0 0.0165972 0 0 0 0.8 0"/><feBlend in2="shape" result="effect1_innerShadow_296_1566"/></filter><filter id="f" width="15" height="13.251" x="6.644" y="9.575" color-interpolation-filters="sRGB" filterUnits="userSpaceOnUse"><feFlood flood-opacity="0" result="BackgroundImageFix"/><feColorMatrix in="SourceAlpha" result="hardAlpha" values="0 0 0 0 0 0 0 0 0 0 0 0 0 0 0 0 0 0 127 0"/><feOffset dy=".5"/><feGaussianBlur stdDeviation=".25"/><feComposite in2="hardAlpha" operator="out"/><feColorMatrix values="0 0 0 0 0.996078 0 0 0 0 0.431373 0 0 0 0 0.0156863 0 0 0 1 0"/><feBlend in2="BackgroundImageFix" result="effect1_dropShadow_296_1566"/><feBlend in="SourceGraphic" in2="effect1_dropShadow_296_1566" result="shape"/></filter></defs><g><g><g filter="url(#a)"><path fill="url(#b)" fill-rule="evenodd" d="M4.466.672a1.03 1.03 0 0 0-.981.057c-.145.09-.265.215-.348.363a1 1 0 0 0-.127.482v6.04c0 .319-.163.7-.489 1.095C1.534 9.895.143 12.299.143 16.34c0 3.684 1.761 6.3 4.44 7.95 2.618 1.614 6.074 2.284 9.56 2.284 3.482 0 6.94-.67 9.563-2.286 2.675-1.648 4.437-4.264 4.437-7.948 0-4.042-1.391-6.446-2.379-7.632-.325-.394-.488-.776-.488-1.096V1.574a1 1 0 0 0-.127-.482A1 1 0 0 0 24.8.729a1.03 1.03 0 0 0-.981-.057l-6.093 2.85-.061-.012a36 36 0 0 0-1-.2c-.764-.14-1.772-.296-2.521-.296-.75 0-1.758.156-2.521.296-.395.074-.745.146-.998.2l-.061.012L4.464.674zm15.66 16.84c0 2.689-2.68 4.313-5.983 4.313s-5.983-1.5-5.983-4.312 2.68-4.312 5.983-4.312 5.983 1.624 5.983 4.312m-11.71-5.437c-.337 0-.66-.132-.9-.366a1.24 1.24 0 0 1-.372-.884c0-.332.134-.65.373-.884.238-.235.562-.366.9-.366s.66.131.9.366a1.239 1.239 0 0 1 0 1.768 1.29 1.29 0 0 1-.9.366m11.455 0c.338 0 .661-.132.9-.366a1.24 1.24 0 0 0 .373-.884c0-.332-.134-.65-.373-.884a1.29 1.29 0 0 0-.9-.366c-.337 0-.661.131-.9.366a1.24 1.24 0 0 0-.373.884c0 .331.135.65.373.884.239.234.563.366.9.366m-3.692 6.938c.338 0 .662-.132.9-.366.239-.235.373-.553.373-.884 0-.332-.134-.65-.373-.884a1.28 1.28 0 0 0-.9-.366c-.337 0-.661.132-.9.366a1.24 1.24 0 0 0-.373.884c0 .331.134.65.373.884s.563.366.9.366m-5.345-1.25c0-.332.134-.65.373-.884.238-.234.562-.366.9-.366s.66.132.9.366a1.239 1.239 0 0 1 0 1.768 1.28 1.28 0 0 1-.9.366c-.338 0-.662-.132-.9-.366a1.24 1.24 0 0 1-.373-.884" clip-rule="evenodd"/><g><g><mask id="d" width="29" height="27" x="0" y="0" maskUnits="userSpaceOnUse" style="mask-type:alpha"><path fill="url(#c)" fill-rule="evenodd" d="M4.466.672a1.03 1.03 0 0 0-.981.057c-.145.09-.265.215-.348.363a1 1 0 0 0-.127.482v6.04c0 .319-.163.7-.489 1.095C1.534 9.895.143 12.299.143 16.34c0 3.684 1.761 6.3 4.44 7.95 2.618 1.614 6.074 2.284 9.56 2.284 3.482 0 6.94-.67 9.563-2.286 2.675-1.648 4.437-4.264 4.437-7.948 0-4.042-1.391-6.446-2.379-7.632-.325-.394-.488-.776-.488-1.096V1.574a1 1 0 0 0-.127-.482A1 1 0 0 0 24.8.729a1.03 1.03 0 0 0-.981-.057l-6.093 2.85-.061-.012a36 36 0 0 0-1-.2c-.764-.14-1.772-.296-2.521-.296-.75 0-1.758.156-2.521.296-.395.074-.745.146-.998.2l-.061.012L4.464.674zm15.66 16.84c0 2.689-2.68 4.313-5.983 4.313s-5.983-1.5-5.983-4.312 2.68-4.312 5.983-4.312 5.983 1.624 5.983 4.312m-11.71-5.437c-.337 0-.66-.132-.9-.366a1.24 1.24 0 0 1-.372-.884c0-.332.134-.65.373-.884.238-.235.562-.366.9-.366s.66.131.9.366a1.239 1.239 0 0 1 0 1.768 1.29 1.29 0 0 1-.9.366m11.455 0c.338 0 .661-.132.9-.366a1.24 1.24 0 0 0 .373-.884c0-.332-.134-.65-.373-.884a1.29 1.29 0 0 0-.9-.366c-.337 0-.661.131-.9.366a1.24 1.24 0 0 0-.373.884c0 .331.135.65.373.884.239.234.563.366.9.366m-3.692 6.938c.338 0 .662-.132.9-.366.239-.235.373-.553.373-.884 0-.332-.134-.65-.373-.884a1.28 1.28 0 0 0-.9-.366c-.337 0-.661.132-.9.366a1.24 1.24 0 0 0-.373.884c0 .331.134.65.373.884s.563.366.9.366m-5.345-1.25c0-.332.134-.65.373-.884.238-.234.562-.366.9-.366s.66.132.9.366a1.239 1.239 0 0 1 0 1.768 1.28 1.28 0 0 1-.9.366c-.338 0-.662-.132-.9-.366a1.24 1.24 0 0 1-.373-.884" clip-rule="evenodd"/></mask><g mask="url(#d)"><path fill="url(#e)" d="M7 20.323c-2.8-1.297-5.833-1.08-7-.81V25a1 1 0 0 0 1 1h26a1 1 0 0 0 1-1v-5.488c0-.27-1.167-1.135-5.833-2.432C16.333 16.269 10.5 21.945 7 20.323"/></g></g></g><g filter="url(#f)"><path fill="url(#g)" fill-rule="evenodd" d="M20.126 17.513c0 2.688-2.68 4.312-5.983 4.312s-5.983-1.5-5.983-4.312 2.68-4.312 5.983-4.312 5.983 1.624 5.983 4.312m-11.71-5.438c-.337 0-.66-.132-.9-.366a1.24 1.24 0 0 1-.372-.884c0-.332.134-.65.373-.884.238-.235.562-.366.9-.366s.66.131.9.366a1.24 1.24 0 0 1 0 1.768 1.29 1.29 0 0 1-.9.366m11.455 0c.338 0 .661-.132.9-.366.239-.235.373-.553.373-.884 0-.332-.134-.65-.373-.884a1.29 1.29 0 0 0-.9-.366c-.337 0-.661.131-.9.366a1.24 1.24 0 0 0-.373.884c0 .331.134.65.373.884s.563.366.9.366m-3.692 6.938c.338 0 .661-.132.9-.366s.373-.552.373-.884-.134-.65-.373-.884a1.28 1.28 0 0 0-.9-.366c-.337 0-.661.132-.9.366a1.24 1.24 0 0 0-.373.884c0 .331.134.65.373.884s.563.366.9.366m-5.345-1.25c0-.332.134-.65.373-.884.238-.234.562-.366.9-.366s.66.132.9.366a1.24 1.24 0 0 1 0 1.768 1.29 1.29 0 0 1-.9.366c-.338 0-.662-.132-.9-.366a1.24 1.24 0 0 1-.373-.884" clip-rule="evenodd"/></g></g></g></g></svg>