<svg xmlns="http://www.w3.org/2000/svg" fill="none" viewBox="0 0 28 28"><defs><linearGradient id="b" x1="13.341" x2="13.341" y1="26.667" y2="1.333" gradientUnits="userSpaceOnUse"><stop stop-color="#78CFFF"/><stop offset="1" stop-color="#297DFF"/></linearGradient><linearGradient id="c" x1="21.7" x2="21.7" y1="21.199" y2="28" gradientUnits="userSpaceOnUse"><stop stop-color="#7BC6FF"/><stop offset="1" stop-color="#7ADAFF"/></linearGradient><linearGradient id="d" x1="8.4" x2="8.4" y1="26.303" y2="19.293" gradientUnits="userSpaceOnUse"><stop stop-color="#7AD9FF"/><stop offset="1" stop-color="#7BC5FF"/></linearGradient><linearGradient id="f" x1="8.1" x2="8.1" y1="17.666" y2="23.333" gradientUnits="userSpaceOnUse"><stop stop-color="#fff"/><stop offset="1" stop-color="#E4F7FF"/></linearGradient><linearGradient id="i" x1="21.5" x2="21.5" y1="18" y2="25" gradientUnits="userSpaceOnUse"><stop stop-color="#fff"/><stop offset="1" stop-color="#D7F2FF"/></linearGradient><filter id="a" width="28" height="29" x="0" y="0" color-interpolation-filters="sRGB" filterUnits="userSpaceOnUse"><feFlood flood-opacity="0" result="BackgroundImageFix"/><feBlend in="SourceGraphic" in2="BackgroundImageFix" result="shape"/><feColorMatrix in="SourceAlpha" result="hardAlpha" values="0 0 0 0 0 0 0 0 0 0 0 0 0 0 0 0 0 0 127 0"/><feOffset dy="1"/><feGaussianBlur stdDeviation=".5"/><feComposite in2="hardAlpha" k2="-1" k3="1" operator="arithmetic"/><feColorMatrix values="0 0 0 0 0.0370312 0 0 0 0 0.422243 0 0 0 0 0.9875 0 0 0 0.8 0"/><feBlend in2="shape" result="effect1_innerShadow_296_1737"/></filter><filter id="e" width="10" height="6.667" x="3.1" y="17.666" color-interpolation-filters="sRGB" filterUnits="userSpaceOnUse"><feFlood flood-opacity="0" result="BackgroundImageFix"/><feColorMatrix in="SourceAlpha" result="hardAlpha" values="0 0 0 0 0 0 0 0 0 0 0 0 0 0 0 0 0 0 127 0"/><feOffset dy=".5"/><feGaussianBlur stdDeviation=".25"/><feComposite in2="hardAlpha" operator="out"/><feColorMatrix values="0 0 0 0 0.0784314 0 0 0 0 0.517647 0 0 0 0 1 0 0 0 0.8 0"/><feBlend in2="BackgroundImageFix" result="effect1_dropShadow_296_1737"/><feBlend in="SourceGraphic" in2="effect1_dropShadow_296_1737" result="shape"/></filter><filter id="g" width="9.839" height="9.357" x="7.58" y="7.322" color-interpolation-filters="sRGB" filterUnits="userSpaceOnUse"><feFlood flood-opacity="0" result="BackgroundImageFix"/><feColorMatrix in="SourceAlpha" result="hardAlpha" values="0 0 0 0 0 0 0 0 0 0 0 0 0 0 0 0 0 0 127 0"/><feOffset dy=".5"/><feGaussianBlur stdDeviation=".25"/><feComposite in2="hardAlpha" operator="out"/><feColorMatrix values="0 0 0 0 0.0784314 0 0 0 0 0.517647 0 0 0 0 1 0 0 0 0.8 0"/><feBlend in2="BackgroundImageFix" result="effect1_dropShadow_296_1737"/><feBlend in="SourceGraphic" in2="effect1_dropShadow_296_1737" result="shape"/></filter><filter id="h" width="8" height="8" x="17.5" y="18" color-interpolation-filters="sRGB" filterUnits="userSpaceOnUse"><feFlood flood-opacity="0" result="BackgroundImageFix"/><feColorMatrix in="SourceAlpha" result="hardAlpha" values="0 0 0 0 0 0 0 0 0 0 0 0 0 0 0 0 0 0 127 0"/><feOffset dy=".5"/><feGaussianBlur stdDeviation=".25"/><feComposite in2="hardAlpha" operator="out"/><feColorMatrix values="0 0 0 0 0.313726 0 0 0 0 0.733333 0 0 0 0 0.984314 0 0 0 1 0"/><feBlend in2="BackgroundImageFix" result="effect1_dropShadow_296_1737"/><feBlend in="SourceGraphic" in2="effect1_dropShadow_296_1737" result="shape"/></filter></defs><g><g><g><g filter="url(#a)"><path fill="url(#b)" fill-rule="evenodd" d="M7 1a1 1 0 0 1 1-1h9.2a1 1 0 0 1 1 1v.667a1 1 0 0 1-1 1H8a1 1 0 0 1-1-1zm-1.4.333H2a2 2 0 0 0-2 2v21.334a2 2 0 0 0 2 2h13.76A7.1 7.1 0 0 1 14 22c0-4.05 3.447-7.333 7.7-7.333 1.26 0 2.45.288 3.5.8V3.332a2 2 0 0 0-2-2h-3.6V3a1 1 0 0 1-1 1h-12a1 1 0 0 1-1-1zM21.7 28c3.479 0 6.3-2.686 6.3-6s-2.821-6-6.3-6c-3.48 0-6.3 2.686-6.3 6s2.82 6 6.3 6" clip-rule="evenodd"/></g><path fill="url(#c)" d="M20.3 23.333c-2.24.534-4.2-.666-4.9-1.333a6 6 0 0 0 6 6h.423A6.176 6.176 0 0 0 28 21.824a.55.55 0 0 0-.488-.55c-4.416-.472-4.509 1.416-7.212 2.06"/><path fill="url(#d)" fill-rule="evenodd" d="M14.003 21.79c-2.763-.723-3.83-1.225-4.794-1.68-.612-.288-1.184-.556-2.121-.85-3.288-1.031-4.67.567-5.736 1.802-.467.54-.873 1.01-1.352 1.16v2.445a2 2 0 0 0 2 2h13.76a7.1 7.1 0 0 1-1.757-4.877" clip-rule="evenodd"/><g filter="url(#e)"><path fill="url(#f)" fill-rule="evenodd" d="M4.6 17.667a1 1 0 1 0 0 2h7a1 1 0 1 0 0-2zm0 3.666a1 1 0 1 0 0 2h5a1 1 0 0 0 0-2z" clip-rule="evenodd"/></g><g filter="url(#g)"><path fill="#fff" fill-rule="evenodd" d="M9.445 7.353a.32.32 0 0 0-.46.29v1.941c0 .103-.051.225-.154.352-.312.381-.75 1.154-.75 2.453 0 1.184.555 2.025 1.4 2.556.828.518 1.918.734 3.019.734 1.1 0 2.19-.216 3.019-.735.844-.53 1.4-1.37 1.4-2.555 0-1.3-.439-2.072-.75-2.453-.103-.127-.154-.25-.154-.352V7.643a.322.322 0 0 0-.46-.29l-1.924.916-.019-.004a11 11 0 0 0-.316-.064 5 5 0 0 0-.795-.095c-.237 0-.555.05-.796.095a13 13 0 0 0-.315.064l-.02.004zm4.944 5.413c0 .864-.846 1.386-1.889 1.386s-1.889-.482-1.889-1.386.846-1.386 1.889-1.386 1.889.522 1.889 1.386m-3.697-1.748a.402.402 0 1 1 0-.804.402.402 0 0 1 0 .804m3.616 0a.402.402 0 1 0 0-.804.402.402 0 0 0 0 .804m-1.165 2.23a.401.401 0 1 0 0-.803.401.401 0 0 0 0 .803m-1.688-.402a.402.402 0 1 1 .805 0 .402.402 0 0 1-.805 0" clip-rule="evenodd"/></g><g filter="url(#h)"><path fill="url(#i)" fill-rule="evenodd" d="M22.58 20.978c.408-.305.67-.78.67-1.311 0-.92-.783-1.667-1.75-1.667-.966 0-1.75.746-1.75 1.667 0 .532.262 1.005.67 1.31l-.398 1.215a.5.5 0 0 1-.475.345H19a1 1 0 0 0-1 1v.963a.5.5 0 0 0 .5.5h6a.5.5 0 0 0 .5-.5v-.963a1 1 0 0 0-1-1h-.547a.5.5 0 0 1-.475-.344z" clip-rule="evenodd"/></g></g></g></g></svg>