<svg xmlns="http://www.w3.org/2000/svg" fill="none" viewBox="0 0 26 28"><defs><linearGradient id="b" x1="13.765" x2="13.765" y1="28" y2="0" gradientUnits="userSpaceOnUse"><stop stop-color="#79D0FF"/><stop offset="1" stop-color="#297DFF"/></linearGradient><linearGradient id="c" x1="13" x2="13" y1="18.667" y2="28" gradientUnits="userSpaceOnUse"><stop stop-color="#7CC1FF"/><stop offset="1" stop-color="#79D9FF"/></linearGradient><linearGradient id="e" x1="13.148" x2="13.148" y1="5.798" y2="13.655" gradientUnits="userSpaceOnUse"><stop stop-color="#fff"/><stop offset="1" stop-color="#D7F2FF"/></linearGradient><filter id="a" width="26" height="28.5" x="0" y="0" color-interpolation-filters="sRGB" filterUnits="userSpaceOnUse"><feFlood flood-opacity="0" result="BackgroundImageFix"/><feBlend in="SourceGraphic" in2="BackgroundImageFix" result="shape"/><feColorMatrix in="SourceAlpha" result="hardAlpha" values="0 0 0 0 0 0 0 0 0 0 0 0 0 0 0 0 0 0 127 0"/><feOffset dy=".5"/><feGaussianBlur stdDeviation=".25"/><feComposite in2="hardAlpha" k2="-1" k3="1" operator="arithmetic"/><feColorMatrix values="0 0 0 0 0.108333 0 0 0 0 0.471119 0 0 0 0 1 0 0 0 1 0"/><feBlend in2="shape" result="effect1_innerShadow_282_3796"/></filter><filter id="d" width="12" height="9.857" x="7.147" y="5.798" color-interpolation-filters="sRGB" filterUnits="userSpaceOnUse"><feFlood flood-opacity="0" result="BackgroundImageFix"/><feColorMatrix in="SourceAlpha" result="hardAlpha" values="0 0 0 0 0 0 0 0 0 0 0 0 0 0 0 0 0 0 127 0"/><feOffset dy="1"/><feGaussianBlur stdDeviation=".5"/><feComposite in2="hardAlpha" operator="out"/><feColorMatrix values="0 0 0 0 0 0 0 0 0 0.546167 0 0 0 0 0.941667 0 0 0 0.6 0"/><feBlend in2="BackgroundImageFix" result="effect1_dropShadow_282_3796"/><feBlend in="SourceGraphic" in2="effect1_dropShadow_282_3796" result="shape"/></filter><filter id="f" width="19" height="5.2" x="3.754" y="17.6" color-interpolation-filters="sRGB" filterUnits="userSpaceOnUse"><feFlood flood-opacity="0" result="BackgroundImageFix"/><feColorMatrix in="SourceAlpha" result="hardAlpha" values="0 0 0 0 0 0 0 0 0 0 0 0 0 0 0 0 0 0 127 0"/><feOffset dy=".5"/><feGaussianBlur stdDeviation=".25"/><feComposite in2="hardAlpha" operator="out"/><feColorMatrix values="0 0 0 0 0.0791667 0 0 0 0 0.518333 0 0 0 0 1 0 0 0 0.5 0"/><feBlend in2="BackgroundImageFix" result="effect1_dropShadow_282_3796"/><feBlend in="SourceGraphic" in2="effect1_dropShadow_282_3796" result="shape"/></filter></defs><g><g><g><g filter="url(#a)"><path fill="url(#b)" d="M0 2a2 2 0 0 1 2-2h22a2 2 0 0 1 2 2v24a2 2 0 0 1-2 2H2a2 2 0 0 1-2-2z"/></g><path fill="url(#c)" d="M7.313 20.626c-1.95-1.18-5.688-.492-7.313 0V26a2 2 0 0 0 2 2h22a2 2 0 0 0 2-2v-6.849c-1.625-.737-7.312-.737-9.75.738-2.437 1.474-6.5 2.212-8.937.737"/><g><g><g filter="url(#d)"><path fill="url(#e)" d="M17.9 8.053c-.292-.273-.804-.615-1.462-.683.073-.137.073-.342.146-.547V6.14c0-.137-.146-.273-.365-.342h-.073a.41.41 0 0 0-.366.205c-.292.274-.658.615-.877.684a6.7 6.7 0 0 0-1.682-.41c-.659 0-1.244.136-1.682.41-.22-.069-.585-.41-.805-.684-.22-.136-.365-.205-.512-.205h-.073c-.22 0-.365.137-.365.342 0 .068-.147.683.073 1.298-.658.068-1.243.41-1.463.683-.22.137-.292.41-.22.547.147.41.732.683 1.463.683.293 0 .585-.068.878-.137l.366 2.46c0 .068-.074.068-.074.137-.073.205-.219.41-.219.683 0 .683.658 1.162 1.536 1.162h2.047c.878 0 1.536-.479 1.536-1.162 0-.273-.146-.547-.22-.683 0-.069-.073-.137-.073-.137l.366-2.46c.293.069.585.137.877.137.732 0 1.317-.273 1.463-.615.073-.205 0-.478-.22-.683"/></g><circle cx="11.388" cy="9.013" r=".357" fill="#489DFF"/><circle cx="14.96" cy="9.013" r=".357" fill="#489DFF"/><circle cx="12.103" cy="12.584" r=".357" fill="#489DFF"/><circle cx="14.246" cy="12.584" r=".357" fill="#489DFF"/></g><g filter="url(#f)"><path fill="#fff" fill-rule="evenodd" d="M4.954 17.6a.7.7 0 0 0 0 1.4h16.6a.7.7 0 1 0 0-1.4zm0 2.8a.7.7 0 0 0 0 1.4h16.6a.7.7 0 1 0 0-1.4z" clip-rule="evenodd"/></g></g></g></g></g></svg>