<svg xmlns="http://www.w3.org/2000/svg" fill="none" viewBox="0 0 28 28"><defs><linearGradient id="b" x1="14.823" x2="14.823" y1="28" y2="0" gradientUnits="userSpaceOnUse"><stop stop-color="#79D0FF"/><stop offset="1" stop-color="#297DFF"/></linearGradient><linearGradient id="c" x1="14" x2="14" y1="19.6" y2="28" gradientUnits="userSpaceOnUse"><stop stop-color="#7CC1FF"/><stop offset="1" stop-color="#79D9FF"/></linearGradient><linearGradient id="e" x1="13.877" x2="13.877" y1="3" y2="25.4" gradientUnits="userSpaceOnUse"><stop stop-color="#fff"/><stop offset="1" stop-color="#D7F2FF"/></linearGradient><linearGradient id="g" x1="13.877" x2="13.877" y1="3" y2="25.4" gradientUnits="userSpaceOnUse"><stop stop-color="#fff"/><stop offset="1" stop-color="#D7F2FF"/></linearGradient><filter id="a" width="28" height="30" x="0" y="0" color-interpolation-filters="sRGB" filterUnits="userSpaceOnUse"><feColorMatrix in="SourceAlpha" result="hardAlpha" values="0 0 0 0 0 0 0 0 0 0 0 0 0 0 0 0 0 0 127 0"/><feGaussianBlur stdDeviation="1"/><feColorMatrix values="0 0 0 0 0.0208333 0 0 0 0 0.41922 0 0 0 0 1 0 0 0 1 0"/></filter><filter id="d" width="19.642" height="10.817" x="3.995" y="3" color-interpolation-filters="sRGB" filterUnits="userSpaceOnUse"><feColorMatrix in="SourceAlpha" result="hardAlpha" values="0 0 0 0 0 0 0 0 0 0 0 0 0 0 0 0 0 0 127 0"/><feGaussianBlur stdDeviation=".25"/><feColorMatrix values="0 0 0 0 0.203922 0 0 0 0 0.533333 0 0 0 0 1 0 0 0 1 0"/></filter><filter id="f" width="20.755" height="23.4" x="3.5" y="3" color-interpolation-filters="sRGB" filterUnits="userSpaceOnUse"><feColorMatrix in="SourceAlpha" result="hardAlpha" values="0 0 0 0 0 0 0 0 0 0 0 0 0 0 0 0 0 0 127 0"/><feGaussianBlur stdDeviation=".25"/><feColorMatrix values="0 0 0 0 0.313726 0 0 0 0 0.733333 0 0 0 0 0.984314 0 0 0 1 0"/></filter></defs><g filter="url(#a)"><path fill="url(#b)" d="M0 4a4 4 0 0 1 4-4h20a4 4 0 0 1 4 4v20a4 4 0 0 1-4 4H4a4 4 0 0 1-4-4z"/></g><path fill="url(#c)" d="M7.875 21.363c-2.1-1.062-6.125-.442-7.875 0V24a4 4 0 0 0 4 4h20a4 4 0 0 0 4-4v-3.964c-1.75-.664-7.875-.664-10.5.664-2.625 1.327-7 1.99-9.625.663"/><g filter="url(#d)"><path fill="url(#e)" d="M14.124 12.718c-.284.127-.21.141-.543-.014L4.606 8.23a.56.56 0 0 1-.013-.651l8.741-4.473c.198-.113.395-.17.766 0l8.913 4.388c.16.184.16.481.025.651z"/></g><g filter="url(#f)"><path fill="url(#g)" d="M14.125 12.718c-.284.127-.21.141-.543-.014L4.606 8.23a.56.56 0 0 1-.012-.651l8.74-4.473c.198-.113.396-.17.766 0l8.914 4.388c.16.184.16.481.025.651zm.272 12.187c0 .268.185.495.407.495l8.543-5.35c.334-.255.408-.694.408-1.345V9.69a.53.53 0 0 0-.124-.354.36.36 0 0 0-.296-.142l-8.531 4.303c-.42.198-.42.453-.42.722zm-1.445-11.409L4.41 9.193a.43.43 0 0 0-.296.142.7.7 0 0 0-.111.354v10.375c0 .113-.05.269.407.495l8.543 4.841c.222 0 .408-.226.408-.495V14.218c0-.269 0-.524-.408-.722m-2.79 2.562c-1.086-.58-2.185-1.146-3.272-1.727-.185-.099-.271-.141-.271-.31v-1.147c0-.156.074-.34.21-.284l3.37 1.77c.309.184.222.198.235.877v.566c0 .128-.087.34-.272.255"/></g></svg>