<svg xmlns="http://www.w3.org/2000/svg" fill="none" viewBox="0 0 23 28"><defs><linearGradient id="b" x1="11.5" x2="11.5" y1="0" y2="22.672" gradientUnits="userSpaceOnUse"><stop stop-color="#1EB2FB"/><stop offset="1" stop-color="#67ECFF"/></linearGradient><linearGradient id="c" x1="10.175" x2="10.175" y1="12.769" y2="23.8" gradientUnits="userSpaceOnUse"><stop stop-color="#77DBFF"/><stop offset="1" stop-color="#6FEDFF"/></linearGradient><linearGradient id="d" x1="11.579" x2="11.579" y1="21.425" y2="28" gradientUnits="userSpaceOnUse"><stop stop-color="#1EB2FB"/><stop offset="1" stop-color="#67ECFF"/></linearGradient><linearGradient id="f" x1="11.5" x2="11.5" y1="2.8" y2="16.1" gradientUnits="userSpaceOnUse"><stop stop-color="#fff"/><stop offset="1" stop-color="#D1F9FF"/></linearGradient><filter id="a" width="23" height="30" x="0" y="0" color-interpolation-filters="sRGB" filterUnits="userSpaceOnUse"><feColorMatrix in="SourceAlpha" result="hardAlpha" values="0 0 0 0 0 0 0 0 0 0 0 0 0 0 0 0 0 0 127 0"/><feGaussianBlur stdDeviation="1"/><feColorMatrix values="0 0 0 0 0 0 0 0 0 0.546167 0 0 0 0 0.941667 0 0 0 0.6 0"/></filter><filter id="e" width="12.04" height="13.583" x="4.79" y="3.514" color-interpolation-filters="sRGB" filterUnits="userSpaceOnUse"><feColorMatrix in="SourceAlpha" result="hardAlpha" values="0 0 0 0 0 0 0 0 0 0 0 0 0 0 0 0 0 0 127 0"/><feGaussianBlur stdDeviation=".25"/><feColorMatrix values="0 0 0 0 0.0791667 0 0 0 0 0.518333 0 0 0 0 1 0 0 0 0.4 0"/></filter></defs><g filter="url(#a)"><path fill="url(#b)" d="M11.5 0C5.175 0 0 5.101 0 11.336s5.175 11.336 11.5 11.336S23 17.571 23 11.336 17.825 0 11.5 0"/><path fill="url(#c)" fill-rule="evenodd" d="M22.7 13.903c-1.534-1.649-3.233-1.172-4.012-.603-1.198 1.633-5.032 4.34-10.782 2.1-2.8-1.091-5.26-.898-7.213-.197 1.613 4.346 5.858 7.47 10.807 7.47 5.43 0 10.013-3.76 11.2-8.77" clip-rule="evenodd"/><path fill="url(#d)" d="M20.125 21.425c-2.07 2.38-5.175 3.854-8.625 3.854-3.335 0-6.44-1.473-8.51-3.74l-2.07 4.76C.575 27.207 1.265 28 2.645 28H20.47c1.38 0 2.185-.794 1.725-1.7z"/></g><g filter="url(#e)"><path fill="url(#f)" d="M5.29 4.874c0-.793.575-1.36 1.38-1.36.805.114 1.38.68 1.38 1.36 0 .794-.575 1.36-1.38 1.36-.69 0-1.38-.566-1.38-1.36m6.21 11.223c-2.645 0-4.83-2.154-4.83-4.761s2.185-4.761 4.83-4.761 4.83 2.154 4.83 4.761-2.185 4.761-4.83 4.761"/></g></svg>