<svg xmlns="http://www.w3.org/2000/svg" fill="none" viewBox="0 0 28 25"><defs><linearGradient id="b" x1="12.735" x2="12.735" y1="0" y2="25" gradientUnits="userSpaceOnUse"><stop stop-color="#FC8731"/><stop offset="1" stop-color="#FFCC63"/></linearGradient><linearGradient id="c" x1="12.6" x2="12.6" y1="17.293" y2="25" gradientUnits="userSpaceOnUse"><stop stop-color="#FFC65B"/><stop offset="1" stop-color="#FFD363"/></linearGradient><linearGradient id="e" x1="12.6" x2="12.6" y1="12.5" y2="19.444" gradientUnits="userSpaceOnUse"><stop stop-color="#fff"/><stop offset="1" stop-color="#FFF4DB"/></linearGradient><linearGradient id="f" x1="25.9" x2="25.9" y1="20.139" y2="25" gradientUnits="userSpaceOnUse"><stop stop-color="#FFC75B"/><stop offset="1" stop-color="#FFD162"/></linearGradient><filter id="a" width="28" height="26" x="0" y="0" color-interpolation-filters="sRGB" filterUnits="userSpaceOnUse"><feColorMatrix in="SourceAlpha" result="hardAlpha" values="0 0 0 0 0 0 0 0 0 0 0 0 0 0 0 0 0 0 127 0"/><feGaussianBlur stdDeviation=".5"/><feColorMatrix values="0 0 0 0 0.995833 0 0 0 0 0.430158 0 0 0 0 0.0165972 0 0 0 0.8 0"/></filter><filter id="d" width="12.2" height="7.944" x="6.5" y="12.5" color-interpolation-filters="sRGB" filterUnits="userSpaceOnUse"><feColorMatrix in="SourceAlpha" result="hardAlpha" values="0 0 0 0 0 0 0 0 0 0 0 0 0 0 0 0 0 0 127 0"/><feGaussianBlur stdDeviation=".25"/><feColorMatrix values="0 0 0 0 0.996078 0 0 0 0 0.431373 0 0 0 0 0.0156863 0 0 0 1 0"/></filter></defs><g filter="url(#a)"><path fill="url(#b)" fill-rule="evenodd" d="m4.516 4.596.18.183c.543.368 1.265.736 1.988.92h11.922c.904-.184 1.445-.552 1.987-.92l.181-.183C21.858 3.676 22.4 2.206 22.58 0c1.265.551 2.89 1.287 2.89 4.412 0 1.103-.18 1.838-.541 2.757-.542 1.287-1.626 2.39-2.53 3.125-.36.368-.857.554-1.4.554V23.61c0 .735-.676 1.389-1.4 1.389H5.6c-.723 0-1.4-.654-1.4-1.389v-12.5c-.232 0-.482-.185-.728-.366-.136-.101-.272-.201-.401-.267C1.987 9.743 1.084 8.64.541 7.353A7.5 7.5 0 0 1 0 4.596C0 1.47 1.626.736 2.89.184q.27 3.032 1.626 4.412M24.8 12.933a1 1 0 0 0-1 1V24a1 1 0 0 0 1 1H27a1 1 0 0 0 1-1V13.933a1 1 0 0 0-1-1z" clip-rule="evenodd"/></g><path fill="url(#c)" d="M8.4 20.139c-1.68-1.111-3.5-.926-4.2-.695V24a1 1 0 0 0 1 1H20a1 1 0 0 0 1-1v-4.556c0-.231-.7-.972-3.5-2.083-3.5-.694-7 4.167-9.1 2.778"/><g filter="url(#d)"><path fill="url(#e)" fill-rule="evenodd" d="M8.389 12.5a1.389 1.389 0 0 0 0 2.778h8.422a1.389 1.389 0 1 0 0-2.778zm0 4.167a1.389 1.389 0 0 0 0 2.777h8.422a1.389 1.389 0 1 0 0-2.777z" clip-rule="evenodd"/></g><path fill="url(#f)" d="M28 21.528c0-.475-1.7-.983-2.924-1.265a5.2 5.2 0 0 0-1.166-.124h-.11v3.86a1 1 0 0 0 1 1H27a1 1 0 0 0 1-1z"/></svg>