<svg xmlns="http://www.w3.org/2000/svg" fill="none" viewBox="0 0 28 24"><defs><linearGradient id="b" x1="14" x2="14" y1="0" y2="22.592" gradientUnits="userSpaceOnUse"><stop stop-color="#00BC7A"/><stop offset="1" stop-color="#64EDC4"/></linearGradient><linearGradient id="c" x1="13.993" x2="13.993" y1="19.767" y2="22.589" gradientUnits="userSpaceOnUse"><stop stop-color="#3DF3B8"/><stop offset="1" stop-color="#8CFFCE"/></linearGradient><linearGradient id="e" x1="20.989" x2="20.989" y1="11.3" y2="22.589" gradientUnits="userSpaceOnUse"><stop stop-color="#fff"/><stop offset="1" stop-color="#CEFFF1"/></linearGradient><filter id="a" width="28" height="26" x="0" y="0" color-interpolation-filters="sRGB" filterUnits="userSpaceOnUse"><feColorMatrix in="SourceAlpha" result="hardAlpha" values="0 0 0 0 0 0 0 0 0 0 0 0 0 0 0 0 0 0 127 0"/><feGaussianBlur stdDeviation="1"/><feColorMatrix values="0 0 0 0 0 0 0 0 0 0.737255 0 0 0 0 0.478431 0 0 0 1 0"/></filter><filter id="d" width="12.194" height="12.289" x="14.892" y="11.3" color-interpolation-filters="sRGB" filterUnits="userSpaceOnUse"><feColorMatrix in="SourceAlpha" result="hardAlpha" values="0 0 0 0 0 0 0 0 0 0 0 0 0 0 0 0 0 0 127 0"/><feGaussianBlur stdDeviation=".25"/><feColorMatrix values="0 0 0 0 0 0 0 0 0 0.623529 0 0 0 0 0.403922 0 0 0 0.5 0"/></filter><filter id="f" width="3.799" height="3.822" x="19.09" y="15.533" color-interpolation-filters="sRGB" filterUnits="userSpaceOnUse"><feColorMatrix in="SourceAlpha" result="hardAlpha" values="0 0 0 0 0 0 0 0 0 0 0 0 0 0 0 0 0 0 127 0"/><feGaussianBlur stdDeviation=".25"/><feColorMatrix values="0 0 0 0 0.00784314 0 0 0 0 0.741176 0 0 0 0 0.486275 0 0 0 0.4 0"/></filter></defs><g filter="url(#a)"><path fill="url(#b)" fill-rule="evenodd" d="M27.002.506 15.468 11.05a2.55 2.55 0 0 1-3.2-.014L.734.746C1.233.252 1.966 0 2.7 0h22.835c.484 0 1.218.253 1.467.506M28 10.544a5.3 5.3 0 0 0-1.966-1.251 9.9 9.9 0 0 0-3.933-.745l5.65-5.272H28zM0 20.076v-16.8l10.8 9.799c.75.492 1.483.745 2.217.998 0 .117-.06.239-.122.362-.063.126-.128.255-.128.383a10.6 10.6 0 0 0-.733 4.007c0 1.293.249 2.572.733 3.767H2.7c-.734 0-2.7-.253-2.7-2.516m13.993-3.132c0-3.85 3.177-7.055 6.996-7.055s6.996 3.204 6.996 7.055S24.808 24 20.99 24s-6.996-3.205-6.996-7.056" clip-rule="evenodd"/></g><path fill="url(#c)" fill-rule="evenodd" d="M12.152 20.363c-1.3-.007-2.72-.325-4.281-1.049-3.764-1.744-5.509-.992-7-.35-.295.128-.581.252-.871.35v.762c0 2.124 1.732 2.478 2.552 2.513h10.214a10 10 0 0 1-.614-2.226" clip-rule="evenodd"/><g filter="url(#d)"><path fill="url(#e)" d="M26.586 18.384a6.1 6.1 0 0 1-.63 1.538c-.77-.339-1.679 0-2.015.79a1.63 1.63 0 0 0 0 1.256c-.475.268-.993.48-1.525.62-.308-.79-1.19-1.199-1.973-.888-.406.155-.727.48-.881.889a6 6 0 0 1-1.526-.635c.35-.776 0-1.694-.77-2.032a1.48 1.48 0 0 0-1.244 0 6.1 6.1 0 0 1-.63-1.538 1.537 1.537 0 0 0 .881-1.99 1.53 1.53 0 0 0-.881-.89c.14-.535.35-1.057.63-1.537.77.353 1.679.014 2.029-.762.181-.395.181-.861 0-1.256.461-.296.979-.508 1.51-.65a1.522 1.522 0 0 0 2.855 0c.532.142 1.05.354 1.525.636-.35.776 0 1.693.77 2.046.392.183.854.183 1.245 0 .28.466.49.988.63 1.524-.798.296-1.19 1.2-.896 1.99.154.409.476.733.896.889"/></g><g filter="url(#f)"><path fill="#49DFAF" d="M19.59 16.944c0 .773.619 1.412 1.4 1.412s1.398-.64 1.398-1.412c0-.787-.633-1.41-1.399-1.41s-1.4.623-1.4 1.41"/></g></svg>