<svg xmlns="http://www.w3.org/2000/svg" fill="none" class="design-iconfont" viewBox="0 0 30 30"><defs><linearGradient id="c" x1="15" x2="15" y1="9.205" y2="29.852" gradientUnits="userSpaceOnUse"><stop stop-color="#F04B42"/><stop offset="1" stop-color="#FF9E98"/></linearGradient><linearGradient id="a" x1="15" x2="15" y1="9.205" y2="29.852" gradientUnits="userSpaceOnUse"><stop stop-color="#F04B42"/><stop offset="1" stop-color="#FF9E98"/></linearGradient><linearGradient id="e" x1="13.633" x2="13.633" y1="23.835" y2="31.209" gradientUnits="userSpaceOnUse"><stop stop-color="#FFA29C" stop-opacity=".5"/><stop offset="1" stop-color="#FFBDA8"/></linearGradient><filter id="b" width="27.847" height="21.795" x="1.153" y="9.205" color-interpolation-filters="sRGB" filterUnits="userSpaceOnUse"><feFlood flood-opacity="0" result="BackgroundImageFix"/><feBlend in="SourceGraphic" in2="BackgroundImageFix" result="shape"/><feColorMatrix in="SourceAlpha" result="hardAlpha" values="0 0 0 0 0 0 0 0 0 0 0 0 0 0 0 0 0 0 127 0"/><feOffset dy="1"/><feGaussianBlur stdDeviation=".5"/><feComposite in2="hardAlpha" k2="-1" k3="1" operator="arithmetic"/><feColorMatrix values="0 0 0 0 0.929412 0 0 0 0 0.172549 0 0 0 0 0.133333 0 0 0 0.8 0"/><feBlend in2="shape" result="effect1_innerShadow_277_1433"/></filter><filter id="f" width="4.321" height="12.534" x="12.865" y="15.408" color-interpolation-filters="sRGB" filterUnits="userSpaceOnUse"><feFlood flood-opacity="0" result="BackgroundImageFix"/><feColorMatrix in="SourceAlpha" result="hardAlpha" values="0 0 0 0 0 0 0 0 0 0 0 0 0 0 0 0 0 0 127 0"/><feOffset dy="1"/><feGaussianBlur stdDeviation=".5"/><feComposite in2="hardAlpha" operator="out"/><feColorMatrix values="0 0 0 0 0.94902 0 0 0 0 0.333333 0 0 0 0 0.298039 0 0 0 0.6 0"/><feBlend in2="BackgroundImageFix" result="effect1_dropShadow_277_1433"/><feBlend in="SourceGraphic" in2="effect1_dropShadow_277_1433" result="shape"/></filter><mask id="d" width="28" height="21" x="1" y="9" maskUnits="userSpaceOnUse" style="mask-type:alpha"><path fill="url(#a)" fill-rule="evenodd" d="M6.74 17.367c0-4.508 3.542-8.162 7.911-8.162 4.37 0 7.912 3.654 7.912 8.162v10.57h5.356c.512 0 .928.429.928.957 0 .53-.416.958-.928.958H2.08c-.513 0-.928-.429-.928-.957 0-.53.415-.958.928-.958H6.74z" clip-rule="evenodd"/></mask></defs><g filter="url(#b)"><path fill="url(#c)" fill-rule="evenodd" d="M6.74 17.367c0-4.508 3.542-8.162 7.911-8.162 4.37 0 7.912 3.654 7.912 8.162v10.57h5.504c.515 0 .933.462.933 1.031 0 .57-.418 1.032-.933 1.032H2.087c-.516 0-.934-.462-.934-1.032s.418-1.031.933-1.031H6.74z" clip-rule="evenodd"/></g><g mask="url(#d)"><path fill="url(#e)" d="M8.15 23.76c-4.698-1.489-5.482 2.483-7.048 2.98v3.512H28.95V22.27c-1.567-.745-8.864 6.238-11.603 5.586-6.265-1.49-6.516-3.247-9.195-4.096"/></g><path fill="#F04B42" fill-rule="evenodd" d="M14.65 2c.513 0 .929.429.929.958v2.161c0 .529-.416.958-.929.958-.512 0-.928-.429-.928-.958V2.958c0-.53.416-.958.928-.958m8.902 3.342c.393.34.444.944.115 1.35L22.32 8.347a.91.91 0 0 1-1.308.118.98.98 0 0 1-.114-1.349l1.346-1.656a.91.91 0 0 1 1.308-.118m3.982 9.573c.505-.092.842-.589.753-1.11a.93.93 0 0 0-1.075-.777l-2.064.376c-.504.092-.841.588-.752 1.11.089.52.57.868 1.075.776zm-26.52-1.11a.93.93 0 0 1 1.076-.777l2.063.376c.505.092.842.588.753 1.11a.93.93 0 0 1-1.076.776l-2.063-.375c-.505-.092-.842-.589-.753-1.11M7.057 5.46a.91.91 0 0 0-1.307-.118.98.98 0 0 0-.115 1.35l1.347 1.655a.91.91 0 0 0 1.308.118.98.98 0 0 0 .114-1.349z" clip-rule="evenodd"/><g filter="url(#f)"><path fill="#fff" fill-rule="evenodd" d="M15.953 16.365c0-.529-.416-.957-.928-.957-.513 0-.928.428-.928.957v4.789c0 .528.415.957.928.957.512 0 .928-.429.928-.957zm.232 8.38c0 .661-.52 1.197-1.16 1.197s-1.16-.536-1.16-1.197.52-1.197 1.16-1.197 1.16.536 1.16 1.197" clip-rule="evenodd"/></g></svg>