<svg xmlns="http://www.w3.org/2000/svg" fill="none" viewBox="0 0 30 30"><defs><linearGradient id="b" x1="14.177" x2="14.177" y1="24.885" y2="3.285" gradientUnits="userSpaceOnUse"><stop stop-color="#64EDC4"/><stop offset="1" stop-color="#00BC7A"/></linearGradient><linearGradient id="c" x1="14.177" x2="14.177" y1="24.885" y2="3.285" gradientUnits="userSpaceOnUse"><stop stop-color="#64EDC4"/><stop offset="1" stop-color="#00BC7A"/></linearGradient><linearGradient id="e" x1="15" x2="15" y1="23" y2="29" gradientUnits="userSpaceOnUse"><stop stop-color="#55EEBC"/><stop offset="1" stop-color="#75F9C1"/></linearGradient><linearGradient id="g" x1="8.5" x2="8.5" y1="8.432" y2="15.139" gradientUnits="userSpaceOnUse"><stop stop-color="#fff"/><stop offset="1" stop-color="#DEFFF2"/></linearGradient><linearGradient id="h" x1="8.151" x2="8.151" y1="9.619" y2="13.023" gradientUnits="userSpaceOnUse"><stop stop-color="#fff"/><stop offset="1" stop-color="#FFF5ED"/></linearGradient><linearGradient id="i" x1="8.336" x2="8.336" y1="14.014" y2="9" gradientUnits="userSpaceOnUse"><stop stop-color="#2DD29B"/><stop offset="1" stop-color="#00BC7A"/></linearGradient><filter id="a" width="28" height="26" x="1" y="3.285" color-interpolation-filters="sRGB" filterUnits="userSpaceOnUse"><feColorMatrix in="SourceAlpha" result="hardAlpha" values="0 0 0 0 0 0 0 0 0 0 0 0 0 0 0 0 0 0 127 0"/><feGaussianBlur stdDeviation="1"/><feColorMatrix values="0 0 0 0 0 0 0 0 0 0.737255 0 0 0 0 0.478431 0 0 0 1 0"/></filter><filter id="f" width="11" height="11" x="3" y="7.285" color-interpolation-filters="sRGB" filterUnits="userSpaceOnUse"><feColorMatrix in="SourceAlpha" result="hardAlpha" values="0 0 0 0 0 0 0 0 0 0 0 0 0 0 0 0 0 0 127 0"/><feGaussianBlur stdDeviation=".5"/><feColorMatrix values="0 0 0 0 0 0 0 0 0 0.623529 0 0 0 0 0.403922 0 0 0 0.5 0"/></filter></defs><g filter="url(#a)"><path fill="url(#b)" d="M19.822 27.285H4.361C2.506 27.283 1.002 25.76 1 23.88V6.69c.002-1.879 1.506-3.402 3.361-3.405h15.461c1.819-.01 3.31 1.46 3.35 3.302v4.124l3.566-1.872a1.49 1.49 0 0 1 1.51-.006A1.53 1.53 0 0 1 29 10.161v10.325a1.52 1.52 0 0 1-1.51 1.53 1.47 1.47 0 0 1-.75-.2l-3.567-1.871v3.935a1 1 0 0 1 0 .101v.078c-.089 1.809-1.563 3.228-3.351 3.226"/></g><mask id="d" width="28" height="25" x="1" y="3" maskUnits="userSpaceOnUse" style="mask-type:alpha"><path fill="url(#c)" d="M19.822 27.285H4.361C2.506 27.283 1.002 25.76 1 23.88V6.69c.002-1.879 1.506-3.402 3.361-3.405h15.461c1.819-.01 3.31 1.46 3.35 3.302v4.124l3.566-1.872a1.49 1.49 0 0 1 1.51-.006A1.53 1.53 0 0 1 29 10.161v10.325a1.52 1.52 0 0 1-1.51 1.53 1.47 1.47 0 0 1-.75-.2l-3.567-1.871v3.935a1 1 0 0 1 0 .101v.078c-.089 1.809-1.563 3.228-3.351 3.226"/></mask><g mask="url(#d)"><path fill="url(#e)" d="M7 21.5c-1.796-1.165-5 .5-6 1.651V27a2 2 0 0 0 2 2h24a2 2 0 0 0 2-2v-8.619c-1.75-.885-5.82-2.394-8.5 1.77-4 6.216-8.875 4.349-13.5 1.349"/></g><g filter="url(#f)"><path fill="url(#g)" d="M8.496 7.285a4.5 4.5 0 1 0 .008 9 4.5 4.5 0 0 0-.008-9"/></g><path fill="url(#h)" fill-rule="evenodd" d="M11.915 10.599a1.83 1.83 0 0 0-1.037-.485c.028-.052.041-.119.055-.192.012-.062.025-.129.049-.195v-.485c0-.097-.104-.194-.26-.242h-.051a.29.29 0 0 0-.26.145c-.207.194-.466.436-.622.485a4.7 4.7 0 0 0-1.192-.29c-.467 0-.882.096-1.193.29-.155-.049-.414-.29-.57-.485C6.68 9.048 6.574 9 6.471 9H6.42c-.155 0-.259.097-.259.242l-.006.048c-.02.134-.074.503.058.873-.467.048-.881.29-1.037.484-.156.097-.207.29-.156.387.104.291.519.485 1.037.485.208 0 .415-.049.623-.097l.259 1.744c0 .024-.013.036-.026.048s-.026.025-.026.049q-.024.063-.055.128c-.049.106-.1.219-.1.356 0 .485.466.824 1.088.824h1.452c.622 0 1.089-.34 1.089-.824 0-.194-.104-.387-.156-.484 0-.049-.052-.097-.052-.097l.26-1.744c.207.048.414.097.622.097.518 0 .933-.194 1.037-.436.051-.145 0-.34-.156-.484m-4.364.68a.253.253 0 1 1-.506 0 .253.253 0 0 1 .506 0m2.28.253a.253.253 0 1 0 0-.506.253.253 0 0 0 0 .506m-1.774 2.279a.253.253 0 1 1-.506 0 .253.253 0 0 1 .506 0m1.266.253a.253.253 0 1 0 0-.506.253.253 0 0 0 0 .506" clip-rule="evenodd"/><path fill="url(#i)" fill-rule="evenodd" d="M11.915 10.599a1.83 1.83 0 0 0-1.037-.485c.028-.052.041-.119.055-.192.012-.062.025-.129.049-.195v-.485c0-.097-.104-.194-.26-.242h-.051a.29.29 0 0 0-.26.145c-.207.194-.466.436-.622.485a4.7 4.7 0 0 0-1.192-.29c-.467 0-.882.096-1.193.29-.155-.049-.414-.29-.57-.485C6.68 9.048 6.574 9 6.471 9H6.42c-.155 0-.259.097-.259.242l-.006.048c-.02.134-.074.503.058.873-.467.048-.881.29-1.037.484-.156.097-.207.29-.156.387.104.291.519.485 1.037.485.208 0 .415-.049.623-.097l.259 1.744c0 .024-.013.036-.026.048s-.026.025-.026.049q-.024.063-.055.128c-.049.106-.1.219-.1.356 0 .485.466.824 1.088.824h1.452c.622 0 1.089-.34 1.089-.824 0-.194-.104-.387-.156-.484 0-.049-.052-.097-.052-.097l.26-1.744c.207.048.414.097.622.097.518 0 .933-.194 1.037-.436.051-.145 0-.34-.156-.484m-4.364.68a.253.253 0 1 1-.506 0 .253.253 0 0 1 .506 0m2.28.253a.253.253 0 1 0 0-.506.253.253 0 0 0 0 .506m-1.774 2.279a.253.253 0 1 1-.506 0 .253.253 0 0 1 .506 0m1.266.253a.253.253 0 1 0 0-.506.253.253 0 0 0 0 .506" clip-rule="evenodd"/></svg>