<svg xmlns="http://www.w3.org/2000/svg" fill="none" viewBox="0 0 30 30"><defs><linearGradient id="b" x1="17.015" x2="9.437" y1="29" y2="1.412" gradientUnits="userSpaceOnUse"><stop stop-color="#67ECFF"/><stop offset="1" stop-color="#1EB2FB"/></linearGradient><linearGradient id="c" x1="17.015" x2="9.437" y1="29" y2="1.412" gradientUnits="userSpaceOnUse"><stop stop-color="#67ECFF"/><stop offset="1" stop-color="#1EB2FB"/></linearGradient><linearGradient id="e" x1="15.75" x2="15.75" y1="17.621" y2="26.091" gradientUnits="userSpaceOnUse"><stop offset=".168" stop-color="#80E5FF"/><stop offset="1" stop-color="#6CEDFF"/></linearGradient><linearGradient id="g" x1="14.592" x2="14.592" y1="7.671" y2="12.473" gradientUnits="userSpaceOnUse"><stop stop-color="#fff"/><stop offset="1" stop-color="#F3FDFF"/></linearGradient><linearGradient id="i" x1="17" x2="17" y1="3.194" y2="31.194" gradientUnits="userSpaceOnUse"><stop stop-color="#fff"/><stop offset="1" stop-color="#E7FEFF"/></linearGradient><linearGradient id="k" x1="14.111" x2="14.111" y1="21.111" y2="21.722" gradientUnits="userSpaceOnUse"><stop stop-color="#fff"/><stop offset="1" stop-color="#F3FDFF"/></linearGradient><linearGradient id="m" x1="14.111" x2="14.111" y1="18.111" y2="18.722" gradientUnits="userSpaceOnUse"><stop stop-color="#fff"/><stop offset="1" stop-color="#F3FDFF"/></linearGradient><filter id="a" width="28" height="28.5" x=".8" y="1" color-interpolation-filters="sRGB" filterUnits="userSpaceOnUse"><feColorMatrix in="SourceAlpha" result="hardAlpha" values="0 0 0 0 0 0 0 0 0 0 0 0 0 0 0 0 0 0 127 0"/><feGaussianBlur stdDeviation=".25"/><feColorMatrix values="0 0 0 0 0 0 0 0 0 0.546167 0 0 0 0 0.941667 0 0 0 1 0"/></filter><filter id="f" width="12" height="9.857" x="9.147" y="6.798" color-interpolation-filters="sRGB" filterUnits="userSpaceOnUse"><feColorMatrix in="SourceAlpha" result="hardAlpha" values="0 0 0 0 0 0 0 0 0 0 0 0 0 0 0 0 0 0 127 0"/><feGaussianBlur stdDeviation=".5"/><feColorMatrix values="0 0 0 0 0 0 0 0 0 0.546167 0 0 0 0 0.941667 0 0 0 0.6 0"/></filter><filter id="h" width="24" height="24.5" x="3" y="3.194" color-interpolation-filters="sRGB" filterUnits="userSpaceOnUse"><feColorMatrix in="SourceAlpha" result="hardAlpha" values="0 0 0 0 0 0 0 0 0 0 0 0 0 0 0 0 0 0 127 0"/><feGaussianBlur stdDeviation=".25"/><feColorMatrix values="0 0 0 0 0 0 0 0 0 0.545098 0 0 0 0 0.941176 0 0 0 0.8 0"/></filter><filter id="j" width="18" height="3" x="6" y="21" color-interpolation-filters="sRGB" filterUnits="userSpaceOnUse"><feColorMatrix in="SourceAlpha" result="hardAlpha" values="0 0 0 0 0 0 0 0 0 0 0 0 0 0 0 0 0 0 127 0"/><feGaussianBlur stdDeviation=".5"/><feColorMatrix values="0 0 0 0 0 0 0 0 0 0.546167 0 0 0 0 0.941667 0 0 0 0.6 0"/></filter><filter id="l" width="18" height="3" x="6" y="18" color-interpolation-filters="sRGB" filterUnits="userSpaceOnUse"><feColorMatrix in="SourceAlpha" result="hardAlpha" values="0 0 0 0 0 0 0 0 0 0 0 0 0 0 0 0 0 0 127 0"/><feGaussianBlur stdDeviation=".5"/><feColorMatrix values="0 0 0 0 0 0 0 0 0 0.546167 0 0 0 0 0.941667 0 0 0 0.6 0"/></filter></defs><g filter="url(#a)"><path fill="url(#b)" d="M28.8 27a2 2 0 0 1-2 2h-24a2 2 0 0 1-2-2V3a2 2 0 0 1 2-2h24a2 2 0 0 1 2 2z"/></g><mask id="d" width="29" height="28" x="0" y="1" maskUnits="userSpaceOnUse" style="mask-type:alpha"><path fill="url(#c)" d="M28.8 27a2 2 0 0 1-2 2h-24a2 2 0 0 1-2-2V3a2 2 0 0 1 2-2h24a2 2 0 0 1 2 2z"/></mask><g mask="url(#d)"><path fill="url(#e)" d="M8.944 23.833C3.5 20.82 0 22.697 0 24.209v2.894a2 2 0 0 0 2 2h25a2 2 0 0 0 2-2v-6.47c0-2.824-7.125-2.071-7.125 5.082 0 3.032-9.982-.251-12.93-1.883"/></g><g filter="url(#f)"><path fill="url(#g)" d="M19.9 9.053c-.292-.273-.804-.615-1.462-.683.073-.137.073-.342.146-.547V7.14c0-.137-.146-.273-.365-.342h-.073a.41.41 0 0 0-.366.205c-.293.273-.658.615-.878.683a6.7 6.7 0 0 0-1.681-.41c-.659 0-1.244.137-1.682.41-.22-.068-.585-.41-.805-.683-.22-.136-.365-.205-.512-.205h-.073c-.22 0-.365.137-.365.342 0 .068-.147.683.073 1.298-.658.068-1.243.41-1.463.683-.22.137-.292.41-.22.547.147.41.732.683 1.463.683.293 0 .585-.068.878-.137l.366 2.46c0 .068-.074.068-.074.137-.073.205-.219.41-.219.683 0 .683.658 1.161 1.536 1.161h2.047c.878 0 1.536-.478 1.536-1.161 0-.273-.146-.547-.22-.683 0-.069-.073-.137-.073-.137l.366-2.46c.293.069.585.137.877.137.732 0 1.317-.273 1.463-.615.073-.205 0-.478-.22-.683"/></g><circle cx="13.388" cy="10.012" r=".357" fill="#3ECBFD"/><circle cx="16.96" cy="10.012" r=".357" fill="#3ECBFD"/><circle cx="14.103" cy="13.584" r=".357" fill="#3ECBFD"/><circle cx="16.246" cy="13.584" r=".357" fill="#3ECBFD"/><g filter="url(#h)"><path fill="url(#i)" d="M25.007 5.2h-4.002V3.194H27v6.001h-1.993zm0 19.988v-3.995H27v6.001h-5.995v-2.006zm-20.014 0h4.002v2.006H3v-6.001h1.993zm0-19.988v3.995H3v-6h5.995V5.2z"/></g><g filter="url(#j)"><path fill="url(#k)" d="M7 21h16v1H7z"/></g><g filter="url(#l)"><path fill="url(#m)" d="M7 18h16v1H7z"/></g></svg>