<svg xmlns="http://www.w3.org/2000/svg" class="icon" viewBox="0 0 1024 1024"><path d="m585.413 512.595 388.189-388.176c19.6-19.601 19.6-51.899 0-71.5l-2.12-2.12c-19.602-19.6-51.899-19.6-71.5 0L511.793 439.52 123.617 50.798c-19.6-19.6-51.898-19.6-71.499 0l-2.12 2.12c-20.118 19.601-20.118 51.899 0 71.5l388.189 388.189-388.19 388.176c-19.587 19.6-19.587 51.898 0 71.499l2.121 2.12c19.6 19.601 51.898 19.601 71.499 0l388.176-388.189 388.19 388.176c19.6 19.601 51.897 19.601 71.498 0l2.12-2.12c19.601-19.6 19.601-51.898 0-71.5zm0 0"/></svg>