<svg xmlns="http://www.w3.org/2000/svg" fill="none" class="design-iconfont" viewBox="0 0 44 44"><defs><linearGradient id="b" x1="21.488" x2="21.488" y1="10.233" y2="32.744" gradientUnits="userSpaceOnUse"><stop offset=".065" stop-color="#2F83FE"/><stop offset=".945" stop-color="#81D8FF"/></linearGradient><filter id="a" width="26.419" height="30.512" x="8.279" y="10.233" color-interpolation-filters="sRGB" filterUnits="userSpaceOnUse"><feFlood flood-opacity="0" result="BackgroundImageFix"/><feColorMatrix in="SourceAlpha" result="hardAlpha" values="0 0 0 0 0 0 0 0 0 0 0 0 0 0 0 0 0 0 127 0"/><feOffset dy="4"/><feGaussianBlur stdDeviation="2"/><feComposite in2="hardAlpha" operator="out"/><feColorMatrix values="0 0 0 0 0.219608 0 0 0 0 0.54902 0 0 0 0 1 0 0 0 0.2 0"/><feBlend in2="BackgroundImageFix" result="effect1_dropShadow_198_978"/><feBlend in="SourceGraphic" in2="effect1_dropShadow_198_978" result="shape"/></filter></defs><rect width="44" height="44" fill="#3489FF" fill-opacity=".1" rx="22"/><g filter="url(#a)"><path fill="url(#b)" d="M21.292 32.744c1.15 0 2.103-.982 2.103-2.159h-4.403c0 1.177 1.14 2.16 2.3 2.16m-9.013-3.52v-.788l2.113-2.159v-6.252c0-3.52 1.73-6.457 5.17-7.439v-.593c0-.778.767-1.76 1.73-1.76.766 0 1.73.787 1.73 1.76v.388c3.833.39 5.563 3.92 5.563 7.44v6.456l2.113 2.16v.787"/></g></svg>