<svg xmlns="http://www.w3.org/2000/svg" width="28" height="28" viewBox="0 0 28 28" fill="none">
  <g filter="url(#filter0_i_66_960)">
    <path fill-rule="evenodd" clip-rule="evenodd" d="M6.99983 1C6.99983 0.447716 7.44754 0 7.99983 0H17.1998C17.7521 0 18.1998 0.447715 18.1998 1V1.66667C18.1998 2.21895 17.7521 2.66667 17.1998 2.66667H7.99983C7.44754 2.66667 6.99983 2.21895 6.99983 1.66667V1ZM5.60017 1.33333H2C0.895431 1.33333 0 2.22877 0 3.33333V24.6667C0 25.7712 0.895429 26.6667 2 26.6667H15.7602C14.6607 25.3988 14.0002 23.7729 14.0002 22C14.0002 17.95 17.4476 14.6667 21.7002 14.6667C22.9604 14.6667 24.1499 14.955 25.2 15.4662V3.33333C25.2 2.22876 24.3046 1.33333 23.2 1.33333H19.6002V3.00002C19.6002 3.55231 19.1525 4.00002 18.6002 4.00002H6.60017C6.04789 4.00002 5.60017 3.55231 5.60017 3.00002V1.33333ZM21.6998 28C25.1792 28 27.9998 25.3137 27.9998 22C27.9998 18.6863 25.1792 16 21.6998 16C18.2204 16 15.3998 18.6863 15.3998 22C15.3998 25.3137 18.2204 28 21.6998 28Z" fill="url(#paint0_linear_66_960)"></path>
  </g>
  <g filter="url(#filter1_d_66_960)">
    <path fill-rule="evenodd" clip-rule="evenodd" d="M5.60026 8.66667C5.60026 8.29848 5.89874 8 6.26693 8H18.9336C19.3018 8 19.6003 8.29848 19.6003 8.66667C19.6003 9.03486 19.3018 9.33333 18.9336 9.33333H6.26693C5.89874 9.33333 5.60026 9.03486 5.60026 8.66667ZM5.6001 11.3333C5.6001 10.9651 5.89857 10.6667 6.26676 10.6667H18.9334C19.3016 10.6667 19.6001 10.9651 19.6001 11.3333C19.6001 11.7015 19.3016 12 18.9334 12H6.26676C5.89857 12 5.6001 11.7015 5.6001 11.3333ZM6.26676 13.3333C5.89857 13.3333 5.6001 13.6318 5.6001 14C5.6001 14.3682 5.89857 14.6667 6.26676 14.6667H11.9334C12.3016 14.6667 12.6001 14.3682 12.6001 14C12.6001 13.6318 12.3016 13.3333 11.9334 13.3333H6.26676Z" fill="white"></path>
  </g>
  <path d="M20.2999 23.3334C18.0599 23.8667 16.0999 22.6667 15.3999 22.0001C15.3999 25.3137 18.0862 28 21.3998 28H21.8235C25.2346 28 27.9999 25.2347 27.9999 21.8236C27.9999 21.5428 27.7912 21.3037 27.512 21.2739C23.0966 20.8025 23.0037 22.6896 20.2999 23.3334Z" fill="url(#paint1_linear_66_960)"></path>
  <path fill-rule="evenodd" clip-rule="evenodd" d="M14.0033 21.7901C11.2397 21.0664 10.1734 20.5645 9.20873 20.1104C8.59663 19.8222 8.02544 19.5533 7.0875 19.2592C3.80007 18.2285 2.41867 19.8273 1.35195 21.0619C0.885485 21.6017 0.47919 22.072 0 22.2222V24.6666C0 25.7712 0.895429 26.6666 2 26.6666H15.7602C14.6607 25.3987 14.0002 23.7728 14.0002 22C14.0002 21.9298 14.0012 21.8598 14.0033 21.7901Z" fill="url(#paint2_linear_66_960)"></path>
  <g filter="url(#filter2_d_66_960)">
    <path d="M20.7866 18.9443V23.6666H21.6997V23.3889H22.4606V25.3333H23.5259V23.3889H24.2868V23.6666H25.1999V18.9443H20.7866ZM22.6128 22.4166H21.8519V21.5833H22.6128V22.4166ZM22.6128 20.7499H21.8519V19.7777H22.6128V20.7499ZM24.2868 22.4166H23.5259V21.5833H24.2868V22.4166ZM24.2868 20.7499H23.5259V19.7777H24.2868V20.7499Z" fill="url(#paint3_linear_66_960)"></path>
    <path d="M20.0264 21.7223V20.6112H20.6351V19.7778H20.0264V18.6667H18.9611V19.7778H18.2002V20.6112H18.9611V21.8612C18.6567 21.8612 18.5046 22.0001 18.2002 22.0001L18.3524 22.8334C18.5046 22.8334 18.8089 22.8334 19.1133 22.6945V23.9446C19.1133 24.0834 18.9611 24.2223 18.8089 24.2223H18.2002C18.3524 24.5001 18.3524 24.9168 18.3524 25.1946C18.6567 25.1946 18.9611 25.1946 19.2655 25.1946C19.722 25.1946 20.0264 24.9168 20.0264 24.3612V22.5556C20.1786 22.5556 20.4829 22.4168 20.6351 22.4168C20.4829 22.139 20.6351 21.8612 20.6351 21.4445L20.0264 21.7223Z" fill="url(#paint4_linear_66_960)"></path>
  </g>
  <defs>
    <filter id="filter0_i_66_960" x="0" y="0" width="28" height="30" filterUnits="userSpaceOnUse" color-interpolation-filters="sRGB">
      <feflood flood-opacity="0" result="BackgroundImageFix"></feflood>
      <feblend mode="normal" in="SourceGraphic" in2="BackgroundImageFix" result="shape"></feblend>
      <feColorMatrix in="SourceAlpha" type="matrix" values="0 0 0 0 0 0 0 0 0 0 0 0 0 0 0 0 0 0 127 0" result="hardAlpha"></feColorMatrix>
      <feoffset dy="2"></feoffset>
      <feGaussianBlur stdDeviation="1"></feGaussianBlur>
      <fecomposite in2="hardAlpha" operator="arithmetic" k2="-1" k3="1"></fecomposite>
      <feColorMatrix type="matrix" values="0 0 0 0 0.995833 0 0 0 0 0.430158 0 0 0 0 0.0165972 0 0 0 0.8 0"></feColorMatrix>
      <feblend mode="normal" in2="shape" result="effect1_innerShadow_66_960"></feblend>
    </filter>
    <filter id="filter1_d_66_960" x="5.1001" y="8" width="15" height="7.66669" filterUnits="userSpaceOnUse" color-interpolation-filters="sRGB">
      <feflood flood-opacity="0" result="BackgroundImageFix"></feflood>
      <feColorMatrix in="SourceAlpha" type="matrix" values="0 0 0 0 0 0 0 0 0 0 0 0 0 0 0 0 0 0 127 0" result="hardAlpha"></feColorMatrix>
      <feoffset dy="0.5"></feoffset>
      <feGaussianBlur stdDeviation="0.25"></feGaussianBlur>
      <fecomposite in2="hardAlpha" operator="out"></fecomposite>
      <feColorMatrix type="matrix" values="0 0 0 0 0.995833 0 0 0 0 0.430158 0 0 0 0 0.0165972 0 0 0 0.8 0"></feColorMatrix>
      <feblend mode="normal" in2="BackgroundImageFix" result="effect1_dropShadow_66_960"></feblend>
      <feblend mode="normal" in="SourceGraphic" in2="effect1_dropShadow_66_960" result="shape"></feblend>
    </filter>
    <filter id="filter2_d_66_960" x="17.2002" y="17.6667" width="8.99951" height="8.66663" filterUnits="userSpaceOnUse" color-interpolation-filters="sRGB">
      <feflood flood-opacity="0" result="BackgroundImageFix"></feflood>
      <feColorMatrix in="SourceAlpha" type="matrix" values="0 0 0 0 0 0 0 0 0 0 0 0 0 0 0 0 0 0 127 0" result="hardAlpha"></feColorMatrix>
      <feoffset></feoffset>
      <feGaussianBlur stdDeviation="0.5"></feGaussianBlur>
      <fecomposite in2="hardAlpha" operator="out"></fecomposite>
      <feColorMatrix type="matrix" values="0 0 0 0 1 0 0 0 0 0.302917 0 0 0 0 0.00416667 0 0 0 0.5 0"></feColorMatrix>
      <feblend mode="normal" in2="BackgroundImageFix" result="effect1_dropShadow_66_960"></feblend>
      <feblend mode="normal" in="SourceGraphic" in2="effect1_dropShadow_66_960" result="shape"></feblend>
    </filter>
    <linearGradient id="paint0_linear_66_960" x1="13.3412" y1="26.6667" x2="13.3412" y2="1.33333" gradientUnits="userSpaceOnUse">
      <stop stop-color="#FFCC63"></stop>
      <stop offset="1" stop-color="#FC8731"></stop>
    </linearGradient>
    <linearGradient id="paint1_linear_66_960" x1="21.6999" y1="21.1992" x2="21.6999" y2="28" gradientUnits="userSpaceOnUse">
      <stop stop-color="#FFC461"></stop>
      <stop offset="1" stop-color="#FFDB64"></stop>
    </linearGradient>
    <linearGradient id="paint2_linear_66_960" x1="8.39967" y1="18.5646" x2="8.39967" y2="26.6667" gradientUnits="userSpaceOnUse">
      <stop stop-color="#FFBC58"></stop>
      <stop offset="1" stop-color="#FFDD65"></stop>
    </linearGradient>
    <linearGradient id="paint3_linear_66_960" x1="22.9933" y1="18.9443" x2="22.9933" y2="25.3333" gradientUnits="userSpaceOnUse">
      <stop stop-color="white"></stop>
      <stop offset="1" stop-color="#FFEEE0"></stop>
    </linearGradient>
    <linearGradient id="paint4_linear_66_960" x1="19.4177" y1="18.6667" x2="19.4177" y2="25.1946" gradientUnits="userSpaceOnUse">
      <stop stop-color="white"></stop>
      <stop offset="1" stop-color="#FFEEE0"></stop>
    </linearGradient>
  </defs>
</svg>