<svg xmlns="http://www.w3.org/2000/svg" width="28" height="28" viewBox="0 0 28 28" fill="none">
  <g filter="url(#filter0_i_66_983)">
    <path fill-rule="evenodd" clip-rule="evenodd" d="M0 0H4.2V4.2H0V0ZM23.8 0H28V4.2H23.8V0ZM4.2 23.8H0V28H4.2V23.8ZM23.8 23.8H28V28H23.8V23.8ZM22.4 0H5.6V5.6H0V22.4H5.6V28H22.4V22.4H28V5.6H22.4V0Z" fill="url(#paint0_linear_66_983)"></path>
  </g>
  <path fill-rule="evenodd" clip-rule="evenodd" d="M0 19.151V22.4H5.6V28L22.4 28V22.4H28V17.3812C26.25 16.4963 20.125 16.4963 17.5 18.2661C14.875 20.036 10.5 20.9208 7.875 19.151C5.775 17.7351 1.75 18.561 0 19.151Z" fill="url(#paint1_linear_66_983)"></path>
  <g filter="url(#filter1_d_66_983)">
    <path fill-rule="evenodd" clip-rule="evenodd" d="M6.13497 17.9072L17.335 7.40723L21.165 11.4926L9.96504 21.9926L6.13497 17.9072Z" fill="url(#paint2_linear_66_983)"></path>
  </g>
  <defs>
    <filter id="filter0_i_66_983" x="0" y="0" width="28" height="30" filterUnits="userSpaceOnUse" color-interpolation-filters="sRGB">
      <feflood flood-opacity="0" result="BackgroundImageFix"></feflood>
      <feblend mode="normal" in="SourceGraphic" in2="BackgroundImageFix" result="shape"></feblend>
      <feColorMatrix in="SourceAlpha" type="matrix" values="0 0 0 0 0 0 0 0 0 0 0 0 0 0 0 0 0 0 127 0" result="hardAlpha"></feColorMatrix>
      <feoffset dy="2"></feoffset>
      <feGaussianBlur stdDeviation="1"></feGaussianBlur>
      <fecomposite in2="hardAlpha" operator="arithmetic" k2="-1" k3="1"></fecomposite>
      <feColorMatrix type="matrix" values="0 0 0 0 0 0 0 0 0 0.623529 0 0 0 0 0.403922 0 0 0 0.6 0"></feColorMatrix>
      <feblend mode="normal" in2="shape" result="effect1_innerShadow_66_983"></feblend>
    </filter>
    <filter id="filter1_d_66_983" x="5.13501" y="7.40723" width="17.03" height="16.5854" filterUnits="userSpaceOnUse" color-interpolation-filters="sRGB">
      <feflood flood-opacity="0" result="BackgroundImageFix"></feflood>
      <feColorMatrix in="SourceAlpha" type="matrix" values="0 0 0 0 0 0 0 0 0 0 0 0 0 0 0 0 0 0 127 0" result="hardAlpha"></feColorMatrix>
      <feoffset dy="1"></feoffset>
      <feGaussianBlur stdDeviation="0.5"></feGaussianBlur>
      <fecomposite in2="hardAlpha" operator="out"></fecomposite>
      <feColorMatrix type="matrix" values="0 0 0 0 0 0 0 0 0 0.623529 0 0 0 0 0.403922 0 0 0 0.5 0"></feColorMatrix>
      <feblend mode="normal" in2="BackgroundImageFix" result="effect1_dropShadow_66_983"></feblend>
      <feblend mode="normal" in="SourceGraphic" in2="effect1_dropShadow_66_983" result="shape"></feblend>
    </filter>
    <linearGradient id="paint0_linear_66_983" x1="13.1765" y1="25.2" x2="13.1765" y2="-4.95687e-07" gradientUnits="userSpaceOnUse">
      <stop stop-color="#64EDC4"></stop>
      <stop offset="1" stop-color="#00BC7A"></stop>
    </linearGradient>
    <linearGradient id="paint1_linear_66_983" x1="14" y1="16.8" x2="14" y2="28" gradientUnits="userSpaceOnUse">
      <stop stop-color="#55EEBC"></stop>
      <stop offset="1" stop-color="#75F9C1"></stop>
    </linearGradient>
    <linearGradient id="paint2_linear_66_983" x1="19.25" y1="14.6999" x2="8.04999" y2="14.6999" gradientUnits="userSpaceOnUse">
      <stop stop-color="white"></stop>
      <stop offset="1" stop-color="#A7FFDD"></stop>
    </linearGradient>
  </defs>
</svg>