<svg xmlns="http://www.w3.org/2000/svg" width="28" height="25" viewBox="0 0 28 25" fill="none">
  <g filter="url(#filter0_i_52_43)">
    <path d="M25.8396 2.25319C24.397 0.74118 22.5018 0 20.6349 0C18.768 0 16.8728 0.74118 15.4302 2.25319L12.4884 5.2772C12.2339 5.54403 11.8096 5.54403 11.555 5.2772C11.3004 5.01038 11.3004 4.56567 11.555 4.2692L12.9976 2.75719C13.0259 2.72754 13.0259 2.6979 12.9976 2.66825L12.6016 2.25319C9.71637 -0.74118 5.04912 -0.74118 2.16391 2.25319C-0.721303 5.2772 -0.721303 10.1393 2.16391 13.1634L3.57823 14.6457L6.10433 17.2934L12.0924 23.5695L13.0542 24.5775C13.5916 25.1408 14.4119 25.1408 14.9494 24.5775L15.8828 23.5695L24.397 14.6457L25.8113 13.1634C28.7248 10.169 28.7248 5.2772 25.8396 2.25319Z" fill="url(#paint0_linear_52_43)"></path>
  </g>
  <path fill-rule="evenodd" clip-rule="evenodd" d="M25.295 13.7045C22.1856 10.8296 20.1023 12.0899 17.9482 13.3931C16.5124 14.2617 15.0452 15.1493 13.2217 14.844C9.85963 14.2812 6.66572 15.7879 5.68506 16.854L6.10426 17.2934L12.0924 23.5695L13.0541 24.5775C13.5915 25.1408 14.4118 25.1408 14.9493 24.5775L15.8827 23.5695L24.3969 14.6457L25.295 13.7045Z" fill="url(#paint1_linear_52_43)"></path>
  <g filter="url(#filter1_d_52_43)">
    <path fill-rule="evenodd" clip-rule="evenodd" d="M13.4441 7.8125C12.8919 7.8125 12.4441 8.26022 12.4441 8.8125V10.9375H10.333C9.78072 10.9375 9.33301 11.3852 9.33301 11.9375V13.0625C9.33301 13.6148 9.78072 14.0625 10.333 14.0625H12.4441V16.1875C12.4441 16.7398 12.8919 17.1875 13.4441 17.1875H14.5553C15.1075 17.1875 15.5553 16.7398 15.5553 16.1875V14.0625H17.6663C18.2186 14.0625 18.6663 13.6148 18.6663 13.0625V11.9375C18.6663 11.3852 18.2186 10.9375 17.6663 10.9375H15.5553V8.8125C15.5553 8.26022 15.1075 7.8125 14.5553 7.8125H13.4441Z" fill="url(#paint2_linear_52_43)"></path>
  </g>
  <defs>
    <filter id="filter0_i_52_43" x="0" y="0" width="28" height="25.5" filterUnits="userSpaceOnUse" color-interpolation-filters="sRGB">
      <feflood flood-opacity="0" result="BackgroundImageFix"></feflood>
      <feblend mode="normal" in="SourceGraphic" in2="BackgroundImageFix" result="shape"></feblend>
      <feColorMatrix in="SourceAlpha" type="matrix" values="0 0 0 0 0 0 0 0 0 0 0 0 0 0 0 0 0 0 127 0" result="hardAlpha"></feColorMatrix>
      <feoffset dy="0.5"></feoffset>
      <feGaussianBlur stdDeviation="0.25"></feGaussianBlur>
      <fecomposite in2="hardAlpha" operator="arithmetic" k2="-1" k3="1"></fecomposite>
      <feColorMatrix type="matrix" values="0 0 0 0 0.941176 0 0 0 0 0.294118 0 0 0 0 0.258824 0 0 0 1 0"></feColorMatrix>
      <feblend mode="normal" in2="shape" result="effect1_innerShadow_52_43"></feblend>
    </filter>
    <filter id="filter1_d_52_43" x="8.83301" y="7.8125" width="10.3335" height="10.375" filterUnits="userSpaceOnUse" color-interpolation-filters="sRGB">
      <feflood flood-opacity="0" result="BackgroundImageFix"></feflood>
      <feColorMatrix in="SourceAlpha" type="matrix" values="0 0 0 0 0 0 0 0 0 0 0 0 0 0 0 0 0 0 127 0" result="hardAlpha"></feColorMatrix>
      <feoffset dy="0.5"></feoffset>
      <feGaussianBlur stdDeviation="0.25"></feGaussianBlur>
      <fecomposite in2="hardAlpha" operator="out"></fecomposite>
      <feColorMatrix type="matrix" values="0 0 0 0 0.94902 0 0 0 0 0.333333 0 0 0 0 0.298039 0 0 0 1 0"></feColorMatrix>
      <feblend mode="normal" in2="BackgroundImageFix" result="effect1_dropShadow_52_43"></feblend>
      <feblend mode="normal" in="SourceGraphic" in2="effect1_dropShadow_52_43" result="shape"></feblend>
    </filter>
    <linearGradient id="paint0_linear_52_43" x1="24.8668" y1="25" x2="3.02325" y2="0.0964123" gradientUnits="userSpaceOnUse">
      <stop stop-color="#FF9E98"></stop>
      <stop offset="1" stop-color="#F04B42"></stop>
    </linearGradient>
    <linearGradient id="paint1_linear_52_43" x1="15.5554" y1="11.9625" x2="15.5554" y2="25" gradientUnits="userSpaceOnUse">
      <stop stop-color="#FA7F78"></stop>
      <stop offset="1" stop-color="#FFB9A3"></stop>
    </linearGradient>
    <linearGradient id="paint2_linear_52_43" x1="13.9997" y1="10.9375" x2="13.9997" y2="14.0625" gradientUnits="userSpaceOnUse">
      <stop stop-color="white"></stop>
      <stop offset="1" stop-color="#FFC6B8"></stop>
    </linearGradient>
  </defs>
</svg>