<svg xmlns="http://www.w3.org/2000/svg" fill="none" viewBox="0 0 18 18"><defs><clipPath id="a"><path fill="#fff" d="M0 0h18v18H0z"/></clipPath></defs><g clip-path="url(#a)"><path fill="#fff" fill-rule="evenodd" d="m15.528 5.516 2.223 1.97c.507.45.187 1.281-.491 1.281h-1.97v2.402l-3.261 1.13S8.112 9.486 6 8.777c-1.05-.352-2.582-.306-3.297-.01H.806c-.738 0-1.086-.904-.538-1.393L8.294.217A.946.946 0 0 1 9.55.216l3.574 3.169v-.948c0-.207.17-.375.378-.375h1.649c.208 0 .377.168.377.375zM7.561 7.068h2.758v-1.54a.86.86 0 0 0-.865-.858H8.425a.86.86 0 0 0-.864.858zm8.62 5.118a1.263 1.263 0 0 1 .227 2.25l-4.288 2.722a4.92 4.92 0 0 1-4.259.575l-4.221-1.38a2.67 2.67 0 0 0-1.302-.09l-1.507.27a.54.54 0 0 1-.635-.528v-3.964c0-.173.083-.334.223-.435l1.69-1.211a4.14 4.14 0 0 1 4.426-.248c1.334.745 2.864 1.617 3.456 2.016.237.16.411.324.537.482-.128.405-.333.815-.648 1.017-.11.07-.44.283-1.204-.014-1.123-.534-2.07-1.023-2.184-1.082l-.011-.005a.63.63 0 0 0-.848.263.62.62 0 0 0 .277.847c.115.06 1.09.563 2.242 1.11l.039.017c.45.178.844.247 1.183.247.52 0 .912-.161 1.185-.335.469-.3.781-.754.99-1.218l3.748-1.318c.287-.101.6-.097.884.012" clip-rule="evenodd"/></g></svg>