<svg xmlns="http://www.w3.org/2000/svg" fill="none" viewBox="0 0 18 18"><path fill="#fff" fill-rule="evenodd" d="M17.556 5.591c-.527-.556-1.448-1.252-2.633-1.391.072-.15.104-.342.14-.552.03-.178.063-.37.123-.561V1.696c0-.279-.263-.557-.658-.696h-.131a.72.72 0 0 0-.658.417c-.527.557-1.185 1.253-1.58 1.392-.921-.418-1.974-.696-3.027-.835-1.185 0-2.238.278-3.028.835-.395-.14-1.053-.835-1.448-1.392C4.261 1.14 3.998 1 3.735 1h-.132c-.395 0-.658.278-.658.696q0 .032-.015.137c-.05.384-.188 1.445.147 2.506C1.892 4.48.839 5.174.444 5.73.05 6.01-.082 6.565.05 6.843c.264.835 1.317 1.392 2.633 1.392.526 0 1.053-.14 1.58-.278l.658 5.008c0 .07-.033.105-.066.14-.033.034-.066.069-.066.138a5 5 0 0 1-.139.369c-.124.304-.256.629-.256 1.023C4.393 16.026 5.578 17 7.157 17h3.686c1.58 0 2.764-.974 2.764-2.365 0-.557-.263-1.113-.395-1.392 0-.139-.132-.278-.132-.278l.659-5.008c.526.139 1.053.278 1.58.278 1.315 0 2.368-.557 2.632-1.252.131-.418 0-.974-.395-1.392M8 7.342c0 .584-.448 1.057-1 1.057s-1-.473-1-1.057.448-1.057 1-1.057 1 .473 1 1.057m3 1.057c.552 0 1-.473 1-1.057s-.448-1.057-1-1.057-1 .473-1 1.057.448 1.057 1 1.057m-4.5 5.54c-.264 0-.527.278-.527.557 0 .278.263.556.526.556s.527-.278.527-.556c0-.279-.264-.557-.527-.557m4.474.557c0-.279.263-.557.527-.557.263 0 .526.278.526.557 0 .278-.263.556-.526.556-.264 0-.527-.278-.527-.556" clip-rule="evenodd"/></svg>