<svg xmlns="http://www.w3.org/2000/svg" fill="none" viewBox="0 0 24 26"><path fill="#FB4337" d="M2 26h20a2 2 0 0 0 2-2V6l-6-6H2a2 2 0 0 0-2 2v22a2 2 0 0 0 2 2"/><path fill="#FFB9B4" d="M19 6h5l-6-6v5a1 1 0 0 0 1 1"/><path fill="#fff" fill-rule="evenodd" d="M15.414 6.928a.516.516 0 0 1 .72-.187l.829.492a.51.51 0 0 1 .181.699c-1.172 2.152-2.718 6.955-1.133 11.996a.836.836 0 0 1-.452 1.023l-.434.186c-.393.168-.846-.001-1.072-.364-1.227-1.97-4.067-4.76-8.256-4.523-.423.06-.787-.265-.823-.69l-.041-.496a.734.734 0 0 1 .671-.807c2.26-.344 6.68-2.103 9.81-7.33m-1.808 5.378a17 17 0 0 1-3.686 2.572 11.3 11.3 0 0 1 3.48 2.102 18.2 18.2 0 0 1 .206-4.674" clip-rule="evenodd"/></svg>