<svg xmlns="http://www.w3.org/2000/svg" fill="none" viewBox="0 0 18 18"><defs><clipPath id="a"><path fill="#fff" d="M0 0h18v18H0z"/></clipPath></defs><g clip-path="url(#a)"><path fill="#fff" fill-rule="evenodd" d="M2.303.443C-5.503 14.754 9.037 18 9.037 18c13.544-3.365 7.98-15.326 7.017-17.398-.093-.2-.143-.307-.13-.307C11.946 2.361 9.038 0 9.038 0 6.435 2.803 2.303.443 2.303.443M4.09 8.679c1.033-.73 1.68-1.946 1.938-3.77a9 9 0 0 0 1.292.487c-.259.73-.517 1.459-.905 2.189h.13q-.195 2.736 0 6.203H5.382V9.166c-.13.243-.259.486-.517.73-.258-.487-.517-.852-.775-1.217m9.689.487v1.094h-2.196a4.4 4.4 0 0 0 2.325 2.19c-.258.365-.517.73-.646 1.094-1.162-.486-1.938-1.338-2.454-2.31v2.675H9.517V11.6c-.517.729-1.292 1.337-2.196 1.945q-.388-.73-.776-1.094c.388-.122.776-.365 1.163-.608.586-.442.96-.883 1.41-1.416l.14-.166H7.062V9.166h2.713v-.608H7.837V5.274h5.039v3.284h-2.067v.608zm-2.325-2.797H8.87v1.216h2.583z" clip-rule="evenodd"/></g></svg>