<svg xmlns="http://www.w3.org/2000/svg" width="28" height="28" viewBox="0 0 28 28" fill="none">
  <g filter="url(#filter0_i_60_184)">
    <path fill-rule="evenodd" clip-rule="evenodd" d="M7 1C7 0.447716 7.44772 0 8 0H17.2C17.7523 0 18.2 0.447715 18.2 1V1.66667C18.2 2.21895 17.7523 2.66667 17.2 2.66667H8C7.44771 2.66667 7 2.21895 7 1.66667V1ZM5.60041 1.33333H2C0.895431 1.33333 0 2.22877 0 3.33333V24.6667C0 25.7712 0.895429 26.6667 2 26.6667H15.7601C14.6606 25.3987 14 23.7728 14 21.9999C14 17.9498 17.4474 14.6666 21.7 14.6666C22.9603 14.6666 24.1499 14.955 25.2 15.4662V3.33333C25.2 2.22876 24.3046 1.33333 23.2 1.33333H19.6004V2.99996C19.6004 3.55224 19.1527 3.99996 18.6004 3.99996H6.60041C6.04812 3.99996 5.60041 3.55224 5.60041 2.99996V1.33333ZM21.6996 28C25.179 28 27.9996 25.3137 27.9996 22C27.9996 18.6863 25.179 16 21.6996 16C18.2202 16 15.3996 18.6863 15.3996 22C15.3996 25.3137 18.2202 28 21.6996 28Z" fill="url(#paint0_linear_60_184)"></path>
  </g>
  <g filter="url(#filter1_d_60_184)">
    <path fill-rule="evenodd" clip-rule="evenodd" d="M5.60059 9C5.60059 8.44772 6.0483 8 6.60059 8H18.6006C19.1529 8 19.6006 8.44772 19.6006 9C19.6006 9.55228 19.1529 10 18.6006 10H6.60059C6.0483 10 5.60059 9.55228 5.60059 9ZM5.60059 12.6666C5.60059 12.1143 6.0483 11.6666 6.60059 11.6666H18.6006C19.1529 11.6666 19.6006 12.1143 19.6006 12.6666C19.6006 13.2189 19.1529 13.6666 18.6006 13.6666H6.60059C6.0483 13.6666 5.60059 13.2189 5.60059 12.6666ZM6.60059 15.3334C6.0483 15.3334 5.60059 15.7811 5.60059 16.3334C5.60059 16.8857 6.0483 17.3334 6.60059 17.3334H11.6006C12.1529 17.3334 12.6006 16.8857 12.6006 16.3334C12.6006 15.7811 12.1529 15.3334 11.6006 15.3334H6.60059Z" fill="url(#paint1_linear_60_184)"></path>
  </g>
  <path d="M20.2994 23.3334C18.0594 23.8667 16.0994 22.6667 15.3994 22.0001C15.3994 25.3137 18.0857 28 21.3994 28H21.823C25.2341 28 27.9994 25.2347 27.9994 21.8236C27.9994 21.5428 27.7908 21.3037 27.5115 21.2739C23.0961 20.8025 23.0032 22.6896 20.2994 23.3334Z" fill="url(#paint2_linear_60_184)"></path>
  <path fill-rule="evenodd" clip-rule="evenodd" d="M14.0031 21.7901C11.2396 21.0665 10.1734 20.5645 9.20873 20.1104C8.59663 19.8223 8.02544 19.5534 7.0875 19.2593C3.80007 18.2286 2.41867 19.8274 1.35195 21.0619C0.885485 21.6018 0.47919 22.072 0 22.2223V24.6667C0 25.7713 0.895429 26.6667 2 26.6667H15.7601C14.6606 25.3988 14 23.7728 14 22C14 21.9298 14.001 21.8598 14.0031 21.7901Z" fill="url(#paint3_linear_60_184)"></path>
  <g filter="url(#filter2_d_60_184)">
    <path fill-rule="evenodd" clip-rule="evenodd" d="M24.1 25.9428L22 23.9428L22.9899 23L25.0899 25C25.3633 25.2603 25.3633 25.6825 25.0899 25.9428C24.8166 26.2032 24.3734 26.2032 24.1 25.9428Z" fill="#EAF8FF"></path>
    <path fill-rule="evenodd" clip-rule="evenodd" d="M23.2002 21.1666C23.2002 22.5473 22.0809 23.6666 20.7002 23.6666C19.3195 23.6666 18.2002 22.5473 18.2002 21.1666C18.2002 19.7859 19.3195 18.6666 20.7002 18.6666C22.0809 18.6666 23.2002 19.7859 23.2002 21.1666ZM24.2002 21.1666C24.2002 23.0996 22.6332 24.6666 20.7002 24.6666C18.7672 24.6666 17.2002 23.0996 17.2002 21.1666C17.2002 19.2336 18.7672 17.6666 20.7002 17.6666C22.6332 17.6666 24.2002 19.2336 24.2002 21.1666Z" fill="url(#paint4_linear_60_184)"></path>
  </g>
  <defs>
    <filter id="filter0_i_60_184" x="0" y="0" width="27.9995" height="29" filterUnits="userSpaceOnUse" color-interpolation-filters="sRGB">
      <feflood flood-opacity="0" result="BackgroundImageFix"></feflood>
      <feblend mode="normal" in="SourceGraphic" in2="BackgroundImageFix" result="shape"></feblend>
      <feColorMatrix in="SourceAlpha" type="matrix" values="0 0 0 0 0 0 0 0 0 0 0 0 0 0 0 0 0 0 127 0" result="hardAlpha"></feColorMatrix>
      <feoffset dy="1"></feoffset>
      <feGaussianBlur stdDeviation="0.5"></feGaussianBlur>
      <fecomposite in2="hardAlpha" operator="arithmetic" k2="-1" k3="1"></fecomposite>
      <feColorMatrix type="matrix" values="0 0 0 0 0.0370312 0 0 0 0 0.422243 0 0 0 0 0.9875 0 0 0 0.8 0"></feColorMatrix>
      <feblend mode="normal" in2="shape" result="effect1_innerShadow_60_184"></feblend>
    </filter>
    <filter id="filter1_d_60_184" x="5.10059" y="8" width="15" height="10.3334" filterUnits="userSpaceOnUse" color-interpolation-filters="sRGB">
      <feflood flood-opacity="0" result="BackgroundImageFix"></feflood>
      <feColorMatrix in="SourceAlpha" type="matrix" values="0 0 0 0 0 0 0 0 0 0 0 0 0 0 0 0 0 0 127 0" result="hardAlpha"></feColorMatrix>
      <feoffset dy="0.5"></feoffset>
      <feGaussianBlur stdDeviation="0.25"></feGaussianBlur>
      <fecomposite in2="hardAlpha" operator="out"></fecomposite>
      <feColorMatrix type="matrix" values="0 0 0 0 0.0784314 0 0 0 0 0.517647 0 0 0 0 1 0 0 0 0.8 0"></feColorMatrix>
      <feblend mode="normal" in2="BackgroundImageFix" result="effect1_dropShadow_60_184"></feblend>
      <feblend mode="normal" in="SourceGraphic" in2="effect1_dropShadow_60_184" result="shape"></feblend>
    </filter>
    <filter id="filter2_d_60_184" x="16.7002" y="17.6666" width="9.09473" height="9.47144" filterUnits="userSpaceOnUse" color-interpolation-filters="sRGB">
      <feflood flood-opacity="0" result="BackgroundImageFix"></feflood>
      <feColorMatrix in="SourceAlpha" type="matrix" values="0 0 0 0 0 0 0 0 0 0 0 0 0 0 0 0 0 0 127 0" result="hardAlpha"></feColorMatrix>
      <feoffset dy="0.5"></feoffset>
      <feGaussianBlur stdDeviation="0.25"></feGaussianBlur>
      <fecomposite in2="hardAlpha" operator="out"></fecomposite>
      <feColorMatrix type="matrix" values="0 0 0 0 0.313726 0 0 0 0 0.733333 0 0 0 0 0.984314 0 0 0 1 0"></feColorMatrix>
      <feblend mode="normal" in2="BackgroundImageFix" result="effect1_dropShadow_60_184"></feblend>
      <feblend mode="normal" in="SourceGraphic" in2="effect1_dropShadow_60_184" result="shape"></feblend>
    </filter>
    <linearGradient id="paint0_linear_60_184" x1="13.341" y1="26.6667" x2="13.341" y2="1.33333" gradientUnits="userSpaceOnUse">
      <stop stop-color="#78CFFF"></stop>
      <stop offset="1" stop-color="#297DFF"></stop>
    </linearGradient>
    <linearGradient id="paint1_linear_60_184" x1="12.6006" y1="8" x2="12.6006" y2="17.3334" gradientUnits="userSpaceOnUse">
      <stop stop-color="white"></stop>
      <stop offset="1" stop-color="#E4F7FF"></stop>
    </linearGradient>
    <linearGradient id="paint2_linear_60_184" x1="21.6994" y1="21.1992" x2="21.6994" y2="28" gradientUnits="userSpaceOnUse">
      <stop stop-color="#7BC6FF"></stop>
      <stop offset="1" stop-color="#7ADAFF"></stop>
    </linearGradient>
    <linearGradient id="paint3_linear_60_184" x1="8.39967" y1="26.3026" x2="8.39967" y2="19.293" gradientUnits="userSpaceOnUse">
      <stop stop-color="#7AD9FF"></stop>
      <stop offset="1" stop-color="#7BC5FF"></stop>
    </linearGradient>
    <linearGradient id="paint4_linear_60_184" x1="21.0002" y1="18.6666" x2="21.0002" y2="24" gradientUnits="userSpaceOnUse">
      <stop offset="0.22" stop-color="white"></stop>
      <stop offset="1" stop-color="#EAF8FF"></stop>
    </linearGradient>
  </defs>
</svg>