<svg xmlns="http://www.w3.org/2000/svg" fill="none" viewBox="0 0 28 28"><defs><linearGradient id="b" x1="13.341" x2="13.341" y1="26.667" y2="1.333" gradientUnits="userSpaceOnUse"><stop stop-color="#FFCC63"/><stop offset="1" stop-color="#FC8731"/></linearGradient><linearGradient id="d" x1="21.7" x2="21.7" y1="21.199" y2="28" gradientUnits="userSpaceOnUse"><stop stop-color="#FFC461"/><stop offset="1" stop-color="#FFDB64"/></linearGradient><linearGradient id="e" x1="8.4" x2="8.4" y1="18.565" y2="26.667" gradientUnits="userSpaceOnUse"><stop stop-color="#FFBC58"/><stop offset="1" stop-color="#FFDD65"/></linearGradient><linearGradient id="g" x1="22.993" x2="22.993" y1="18.944" y2="25.333" gradientUnits="userSpaceOnUse"><stop stop-color="#fff"/><stop offset="1" stop-color="#FFEEE0"/></linearGradient><linearGradient id="h" x1="19.418" x2="19.418" y1="18.667" y2="25.195" gradientUnits="userSpaceOnUse"><stop stop-color="#fff"/><stop offset="1" stop-color="#FFEEE0"/></linearGradient><filter id="a" width="28" height="30" x="0" y="0" color-interpolation-filters="sRGB" filterUnits="userSpaceOnUse"><feColorMatrix in="SourceAlpha" result="hardAlpha" values="0 0 0 0 0 0 0 0 0 0 0 0 0 0 0 0 0 0 127 0"/><feGaussianBlur stdDeviation="1"/><feColorMatrix values="0 0 0 0 0.995833 0 0 0 0 0.430158 0 0 0 0 0.0165972 0 0 0 0.8 0"/></filter><filter id="c" width="15" height="7.667" x="5.1" y="8" color-interpolation-filters="sRGB" filterUnits="userSpaceOnUse"><feColorMatrix in="SourceAlpha" result="hardAlpha" values="0 0 0 0 0 0 0 0 0 0 0 0 0 0 0 0 0 0 127 0"/><feGaussianBlur stdDeviation=".25"/><feColorMatrix values="0 0 0 0 0.995833 0 0 0 0 0.430158 0 0 0 0 0.0165972 0 0 0 0.8 0"/></filter><filter id="f" width="9" height="8.667" x="17.2" y="17.667" color-interpolation-filters="sRGB" filterUnits="userSpaceOnUse"><feColorMatrix in="SourceAlpha" result="hardAlpha" values="0 0 0 0 0 0 0 0 0 0 0 0 0 0 0 0 0 0 127 0"/><feGaussianBlur stdDeviation=".5"/><feColorMatrix values="0 0 0 0 1 0 0 0 0 0.302917 0 0 0 0 0.00416667 0 0 0 0.5 0"/></filter></defs><g filter="url(#a)"><path fill="url(#b)" fill-rule="evenodd" d="M7 1a1 1 0 0 1 1-1h9.2a1 1 0 0 1 1 1v.667a1 1 0 0 1-1 1H8a1 1 0 0 1-1-1zm-1.4.333H2a2 2 0 0 0-2 2v21.334a2 2 0 0 0 2 2h13.76A7.1 7.1 0 0 1 14 22c0-4.05 3.448-7.333 7.7-7.333 1.26 0 2.45.288 3.5.8V3.332a2 2 0 0 0-2-2h-3.6V3a1 1 0 0 1-1 1h-12a1 1 0 0 1-1-1zM21.7 28c3.48 0 6.3-2.686 6.3-6s-2.82-6-6.3-6-6.3 2.686-6.3 6 2.82 6 6.3 6" clip-rule="evenodd"/></g><g filter="url(#c)"><path fill="#fff" fill-rule="evenodd" d="M5.6 8.667C5.6 8.298 5.9 8 6.267 8h12.667a.667.667 0 1 1 0 1.333H6.267a.667.667 0 0 1-.667-.666m0 2.666c0-.368.299-.666.667-.666h12.666a.667.667 0 1 1 0 1.333H6.267a.667.667 0 0 1-.667-.667m.667 2a.667.667 0 0 0 0 1.334h5.666a.667.667 0 0 0 0-1.334z" clip-rule="evenodd"/></g><path fill="url(#d)" d="M20.3 23.333c-2.24.534-4.2-.666-4.9-1.333a6 6 0 0 0 6 6h.424A6.176 6.176 0 0 0 28 21.824a.55.55 0 0 0-.488-.55c-4.415-.472-4.508 1.416-7.212 2.06"/><path fill="url(#e)" fill-rule="evenodd" d="M14.003 21.79c-2.763-.724-3.83-1.226-4.794-1.68-.612-.288-1.184-.557-2.121-.85-3.288-1.032-4.67.567-5.736 1.802-.467.54-.873 1.01-1.352 1.16v2.445a2 2 0 0 0 2 2h13.76a7.1 7.1 0 0 1-1.757-4.877" clip-rule="evenodd"/><g filter="url(#f)"><path fill="url(#g)" d="M20.787 18.944v4.723h.913v-.278h.76v1.944h1.066V23.39h.76v.278h.914v-4.723zm1.826 3.473h-.761v-.834h.76zm0-1.667h-.761v-.972h.76zm1.674 1.667h-.761v-.834h.76zm0-1.667h-.761v-.972h.76z"/><path fill="url(#h)" d="M20.026 21.722v-1.11h.61v-.834h-.61v-1.111h-1.065v1.11h-.76v.834h.76v1.25c-.304 0-.456.14-.76.14l.151.832c.153 0 .457 0 .761-.138v1.25c0 .138-.152.277-.304.277H18.2c.152.278.152.695.152.973h.913c.457 0 .761-.278.761-.834v-1.805c.153 0 .457-.14.61-.14-.153-.277 0-.555 0-.971z"/></g></svg>