<svg xmlns="http://www.w3.org/2000/svg" fill="none" viewBox="0 0 28 28"><defs><linearGradient id="b" x1="14" x2="14" y1="0" y2="28" gradientUnits="userSpaceOnUse"><stop stop-color="#297DFF"/><stop offset="1" stop-color="#79D0FF"/></linearGradient><linearGradient id="c" x1="20.179" x2="20.179" y1="11.2" y2="25.2" gradientUnits="userSpaceOnUse"><stop stop-color="#54B3FF"/><stop offset="1" stop-color="#7ADAFF"/></linearGradient><linearGradient id="e" x1="14" x2="14" y1="0" y2="28" gradientUnits="userSpaceOnUse"><stop stop-color="#297DFF"/><stop offset="1" stop-color="#79D0FF"/></linearGradient><linearGradient id="g" x1="14.635" x2="14.635" y1="1.667" y2="27.397" gradientUnits="userSpaceOnUse"><stop stop-color="#fff"/><stop offset="1" stop-color="#D2FAFF"/></linearGradient><filter id="a" width="25.2" height="24.868" x="2.8" y="0" color-interpolation-filters="sRGB" filterUnits="userSpaceOnUse"><feColorMatrix in="SourceAlpha" result="hardAlpha" values="0 0 0 0 0 0 0 0 0 0 0 0 0 0 0 0 0 0 127 0"/><feGaussianBlur stdDeviation="1"/><feColorMatrix values="0 0 0 0 0.160784 0 0 0 0 0.490196 0 0 0 0 1 0 0 0 1 0"/></filter><filter id="d" width="27.464" height="11.466" x="0" y="17.034" color-interpolation-filters="sRGB" filterUnits="userSpaceOnUse"><feColorMatrix in="SourceAlpha" result="hardAlpha" values="0 0 0 0 0 0 0 0 0 0 0 0 0 0 0 0 0 0 127 0"/><feGaussianBlur stdDeviation=".25"/><feColorMatrix values="0 0 0 0 0.160784 0 0 0 0 0.490196 0 0 0 0 1 0 0 0 0.4 0"/></filter><filter id="f" width="13.6" height="12.2" x="7.84" y="4.694" color-interpolation-filters="sRGB" filterUnits="userSpaceOnUse"><feColorMatrix in="SourceAlpha" result="hardAlpha" values="0 0 0 0 0 0 0 0 0 0 0 0 0 0 0 0 0 0 127 0"/><feGaussianBlur stdDeviation=".25"/><feColorMatrix values="0 0 0 0 0.0791667 0 0 0 0 0.518333 0 0 0 0 1 0 0 0 0.6 0"/></filter></defs><g filter="url(#a)"><path fill="url(#b)" d="M15.31 0C8.34 0 2.8 5.854 2.8 13.172c0 2.378.715 4.757 1.787 6.77l5.362-2.928q1.073-.549 2.144 0c.894.549 1.252 1.464 1.43 2.012.11.563-.05 1.125-.231 1.474-.14.27-.415.494-.605.732l-1.308 1.636 4.468-.182c.714 0 1.608-.55 1.966-.915l6.504-5.805a5.7 5.7 0 0 1 1.002-.734c.727-.405 1.5-.67 2.502-.23.119-.302.179-1.28.179-1.83C27.82 5.854 22.28 0 15.31 0"/></g><path fill="url(#c)" fill-rule="evenodd" d="M27.344 9.188 27.24 9.1c-.7 2.567-3.36 7.28-8.4 5.6-3.874-1.291-6.341.367-7.594 2.052q.424.045.848.262c.893.549 1.25 1.464 1.43 2.013.11.562-.05 1.124-.232 1.473-.09.175-.237.33-.38.482a4 4 0 0 0-.225.25l-1.19 1.49q.037.069.076.138l4.274-.174c.715 0 1.608-.55 1.966-.915l6.505-5.805a5.6 5.6 0 0 1 1.001-.734c.728-.405 1.5-.67 2.502-.23.12-.302.18-1.28.18-1.83a14.5 14.5 0 0 0-.657-3.984" clip-rule="evenodd"/><g filter="url(#d)"><path fill="url(#e)" d="m26.034 17.38-6.791 6.22c-.18.183-1.609 1.28-3.217 1.28l-4.469.184c-.097 0-.26 0-.457-.022-1.378-.155-2.325-1.772-1.788-3.05a4 4 0 0 1 .1-.221l1.788-2.379c0-.366-.179-.548-.179-.548L.655 24.515s-.449.11-.536.732c-.179 1.28-.357 2.012 1.072 2.744h17.337c.178 0 1.43.183 2.144-1.098.894-1.463 6.256-8.232 6.434-8.598.18 0 .358-.732.358-.915-.536-.366-.715-.549-1.43 0"/></g><g filter="url(#f)"><path fill="url(#g)" d="M10.827 4.694c-.331 2.27-1.16 3.784-2.487 4.692.332.454.663.908.995 1.514.332-.303.497-.606.663-.909v5.752h1.492q-.247-4.314 0-7.72h-.165c.497-.907.829-1.815 1.16-2.723a12 12 0 0 1-1.658-.606m9.948 6.66V9.99H16.96v-.756h2.653V5.148h-6.466v4.087h2.487v.756h-3.482v1.363h2.819c-.663.756-1.16 1.362-1.99 1.967-.497.303-.994.606-1.492.757q.498.455.995 1.362c1.16-.757 2.155-1.513 2.819-2.422v2.876h1.657v-3.33c.664 1.211 1.658 2.27 3.15 2.876.166-.454.498-.908.83-1.362-1.161-.454-2.322-1.362-2.985-2.724zm-6.3-4.844h3.315v1.514h-3.315z"/></g></svg>