<svg xmlns="http://www.w3.org/2000/svg" fill="none" viewBox="0 0 28 28"><defs><linearGradient id="b" x1="13.177" x2="13.177" y1="25.2" y2="0" gradientUnits="userSpaceOnUse"><stop stop-color="#64EDC4"/><stop offset="1" stop-color="#00BC7A"/></linearGradient><linearGradient id="c" x1="14" x2="14" y1="16.8" y2="28" gradientUnits="userSpaceOnUse"><stop stop-color="#55EEBC"/><stop offset="1" stop-color="#75F9C1"/></linearGradient><linearGradient id="e" x1="19.25" x2="8.05" y1="14.7" y2="14.7" gradientUnits="userSpaceOnUse"><stop stop-color="#fff"/><stop offset="1" stop-color="#A7FFDD"/></linearGradient><filter id="a" width="28" height="30" x="0" y="0" color-interpolation-filters="sRGB" filterUnits="userSpaceOnUse"><feColorMatrix in="SourceAlpha" result="hardAlpha" values="0 0 0 0 0 0 0 0 0 0 0 0 0 0 0 0 0 0 127 0"/><feGaussianBlur stdDeviation="1"/><feColorMatrix values="0 0 0 0 0 0 0 0 0 0.623529 0 0 0 0 0.403922 0 0 0 0.6 0"/></filter><filter id="d" width="17.03" height="16.585" x="5.135" y="7.407" color-interpolation-filters="sRGB" filterUnits="userSpaceOnUse"><feColorMatrix in="SourceAlpha" result="hardAlpha" values="0 0 0 0 0 0 0 0 0 0 0 0 0 0 0 0 0 0 127 0"/><feGaussianBlur stdDeviation=".5"/><feColorMatrix values="0 0 0 0 0 0 0 0 0 0.623529 0 0 0 0 0.403922 0 0 0 0.5 0"/></filter></defs><g filter="url(#a)"><path fill="url(#b)" fill-rule="evenodd" d="M0 0h4.2v4.2H0zm23.8 0H28v4.2h-4.2zM4.2 23.8H0V28h4.2zm19.6 0H28V28h-4.2zM22.4 0H5.6v5.6H0v16.8h5.6V28h16.8v-5.6H28V5.6h-5.6z" clip-rule="evenodd"/></g><path fill="url(#c)" fill-rule="evenodd" d="M0 19.151V22.4h5.6V28h16.8v-5.6H28v-5.019c-1.75-.885-7.875-.885-10.5.885s-7 2.655-9.625.885c-2.1-1.416-6.125-.59-7.875 0" clip-rule="evenodd"/><g filter="url(#d)"><path fill="url(#e)" fill-rule="evenodd" d="m6.135 17.907 11.2-10.5 3.83 4.086-11.2 10.5z" clip-rule="evenodd"/></g></svg>