<svg xmlns="http://www.w3.org/2000/svg" fill="none" viewBox="0 0 28 25"><defs><linearGradient id="b" x1="24.867" x2="3.023" y1="25" y2=".096" gradientUnits="userSpaceOnUse"><stop stop-color="#FF9E98"/><stop offset="1" stop-color="#F04B42"/></linearGradient><linearGradient id="c" x1="15.555" x2="15.555" y1="11.963" y2="25" gradientUnits="userSpaceOnUse"><stop stop-color="#FA7F78"/><stop offset="1" stop-color="#FFB9A3"/></linearGradient><linearGradient id="e" x1="14" x2="14" y1="10.938" y2="14.063" gradientUnits="userSpaceOnUse"><stop stop-color="#fff"/><stop offset="1" stop-color="#FFC6B8"/></linearGradient><filter id="a" width="28" height="25.5" x="0" y="0" color-interpolation-filters="sRGB" filterUnits="userSpaceOnUse"><feColorMatrix in="SourceAlpha" result="hardAlpha" values="0 0 0 0 0 0 0 0 0 0 0 0 0 0 0 0 0 0 127 0"/><feGaussianBlur stdDeviation=".25"/><feColorMatrix values="0 0 0 0 0.941176 0 0 0 0 0.294118 0 0 0 0 0.258824 0 0 0 1 0"/></filter><filter id="d" width="10.334" height="10.375" x="8.833" y="7.813" color-interpolation-filters="sRGB" filterUnits="userSpaceOnUse"><feColorMatrix in="SourceAlpha" result="hardAlpha" values="0 0 0 0 0 0 0 0 0 0 0 0 0 0 0 0 0 0 127 0"/><feGaussianBlur stdDeviation=".25"/><feColorMatrix values="0 0 0 0 0.94902 0 0 0 0 0.333333 0 0 0 0 0.298039 0 0 0 1 0"/></filter></defs><g filter="url(#a)"><path fill="url(#b)" d="M25.84 2.253A7.18 7.18 0 0 0 20.635 0a7.18 7.18 0 0 0-5.205 2.253l-2.942 3.024a.644.644 0 0 1-.933 0c-.255-.267-.255-.711 0-1.008l1.443-1.512q.042-.045 0-.089l-.396-.415C9.716-.74 5.049-.74 2.164 2.253c-2.885 3.024-2.885 7.886 0 10.91l1.414 1.483 2.526 2.647 5.988 6.277.962 1.008c.538.563 1.358.563 1.895 0l.934-1.008 8.514-8.924 1.414-1.483c2.914-2.994 2.914-7.886.029-10.91"/></g><path fill="url(#c)" fill-rule="evenodd" d="M25.295 13.705c-3.11-2.875-5.193-1.615-7.347-.312-1.436.869-2.903 1.756-4.726 1.451-3.362-.563-6.556.944-7.537 2.01l.42.44 5.987 6.276.962 1.008c.537.563 1.358.563 1.895 0l.934-1.008 8.514-8.924z" clip-rule="evenodd"/><g filter="url(#d)"><path fill="url(#e)" fill-rule="evenodd" d="M13.444 7.813a1 1 0 0 0-1 1v2.124h-2.111a1 1 0 0 0-1 1v1.126a1 1 0 0 0 1 1h2.111v2.124a1 1 0 0 0 1 1h1.111a1 1 0 0 0 1-1v-2.125h2.111a1 1 0 0 0 1-1v-1.124a1 1 0 0 0-1-1h-2.11V8.812a1 1 0 0 0-1-1z" clip-rule="evenodd"/></g></svg>