<svg xmlns="http://www.w3.org/2000/svg" fill="none" viewBox="0 0 26 28"><defs><linearGradient id="b" x1="13.765" x2="13.765" y1="28" y2="0" gradientUnits="userSpaceOnUse"><stop stop-color="#79D0FF"/><stop offset="1" stop-color="#297DFF"/></linearGradient><linearGradient id="c" x1="13" x2="13" y1="18.667" y2="28" gradientUnits="userSpaceOnUse"><stop stop-color="#7CC1FF"/><stop offset="1" stop-color="#79D9FF"/></linearGradient><linearGradient id="e" x1="17.764" x2="17.764" y1="14" y2="24" gradientUnits="userSpaceOnUse"><stop stop-color="#fff"/><stop offset="1" stop-color="#D7F2FF"/></linearGradient><filter id="a" width="26" height="28.5" x="0" y="0" color-interpolation-filters="sRGB" filterUnits="userSpaceOnUse"><feColorMatrix in="SourceAlpha" result="hardAlpha" values="0 0 0 0 0 0 0 0 0 0 0 0 0 0 0 0 0 0 127 0"/><feGaussianBlur stdDeviation=".25"/><feColorMatrix values="0 0 0 0 0.108333 0 0 0 0 0.471119 0 0 0 0 1 0 0 0 1 0"/></filter><filter id="d" width="11" height="11" x="12.264" y="14" color-interpolation-filters="sRGB" filterUnits="userSpaceOnUse"><feColorMatrix in="SourceAlpha" result="hardAlpha" values="0 0 0 0 0 0 0 0 0 0 0 0 0 0 0 0 0 0 127 0"/><feGaussianBlur stdDeviation=".25"/><feColorMatrix values="0 0 0 0 0.313726 0 0 0 0 0.733333 0 0 0 0 0.984314 0 0 0 1 0"/></filter><filter id="f" width="15.182" height="8" x="3.754" y="5.6" color-interpolation-filters="sRGB" filterUnits="userSpaceOnUse"><feColorMatrix in="SourceAlpha" result="hardAlpha" values="0 0 0 0 0 0 0 0 0 0 0 0 0 0 0 0 0 0 127 0"/><feGaussianBlur stdDeviation=".25"/><feColorMatrix values="0 0 0 0 0.0791667 0 0 0 0 0.518333 0 0 0 0 1 0 0 0 0.5 0"/></filter></defs><g filter="url(#a)"><path fill="url(#b)" d="M0 2a2 2 0 0 1 2-2h22a2 2 0 0 1 2 2v24a2 2 0 0 1-2 2H2a2 2 0 0 1-2-2z"/></g><path fill="url(#c)" d="M7.313 20.626c-1.95-1.18-5.688-.492-7.313 0V26a2 2 0 0 0 2 2h22a2 2 0 0 0 2-2v-6.849c-1.625-.737-7.312-.737-9.75.738-2.437 1.474-6.5 2.212-8.937.737"/><g filter="url(#d)"><path fill="url(#e)" fill-rule="evenodd" d="M19.307 18.254a2.34 2.34 0 0 0 .957-1.873c0-1.315-1.12-2.381-2.5-2.381s-2.5 1.066-2.5 2.38c0 .761.374 1.438.956 1.874l-.616 1.883a.5.5 0 0 1-.475.344h-1.365a1 1 0 0 0-1 1V23.5a.5.5 0 0 0 .5.5h9a.5.5 0 0 0 .5-.5V21.48a1 1 0 0 0-1-1h-1.365a.5.5 0 0 1-.475-.344z" clip-rule="evenodd"/></g><g filter="url(#f)"><path fill="#fff" fill-rule="evenodd" d="M4.254 6.3a.7.7 0 0 1 .7-.7h12.782a.7.7 0 1 1 0 1.4H4.954a.7.7 0 0 1-.7-.7m0 2.8a.7.7 0 0 1 .7-.7h12.782a.7.7 0 1 1 0 1.4H4.954a.7.7 0 0 1-.7-.7m.7 2.1a.7.7 0 0 0 0 1.4h5.691a.7.7 0 1 0 0-1.4z" clip-rule="evenodd"/></g></svg>