<svg xmlns="http://www.w3.org/2000/svg" fill="none" viewBox="0 0 30 30"><defs><linearGradient id="a" x1="23.177" x2="23.177" y1="25.893" y2="15.934" gradientUnits="userSpaceOnUse"><stop stop-color="#64EDC4"/><stop offset="1" stop-color="#00BC7A"/></linearGradient><linearGradient id="c" x1="23.51" x2="23.51" y1="18.831" y2="24.138" gradientUnits="userSpaceOnUse"><stop stop-color="#fff"/><stop offset="1" stop-color="#DEFFF2"/></linearGradient><linearGradient id="e" x1="9" x2="9" y1="24.6" y2="3" gradientUnits="userSpaceOnUse"><stop stop-color="#64EDC4"/><stop offset="1" stop-color="#00BC7A"/></linearGradient><filter id="b" width="9.02" height="9.122" x="19" y="17.924" color-interpolation-filters="sRGB" filterUnits="userSpaceOnUse"><feColorMatrix in="SourceAlpha" result="hardAlpha" values="0 0 0 0 0 0 0 0 0 0 0 0 0 0 0 0 0 0 127 0"/><feGaussianBlur stdDeviation=".5"/><feColorMatrix values="0 0 0 0 0 0 0 0 0 0.623529 0 0 0 0 0.403922 0 0 0 0.5 0"/></filter><filter id="d" width="17" height="25" x="1" y="3" color-interpolation-filters="sRGB" filterUnits="userSpaceOnUse"><feColorMatrix in="SourceAlpha" result="hardAlpha" values="0 0 0 0 0 0 0 0 0 0 0 0 0 0 0 0 0 0 127 0"/><feGaussianBlur stdDeviation=".5"/><feColorMatrix values="0 0 0 0 0 0 0 0 0 0.737255 0 0 0 0 0.478431 0 0 0 1 0"/></filter></defs><ellipse cx="23.5" cy="21.467" fill="#D9D9D9" rx="5.5" ry="5.533"/><ellipse cx="23.5" cy="21.467" fill="url(#a)" rx="5.5" ry="5.533"/><g filter="url(#b)"><path fill="#fff" d="M22.886 20.936q1.039-.615 1.039-1.721v-.353h1.286v1.09q0 .76.815.76h.762v-.675h-.568q-.314 0-.314-.254v-1.606H23.23v1.115q0 .699-.815 1.083zm-.412-.116q-.371.226-.755.43v-1.282h.793v-.7h-.793v-1.344h-.703v1.345h-.852v.699h.852v1.605a10 10 0 0 1-1.016.33l.18.738q.423-.15.837-.33v1.66q0 .285-.277.284-.232 0-.553-.039l.157.707h.643q.732 0 .733-.768V21.98q.343-.17.755-.416zm2.834 2.766a4.2 4.2 0 0 0 1.062-1.767v-.676h-3.656v.707h.411q.284.945 1.084 1.698-.792.545-1.9.883l.39.615q1.24-.377 2.093-1.014.755.546 1.847.991l.381-.63a8.3 8.3 0 0 1-1.712-.807m-.598-.438a3.24 3.24 0 0 1-.927-1.298h1.869a4 4 0 0 1-.942 1.298"/><path fill="url(#c)" d="M22.886 20.936q1.039-.615 1.039-1.721v-.353h1.286v1.09q0 .76.815.76h.762v-.675h-.568q-.314 0-.314-.254v-1.606H23.23v1.115q0 .699-.815 1.083zm-.412-.116q-.371.226-.755.43v-1.282h.793v-.7h-.793v-1.344h-.703v1.345h-.852v.699h.852v1.605a10 10 0 0 1-1.016.33l.18.738q.423-.15.837-.33v1.66q0 .285-.277.284-.232 0-.553-.039l.157.707h.643q.732 0 .733-.768V21.98q.343-.17.755-.416zm2.834 2.766a4.2 4.2 0 0 0 1.062-1.767v-.676h-3.656v.707h.411q.284.945 1.084 1.698-.792.545-1.9.883l.39.615q1.24-.377 2.093-1.014.755.546 1.847.991l.381-.63a8.3 8.3 0 0 1-1.712-.807m-.598-.438a3.24 3.24 0 0 1-.927-1.298h1.869a4 4 0 0 1-.942 1.298"/></g><g filter="url(#d)"><path fill="url(#e)" d="M17.033 17.188a21 21 0 0 0-2.93-.545c-.217.447-1.517 2.681-1.625 2.904-.109.112-.325.112-.325 0-.109-.111-1.3-2.457-1.624-2.904C6.631 17.09 1 18.989 1 22.34v3.654c0 .559.433 1.006.974 1.006h15.482a9.3 9.3 0 0 1-1.604-5.25c0-1.667.436-3.223 1.18-4.562m-4.664-2.555c3.141 0 5.631-2.57 5.631-5.81v-.335c-.215-3.238-2.815-5.697-5.956-5.474A5.78 5.78 0 0 0 6.74 8.376c-.216 3.463 2.382 6.257 5.63 6.257"/></g></svg>