<svg xmlns="http://www.w3.org/2000/svg" fill="none" viewBox="0 0 28 27"><defs><linearGradient id="b" x1="13.341" x2="13.341" y1="25.73" y2="1.603" gradientUnits="userSpaceOnUse"><stop stop-color="#78CFFF"/><stop offset="1" stop-color="#297DFF"/></linearGradient><linearGradient id="d" x1="12.27" x2="12.27" y1="25.413" y2="1.587" gradientUnits="userSpaceOnUse"><stop stop-color="#78CFFF"/><stop offset="1" stop-color="#297DFF"/></linearGradient><linearGradient id="e" x1="21.399" x2="21.399" y1="20.199" y2="27" gradientUnits="userSpaceOnUse"><stop stop-color="#7BC6FF"/><stop offset="1" stop-color="#7ADAFF"/></linearGradient><linearGradient id="f" x1="8.4" x2="8.4" y1="25.303" y2="18.293" gradientUnits="userSpaceOnUse"><stop stop-color="#7AD9FF"/><stop offset="1" stop-color="#7BC5FF"/></linearGradient><linearGradient id="h" x1="8.101" x2="8.101" y1="16.666" y2="22.333" gradientUnits="userSpaceOnUse"><stop stop-color="#fff"/><stop offset="1" stop-color="#E4F7FF"/></linearGradient><linearGradient id="j" x1="12.148" x2="12.148" y1="4.798" y2="12.655" gradientUnits="userSpaceOnUse"><stop stop-color="#fff"/><stop offset="1" stop-color="#D7F2FF"/></linearGradient><linearGradient id="l" x1="21.5" x2="21.5" y1="17" y2="24" gradientUnits="userSpaceOnUse"><stop stop-color="#fff"/><stop offset="1" stop-color="#D7F2FF"/></linearGradient><filter id="a" width="27.399" height="27.667" x="0" y=".333" color-interpolation-filters="sRGB" filterUnits="userSpaceOnUse"><feFlood flood-opacity="0" result="BackgroundImageFix"/><feBlend in="SourceGraphic" in2="BackgroundImageFix" result="shape"/><feColorMatrix in="SourceAlpha" result="hardAlpha" values="0 0 0 0 0 0 0 0 0 0 0 0 0 0 0 0 0 0 127 0"/><feOffset dy="1"/><feGaussianBlur stdDeviation=".5"/><feComposite in2="hardAlpha" k2="-1" k3="1" operator="arithmetic"/><feColorMatrix values="0 0 0 0 0.0370312 0 0 0 0 0.422243 0 0 0 0 0.9875 0 0 0 0.8 0"/><feBlend in2="shape" result="effect1_innerShadow_298_2069"/></filter><filter id="c" width="5.2" height="6.667" x="20" y=".333" color-interpolation-filters="sRGB" filterUnits="userSpaceOnUse"><feFlood flood-opacity="0" result="BackgroundImageFix"/><feBlend in="SourceGraphic" in2="BackgroundImageFix" result="shape"/><feColorMatrix in="SourceAlpha" result="hardAlpha" values="0 0 0 0 0 0 0 0 0 0 0 0 0 0 0 0 0 0 127 0"/><feOffset dy="1"/><feGaussianBlur stdDeviation=".5"/><feComposite in2="hardAlpha" k2="-1" k3="1" operator="arithmetic"/><feColorMatrix values="0 0 0 0 0.0370312 0 0 0 0 0.422243 0 0 0 0 0.9875 0 0 0 0.8 0"/><feBlend in2="shape" result="effect1_innerShadow_298_2069"/></filter><filter id="g" width="10" height="5.067" x="3.101" y="15.666" color-interpolation-filters="sRGB" filterUnits="userSpaceOnUse"><feFlood flood-opacity="0" result="BackgroundImageFix"/><feColorMatrix in="SourceAlpha" result="hardAlpha" values="0 0 0 0 0 0 0 0 0 0 0 0 0 0 0 0 0 0 127 0"/><feOffset dy=".5"/><feGaussianBlur stdDeviation=".25"/><feComposite in2="hardAlpha" operator="out"/><feColorMatrix values="0 0 0 0 0.0784314 0 0 0 0 0.517647 0 0 0 0 1 0 0 0 0.8 0"/><feBlend in2="BackgroundImageFix" result="effect1_dropShadow_298_2069"/><feBlend in="SourceGraphic" in2="effect1_dropShadow_298_2069" result="shape"/></filter><filter id="i" width="12" height="9.857" x="6.147" y="4.798" color-interpolation-filters="sRGB" filterUnits="userSpaceOnUse"><feFlood flood-opacity="0" result="BackgroundImageFix"/><feColorMatrix in="SourceAlpha" result="hardAlpha" values="0 0 0 0 0 0 0 0 0 0 0 0 0 0 0 0 0 0 127 0"/><feOffset dy="1"/><feGaussianBlur stdDeviation=".5"/><feComposite in2="hardAlpha" operator="out"/><feColorMatrix values="0 0 0 0 0 0 0 0 0 0.546167 0 0 0 0 0.941667 0 0 0 0.6 0"/><feBlend in2="BackgroundImageFix" result="effect1_dropShadow_298_2069"/><feBlend in="SourceGraphic" in2="effect1_dropShadow_298_2069" result="shape"/></filter><filter id="k" width="8" height="8" x="17.5" y="17" color-interpolation-filters="sRGB" filterUnits="userSpaceOnUse"><feFlood flood-opacity="0" result="BackgroundImageFix"/><feColorMatrix in="SourceAlpha" result="hardAlpha" values="0 0 0 0 0 0 0 0 0 0 0 0 0 0 0 0 0 0 127 0"/><feOffset dy=".5"/><feGaussianBlur stdDeviation=".25"/><feComposite in2="hardAlpha" operator="out"/><feColorMatrix values="0 0 0 0 0.313726 0 0 0 0 0.733333 0 0 0 0 0.984314 0 0 0 1 0"/><feBlend in2="BackgroundImageFix" result="effect1_dropShadow_298_2069"/><feBlend in="SourceGraphic" in2="effect1_dropShadow_298_2069" result="shape"/></filter></defs><g><g><g><g filter="url(#a)"><path fill="url(#b)" fill-rule="evenodd" d="M0 2.333a2 2 0 0 1 2-2h17L25.2 7.5v7.141a7.5 7.5 0 0 0-8.799 12.025H2a2 2 0 0 1-2-2zM21.4 27a6 6 0 1 0 0-12 6 6 0 0 0 0 12" clip-rule="evenodd"/></g><g filter="url(#c)"><path fill="url(#d)" d="M20 .333h3.2a2 2 0 0 1 2 2V6z"/></g><path fill="url(#e)" d="M20.066 22.333c-2.133.534-4-.666-4.667-1.333a6 6 0 0 0 12 0v-.18a.55.55 0 0 0-.485-.549c-4.185-.463-4.277 1.42-6.848 2.062"/><path fill="url(#f)" fill-rule="evenodd" d="M14.045 21.801c-2.794-.73-3.867-1.234-4.836-1.69-.612-.289-1.184-.558-2.121-.852-3.288-1.03-4.67.568-5.736 1.803-.467.54-.873 1.01-1.352 1.16v2.445a2 2 0 0 0 2 2h14.812c-1.513-1.186-2.543-2.91-2.767-4.866" clip-rule="evenodd"/><g filter="url(#g)"><path fill="url(#h)" fill-rule="evenodd" d="M4.3 15.666a.7.7 0 1 0 0 1.4h7.6a.7.7 0 1 0 0-1.4zm0 2.667a.7.7 0 1 0 0 1.4h5.6a.7.7 0 1 0 0-1.4z" clip-rule="evenodd"/></g><g><g filter="url(#i)"><path fill="url(#j)" d="M16.9 7.053c-.292-.273-.804-.615-1.462-.683.073-.137.073-.342.146-.547V5.14c0-.137-.146-.273-.365-.342h-.073a.41.41 0 0 0-.366.205c-.292.274-.658.615-.877.684a6.7 6.7 0 0 0-1.682-.41c-.659 0-1.244.136-1.682.41-.22-.069-.585-.41-.805-.684-.22-.136-.365-.205-.512-.205H9.15c-.22 0-.365.137-.365.342 0 .068-.147.683.073 1.298-.658.068-1.243.41-1.463.683-.22.137-.292.41-.22.547.147.41.732.683 1.463.683.293 0 .585-.068.878-.137l.366 2.46c0 .068-.074.068-.074.137-.073.205-.219.41-.219.683 0 .683.658 1.162 1.536 1.162h2.047c.878 0 1.536-.479 1.536-1.162 0-.273-.146-.547-.22-.683 0-.069-.073-.137-.073-.137l.366-2.46c.293.069.585.137.878.137.73 0 1.316-.273 1.462-.615.073-.205 0-.478-.22-.683"/></g><circle cx="10.388" cy="8.013" r=".357" fill="#489DFF"/><circle cx="13.96" cy="8.013" r=".357" fill="#489DFF"/><circle cx="11.103" cy="11.584" r=".357" fill="#489DFF"/><circle cx="13.246" cy="11.584" r=".357" fill="#489DFF"/></g><g filter="url(#k)"><path fill="url(#l)" fill-rule="evenodd" d="M22.58 19.978c.408-.305.67-.78.67-1.311 0-.92-.783-1.667-1.75-1.667-.966 0-1.75.746-1.75 1.667 0 .532.262 1.005.67 1.31l-.398 1.215a.5.5 0 0 1-.475.345H19a1 1 0 0 0-1 1v.963a.5.5 0 0 0 .5.5h6a.5.5 0 0 0 .5-.5v-.963a1 1 0 0 0-1-1h-.547a.5.5 0 0 1-.475-.344z" clip-rule="evenodd"/></g></g></g></g></svg>