<svg xmlns="http://www.w3.org/2000/svg" fill="none" viewBox="0 0 28 27"><defs><linearGradient id="b" x1="13.341" x2="13.341" y1="25.73" y2="1.603" gradientUnits="userSpaceOnUse"><stop stop-color="#78CFFF"/><stop offset="1" stop-color="#297DFF"/></linearGradient><linearGradient id="d" x1="12.27" x2="12.27" y1="25.413" y2="1.587" gradientUnits="userSpaceOnUse"><stop stop-color="#78CFFF"/><stop offset="1" stop-color="#297DFF"/></linearGradient><linearGradient id="e" x1="21.4" x2="21.4" y1="20.199" y2="27" gradientUnits="userSpaceOnUse"><stop stop-color="#7BC6FF"/><stop offset="1" stop-color="#7ADAFF"/></linearGradient><linearGradient id="f" x1="8.4" x2="8.4" y1="25.303" y2="18.293" gradientUnits="userSpaceOnUse"><stop stop-color="#7AD9FF"/><stop offset="1" stop-color="#7BC5FF"/></linearGradient><linearGradient id="h" x1="8.1" x2="8.1" y1="16.666" y2="22.333" gradientUnits="userSpaceOnUse"><stop stop-color="#fff"/><stop offset="1" stop-color="#E4F7FF"/></linearGradient><linearGradient id="k" x1="21.5" x2="21.5" y1="17" y2="24" gradientUnits="userSpaceOnUse"><stop stop-color="#fff"/><stop offset="1" stop-color="#D7F2FF"/></linearGradient><filter id="a" width="27.4" height="27.667" x="0" y=".333" color-interpolation-filters="sRGB" filterUnits="userSpaceOnUse"><feFlood flood-opacity="0" result="BackgroundImageFix"/><feBlend in="SourceGraphic" in2="BackgroundImageFix" result="shape"/><feColorMatrix in="SourceAlpha" result="hardAlpha" values="0 0 0 0 0 0 0 0 0 0 0 0 0 0 0 0 0 0 127 0"/><feOffset dy="1"/><feGaussianBlur stdDeviation=".5"/><feComposite in2="hardAlpha" k2="-1" k3="1" operator="arithmetic"/><feColorMatrix values="0 0 0 0 0.0370312 0 0 0 0 0.422243 0 0 0 0 0.9875 0 0 0 0.8 0"/><feBlend in2="shape" result="effect1_innerShadow_298_2041"/></filter><filter id="c" width="5.2" height="6.667" x="20" y=".333" color-interpolation-filters="sRGB" filterUnits="userSpaceOnUse"><feFlood flood-opacity="0" result="BackgroundImageFix"/><feBlend in="SourceGraphic" in2="BackgroundImageFix" result="shape"/><feColorMatrix in="SourceAlpha" result="hardAlpha" values="0 0 0 0 0 0 0 0 0 0 0 0 0 0 0 0 0 0 127 0"/><feOffset dy="1"/><feGaussianBlur stdDeviation=".5"/><feComposite in2="hardAlpha" k2="-1" k3="1" operator="arithmetic"/><feColorMatrix values="0 0 0 0 0.0370312 0 0 0 0 0.422243 0 0 0 0 0.9875 0 0 0 0.8 0"/><feBlend in2="shape" result="effect1_innerShadow_298_2041"/></filter><filter id="g" width="10" height="5.067" x="3.1" y="15.666" color-interpolation-filters="sRGB" filterUnits="userSpaceOnUse"><feFlood flood-opacity="0" result="BackgroundImageFix"/><feColorMatrix in="SourceAlpha" result="hardAlpha" values="0 0 0 0 0 0 0 0 0 0 0 0 0 0 0 0 0 0 127 0"/><feOffset dy=".5"/><feGaussianBlur stdDeviation=".25"/><feComposite in2="hardAlpha" operator="out"/><feColorMatrix values="0 0 0 0 0.0784314 0 0 0 0 0.517647 0 0 0 0 1 0 0 0 0.8 0"/><feBlend in2="BackgroundImageFix" result="effect1_dropShadow_298_2041"/><feBlend in="SourceGraphic" in2="effect1_dropShadow_298_2041" result="shape"/></filter><filter id="i" width="9.839" height="9.357" x="7.58" y="4.322" color-interpolation-filters="sRGB" filterUnits="userSpaceOnUse"><feFlood flood-opacity="0" result="BackgroundImageFix"/><feColorMatrix in="SourceAlpha" result="hardAlpha" values="0 0 0 0 0 0 0 0 0 0 0 0 0 0 0 0 0 0 127 0"/><feOffset dy=".5"/><feGaussianBlur stdDeviation=".25"/><feComposite in2="hardAlpha" operator="out"/><feColorMatrix values="0 0 0 0 0.0784314 0 0 0 0 0.517647 0 0 0 0 1 0 0 0 0.8 0"/><feBlend in2="BackgroundImageFix" result="effect1_dropShadow_298_2041"/><feBlend in="SourceGraphic" in2="effect1_dropShadow_298_2041" result="shape"/></filter><filter id="j" width="8" height="8" x="17.5" y="17" color-interpolation-filters="sRGB" filterUnits="userSpaceOnUse"><feFlood flood-opacity="0" result="BackgroundImageFix"/><feColorMatrix in="SourceAlpha" result="hardAlpha" values="0 0 0 0 0 0 0 0 0 0 0 0 0 0 0 0 0 0 127 0"/><feOffset dy=".5"/><feGaussianBlur stdDeviation=".25"/><feComposite in2="hardAlpha" operator="out"/><feColorMatrix values="0 0 0 0 0.313726 0 0 0 0 0.733333 0 0 0 0 0.984314 0 0 0 1 0"/><feBlend in2="BackgroundImageFix" result="effect1_dropShadow_298_2041"/><feBlend in="SourceGraphic" in2="effect1_dropShadow_298_2041" result="shape"/></filter></defs><g><g><g><g filter="url(#a)"><path fill="url(#b)" fill-rule="evenodd" d="M0 2.333a2 2 0 0 1 2-2h17L25.2 7.5v7.141a7.5 7.5 0 0 0-8.799 12.025H2a2 2 0 0 1-2-2zM21.4 27a6 6 0 1 0 0-12 6 6 0 0 0 0 12" clip-rule="evenodd"/></g><g filter="url(#c)"><path fill="url(#d)" d="M20 .333h3.2a2 2 0 0 1 2 2V6z"/></g><path fill="url(#e)" d="M20.066 22.333c-2.133.534-4-.666-4.666-1.333a6 6 0 1 0 12 0v-.18a.55.55 0 0 0-.485-.549c-4.185-.463-4.278 1.42-6.849 2.062"/><path fill="url(#f)" fill-rule="evenodd" d="M14.045 21.801c-2.794-.73-3.867-1.234-4.836-1.69-.612-.289-1.184-.558-2.121-.852-3.288-1.03-4.67.568-5.736 1.803-.467.54-.873 1.01-1.352 1.16v2.445a2 2 0 0 0 2 2h14.812c-1.513-1.186-2.543-2.91-2.767-4.866" clip-rule="evenodd"/><g filter="url(#g)"><path fill="url(#h)" fill-rule="evenodd" d="M4.3 15.666a.7.7 0 1 0 0 1.4h7.6a.7.7 0 1 0 0-1.4zm0 2.667a.7.7 0 1 0 0 1.4h5.6a.7.7 0 0 0 0-1.4z" clip-rule="evenodd"/></g><g filter="url(#i)"><path fill="#fff" fill-rule="evenodd" d="M9.445 4.353a.32.32 0 0 0-.46.29v1.941c0 .103-.051.225-.154.352-.312.381-.75 1.154-.75 2.453 0 1.184.555 2.025 1.4 2.556.828.518 1.918.734 3.019.734 1.1 0 2.19-.216 3.019-.735.844-.53 1.4-1.37 1.4-2.555 0-1.3-.439-2.072-.75-2.453-.103-.127-.154-.25-.154-.352V4.643a.322.322 0 0 0-.46-.29l-1.924.916-.019-.004a11 11 0 0 0-.316-.064 5 5 0 0 0-.795-.095c-.237 0-.555.05-.796.095a13 13 0 0 0-.315.064l-.02.004zm4.944 5.413c0 .864-.846 1.386-1.889 1.386s-1.889-.482-1.889-1.386.846-1.386 1.889-1.386 1.889.522 1.889 1.386m-3.697-1.748a.402.402 0 1 1 0-.804.402.402 0 0 1 0 .804m3.616 0a.402.402 0 1 0 0-.803.402.402 0 0 0 0 .803m-1.165 2.23a.401.401 0 1 0 0-.803.401.401 0 0 0 0 .803m-1.688-.402a.402.402 0 1 1 .804 0 .402.402 0 0 1-.804 0" clip-rule="evenodd"/></g><g filter="url(#j)"><path fill="url(#k)" fill-rule="evenodd" d="M22.58 19.978c.408-.305.67-.78.67-1.311 0-.92-.783-1.667-1.75-1.667-.966 0-1.75.746-1.75 1.667 0 .532.262 1.005.67 1.31l-.398 1.215a.5.5 0 0 1-.475.345H19a1 1 0 0 0-1 1v.963a.5.5 0 0 0 .5.5h6a.5.5 0 0 0 .5-.5v-.963a1 1 0 0 0-1-1h-.547a.5.5 0 0 1-.475-.344z" clip-rule="evenodd"/></g></g></g></g></svg>