<svg xmlns="http://www.w3.org/2000/svg" fill="none" viewBox="0 0 26 28"><defs><linearGradient id="b" x1="13.765" x2="13.765" y1="28" y2="0" gradientUnits="userSpaceOnUse"><stop stop-color="#FFCC63"/><stop offset="1" stop-color="#FC8731"/></linearGradient><linearGradient id="d" x1="10.03" x2="10.03" y1="15.602" y2="5.427" gradientUnits="userSpaceOnUse"><stop stop-color="#FFE7D5"/><stop offset=".812" stop-color="#fff"/></linearGradient><linearGradient id="e" x1="13" x2="13" y1="18.156" y2="28" gradientUnits="userSpaceOnUse"><stop stop-color="#FFBC58"/><stop offset="1" stop-color="#FFDD65"/></linearGradient><linearGradient id="g" x1="9.992" x2="9.992" y1="24.16" y2="18.044" gradientUnits="userSpaceOnUse"><stop stop-color="#FFE7D5"/><stop offset=".812" stop-color="#fff"/></linearGradient><filter id="a" width="26" height="29" x="0" y="0" color-interpolation-filters="sRGB" filterUnits="userSpaceOnUse"><feFlood flood-opacity="0" result="BackgroundImageFix"/><feBlend in="SourceGraphic" in2="BackgroundImageFix" result="shape"/><feColorMatrix in="SourceAlpha" result="hardAlpha" values="0 0 0 0 0 0 0 0 0 0 0 0 0 0 0 0 0 0 127 0"/><feOffset dy="1"/><feGaussianBlur stdDeviation=".5"/><feComposite in2="hardAlpha" k2="-1" k3="1" operator="arithmetic"/><feColorMatrix values="0 0 0 0 0.995833 0 0 0 0 0.430158 0 0 0 0 0.0165972 0 0 0 0.8 0"/><feBlend in2="shape" result="effect1_innerShadow_297_1978"/></filter><filter id="c" width="13" height="10.429" x="3.647" y="4.798" color-interpolation-filters="sRGB" filterUnits="userSpaceOnUse"><feFlood flood-opacity="0" result="BackgroundImageFix"/><feColorMatrix in="SourceAlpha" result="hardAlpha" values="0 0 0 0 0 0 0 0 0 0 0 0 0 0 0 0 0 0 127 0"/><feOffset dy=".5"/><feGaussianBlur stdDeviation=".25"/><feComposite in2="hardAlpha" operator="out"/><feColorMatrix values="0 0 0 0 0.995833 0 0 0 0 0.430158 0 0 0 0 0.0165972 0 0 0 0.8 0"/><feBlend in2="BackgroundImageFix" result="effect1_dropShadow_297_1978"/><feBlend in="SourceGraphic" in2="effect1_dropShadow_297_1978" result="shape"/></filter><filter id="f" width="12" height="6.667" x="4.1" y="17.666" color-interpolation-filters="sRGB" filterUnits="userSpaceOnUse"><feFlood flood-opacity="0" result="BackgroundImageFix"/><feColorMatrix in="SourceAlpha" result="hardAlpha" values="0 0 0 0 0 0 0 0 0 0 0 0 0 0 0 0 0 0 127 0"/><feOffset dy=".5"/><feGaussianBlur stdDeviation=".25"/><feComposite in2="hardAlpha" operator="out"/><feColorMatrix values="0 0 0 0 0.995833 0 0 0 0 0.430158 0 0 0 0 0.0165972 0 0 0 0.8 0"/><feBlend in2="BackgroundImageFix" result="effect1_dropShadow_297_1978"/><feBlend in="SourceGraphic" in2="effect1_dropShadow_297_1978" result="shape"/></filter></defs><g><g><g filter="url(#a)"><path fill="url(#b)" fill-rule="evenodd" d="M19.5 0H2a2 2 0 0 0-2 2v24a2 2 0 0 0 2 2h17.5zm1.625 28H24a2 2 0 0 0 2-2V2a2 2 0 0 0-2-2h-2.875z" clip-rule="evenodd"/></g><g><g filter="url(#c)"><path fill="url(#d)" d="M15.851 7.504c-.35-.328-.965-.738-1.755-.82.088-.164.088-.41.176-.656v-.82c0-.164-.176-.328-.439-.41h-.088a.49.49 0 0 0-.438.246c-.351.328-.79.738-1.053.82a8 8 0 0 0-2.019-.492c-.79 0-1.492.164-2.018.492-.263-.082-.702-.492-.965-.82-.264-.164-.44-.246-.615-.246H6.55c-.264 0-.44.164-.44.41 0 .082-.175.82.089 1.558-.79.082-1.492.492-1.755.82-.264.164-.351.492-.264.656.176.492.878.82 1.755.82.351 0 .702-.082 1.053-.164l.44 2.951c0 .082-.089.082-.089.164-.087.246-.263.492-.263.82 0 .82.79 1.394 1.843 1.394h2.457c1.053 0 1.843-.574 1.843-1.394 0-.328-.176-.656-.263-.82 0-.082-.088-.164-.088-.164l.438-2.951c.352.082.703.164 1.054.164.877 0 1.58-.328 1.755-.738.087-.246 0-.574-.264-.82"/></g><circle cx="8.036" cy="8.655" r=".429" fill="#FDA043"/><circle cx="12.322" cy="8.655" r=".429" fill="#FDA043"/><circle cx="8.894" cy="12.941" r=".429" fill="#FDA043"/><circle cx="11.465" cy="12.941" r=".429" fill="#FDA043"/></g><path fill="url(#e)" fill-rule="evenodd" d="M19.5 22.362c-1.2.718-2.348 1.188-3.25.972-4.237-1.014-5.567-1.652-6.749-2.218-.631-.303-1.22-.585-2.188-.894-3.392-1.082-4.818.597-5.918 1.893-.481.567-.9 1.06-1.395 1.218V26a2 2 0 0 0 2 2h17.5zM21.125 28H24a2 2 0 0 0 2-2v-7.333c-.744-.356-2.256.735-3.949 1.958q-.457.331-.926.664z" clip-rule="evenodd"/><g filter="url(#f)"><path fill="url(#g)" fill-rule="evenodd" d="M5.6 17.667a1 1 0 1 0 0 2h9a1 1 0 1 0 0-2zm0 3.666a1 1 0 1 0 0 2h6.556a1 1 0 0 0 0-2z" clip-rule="evenodd"/></g></g></g></svg>