<svg xmlns="http://www.w3.org/2000/svg" fill="none" viewBox="0 0 26 28"><defs><linearGradient id="b" x1="13.765" x2="13.765" y1="28" y2="0" gradientUnits="userSpaceOnUse"><stop stop-color="#FFCC63"/><stop offset="1" stop-color="#FC8731"/></linearGradient><linearGradient id="d" x1="9.982" x2="9.982" y1="16.155" y2="5.952" gradientUnits="userSpaceOnUse"><stop stop-color="#FFE7D5"/><stop offset=".812" stop-color="#fff"/></linearGradient><linearGradient id="e" x1="13" x2="13" y1="18.156" y2="28" gradientUnits="userSpaceOnUse"><stop stop-color="#FFBC58"/><stop offset="1" stop-color="#FFDD65"/></linearGradient><linearGradient id="g" x1="9.992" x2="9.992" y1="24.16" y2="18.044" gradientUnits="userSpaceOnUse"><stop stop-color="#FFE7D5"/><stop offset=".812" stop-color="#fff"/></linearGradient><filter id="a" width="26" height="29" x="0" y="0" color-interpolation-filters="sRGB" filterUnits="userSpaceOnUse"><feFlood flood-opacity="0" result="BackgroundImageFix"/><feBlend in="SourceGraphic" in2="BackgroundImageFix" result="shape"/><feColorMatrix in="SourceAlpha" result="hardAlpha" values="0 0 0 0 0 0 0 0 0 0 0 0 0 0 0 0 0 0 127 0"/><feOffset dy="1"/><feGaussianBlur stdDeviation=".5"/><feComposite in2="hardAlpha" k2="-1" k3="1" operator="arithmetic"/><feColorMatrix values="0 0 0 0 0.995833 0 0 0 0 0.430158 0 0 0 0 0.0165972 0 0 0 0.8 0"/><feBlend in2="shape" result="effect1_innerShadow_297_1949"/></filter><filter id="c" width="11" height="10.454" x="4.58" y="5.322" color-interpolation-filters="sRGB" filterUnits="userSpaceOnUse"><feFlood flood-opacity="0" result="BackgroundImageFix"/><feColorMatrix in="SourceAlpha" result="hardAlpha" values="0 0 0 0 0 0 0 0 0 0 0 0 0 0 0 0 0 0 127 0"/><feOffset dy=".5"/><feGaussianBlur stdDeviation=".25"/><feComposite in2="hardAlpha" operator="out"/><feColorMatrix values="0 0 0 0 0.995833 0 0 0 0 0.430158 0 0 0 0 0.0165972 0 0 0 0.8 0"/><feBlend in2="BackgroundImageFix" result="effect1_dropShadow_297_1949"/><feBlend in="SourceGraphic" in2="effect1_dropShadow_297_1949" result="shape"/></filter><filter id="f" width="12" height="6.667" x="4.1" y="17.666" color-interpolation-filters="sRGB" filterUnits="userSpaceOnUse"><feFlood flood-opacity="0" result="BackgroundImageFix"/><feColorMatrix in="SourceAlpha" result="hardAlpha" values="0 0 0 0 0 0 0 0 0 0 0 0 0 0 0 0 0 0 127 0"/><feOffset dy=".5"/><feGaussianBlur stdDeviation=".25"/><feComposite in2="hardAlpha" operator="out"/><feColorMatrix values="0 0 0 0 0.995833 0 0 0 0 0.430158 0 0 0 0 0.0165972 0 0 0 0.8 0"/><feBlend in2="BackgroundImageFix" result="effect1_dropShadow_297_1949"/><feBlend in="SourceGraphic" in2="effect1_dropShadow_297_1949" result="shape"/></filter></defs><g><g><g filter="url(#a)"><path fill="url(#b)" fill-rule="evenodd" d="M19.5 0H2a2 2 0 0 0-2 2v24a2 2 0 0 0 2 2h17.5zm1.625 28H24a2 2 0 0 0 2-2V2a2 2 0 0 0-2-2h-2.875z" clip-rule="evenodd"/></g><g filter="url(#c)"><path fill="url(#d)" fill-rule="evenodd" d="M6.624 5.357a.364.364 0 0 0-.52.328v2.196c0 .116-.058.255-.174.398-.353.432-.85 1.306-.85 2.776 0 1.34.63 2.29 1.586 2.89.935.587 2.17.831 3.414.831s2.479-.244 3.416-.831c.955-.6 1.584-1.55 1.584-2.89 0-1.47-.496-2.344-.85-2.776-.116-.143-.174-.282-.174-.398V5.685a.363.363 0 0 0-.52-.328L11.36 6.393l-.021-.004q-.179-.039-.358-.073a5.5 5.5 0 0 0-.9-.107c-.268 0-.628.056-.9.107a14 14 0 0 0-.357.073l-.021.004zm5.593 6.124c0 .977-.957 1.568-2.137 1.568s-2.136-.546-2.136-1.568.957-1.568 2.136-1.568 2.137.59 2.137 1.568M8.035 9.503a.455.455 0 1 1 0-.909.455.455 0 0 1 0 .91m4.091 0a.455.455 0 1 0 0-.91.455.455 0 0 0 0 .91m-1.318 2.523a.455.455 0 1 0 0-.91.455.455 0 0 0 0 .91m-1.91-.454a.455.455 0 1 1 .91 0 .455.455 0 0 1-.91 0" clip-rule="evenodd"/></g><path fill="url(#e)" fill-rule="evenodd" d="M19.5 22.362c-1.2.718-2.348 1.188-3.25.972-4.237-1.014-5.567-1.652-6.749-2.218-.631-.303-1.22-.585-2.188-.894-3.392-1.082-4.818.597-5.918 1.893-.481.567-.9 1.06-1.395 1.218V26a2 2 0 0 0 2 2h17.5zM21.125 28H24a2 2 0 0 0 2-2v-7.333c-.744-.356-2.256.735-3.949 1.958q-.457.331-.926.664z" clip-rule="evenodd"/><g filter="url(#f)"><path fill="url(#g)" fill-rule="evenodd" d="M5.6 17.667a1 1 0 1 0 0 2h9a1 1 0 1 0 0-2zm0 3.666a1 1 0 1 0 0 2h6.556a1 1 0 0 0 0-2z" clip-rule="evenodd"/></g></g></g></svg>