<svg xmlns="http://www.w3.org/2000/svg" fill="none" viewBox="0 0 26 28"><defs><linearGradient id="b" x1="13.765" x2="13.765" y1="28" y2="0" gradientUnits="userSpaceOnUse"><stop stop-color="#FFCC63"/><stop offset="1" stop-color="#FC8731"/></linearGradient><linearGradient id="d" x1="10.54" x2="10.54" y1="20.611" y2="8.524" gradientUnits="userSpaceOnUse"><stop stop-color="#FFE7D5"/><stop offset=".812" stop-color="#fff"/></linearGradient><linearGradient id="e" x1="13" x2="13" y1="18.156" y2="28" gradientUnits="userSpaceOnUse"><stop stop-color="#FFBC58"/><stop offset="1" stop-color="#FFDD65"/></linearGradient><filter id="a" width="26" height="29" x="0" y="0" color-interpolation-filters="sRGB" filterUnits="userSpaceOnUse"><feColorMatrix in="SourceAlpha" result="hardAlpha" values="0 0 0 0 0 0 0 0 0 0 0 0 0 0 0 0 0 0 127 0"/><feGaussianBlur stdDeviation=".5"/><feColorMatrix values="0 0 0 0 0.995833 0 0 0 0 0.430158 0 0 0 0 0.0165972 0 0 0 0.8 0"/></filter><filter id="c" width="12.556" height="12.2" x="4.375" y="7.778" color-interpolation-filters="sRGB" filterUnits="userSpaceOnUse"><feColorMatrix in="SourceAlpha" result="hardAlpha" values="0 0 0 0 0 0 0 0 0 0 0 0 0 0 0 0 0 0 127 0"/><feGaussianBlur stdDeviation=".25"/><feColorMatrix values="0 0 0 0 0.995833 0 0 0 0 0.430158 0 0 0 0 0.0165972 0 0 0 0.8 0"/></filter></defs><g filter="url(#a)"><path fill="url(#b)" fill-rule="evenodd" d="M19.5 0H2a2 2 0 0 0-2 2v24a2 2 0 0 0 2 2h17.5zm1.625 28H24a2 2 0 0 0 2-2V2a2 2 0 0 0-2-2h-2.875z" clip-rule="evenodd"/></g><g filter="url(#c)"><path fill="url(#d)" d="M6.914 13.844v5.134h1.133V13.61c.227.233.453.467.68.933l.68-.7c.226.934.453 2.1.68 3.034l1.132-.467c-.226-.933-.68-2.567-1.133-3.267l-.906.234c-.227-.467-.68-.934-1.133-1.4v.466-1.166H9.18l-.453.466.68.934c0-.234.226-.467.453-.467v.7h4.758v-.7c.226.233.68.467 1.133.933l.68-.933c-1.587-1.4-2.72-2.8-3.626-4.433h-1.133c-.68 1.4-1.586 2.333-2.492 3.266v-.933H7.82v-2.1H6.689v2.1h-1.36v1.167h1.133c-.227 1.4-.906 2.8-1.586 3.966l.906.7c.453-.7.68-1.4 1.133-2.1m1.813 4.667h7.25v-1.167h-2.039c.68-1.866 1.133-3.033 1.36-3.966l-1.133-.234c-.453 1.867-1.133 3.267-1.586 4.2H8.5zm2.492-5.133c.227.7.68 2.333.907 3.266l1.132-.466c-.226-1.167-.453-2.1-.906-3.034zm3.172-1.634h-4.078c.68-.7 1.36-1.633 2.04-2.566.452.933 1.132 1.866 2.038 2.566"/></g><path fill="url(#e)" fill-rule="evenodd" d="M19.5 22.362c-1.2.718-2.348 1.188-3.25.972-4.237-1.014-5.567-1.652-6.749-2.218-.631-.303-1.22-.585-2.188-.894-3.392-1.082-4.818.597-5.918 1.893-.481.567-.9 1.06-1.395 1.218V26a2 2 0 0 0 2 2h17.5zM21.125 28H24a2 2 0 0 0 2-2v-7.333c-.744-.356-2.256.735-3.949 1.958q-.457.331-.926.664z" clip-rule="evenodd"/></svg>