<svg xmlns="http://www.w3.org/2000/svg" fill="none" viewBox="0 0 26 28"><defs><linearGradient id="b" x1="11.556" x2="11.556" y1="0" y2="34.283" gradientUnits="userSpaceOnUse"><stop stop-color="#297DFF"/><stop offset="1" stop-color="#79D0FF"/></linearGradient><linearGradient id="c" x1="11.556" x2="11.556" y1="0" y2="34.283" gradientUnits="userSpaceOnUse"><stop stop-color="#297DFF"/><stop offset="1" stop-color="#79D0FF"/></linearGradient><linearGradient id="e" x1="13" x2="13" y1="18.385" y2="28.385" gradientUnits="userSpaceOnUse"><stop stop-color="#7CC1FF"/><stop offset="1" stop-color="#79D9FF"/></linearGradient><linearGradient id="h" x1="12.687" x2="12.687" y1="4.974" y2="27.559" gradientUnits="userSpaceOnUse"><stop stop-color="#fff"/><stop offset="1" stop-color="#D2FAFF"/></linearGradient><filter id="a" width="26" height="29" x="0" y="0" color-interpolation-filters="sRGB" filterUnits="userSpaceOnUse"><feFlood flood-opacity="0" result="BackgroundImageFix"/><feBlend in="SourceGraphic" in2="BackgroundImageFix" result="shape"/><feColorMatrix in="SourceAlpha" result="hardAlpha" values="0 0 0 0 0 0 0 0 0 0 0 0 0 0 0 0 0 0 127 0"/><feOffset dy="1"/><feGaussianBlur stdDeviation=".5"/><feComposite in2="hardAlpha" k2="-1" k3="1" operator="arithmetic"/><feColorMatrix values="0 0 0 0 0.160784 0 0 0 0 0.490196 0 0 0 0 1 0 0 0 1 0"/><feBlend in2="shape" result="effect1_innerShadow_282_3774"/></filter><filter id="f" width="17.714" height="2.229" x="4.379" y="20.54" color-interpolation-filters="sRGB" filterUnits="userSpaceOnUse"><feFlood flood-opacity="0" result="BackgroundImageFix"/><feColorMatrix in="SourceAlpha" result="hardAlpha" values="0 0 0 0 0 0 0 0 0 0 0 0 0 0 0 0 0 0 127 0"/><feOffset dy=".5"/><feGaussianBlur stdDeviation=".25"/><feComposite in2="hardAlpha" operator="out"/><feColorMatrix values="0 0 0 0 0.0791667 0 0 0 0 0.518333 0 0 0 0 1 0 0 0 0.5 0"/><feBlend in2="BackgroundImageFix" result="effect1_dropShadow_282_3774"/><feBlend in="SourceGraphic" in2="effect1_dropShadow_282_3774" result="shape"/></filter><filter id="g" width="11.8" height="10.831" x="6.792" y="7.631" color-interpolation-filters="sRGB" filterUnits="userSpaceOnUse"><feFlood flood-opacity="0" result="BackgroundImageFix"/><feColorMatrix in="SourceAlpha" result="hardAlpha" values="0 0 0 0 0 0 0 0 0 0 0 0 0 0 0 0 0 0 127 0"/><feOffset dy=".5"/><feGaussianBlur stdDeviation=".25"/><feComposite in2="hardAlpha" operator="out"/><feColorMatrix values="0 0 0 0 0.0791667 0 0 0 0 0.518333 0 0 0 0 1 0 0 0 0.6 0"/><feBlend in2="BackgroundImageFix" result="effect1_dropShadow_282_3774"/><feBlend in="SourceGraphic" in2="effect1_dropShadow_282_3774" result="shape"/></filter></defs><g><g><g><g><g filter="url(#a)"><path fill="url(#b)" d="M5.97 1.676a2.4 2.4 0 0 0 .893 1.455 2.66 2.66 0 0 0 1.68.556h8.913a2.66 2.66 0 0 0 1.68-.556 2.4 2.4 0 0 0 .894-1.455h4.112c.482-.01.948.16 1.296.474.349.315.55.747.562 1.202v22.972a1.68 1.68 0 0 1-.561 1.2 1.88 1.88 0 0 1-1.295.476H1.857c-.482.01-.948-.161-1.296-.475A1.68 1.68 0 0 1 0 26.324V3.35c.011-.455.213-.887.562-1.201a1.88 1.88 0 0 1 1.295-.475zM8.544 0h8.912a1.5 1.5 0 0 1 1.036.38c.279.251.44.597.45.961a1.34 1.34 0 0 1-.45.96 1.5 1.5 0 0 1-1.036.38H8.544a1.5 1.5 0 0 1-1.036-.38 1.34 1.34 0 0 1-.45-.96c.01-.364.171-.71.45-.961A1.5 1.5 0 0 1 8.544 0"/></g><g><g><mask id="d" width="26" height="28" x="0" y="0" maskUnits="userSpaceOnUse" style="mask-type:alpha"><path fill="url(#c)" d="M5.97 1.676a2.4 2.4 0 0 0 .893 1.455 2.66 2.66 0 0 0 1.68.556h8.913a2.66 2.66 0 0 0 1.68-.556 2.4 2.4 0 0 0 .894-1.455h4.112c.482-.01.948.16 1.296.474.349.315.55.747.562 1.202v22.972a1.68 1.68 0 0 1-.561 1.2 1.88 1.88 0 0 1-1.295.476H1.857c-.482.01-.948-.161-1.296-.475A1.68 1.68 0 0 1 0 26.324V3.35c.011-.455.213-.887.562-1.201a1.88 1.88 0 0 1 1.295-.475zM8.544 0h8.912a1.5 1.5 0 0 1 1.036.38c.279.251.44.597.45.961a1.34 1.34 0 0 1-.45.96 1.5 1.5 0 0 1-1.036.38H8.544a1.5 1.5 0 0 1-1.036-.38 1.34 1.34 0 0 1-.45-.96c.01-.364.171-.71.45-.961A1.5 1.5 0 0 1 8.544 0"/></mask><g mask="url(#d)"><path fill="url(#e)" d="M7.313 20.484c-1.95-1.264-5.688-.526-7.313 0v5.901a2 2 0 0 0 2 2h22a2 2 0 0 0 2-2v-7.48c-1.625-.79-7.312-.79-9.75.79s-6.5 2.37-8.937.79"/></g></g></g><g filter="url(#f)"><path fill="#fff" d="M4.88 21.155c0-.34.274-.615.614-.615h15.485a.614.614 0 0 1 0 1.229H5.494a.614.614 0 0 1-.615-.614"/></g></g><g filter="url(#g)"><path fill="url(#h)" d="M9.424 7.631c-.285 1.993-.995 3.322-2.132 4.119.284.398.568.797.853 1.328.284-.265.426-.531.568-.797v5.049h1.279q-.213-3.787 0-6.776H9.85c.426-.797.71-1.594.995-2.391a10 10 0 0 1-1.421-.532m8.526 5.846V12.28h-3.268v-.664h2.273V8.03h-5.542v3.587h2.132v.664H10.56v1.196h2.416c-.568.664-.995 1.195-1.705 1.727-.426.266-.853.531-1.279.664q.426.399.853 1.196c.994-.664 1.847-1.329 2.415-2.126v2.524h1.422V14.54c.568 1.063 1.42 1.992 2.7 2.524.142-.399.426-.797.71-1.196a4.83 4.83 0 0 1-2.558-2.391zm-5.4-4.251h2.842v1.328H12.55z"/></g></g></g></g></svg>