<svg xmlns="http://www.w3.org/2000/svg" fill="none" viewBox="0 0 30 30"><defs><linearGradient id="b" x1="13.556" x2="13.556" y1="1" y2="35.283" gradientUnits="userSpaceOnUse"><stop stop-color="#297DFF"/><stop offset="1" stop-color="#79D0FF"/></linearGradient><linearGradient id="c" x1="13.556" x2="13.556" y1="1" y2="35.283" gradientUnits="userSpaceOnUse"><stop stop-color="#297DFF"/><stop offset="1" stop-color="#79D0FF"/></linearGradient><linearGradient id="e" x1="15" x2="15" y1="19.385" y2="29.385" gradientUnits="userSpaceOnUse"><stop stop-color="#7CC1FF"/><stop offset="1" stop-color="#79D9FF"/></linearGradient><linearGradient id="h" x1="14.687" x2="14.687" y1="5.974" y2="28.559" gradientUnits="userSpaceOnUse"><stop stop-color="#fff"/><stop offset="1" stop-color="#D2FAFF"/></linearGradient><filter id="a" width="26" height="29" x="2" y="1" color-interpolation-filters="sRGB" filterUnits="userSpaceOnUse"><feColorMatrix in="SourceAlpha" result="hardAlpha" values="0 0 0 0 0 0 0 0 0 0 0 0 0 0 0 0 0 0 127 0"/><feGaussianBlur stdDeviation=".5"/><feColorMatrix values="0 0 0 0 0.160784 0 0 0 0 0.490196 0 0 0 0 1 0 0 0 1 0"/></filter><filter id="f" width="17.714" height="2.229" x="6.379" y="21.54" color-interpolation-filters="sRGB" filterUnits="userSpaceOnUse"><feColorMatrix in="SourceAlpha" result="hardAlpha" values="0 0 0 0 0 0 0 0 0 0 0 0 0 0 0 0 0 0 127 0"/><feGaussianBlur stdDeviation=".25"/><feColorMatrix values="0 0 0 0 0.0791667 0 0 0 0 0.518333 0 0 0 0 1 0 0 0 0.5 0"/></filter><filter id="g" width="11.8" height="10.831" x="8.792" y="8.631" color-interpolation-filters="sRGB" filterUnits="userSpaceOnUse"><feColorMatrix in="SourceAlpha" result="hardAlpha" values="0 0 0 0 0 0 0 0 0 0 0 0 0 0 0 0 0 0 127 0"/><feGaussianBlur stdDeviation=".25"/><feColorMatrix values="0 0 0 0 0.0791667 0 0 0 0 0.518333 0 0 0 0 1 0 0 0 0.6 0"/></filter></defs><g filter="url(#a)"><path fill="url(#b)" d="M7.97 2.676a2.4 2.4 0 0 0 .893 1.455 2.66 2.66 0 0 0 1.68.556h8.913a2.66 2.66 0 0 0 1.68-.556 2.4 2.4 0 0 0 .894-1.455h4.112c.482-.01.948.16 1.296.474.349.315.55.747.562 1.202v22.972a1.68 1.68 0 0 1-.561 1.2 1.88 1.88 0 0 1-1.295.476H3.857c-.482.01-.948-.161-1.296-.475A1.68 1.68 0 0 1 2 27.324V4.35c.011-.455.213-.887.562-1.201a1.88 1.88 0 0 1 1.295-.475zM10.544 1h8.912a1.5 1.5 0 0 1 1.036.38c.279.251.44.597.45.961a1.34 1.34 0 0 1-.45.96 1.5 1.5 0 0 1-1.036.38h-8.912a1.5 1.5 0 0 1-1.036-.38 1.34 1.34 0 0 1-.45-.96c.01-.364.171-.71.45-.961A1.5 1.5 0 0 1 10.544 1"/></g><mask id="d" width="26" height="28" x="2" y="1" maskUnits="userSpaceOnUse" style="mask-type:alpha"><path fill="url(#c)" d="M7.97 2.676a2.4 2.4 0 0 0 .893 1.455 2.66 2.66 0 0 0 1.68.556h8.913a2.66 2.66 0 0 0 1.68-.556 2.4 2.4 0 0 0 .894-1.455h4.112c.482-.01.948.16 1.296.474.349.315.55.747.562 1.202v22.972a1.68 1.68 0 0 1-.561 1.2 1.88 1.88 0 0 1-1.295.476H3.857c-.482.01-.948-.161-1.296-.475A1.68 1.68 0 0 1 2 27.324V4.35c.011-.455.213-.887.562-1.201a1.88 1.88 0 0 1 1.295-.475zM10.544 1h8.912a1.5 1.5 0 0 1 1.036.38c.279.251.44.597.45.961a1.34 1.34 0 0 1-.45.96 1.5 1.5 0 0 1-1.036.38h-8.912a1.5 1.5 0 0 1-1.036-.38 1.34 1.34 0 0 1-.45-.96c.01-.364.171-.71.45-.961A1.5 1.5 0 0 1 10.544 1"/></mask><g mask="url(#d)"><path fill="url(#e)" d="M9.313 21.484c-1.95-1.264-5.688-.526-7.313 0v5.901a2 2 0 0 0 2 2h22a2 2 0 0 0 2-2v-7.48c-1.625-.79-7.312-.79-9.75.79s-6.5 2.37-8.937.79"/></g><g filter="url(#f)"><path fill="#fff" d="M6.88 22.154c0-.339.274-.614.614-.614h15.485a.614.614 0 0 1 0 1.229H7.494a.614.614 0 0 1-.615-.615"/></g><g filter="url(#g)"><path fill="url(#h)" d="M11.424 8.631c-.285 1.993-.995 3.322-2.132 4.119.284.399.568.797.853 1.328.284-.265.426-.531.568-.797v5.049h1.279q-.213-3.786 0-6.776h-.142c.426-.797.71-1.594.995-2.391a10 10 0 0 1-1.421-.532m8.526 5.846v-1.196h-3.268v-.664h2.273V9.03h-5.542v3.587h2.132v.664H12.56v1.196h2.416c-.568.664-.995 1.196-1.705 1.727-.426.266-.853.531-1.279.664q.426.4.853 1.196c.994-.664 1.847-1.329 2.415-2.126v2.525h1.422V15.54c.568 1.063 1.42 1.993 2.7 2.524.142-.399.426-.797.71-1.196a4.83 4.83 0 0 1-2.558-2.391zm-5.4-4.251h2.842v1.328H14.55z"/></g></svg>