<svg width="29" height="28" viewBox="0 0 29 28" fill="none" xmlns="http://www.w3.org/2000/svg">
<g id="&#231;&#174;&#161;&#231;&#144;&#134;&#232;&#174;&#190;&#231;&#189;&#174;--&#231;&#137;&#155;&#229;&#143;&#170;&#228;&#191;&#161;&#230;&#129;&#175;">
<g id="&#230;&#179;&#168;&#229;&#134;&#140;&#232;&#175;&#134;&#229;&#136;&#171;&#232;&#174;&#176;&#229;&#189;&#149;-&#232;&#175;&#134;&#229;&#136;&#171;&#232;&#174;&#176;&#229;&#189;&#149;">
<g id="&#229;&#156;&#168;&#228;&#189;&#141;&#232;&#175;&#134;&#229;&#136;&#171;&#229;&#155;&#190;&#230;&#160;&#135;">
<g id="Subtract" filter="url(#filter0_i_296_1751)">
<path d="M28.8 26C28.8 27.1046 27.9046 28 26.8 28L2.80005 28C1.69548 28 0.800049 27.1046 0.800049 26L0.800051 2C0.800051 0.895431 1.69548 -9.77716e-08 2.80005 0L26.8 2.12437e-06C27.9046 2.22214e-06 28.8 0.895433 28.8 2L28.8 26Z" fill="url(#paint0_linear_296_1751)"/>
</g>
<g id="Group 48">
<g id="Mask group">
<mask id="mask0_296_1751" style="mask-type:alpha" maskUnits="userSpaceOnUse" x="0" y="0" width="29" height="28">
<path id="Subtract_2" d="M28.8 26C28.8 27.1046 27.9046 28 26.8 28L2.80005 28C1.69548 28 0.800049 27.1046 0.800049 26L0.800051 2C0.800051 0.895431 1.69548 -9.77716e-08 2.80005 0L26.8 2.12437e-06C27.9046 2.22214e-06 28.8 0.895433 28.8 2L28.8 26Z" fill="url(#paint1_linear_296_1751)"/>
</mask>
<g mask="url(#mask0_296_1751)">
<path id="Vector 2" d="M8.94444 22.8325C3.5 19.8206 0 21.6982 0 23.2089V26.103C0 27.2076 0.89543 28.103 2 28.103H27C28.1046 28.103 29 27.2076 29 26.103V19.6325C29 16.8088 21.875 17.5619 21.875 24.7148C21.875 27.7467 11.8931 24.4636 8.94444 22.8325Z" fill="url(#paint2_linear_296_1751)"/>
</g>
</g>
</g>
<g id="Group 16">
<g id="Vector" filter="url(#filter1_d_296_1751)">
<path fill-rule="evenodd" clip-rule="evenodd" d="M11.6334 5.39276C11.5779 5.36637 11.5168 5.35443 11.4555 5.35806C11.3942 5.36168 11.3349 5.38075 11.283 5.4135C11.2311 5.44624 11.1883 5.49158 11.1586 5.54531C11.129 5.59903 11.1134 5.65939 11.1134 5.72076V7.91712C11.1134 8.03276 11.0552 8.17167 10.9388 8.31494C10.5861 8.74621 10.0894 9.62039 10.0894 11.0902C10.0894 12.4298 10.7184 13.3811 11.6748 13.9811C12.6101 14.568 13.8443 14.8117 15.0894 14.8117C16.333 14.8117 17.5679 14.568 18.5046 13.9804C19.4603 13.3811 20.0894 12.4298 20.0894 11.0902C20.0894 9.62039 19.5926 8.74621 19.2399 8.31494C19.1235 8.17167 19.0654 8.03276 19.0654 7.91639V5.72076C19.0653 5.65939 19.0497 5.59903 19.0201 5.54531C18.9904 5.49158 18.9476 5.44624 18.8957 5.4135C18.8438 5.38075 18.7845 5.36168 18.7232 5.35806C18.6619 5.35443 18.6008 5.36637 18.5454 5.39276L16.3694 6.42912L16.3475 6.42476C16.2289 6.39879 16.1098 6.37454 15.9904 6.35203C15.7177 6.30112 15.3577 6.24439 15.0901 6.24439C14.8224 6.24439 14.4624 6.30112 14.1897 6.35203C14.0486 6.37894 13.9235 6.40512 13.8334 6.42476L13.8115 6.42912L11.6326 5.39348L11.6334 5.39276ZM17.2261 11.5164C17.2261 12.4938 16.269 13.0844 15.0894 13.0844C13.9097 13.0844 12.9526 12.5389 12.9526 11.5164C12.9526 10.4938 13.9097 9.94839 15.0894 9.94839C16.269 9.94839 17.2261 10.5389 17.2261 11.5164ZM13.0443 9.53894C12.9237 9.53894 12.8081 9.49105 12.7229 9.40581C12.6376 9.32056 12.5897 9.20495 12.5897 9.08439C12.5897 8.96384 12.6376 8.84822 12.7229 8.76298C12.8081 8.67774 12.9237 8.62985 13.0443 8.62985C13.1648 8.62985 13.2804 8.67774 13.3657 8.76298C13.4509 8.84822 13.4988 8.96384 13.4988 9.08439C13.4988 9.20495 13.4509 9.32056 13.3657 9.40581C13.2804 9.49105 13.1648 9.53894 13.0443 9.53894ZM17.1352 9.53894C17.2557 9.53894 17.3713 9.49105 17.4566 9.40581C17.5418 9.32056 17.5897 9.20495 17.5897 9.08439C17.5897 8.96384 17.5418 8.84822 17.4566 8.76298C17.3713 8.67774 17.2557 8.62985 17.1352 8.62985C17.0146 8.62985 16.899 8.67774 16.8138 8.76298C16.7285 8.84822 16.6806 8.96384 16.6806 9.08439C16.6806 9.20495 16.7285 9.32056 16.8138 9.40581C16.899 9.49105 17.0146 9.53894 17.1352 9.53894ZM15.8166 12.0618C15.9372 12.0618 16.0528 12.014 16.138 11.9287C16.2233 11.8435 16.2712 11.7279 16.2712 11.6073C16.2712 11.4867 16.2233 11.3711 16.138 11.2859C16.0528 11.2006 15.9372 11.1528 15.8166 11.1528C15.6961 11.1528 15.5805 11.2006 15.4952 11.2859C15.41 11.3711 15.3621 11.4867 15.3621 11.6073C15.3621 11.7279 15.41 11.8435 15.4952 11.9287C15.5805 12.014 15.6961 12.0618 15.8166 12.0618ZM13.9075 11.6073C13.9075 11.4867 13.9554 11.3711 14.0407 11.2859C14.1259 11.2006 14.2415 11.1528 14.3621 11.1528C14.4826 11.1528 14.5983 11.2006 14.6835 11.2859C14.7687 11.3711 14.8166 11.4867 14.8166 11.6073C14.8166 11.7279 14.7687 11.8435 14.6835 11.9287C14.5983 12.014 14.4826 12.0618 14.3621 12.0618C14.2415 12.0618 14.1259 12.014 14.0407 11.9287C13.9554 11.8435 13.9075 11.7279 13.9075 11.6073Z" fill="white"/>
</g>
<path id="Vector_2" fill-rule="evenodd" clip-rule="evenodd" d="M17.226 11.5164C17.226 12.4939 16.2689 13.0844 15.0892 13.0844C13.9096 13.0844 12.9525 12.539 12.9525 11.5164C12.9525 10.4939 13.9096 9.94843 15.0892 9.94843C16.2689 9.94843 17.226 10.539 17.226 11.5164ZM13.0441 9.53897C12.9236 9.53897 12.808 9.49108 12.7227 9.40584C12.6375 9.3206 12.5896 9.20498 12.5896 9.08443C12.5896 8.96388 12.6375 8.84826 12.7227 8.76302C12.808 8.67777 12.9236 8.62988 13.0441 8.62988C13.1647 8.62988 13.2803 8.67777 13.3656 8.76302C13.4508 8.84826 13.4987 8.96388 13.4987 9.08443C13.4987 9.20498 13.4508 9.3206 13.3656 9.40584C13.2803 9.49108 13.1647 9.53897 13.0441 9.53897ZM17.1351 9.53897C17.2556 9.53897 17.3712 9.49108 17.4565 9.40584C17.5417 9.3206 17.5896 9.20498 17.5896 9.08443C17.5896 8.96388 17.5417 8.84826 17.4565 8.76302C17.3712 8.67777 17.2556 8.62988 17.1351 8.62988C17.0145 8.62988 16.8989 8.67777 16.8136 8.76302C16.7284 8.84826 16.6805 8.96388 16.6805 9.08443C16.6805 9.20498 16.7284 9.3206 16.8136 9.40584C16.8989 9.49108 17.0145 9.53897 17.1351 9.53897ZM15.8165 12.0619C15.9371 12.0619 16.0527 12.014 16.1379 11.9288C16.2232 11.8435 16.2711 11.7279 16.2711 11.6073C16.2711 11.4868 16.2232 11.3712 16.1379 11.2859C16.0527 11.2007 15.9371 11.1528 15.8165 11.1528C15.696 11.1528 15.5803 11.2007 15.4951 11.2859C15.4099 11.3712 15.362 11.4868 15.362 11.6073C15.362 11.7279 15.4099 11.8435 15.4951 11.9288C15.5803 12.014 15.696 12.0619 15.8165 12.0619ZM13.9074 11.6073C13.9074 11.4868 13.9553 11.3712 14.0406 11.2859C14.1258 11.2007 14.2414 11.1528 14.362 11.1528C14.4825 11.1528 14.5981 11.2007 14.6834 11.2859C14.7686 11.3712 14.8165 11.4868 14.8165 11.6073C14.8165 11.7279 14.7686 11.8435 14.6834 11.9288C14.5981 12.014 14.4825 12.0619 14.362 12.0619C14.2414 12.0619 14.1258 12.014 14.0406 11.9288C13.9553 11.8435 13.9074 11.7279 13.9074 11.6073Z" fill="#3ECBFD"/>
</g>
<g id="&#229;&#189;&#162;&#231;&#138;&#182;_1_" filter="url(#filter2_i_296_1751)">
<path d="M25.0071 4.19987H21.0047V2.19409H27V8.19525H25.0071V4.19987ZM25.0071 24.1883V20.1929H27V26.1941H21.0047V24.1883H25.0071ZM4.99294 24.1883H8.99529V26.1941H3V20.1929H4.99294V24.1883ZM4.99294 4.19987V8.19525H3V2.19409H8.99529V4.19987H4.99294Z" fill="url(#paint3_linear_296_1751)"/>
</g>
<g id="Rectangle 107" filter="url(#filter3_d_296_1751)">
<rect x="7" y="20" width="16" height="1" fill="url(#paint4_linear_296_1751)"/>
</g>
<g id="Rectangle 108" filter="url(#filter4_d_296_1751)">
<rect x="7" y="17" width="16" height="1" fill="url(#paint5_linear_296_1751)"/>
</g>
</g>
</g>
</g>
<defs>
<filter id="filter0_i_296_1751" x="0.800049" y="0" width="28" height="28.5" filterUnits="userSpaceOnUse" color-interpolation-filters="sRGB">
<feFlood flood-opacity="0" result="BackgroundImageFix"/>
<feBlend mode="normal" in="SourceGraphic" in2="BackgroundImageFix" result="shape"/>
<feColorMatrix in="SourceAlpha" type="matrix" values="0 0 0 0 0 0 0 0 0 0 0 0 0 0 0 0 0 0 127 0" result="hardAlpha"/>
<feOffset dy="0.5"/>
<feGaussianBlur stdDeviation="0.25"/>
<feComposite in2="hardAlpha" operator="arithmetic" k2="-1" k3="1"/>
<feColorMatrix type="matrix" values="0 0 0 0 0 0 0 0 0 0.546167 0 0 0 0 0.941667 0 0 0 1 0"/>
<feBlend mode="normal" in2="shape" result="effect1_innerShadow_296_1751"/>
</filter>
<filter id="filter1_d_296_1751" x="9.08936" y="5.35742" width="12" height="11.4543" filterUnits="userSpaceOnUse" color-interpolation-filters="sRGB">
<feFlood flood-opacity="0" result="BackgroundImageFix"/>
<feColorMatrix in="SourceAlpha" type="matrix" values="0 0 0 0 0 0 0 0 0 0 0 0 0 0 0 0 0 0 127 0" result="hardAlpha"/>
<feOffset dy="1"/>
<feGaussianBlur stdDeviation="0.5"/>
<feComposite in2="hardAlpha" operator="out"/>
<feColorMatrix type="matrix" values="0 0 0 0 0 0 0 0 0 0.546167 0 0 0 0 0.941667 0 0 0 0.6 0"/>
<feBlend mode="normal" in2="BackgroundImageFix" result="effect1_dropShadow_296_1751"/>
<feBlend mode="normal" in="SourceGraphic" in2="effect1_dropShadow_296_1751" result="shape"/>
</filter>
<filter id="filter2_i_296_1751" x="3" y="2.19409" width="24" height="24.5" filterUnits="userSpaceOnUse" color-interpolation-filters="sRGB">
<feFlood flood-opacity="0" result="BackgroundImageFix"/>
<feBlend mode="normal" in="SourceGraphic" in2="BackgroundImageFix" result="shape"/>
<feColorMatrix in="SourceAlpha" type="matrix" values="0 0 0 0 0 0 0 0 0 0 0 0 0 0 0 0 0 0 127 0" result="hardAlpha"/>
<feOffset dy="0.5"/>
<feGaussianBlur stdDeviation="0.25"/>
<feComposite in2="hardAlpha" operator="arithmetic" k2="-1" k3="1"/>
<feColorMatrix type="matrix" values="0 0 0 0 0 0 0 0 0 0.545098 0 0 0 0 0.941176 0 0 0 0.8 0"/>
<feBlend mode="normal" in2="shape" result="effect1_innerShadow_296_1751"/>
</filter>
<filter id="filter3_d_296_1751" x="6" y="20" width="18" height="3" filterUnits="userSpaceOnUse" color-interpolation-filters="sRGB">
<feFlood flood-opacity="0" result="BackgroundImageFix"/>
<feColorMatrix in="SourceAlpha" type="matrix" values="0 0 0 0 0 0 0 0 0 0 0 0 0 0 0 0 0 0 127 0" result="hardAlpha"/>
<feOffset dy="1"/>
<feGaussianBlur stdDeviation="0.5"/>
<feComposite in2="hardAlpha" operator="out"/>
<feColorMatrix type="matrix" values="0 0 0 0 0 0 0 0 0 0.546167 0 0 0 0 0.941667 0 0 0 0.6 0"/>
<feBlend mode="normal" in2="BackgroundImageFix" result="effect1_dropShadow_296_1751"/>
<feBlend mode="normal" in="SourceGraphic" in2="effect1_dropShadow_296_1751" result="shape"/>
</filter>
<filter id="filter4_d_296_1751" x="6" y="17" width="18" height="3" filterUnits="userSpaceOnUse" color-interpolation-filters="sRGB">
<feFlood flood-opacity="0" result="BackgroundImageFix"/>
<feColorMatrix in="SourceAlpha" type="matrix" values="0 0 0 0 0 0 0 0 0 0 0 0 0 0 0 0 0 0 127 0" result="hardAlpha"/>
<feOffset dy="1"/>
<feGaussianBlur stdDeviation="0.5"/>
<feComposite in2="hardAlpha" operator="out"/>
<feColorMatrix type="matrix" values="0 0 0 0 0 0 0 0 0 0.546167 0 0 0 0 0.941667 0 0 0 0.6 0"/>
<feBlend mode="normal" in2="BackgroundImageFix" result="effect1_dropShadow_296_1751"/>
<feBlend mode="normal" in="SourceGraphic" in2="effect1_dropShadow_296_1751" result="shape"/>
</filter>
<linearGradient id="paint0_linear_296_1751" x1="17.0148" y1="28" x2="9.43737" y2="0.41224" gradientUnits="userSpaceOnUse">
<stop stop-color="#67ECFF"/>
<stop offset="1" stop-color="#1EB2FB"/>
</linearGradient>
<linearGradient id="paint1_linear_296_1751" x1="17.0148" y1="28" x2="9.43737" y2="0.41224" gradientUnits="userSpaceOnUse">
<stop stop-color="#67ECFF"/>
<stop offset="1" stop-color="#1EB2FB"/>
</linearGradient>
<linearGradient id="paint2_linear_296_1751" x1="15.75" y1="16.6208" x2="15.75" y2="25.0913" gradientUnits="userSpaceOnUse">
<stop offset="0.168301" stop-color="#80E5FF"/>
<stop offset="1" stop-color="#6CEDFF"/>
</linearGradient>
<linearGradient id="paint3_linear_296_1751" x1="17" y1="2.19409" x2="17" y2="30.1941" gradientUnits="userSpaceOnUse">
<stop stop-color="white"/>
<stop offset="1" stop-color="#E7FEFF"/>
</linearGradient>
<linearGradient id="paint4_linear_296_1751" x1="14.1111" y1="20.1111" x2="14.1111" y2="20.7222" gradientUnits="userSpaceOnUse">
<stop stop-color="white"/>
<stop offset="1" stop-color="#F3FDFF"/>
</linearGradient>
<linearGradient id="paint5_linear_296_1751" x1="14.1111" y1="17.1111" x2="14.1111" y2="17.7222" gradientUnits="userSpaceOnUse">
<stop stop-color="white"/>
<stop offset="1" stop-color="#F3FDFF"/>
</linearGradient>
</defs>
</svg>
