<svg width="29" height="27" viewBox="0 0 29 27" fill="none" xmlns="http://www.w3.org/2000/svg">
<g id="&#231;&#174;&#161;&#231;&#144;&#134;&#232;&#174;&#190;&#231;&#189;&#174;--&#231;&#140;&#170;&#228;&#191;&#161;&#230;&#129;&#175;">
<g id="&#231;&#140;&#170;&#228;&#191;&#161;&#230;&#129;&#175;">
<g id="&#228;&#191;&#161;&#230;&#129;&#175;" filter="url(#filter0_i_296_1566)">
<path id="Vector" fill-rule="evenodd" clip-rule="evenodd" d="M4.46602 0.67237C4.31089 0.599799 4.13957 0.566971 3.96804 0.576943C3.79651 0.586915 3.63034 0.639363 3.485 0.729402C3.33966 0.819442 3.21989 0.944143 3.13684 1.09189C3.05379 1.23964 3.01016 1.40563 3.01002 1.5744V7.61459C3.01002 7.9326 2.84711 8.31461 2.52129 8.70863C1.53366 9.89466 0.142822 12.2987 0.142822 16.3409C0.142822 20.025 1.90428 22.6411 4.5821 24.2911C7.20086 25.9052 10.6566 26.5752 14.1428 26.5752C17.625 26.5752 21.0827 25.9052 23.7056 24.2891C26.3814 22.6411 28.1428 20.025 28.1428 16.3409C28.1428 12.2987 26.752 9.89466 25.7643 8.70863C25.4385 8.31461 25.2756 7.9326 25.2756 7.61259V1.5744C25.2755 1.40563 25.2319 1.23964 25.1488 1.09189C25.0658 0.944143 24.946 0.819442 24.8006 0.729402C24.6553 0.639363 24.4891 0.586915 24.3176 0.576943C24.1461 0.566971 23.9748 0.599799 23.8196 0.67237L17.7268 3.52246L17.6657 3.51046C17.3334 3.43905 17.0001 3.37237 16.6659 3.31045C15.9022 3.17045 14.8942 3.01444 14.1449 3.01444C13.3955 3.01444 12.3875 3.17045 11.6238 3.31045C11.2288 3.38446 10.8785 3.45646 10.626 3.51046L10.5649 3.52246L4.46399 0.67437L4.46602 0.67237ZM20.1257 17.5129C20.1257 20.201 17.4458 21.825 14.1428 21.825C10.8398 21.825 8.15999 20.325 8.15999 17.5129C8.15999 14.7008 10.8398 13.2008 14.1428 13.2008C17.4458 13.2008 20.1257 14.8248 20.1257 17.5129ZM8.41657 12.0747C8.07902 12.0747 7.7553 11.943 7.51661 11.7086C7.27793 11.4742 7.14384 11.1562 7.14384 10.8247C7.14384 10.4932 7.27793 10.1752 7.51661 9.94078C7.7553 9.70635 8.07902 9.57465 8.41657 9.57465C8.75412 9.57465 9.07784 9.70635 9.31652 9.94078C9.5552 10.1752 9.6893 10.4932 9.6893 10.8247C9.6893 11.1562 9.5552 11.4742 9.31652 11.7086C9.07784 11.943 8.75412 12.0747 8.41657 12.0747ZM19.8711 12.0747C20.2087 12.0747 20.5324 11.943 20.7711 11.7086C21.0097 11.4742 21.1438 11.1562 21.1438 10.8247C21.1438 10.4932 21.0097 10.1752 20.7711 9.94078C20.5324 9.70635 20.2087 9.57465 19.8711 9.57465C19.5336 9.57465 19.2098 9.70635 18.9712 9.94078C18.7325 10.1752 18.5984 10.4932 18.5984 10.8247C18.5984 11.1562 18.7325 11.4742 18.9712 11.7086C19.2098 11.943 19.5336 12.0747 19.8711 12.0747ZM16.1792 19.013C16.5167 19.013 16.8405 18.8813 17.0791 18.6468C17.3178 18.4124 17.4519 18.0944 17.4519 17.7629C17.4519 17.4314 17.3178 17.1134 17.0791 16.879C16.8405 16.6446 16.5167 16.5129 16.1792 16.5129C15.8416 16.5129 15.5179 16.6446 15.2792 16.879C15.0405 17.1134 14.9065 17.4314 14.9065 17.7629C14.9065 18.0944 15.0405 18.4124 15.2792 18.6468C15.5179 18.8813 15.8416 19.013 16.1792 19.013ZM10.8337 17.7629C10.8337 17.4314 10.9678 17.1134 11.2065 16.879C11.4452 16.6446 11.7689 16.5129 12.1065 16.5129C12.444 16.5129 12.7677 16.6446 13.0064 16.879C13.2451 17.1134 13.3792 17.4314 13.3792 17.7629C13.3792 18.0944 13.2451 18.4124 13.0064 18.6468C12.7677 18.8813 12.444 19.013 12.1065 19.013C11.7689 19.013 11.4452 18.8813 11.2065 18.6468C10.9678 18.4124 10.8337 18.0944 10.8337 17.7629Z" fill="url(#paint0_linear_296_1566)"/>
<g id="Group 57">
<g id="Mask group">
<mask id="mask0_296_1566" style="mask-type:alpha" maskUnits="userSpaceOnUse" x="0" y="0" width="29" height="27">
<path id="Vector_2" fill-rule="evenodd" clip-rule="evenodd" d="M4.46602 0.67237C4.31089 0.599799 4.13957 0.566971 3.96804 0.576943C3.79651 0.586915 3.63034 0.639363 3.485 0.729402C3.33966 0.819442 3.21989 0.944143 3.13684 1.09189C3.05379 1.23964 3.01016 1.40563 3.01002 1.5744V7.61459C3.01002 7.9326 2.84711 8.31461 2.52129 8.70863C1.53366 9.89466 0.142822 12.2987 0.142822 16.3409C0.142822 20.025 1.90428 22.6411 4.5821 24.2911C7.20086 25.9052 10.6566 26.5752 14.1428 26.5752C17.625 26.5752 21.0827 25.9052 23.7056 24.2891C26.3814 22.6411 28.1428 20.025 28.1428 16.3409C28.1428 12.2987 26.752 9.89466 25.7643 8.70863C25.4385 8.31461 25.2756 7.9326 25.2756 7.61259V1.5744C25.2755 1.40563 25.2319 1.23964 25.1488 1.09189C25.0658 0.944143 24.946 0.819442 24.8006 0.729402C24.6553 0.639363 24.4891 0.586915 24.3176 0.576943C24.1461 0.566971 23.9748 0.599799 23.8196 0.67237L17.7268 3.52246L17.6657 3.51046C17.3334 3.43905 17.0001 3.37237 16.6659 3.31045C15.9022 3.17045 14.8942 3.01444 14.1449 3.01444C13.3955 3.01444 12.3875 3.17045 11.6238 3.31045C11.2288 3.38446 10.8785 3.45646 10.626 3.51046L10.5649 3.52246L4.46399 0.67437L4.46602 0.67237ZM20.1257 17.5129C20.1257 20.201 17.4458 21.825 14.1428 21.825C10.8398 21.825 8.15999 20.325 8.15999 17.5129C8.15999 14.7008 10.8398 13.2008 14.1428 13.2008C17.4458 13.2008 20.1257 14.8248 20.1257 17.5129ZM8.41657 12.0747C8.07902 12.0747 7.7553 11.943 7.51661 11.7086C7.27793 11.4742 7.14384 11.1562 7.14384 10.8247C7.14384 10.4932 7.27793 10.1752 7.51661 9.94078C7.7553 9.70635 8.07902 9.57465 8.41657 9.57465C8.75412 9.57465 9.07784 9.70635 9.31652 9.94078C9.5552 10.1752 9.6893 10.4932 9.6893 10.8247C9.6893 11.1562 9.5552 11.4742 9.31652 11.7086C9.07784 11.943 8.75412 12.0747 8.41657 12.0747ZM19.8711 12.0747C20.2087 12.0747 20.5324 11.943 20.7711 11.7086C21.0097 11.4742 21.1438 11.1562 21.1438 10.8247C21.1438 10.4932 21.0097 10.1752 20.7711 9.94078C20.5324 9.70635 20.2087 9.57465 19.8711 9.57465C19.5336 9.57465 19.2098 9.70635 18.9712 9.94078C18.7325 10.1752 18.5984 10.4932 18.5984 10.8247C18.5984 11.1562 18.7325 11.4742 18.9712 11.7086C19.2098 11.943 19.5336 12.0747 19.8711 12.0747ZM16.1792 19.013C16.5167 19.013 16.8405 18.8813 17.0791 18.6468C17.3178 18.4124 17.4519 18.0944 17.4519 17.7629C17.4519 17.4314 17.3178 17.1134 17.0791 16.879C16.8405 16.6446 16.5167 16.5129 16.1792 16.5129C15.8416 16.5129 15.5179 16.6446 15.2792 16.879C15.0405 17.1134 14.9065 17.4314 14.9065 17.7629C14.9065 18.0944 15.0405 18.4124 15.2792 18.6468C15.5179 18.8813 15.8416 19.013 16.1792 19.013ZM10.8337 17.7629C10.8337 17.4314 10.9678 17.1134 11.2065 16.879C11.4452 16.6446 11.7689 16.5129 12.1065 16.5129C12.444 16.5129 12.7677 16.6446 13.0064 16.879C13.2451 17.1134 13.3792 17.4314 13.3792 17.7629C13.3792 18.0944 13.2451 18.4124 13.0064 18.6468C12.7677 18.8813 12.444 19.013 12.1065 19.013C11.7689 19.013 11.4452 18.8813 11.2065 18.6468C10.9678 18.4124 10.8337 18.0944 10.8337 17.7629Z" fill="url(#paint1_linear_296_1566)"/>
</mask>
<g mask="url(#mask0_296_1566)">
<path id="Vector 8" d="M7 20.3234C4.2 19.026 1.16667 19.2422 0 19.5125V25C0 25.5523 0.447715 26 0.999999 26H27C27.5523 26 28 25.5523 28 25V19.5125C28 19.2422 26.8333 18.3773 22.1667 17.0798C16.3333 16.2689 10.5 21.9453 7 20.3234Z" fill="url(#paint2_linear_296_1566)"/>
</g>
</g>
</g>
<g id="Vector_3" filter="url(#filter1_d_296_1566)">
<path fill-rule="evenodd" clip-rule="evenodd" d="M20.1256 17.513C20.1256 20.201 17.4458 21.8251 14.1428 21.8251C10.8398 21.8251 8.15994 20.3251 8.15994 17.513C8.15994 14.7009 10.8398 13.2008 14.1428 13.2008C17.4458 13.2008 20.1256 14.8249 20.1256 17.513ZM8.41653 12.0748C8.07898 12.0748 7.75525 11.9431 7.51657 11.7087C7.27789 11.4742 7.1438 11.1563 7.1438 10.8247C7.1438 10.4932 7.27789 10.1753 7.51657 9.94084C7.75525 9.70641 8.07898 9.57471 8.41653 9.57471C8.75408 9.57471 9.0778 9.70641 9.31648 9.94084C9.55516 10.1753 9.68925 10.4932 9.68925 10.8247C9.68925 11.1563 9.55516 11.4742 9.31648 11.7087C9.0778 11.9431 8.75408 12.0748 8.41653 12.0748ZM19.8711 12.0748C20.2086 12.0748 20.5323 11.9431 20.771 11.7087C21.0097 11.4742 21.1438 11.1563 21.1438 10.8247C21.1438 10.4932 21.0097 10.1753 20.771 9.94084C20.5323 9.70641 20.2086 9.57471 19.8711 9.57471C19.5335 9.57471 19.2098 9.70641 18.9711 9.94084C18.7324 10.1753 18.5983 10.4932 18.5983 10.8247C18.5983 11.1563 18.7324 11.4742 18.9711 11.7087C19.2098 11.9431 19.5335 12.0748 19.8711 12.0748ZM16.1791 19.013C16.5167 19.013 16.8404 18.8813 17.0791 18.6469C17.3178 18.4125 17.4519 18.0945 17.4519 17.763C17.4519 17.4314 17.3178 17.1135 17.0791 16.8791C16.8404 16.6446 16.5167 16.5129 16.1791 16.5129C15.8416 16.5129 15.5179 16.6446 15.2792 16.8791C15.0405 17.1135 14.9064 17.4314 14.9064 17.763C14.9064 18.0945 15.0405 18.4125 15.2792 18.6469C15.5179 18.8813 15.8416 19.013 16.1791 19.013ZM10.8337 17.763C10.8337 17.4314 10.9678 17.1135 11.2065 16.8791C11.4451 16.6446 11.7689 16.5129 12.1064 16.5129C12.444 16.5129 12.7677 16.6446 13.0064 16.8791C13.2451 17.1135 13.3791 17.4314 13.3791 17.763C13.3791 18.0945 13.2451 18.4125 13.0064 18.6469C12.7677 18.8813 12.444 19.013 12.1064 19.013C11.7689 19.013 11.4451 18.8813 11.2065 18.6469C10.9678 18.4125 10.8337 18.0945 10.8337 17.763Z" fill="url(#paint3_linear_296_1566)"/>
</g>
</g>
</g>
</g>
<defs>
<filter id="filter0_i_296_1566" x="0.142822" y="0.575195" width="28" height="27" filterUnits="userSpaceOnUse" color-interpolation-filters="sRGB">
<feFlood flood-opacity="0" result="BackgroundImageFix"/>
<feBlend mode="normal" in="SourceGraphic" in2="BackgroundImageFix" result="shape"/>
<feColorMatrix in="SourceAlpha" type="matrix" values="0 0 0 0 0 0 0 0 0 0 0 0 0 0 0 0 0 0 127 0" result="hardAlpha"/>
<feOffset dy="1"/>
<feGaussianBlur stdDeviation="0.5"/>
<feComposite in2="hardAlpha" operator="arithmetic" k2="-1" k3="1"/>
<feColorMatrix type="matrix" values="0 0 0 0 0.995833 0 0 0 0 0.430158 0 0 0 0 0.0165972 0 0 0 0.8 0"/>
<feBlend mode="normal" in2="shape" result="effect1_innerShadow_296_1566"/>
</filter>
<filter id="filter1_d_296_1566" x="6.6438" y="9.57471" width="15" height="13.2505" filterUnits="userSpaceOnUse" color-interpolation-filters="sRGB">
<feFlood flood-opacity="0" result="BackgroundImageFix"/>
<feColorMatrix in="SourceAlpha" type="matrix" values="0 0 0 0 0 0 0 0 0 0 0 0 0 0 0 0 0 0 127 0" result="hardAlpha"/>
<feOffset dy="0.5"/>
<feGaussianBlur stdDeviation="0.25"/>
<feComposite in2="hardAlpha" operator="out"/>
<feColorMatrix type="matrix" values="0 0 0 0 0.996078 0 0 0 0 0.431373 0 0 0 0 0.0156863 0 0 0 1 0"/>
<feBlend mode="normal" in2="BackgroundImageFix" result="effect1_dropShadow_296_1566"/>
<feBlend mode="normal" in="SourceGraphic" in2="effect1_dropShadow_296_1566" result="shape"/>
</filter>
<linearGradient id="paint0_linear_296_1566" x1="12.8783" y1="0.575195" x2="12.8783" y2="26.5752" gradientUnits="userSpaceOnUse">
<stop stop-color="#FC8731"/>
<stop offset="1" stop-color="#FFCC63"/>
</linearGradient>
<linearGradient id="paint1_linear_296_1566" x1="12.8783" y1="0.575195" x2="12.8783" y2="26.5752" gradientUnits="userSpaceOnUse">
<stop stop-color="#FC8731"/>
<stop offset="1" stop-color="#FFCC63"/>
</linearGradient>
<linearGradient id="paint2_linear_296_1566" x1="14" y1="17" x2="14" y2="26" gradientUnits="userSpaceOnUse">
<stop stop-color="#FFC65B"/>
<stop offset="1" stop-color="#FFD363"/>
</linearGradient>
<linearGradient id="paint3_linear_296_1566" x1="14.1428" y1="0.575195" x2="14.1428" y2="26.5752" gradientUnits="userSpaceOnUse">
<stop stop-color="white"/>
<stop offset="1" stop-color="#FFF4DB"/>
</linearGradient>
</defs>
</svg>
