<svg width="28" height="28" viewBox="0 0 28 28" fill="none" xmlns="http://www.w3.org/2000/svg">
<g id="&#230;&#179;&#168;&#229;&#134;&#140;&#232;&#175;&#134;&#229;&#136;&#171;&#232;&#174;&#176;&#229;&#189;&#149;--&#231;&#140;&#170;&#230;&#179;&#168;&#229;&#134;&#140;&#232;&#174;&#176;&#229;&#189;&#149;">
<g id="&#230;&#153;&#186;&#230;&#133;&#167;&#228;&#191;&#157;&#233;&#153;&#169;--&#232;&#174;&#162;&#229;&#141;&#149;&#230;&#159;&#165;&#232;&#175;&#162;">
<g id="&#230;&#153;&#186;&#230;&#133;&#167;&#228;&#191;&#157;&#233;&#153;&#169;--&#232;&#174;&#162;&#229;&#141;&#149;&#230;&#159;&#165;&#232;&#175;&#162;_2">
<g id="Union" filter="url(#filter0_i_296_1737)">
<path fill-rule="evenodd" clip-rule="evenodd" d="M7 1C7 0.447716 7.44772 0 8 0H17.2C17.7523 0 18.2 0.447715 18.2 1V1.66667C18.2 2.21895 17.7523 2.66667 17.2 2.66667H8C7.44771 2.66667 7 2.21895 7 1.66667V1ZM5.60041 1.33333H2C0.895431 1.33333 0 2.22877 0 3.33333V24.6667C0 25.7712 0.895429 26.6667 2 26.6667H15.7601C14.6606 25.3987 14 23.7728 14 21.9999C14 17.9498 17.4474 14.6666 21.7 14.6666C22.9603 14.6666 24.1499 14.955 25.2 15.4662V3.33333C25.2 2.22876 24.3046 1.33333 23.2 1.33333H19.6004V2.99996C19.6004 3.55224 19.1527 3.99996 18.6004 3.99996H6.60041C6.04812 3.99996 5.60041 3.55224 5.60041 2.99996V1.33333ZM21.6996 28C25.179 28 27.9996 25.3137 27.9996 22C27.9996 18.6863 25.179 16 21.6996 16C18.2202 16 15.3996 18.6863 15.3996 22C15.3996 25.3137 18.2202 28 21.6996 28Z" fill="url(#paint0_linear_296_1737)"/>
</g>
<path id="Vector 6" d="M20.2997 23.3334C18.0597 23.8667 16.0997 22.6667 15.3997 22.0001C15.3997 25.3137 18.0859 28 21.3996 28H21.8233C25.2344 28 27.9997 25.2347 27.9997 21.8236C27.9997 21.5428 27.791 21.3037 27.5117 21.2739C23.0964 20.8025 23.0035 22.6896 20.2997 23.3334Z" fill="url(#paint1_linear_296_1737)"/>
<path id="Subtract" fill-rule="evenodd" clip-rule="evenodd" d="M14.0031 21.7903C11.2396 21.0666 10.1734 20.5647 9.20873 20.1105C8.59663 19.8224 8.02544 19.5535 7.0875 19.2594C3.80007 18.2287 2.41867 19.8275 1.35195 21.0621C0.885485 21.6019 0.47919 22.0721 0 22.2224V24.6668C0 25.7714 0.895429 26.6668 2 26.6668H15.7601C14.6606 25.3989 14 23.773 14 22.0001C14 21.9299 14.001 21.86 14.0031 21.7903Z" fill="url(#paint2_linear_296_1737)"/>
<g id="Union_2" filter="url(#filter1_d_296_1737)">
<path fill-rule="evenodd" clip-rule="evenodd" d="M4.60034 17.6665C4.04806 17.6665 3.60034 18.1142 3.60034 18.6665C3.60034 19.2188 4.04806 19.6665 4.60034 19.6665H11.6003C12.1526 19.6665 12.6003 19.2188 12.6003 18.6665C12.6003 18.1142 12.1526 17.6665 11.6003 17.6665H4.60034ZM4.60034 21.3333C4.04806 21.3333 3.60034 21.781 3.60034 22.3333C3.60034 22.8855 4.04806 23.3333 4.60034 23.3333H9.60034C10.1526 23.3333 10.6003 22.8855 10.6003 22.3333C10.6003 21.781 10.1526 21.3333 9.60034 21.3333H4.60034Z" fill="url(#paint3_linear_296_1737)"/>
</g>
<g id="Vector" filter="url(#filter2_d_296_1737)">
<path fill-rule="evenodd" clip-rule="evenodd" d="M9.44511 7.35301C9.39613 7.32969 9.34205 7.31913 9.2879 7.32234C9.23375 7.32554 9.18129 7.3424 9.13541 7.37134C9.08953 7.40028 9.05172 7.44036 9.0255 7.48785C8.99928 7.53534 8.98551 7.58869 8.98547 7.64294V9.58437C8.98547 9.68658 8.93404 9.80937 8.83118 9.93601C8.51939 10.3172 8.08032 11.0899 8.08032 12.3892C8.08032 13.5733 8.63639 14.4142 9.48175 14.9445C10.3085 15.4633 11.3994 15.6787 12.5 15.6787C13.5993 15.6787 14.6908 15.4633 15.5188 14.9439C16.3635 14.4142 16.9196 13.5733 16.9196 12.3892C16.9196 11.0899 16.4805 10.3172 16.1688 9.93601C16.0659 9.80937 16.0145 9.68658 16.0145 9.58373V7.64294C16.0144 7.58869 16.0006 7.53534 15.9744 7.48785C15.9482 7.44036 15.9104 7.40028 15.8645 7.37134C15.8186 7.3424 15.7662 7.32554 15.712 7.32234C15.6579 7.31913 15.6038 7.32969 15.5548 7.35301L13.6314 8.26908L13.6121 8.26523C13.5072 8.24227 13.402 8.22084 13.2965 8.20094C13.0554 8.15594 12.7372 8.1058 12.5006 8.1058C12.264 8.1058 11.9458 8.15594 11.7048 8.20094C11.58 8.22473 11.4695 8.24787 11.3898 8.26523L11.3705 8.26908L9.44447 7.35365L9.44511 7.35301ZM14.3887 12.7659C14.3887 13.6299 13.5427 14.1519 12.5 14.1519C11.4573 14.1519 10.6113 13.6697 10.6113 12.7659C10.6113 11.862 11.4573 11.3799 12.5 11.3799C13.5427 11.3799 14.3887 11.9019 14.3887 12.7659ZM10.6923 11.0179C10.5857 11.0179 10.4835 10.9756 10.4081 10.9003C10.3328 10.8249 10.2905 10.7227 10.2905 10.6162C10.2905 10.5096 10.3328 10.4074 10.4081 10.332C10.4835 10.2567 10.5857 10.2144 10.6923 10.2144C10.7988 10.2144 10.901 10.2567 10.9764 10.332C11.0517 10.4074 11.094 10.5096 11.094 10.6162C11.094 10.7227 11.0517 10.8249 10.9764 10.9003C10.901 10.9756 10.7988 11.0179 10.6923 11.0179ZM14.3083 11.0179C14.4149 11.0179 14.5171 10.9756 14.5924 10.9003C14.6678 10.8249 14.7101 10.7227 14.7101 10.6162C14.7101 10.5096 14.6678 10.4074 14.5924 10.332C14.5171 10.2567 14.4149 10.2144 14.3083 10.2144C14.2018 10.2144 14.0996 10.2567 14.0242 10.332C13.9489 10.4074 13.9065 10.5096 13.9065 10.6162C13.9065 10.7227 13.9489 10.8249 14.0242 10.9003C14.0996 10.9756 14.2018 11.0179 14.3083 11.0179ZM13.1428 13.248C13.2494 13.248 13.3516 13.2057 13.4269 13.1303C13.5023 13.055 13.5446 12.9528 13.5446 12.8462C13.5446 12.7397 13.5023 12.6375 13.4269 12.5621C13.3516 12.4868 13.2494 12.4444 13.1428 12.4444C13.0363 12.4444 12.9341 12.4868 12.8587 12.5621C12.7834 12.6375 12.741 12.7397 12.741 12.8462C12.741 12.9528 12.7834 13.055 12.8587 13.1303C12.9341 13.2057 13.0363 13.248 13.1428 13.248ZM11.4553 12.8462C11.4553 12.7397 11.4977 12.6375 11.573 12.5621C11.6484 12.4868 11.7505 12.4444 11.8571 12.4444C11.9637 12.4444 12.0659 12.4868 12.1412 12.5621C12.2166 12.6375 12.2589 12.7397 12.2589 12.8462C12.2589 12.9528 12.2166 13.055 12.1412 13.1303C12.0659 13.2057 11.9637 13.248 11.8571 13.248C11.7505 13.248 11.6484 13.2057 11.573 13.1303C11.4977 13.055 11.4553 12.9528 11.4553 12.8462Z" fill="white"/>
</g>
<g id="Union_3" filter="url(#filter3_d_296_1737)">
<path fill-rule="evenodd" clip-rule="evenodd" d="M22.5806 20.9778C22.9883 20.6727 23.2502 20.1988 23.2502 19.6667C23.2502 18.7462 22.4667 18 21.5002 18C20.5337 18 19.7502 18.7462 19.7502 19.6667C19.7502 20.1986 20.0119 20.6724 20.4194 20.9776L20.0218 22.1925C19.9546 22.3979 19.7629 22.5369 19.5466 22.5369H19C18.4477 22.5369 18 22.9846 18 23.5369V24.4999C18 24.776 18.2239 24.9999 18.5 24.9999H24.5C24.7761 24.9999 25 24.776 25 24.4999V23.5369C25 22.9846 24.5523 22.5369 24 22.5369H23.4534C23.2371 22.5369 23.0454 22.3979 22.9782 22.1925L22.5806 20.9778Z" fill="url(#paint4_linear_296_1737)"/>
</g>
</g>
</g>
</g>
<defs>
<filter id="filter0_i_296_1737" x="0" y="0" width="27.9995" height="29" filterUnits="userSpaceOnUse" color-interpolation-filters="sRGB">
<feFlood flood-opacity="0" result="BackgroundImageFix"/>
<feBlend mode="normal" in="SourceGraphic" in2="BackgroundImageFix" result="shape"/>
<feColorMatrix in="SourceAlpha" type="matrix" values="0 0 0 0 0 0 0 0 0 0 0 0 0 0 0 0 0 0 127 0" result="hardAlpha"/>
<feOffset dy="1"/>
<feGaussianBlur stdDeviation="0.5"/>
<feComposite in2="hardAlpha" operator="arithmetic" k2="-1" k3="1"/>
<feColorMatrix type="matrix" values="0 0 0 0 0.0370312 0 0 0 0 0.422243 0 0 0 0 0.9875 0 0 0 0.8 0"/>
<feBlend mode="normal" in2="shape" result="effect1_innerShadow_296_1737"/>
</filter>
<filter id="filter1_d_296_1737" x="3.10034" y="17.6665" width="10" height="6.66675" filterUnits="userSpaceOnUse" color-interpolation-filters="sRGB">
<feFlood flood-opacity="0" result="BackgroundImageFix"/>
<feColorMatrix in="SourceAlpha" type="matrix" values="0 0 0 0 0 0 0 0 0 0 0 0 0 0 0 0 0 0 127 0" result="hardAlpha"/>
<feOffset dy="0.5"/>
<feGaussianBlur stdDeviation="0.25"/>
<feComposite in2="hardAlpha" operator="out"/>
<feColorMatrix type="matrix" values="0 0 0 0 0.0784314 0 0 0 0 0.517647 0 0 0 0 1 0 0 0 0.8 0"/>
<feBlend mode="normal" in2="BackgroundImageFix" result="effect1_dropShadow_296_1737"/>
<feBlend mode="normal" in="SourceGraphic" in2="effect1_dropShadow_296_1737" result="shape"/>
</filter>
<filter id="filter2_d_296_1737" x="7.58032" y="7.32178" width="9.83936" height="9.35693" filterUnits="userSpaceOnUse" color-interpolation-filters="sRGB">
<feFlood flood-opacity="0" result="BackgroundImageFix"/>
<feColorMatrix in="SourceAlpha" type="matrix" values="0 0 0 0 0 0 0 0 0 0 0 0 0 0 0 0 0 0 127 0" result="hardAlpha"/>
<feOffset dy="0.5"/>
<feGaussianBlur stdDeviation="0.25"/>
<feComposite in2="hardAlpha" operator="out"/>
<feColorMatrix type="matrix" values="0 0 0 0 0.0784314 0 0 0 0 0.517647 0 0 0 0 1 0 0 0 0.8 0"/>
<feBlend mode="normal" in2="BackgroundImageFix" result="effect1_dropShadow_296_1737"/>
<feBlend mode="normal" in="SourceGraphic" in2="effect1_dropShadow_296_1737" result="shape"/>
</filter>
<filter id="filter3_d_296_1737" x="17.5" y="18" width="8" height="7.99976" filterUnits="userSpaceOnUse" color-interpolation-filters="sRGB">
<feFlood flood-opacity="0" result="BackgroundImageFix"/>
<feColorMatrix in="SourceAlpha" type="matrix" values="0 0 0 0 0 0 0 0 0 0 0 0 0 0 0 0 0 0 127 0" result="hardAlpha"/>
<feOffset dy="0.5"/>
<feGaussianBlur stdDeviation="0.25"/>
<feComposite in2="hardAlpha" operator="out"/>
<feColorMatrix type="matrix" values="0 0 0 0 0.313726 0 0 0 0 0.733333 0 0 0 0 0.984314 0 0 0 1 0"/>
<feBlend mode="normal" in2="BackgroundImageFix" result="effect1_dropShadow_296_1737"/>
<feBlend mode="normal" in="SourceGraphic" in2="effect1_dropShadow_296_1737" result="shape"/>
</filter>
<linearGradient id="paint0_linear_296_1737" x1="13.341" y1="26.6667" x2="13.341" y2="1.33333" gradientUnits="userSpaceOnUse">
<stop stop-color="#78CFFF"/>
<stop offset="1" stop-color="#297DFF"/>
</linearGradient>
<linearGradient id="paint1_linear_296_1737" x1="21.6997" y1="21.1992" x2="21.6997" y2="28" gradientUnits="userSpaceOnUse">
<stop stop-color="#7BC6FF"/>
<stop offset="1" stop-color="#7ADAFF"/>
</linearGradient>
<linearGradient id="paint2_linear_296_1737" x1="8.39967" y1="26.3027" x2="8.39967" y2="19.2931" gradientUnits="userSpaceOnUse">
<stop stop-color="#7AD9FF"/>
<stop offset="1" stop-color="#7BC5FF"/>
</linearGradient>
<linearGradient id="paint3_linear_296_1737" x1="8.10034" y1="17.6665" x2="8.10034" y2="23.3333" gradientUnits="userSpaceOnUse">
<stop stop-color="white"/>
<stop offset="1" stop-color="#E4F7FF"/>
</linearGradient>
<linearGradient id="paint4_linear_296_1737" x1="21.5" y1="18" x2="21.5" y2="25" gradientUnits="userSpaceOnUse">
<stop stop-color="white"/>
<stop offset="1" stop-color="#D7F2FF"/>
</linearGradient>
</defs>
</svg>
