<svg xmlns="http://www.w3.org/2000/svg" width="28" height="28" viewBox="0 0 28 28" fill="none">
  <g filter="url(#filter0_i_66_1212)">
    <path d="M0 4C0 1.79086 1.79086 0 4 0H24C26.2091 0 28 1.79086 28 4V24C28 26.2091 26.2091 28 24 28H4C1.79086 28 0 26.2091 0 24V4Z" fill="url(#paint0_linear_66_1212)"></path>
  </g>
  <path d="M7.875 21.3632C5.775 20.3013 1.75 20.9208 0 21.3632V24C0 26.2091 1.79086 28 4 28H24C26.2091 28 28 26.2091 28 24V20.0359C26.25 19.3722 20.125 19.3722 17.5 20.6996C14.875 22.0269 10.5 22.6906 7.875 21.3632Z" fill="url(#paint1_linear_66_1212)"></path>
  <g filter="url(#filter1_d_66_1212)">
    <path d="M14.1243 12.7179C13.8403 12.8453 13.9144 12.8594 13.581 12.7037L4.60574 8.231C4.54401 8.14608 4.49463 8.03285 4.49463 7.90546C4.49463 7.77807 4.53167 7.66484 4.59339 7.57991L13.3341 3.1072C13.5317 2.99396 13.7292 2.93735 14.0996 3.1072L23.0131 7.49499C23.1736 7.67899 23.1736 7.97623 23.0378 8.14608L14.1243 12.7179Z" fill="url(#paint2_linear_66_1212)"></path>
  </g>
  <g filter="url(#filter2_d_66_1212)">
    <path d="M14.125 12.7179C13.8411 12.8453 13.9151 12.8594 13.5818 12.7037L4.6065 8.231C4.54477 8.14608 4.49539 8.03285 4.49539 7.90546C4.49539 7.77807 4.53242 7.66484 4.59415 7.57991L13.3349 3.1072C13.5324 2.99396 13.73 2.93735 14.1003 3.1072L23.0139 7.49499C23.1744 7.67899 23.1744 7.97623 23.0386 8.14608L14.125 12.7179ZM14.3966 24.9046C14.3966 25.1735 14.5818 25.4 14.804 25.4L23.3472 20.0497C23.6806 19.795 23.7546 19.3562 23.7546 18.7051V9.68888C23.7546 9.56149 23.7176 9.43411 23.6312 9.33503C23.5571 9.23595 23.446 9.19349 23.3349 9.19349L14.804 13.4964C14.3843 13.6945 14.3843 13.9493 14.3843 14.2182L14.3966 24.9046ZM12.9522 13.4964L4.40897 9.19349C4.29786 9.19349 4.19909 9.2501 4.11267 9.33503C4.05094 9.43411 4.00156 9.56149 4.00156 9.68888V20.0639C4.00156 20.1771 3.95218 20.3328 4.40897 20.5593L12.9522 25.4C13.1744 25.4 13.3596 25.1735 13.3596 24.9046V14.2182C13.3596 13.9493 13.3596 13.6945 12.9522 13.4964ZM10.1621 16.0583C9.07563 15.4779 7.97687 14.9118 6.89045 14.3314C6.70526 14.2324 6.61884 14.1899 6.61884 14.0201V12.8736C6.61884 12.7179 6.69292 12.5339 6.82872 12.5905L10.1991 14.3598C10.5077 14.5438 10.4213 14.5579 10.4337 15.2373V15.8035C10.4337 15.9309 10.3472 16.1432 10.1621 16.0583Z" fill="url(#paint3_linear_66_1212)"></path>
  </g>
  <defs>
    <filter id="filter0_i_66_1212" x="0" y="0" width="28" height="30" filterUnits="userSpaceOnUse" color-interpolation-filters="sRGB">
      <feflood flood-opacity="0" result="BackgroundImageFix"></feflood>
      <feblend mode="normal" in="SourceGraphic" in2="BackgroundImageFix" result="shape"></feblend>
      <feColorMatrix in="SourceAlpha" type="matrix" values="0 0 0 0 0 0 0 0 0 0 0 0 0 0 0 0 0 0 127 0" result="hardAlpha"></feColorMatrix>
      <feoffset dy="2"></feoffset>
      <feGaussianBlur stdDeviation="1"></feGaussianBlur>
      <fecomposite in2="hardAlpha" operator="arithmetic" k2="-1" k3="1"></fecomposite>
      <feColorMatrix type="matrix" values="0 0 0 0 0.0208333 0 0 0 0 0.41922 0 0 0 0 1 0 0 0 1 0"></feColorMatrix>
      <feblend mode="normal" in2="shape" result="effect1_innerShadow_66_1212"></feblend>
    </filter>
    <filter id="filter1_d_66_1212" x="3.99463" y="3" width="19.6421" height="10.817" filterUnits="userSpaceOnUse" color-interpolation-filters="sRGB">
      <feflood flood-opacity="0" result="BackgroundImageFix"></feflood>
      <feColorMatrix in="SourceAlpha" type="matrix" values="0 0 0 0 0 0 0 0 0 0 0 0 0 0 0 0 0 0 127 0" result="hardAlpha"></feColorMatrix>
      <feoffset dy="0.5"></feoffset>
      <feGaussianBlur stdDeviation="0.25"></feGaussianBlur>
      <fecomposite in2="hardAlpha" operator="out"></fecomposite>
      <feColorMatrix type="matrix" values="0 0 0 0 0.203922 0 0 0 0 0.533333 0 0 0 0 1 0 0 0 1 0"></feColorMatrix>
      <feblend mode="normal" in2="BackgroundImageFix" result="effect1_dropShadow_66_1212"></feblend>
      <feblend mode="normal" in="SourceGraphic" in2="effect1_dropShadow_66_1212" result="shape"></feblend>
    </filter>
    <filter id="filter2_d_66_1212" x="3.5" y="3" width="20.7549" height="23.4" filterUnits="userSpaceOnUse" color-interpolation-filters="sRGB">
      <feflood flood-opacity="0" result="BackgroundImageFix"></feflood>
      <feColorMatrix in="SourceAlpha" type="matrix" values="0 0 0 0 0 0 0 0 0 0 0 0 0 0 0 0 0 0 127 0" result="hardAlpha"></feColorMatrix>
      <feoffset dy="0.5"></feoffset>
      <feGaussianBlur stdDeviation="0.25"></feGaussianBlur>
      <fecomposite in2="hardAlpha" operator="out"></fecomposite>
      <feColorMatrix type="matrix" values="0 0 0 0 0.313726 0 0 0 0 0.733333 0 0 0 0 0.984314 0 0 0 1 0"></feColorMatrix>
      <feblend mode="normal" in2="BackgroundImageFix" result="effect1_dropShadow_66_1212"></feblend>
      <feblend mode="normal" in="SourceGraphic" in2="effect1_dropShadow_66_1212" result="shape"></feblend>
    </filter>
    <linearGradient id="paint0_linear_66_1212" x1="14.8235" y1="28" x2="14.8235" y2="-5.50764e-07" gradientUnits="userSpaceOnUse">
      <stop stop-color="#79D0FF"></stop>
      <stop offset="1" stop-color="#297DFF"></stop>
    </linearGradient>
    <linearGradient id="paint1_linear_66_1212" x1="14" y1="19.6" x2="14" y2="28" gradientUnits="userSpaceOnUse">
      <stop stop-color="#7CC1FF"></stop>
      <stop offset="1" stop-color="#79D9FF"></stop>
    </linearGradient>
    <linearGradient id="paint2_linear_66_1212" x1="13.8766" y1="3" x2="13.8766" y2="25.4" gradientUnits="userSpaceOnUse">
      <stop stop-color="white"></stop>
      <stop offset="1" stop-color="#D7F2FF"></stop>
    </linearGradient>
    <linearGradient id="paint3_linear_66_1212" x1="13.8773" y1="3" x2="13.8773" y2="25.4" gradientUnits="userSpaceOnUse">
      <stop stop-color="white"></stop>
      <stop offset="1" stop-color="#D7F2FF"></stop>
    </linearGradient>
  </defs>
</svg>