<svg xmlns="http://www.w3.org/2000/svg" fill="none" viewBox="0 0 30 30" class="design-iconfont" width="128" height="128">
  <defs>
    <linearGradient id="5hnksjpvi__paint0_linear_277_1433" x1="14.9999" y1="9.20471" x2="14.9999" y2="29.8523" gradientUnits="userSpaceOnUse">
      <stop stop-color="#F04B42"></stop>
      <stop offset="1" stop-color="#FF9E98"></stop>
    </linearGradient>
    <linearGradient id="5hnksjpvi__paint1_linear_277_1433" x1="14.9999" y1="9.20471" x2="14.9999" y2="29.8523" gradientUnits="userSpaceOnUse">
      <stop stop-color="#F04B42"></stop>
      <stop offset="1" stop-color="#FF9E98"></stop>
    </linearGradient>
    <linearGradient id="5hnksjpvi__paint2_linear_277_1433" x1="13.6331" y1="23.8351" x2="13.6331" y2="31.2093" gradientUnits="userSpaceOnUse">
      <stop stop-color="#FFA29C" stop-opacity=".5"></stop>
      <stop offset="1" stop-color="#FFBDA8"></stop>
    </linearGradient>
    <filter id="5hnksjpvi__filter0_i_277_1433" x="1.15283" y="9.20471" width="27.8472" height="21.7953" filterUnits="userSpaceOnUse" color-interpolation-filters="sRGB">
      <feFlood flood-opacity="0" result="BackgroundImageFix"></feFlood>
      <feBlend in="SourceGraphic" in2="BackgroundImageFix" result="shape"></feBlend>
      <feColorMatrix in="SourceAlpha" values="0 0 0 0 0 0 0 0 0 0 0 0 0 0 0 0 0 0 127 0" result="hardAlpha"></feColorMatrix>
      <feOffset dy="1"></feOffset>
      <feGaussianBlur stdDeviation=".5"></feGaussianBlur>
      <feComposite in2="hardAlpha" operator="arithmetic" k2="-1" k3="1"></feComposite>
      <feColorMatrix values="0 0 0 0 0.929412 0 0 0 0 0.172549 0 0 0 0 0.133333 0 0 0 0.8 0"></feColorMatrix>
      <feBlend in2="shape" result="effect1_innerShadow_277_1433"></feBlend>
    </filter>
    <filter id="5hnksjpvi__filter1_d_277_1433" x="12.8647" y="15.4075" width="4.3208" height="12.5345" filterUnits="userSpaceOnUse" color-interpolation-filters="sRGB">
      <feFlood flood-opacity="0" result="BackgroundImageFix"></feFlood>
      <feColorMatrix in="SourceAlpha" values="0 0 0 0 0 0 0 0 0 0 0 0 0 0 0 0 0 0 127 0" result="hardAlpha"></feColorMatrix>
      <feOffset dy="1"></feOffset>
      <feGaussianBlur stdDeviation=".5"></feGaussianBlur>
      <feComposite in2="hardAlpha" operator="out"></feComposite>
      <feColorMatrix values="0 0 0 0 0.94902 0 0 0 0 0.333333 0 0 0 0 0.298039 0 0 0 0.6 0"></feColorMatrix>
      <feBlend in2="BackgroundImageFix" result="effect1_dropShadow_277_1433"></feBlend>
      <feBlend in="SourceGraphic" in2="effect1_dropShadow_277_1433" result="shape"></feBlend>
    </filter>
    <mask id="5hnksjpvi__wir4yilvza" style="mask-type:alpha" maskUnits="userSpaceOnUse" x="1" y="9" width="28" height="21">
      <path fill-rule="evenodd" clip-rule="evenodd" d="M6.73995 17.3671C6.73995 12.8592 10.282 9.20471 14.6513 9.20471C19.0206 9.20471 22.5627 12.8592 22.5627 17.3671V27.9369H27.9187C28.4313 27.9369 28.8469 28.3656 28.8469 28.8945C28.8469 29.4234 28.4313 29.8522 27.9187 29.8522H21.6461C21.6423 29.8523 21.6384 29.8523 21.6345 29.8523H7.66818C7.66428 29.8523 7.66038 29.8523 7.65649 29.8522H2.08106C1.56841 29.8522 1.15283 29.4234 1.15283 28.8945C1.15283 28.3656 1.56841 27.9369 2.08106 27.9369H6.73995V17.3671Z" fill="url(#5hnksjpvi__paint1_linear_277_1433)"></path>
    </mask>
  </defs>
  <g filter="url(#5hnksjpvi__filter0_i_277_1433)">
    <path fill-rule="evenodd" clip-rule="evenodd" d="M6.73995 17.3671C6.73995 12.8592 10.282 9.20471 14.6513 9.20471C19.0206 9.20471 22.5627 12.8592 22.5627 17.3671V27.9369H28.0665C28.582 27.9369 28.9999 28.3987 28.9999 28.9684C28.9999 29.5381 28.582 30 28.0665 30H2.08619C1.57071 30 1.15283 29.5381 1.15283 28.9684C1.15283 28.3987 1.57071 27.9369 2.08619 27.9369H6.73995V17.3671Z" fill="url(#5hnksjpvi__paint0_linear_277_1433)"></path>
  </g>
  <g mask="url(#5hnksjpvi__wir4yilvza)">
    <path d="M8.15078 23.7607C3.45163 22.271 2.66843 26.2435 1.10205 26.7401V30.2516H28.9489V22.271C27.3825 21.5262 20.0855 28.5088 17.346 27.8574C11.0805 26.3675 10.8297 24.6099 8.15078 23.7607Z" fill="url(#5hnksjpvi__paint2_linear_277_1433)"></path>
  </g>
  <path fill-rule="evenodd" clip-rule="evenodd" d="M14.6503 2C15.163 2 15.5786 2.42877 15.5786 2.95768V5.11909C15.5786 5.648 15.163 6.07677 14.6503 6.07677C14.1377 6.07677 13.7221 5.648 13.7221 5.11909V2.95768C13.7221 2.42877 14.1377 2 14.6503 2ZM23.5522 5.34245C23.9449 5.68243 23.9961 6.28649 23.6666 6.69166L22.32 8.34742C21.9905 8.75259 21.405 8.80543 21.0123 8.46546C20.6196 8.12548 20.5683 7.52142 20.8979 7.11625L22.2445 5.46049C22.574 5.05532 23.1595 5.00247 23.5522 5.34245ZM27.5341 14.9147C28.039 14.8229 28.376 14.3262 28.287 13.8053C28.198 13.2844 27.7166 12.9366 27.2117 13.0285L25.1485 13.4039C24.6437 13.4957 24.3066 13.9924 24.3956 14.5133C24.4846 15.0342 24.9661 15.382 25.4709 15.2901L27.5341 14.9147ZM1.01425 13.8053C1.10327 13.2845 1.5847 12.9366 2.08955 13.0285L4.15267 13.4038C4.65753 13.4956 4.99464 13.9923 4.90562 14.5132C4.81661 15.0341 4.33518 15.3819 3.83032 15.29L1.76721 14.9147C1.26235 14.8229 0.925242 14.3262 1.01425 13.8053ZM7.05728 5.46049C6.72776 5.05532 6.14227 5.00247 5.74957 5.34245C5.35686 5.68242 5.30563 6.28648 5.63515 6.69165L6.98178 8.34742C7.3113 8.75259 7.89679 8.80544 8.2895 8.46546C8.68221 8.12549 8.73343 7.52143 8.40391 7.11626L7.05728 5.46049Z" fill="#F04B42"></path>
  <g filter="url(#5hnksjpvi__filter1_d_277_1433)">
    <path fill-rule="evenodd" clip-rule="evenodd" d="M15.953 16.3651C15.953 15.8362 15.5374 15.4075 15.0247 15.4075C14.5121 15.4075 14.0965 15.8362 14.0965 16.3651V21.1535C14.0965 21.6824 14.5121 22.1112 15.0247 22.1112C15.5374 22.1112 15.953 21.6824 15.953 21.1535V16.3651ZM16.1853 24.7449C16.1853 25.406 15.6658 25.942 15.025 25.942C14.3842 25.942 13.8647 25.406 13.8647 24.7449C13.8647 24.0838 14.3842 23.5478 15.025 23.5478C15.6658 23.5478 16.1853 24.0838 16.1853 24.7449Z" fill="#fff"></path>
  </g>
</svg>
