<svg xmlns="http://www.w3.org/2000/svg" width="30" height="30" viewBox="0 0 30 30" fill="none">
  <g filter="url(#filter0_i_277_1455)">
    <path d="M19.822 27.2854H4.36099C2.506 27.2834 1.002 25.7599 1 23.8804V6.69044C1.002 4.81145 2.5055 3.28845 4.36099 3.28545H19.822C21.641 3.27545 23.1319 4.74545 23.1714 6.58744V6.63144C23.1724 6.65144 23.1724 6.67244 23.1714 6.69294V10.7114L26.7379 8.83944C26.9662 8.70326 27.2268 8.63087 27.4926 8.62981C27.7584 8.62875 28.0196 8.69908 28.2489 8.83344C28.4797 8.96936 28.6706 9.16365 28.8024 9.39677C28.9343 9.6299 29.0024 9.89363 28.9999 10.1614V20.4864C28.9984 21.3304 28.3234 22.0144 27.4904 22.0154C27.2272 22.0178 26.9681 21.9492 26.7404 21.8169L23.1734 19.9449V23.8799C23.1757 23.9137 23.1757 23.9476 23.1734 23.9814V24.0589C23.0844 25.8679 21.61 27.2874 19.822 27.2854Z" fill="url(#paint0_linear_277_1455)"></path>
  </g>
  <mask id="mask0_277_1455" style="mask-type:alpha" maskUnits="userSpaceOnUse" x="1" y="3" width="28" height="25">
    <path d="M19.822 27.2854H4.36099C2.506 27.2834 1.002 25.7599 1 23.8804V6.69044C1.002 4.81145 2.5055 3.28845 4.36099 3.28545H19.822C21.641 3.27545 23.1319 4.74545 23.1714 6.58744V6.63144C23.1724 6.65144 23.1724 6.67244 23.1714 6.69294V10.7114L26.7379 8.83944C26.9662 8.70326 27.2268 8.63087 27.4926 8.62981C27.7584 8.62875 28.0196 8.69908 28.2489 8.83344C28.4797 8.96936 28.6706 9.16365 28.8024 9.39677C28.9343 9.6299 29.0024 9.89363 28.9999 10.1614V20.4864C28.9984 21.3304 28.3234 22.0144 27.4904 22.0154C27.2272 22.0178 26.9681 21.9492 26.7404 21.8169L23.1734 19.9449V23.8799C23.1757 23.9137 23.1757 23.9476 23.1734 23.9814V24.0589C23.0844 25.8679 21.61 27.2874 19.822 27.2854Z" fill="url(#paint1_linear_277_1455)"></path>
  </mask>
  <g mask="url(#mask0_277_1455)">
    <path d="M7 21.5C5.20397 20.335 2 22 1 23.151V27C1 28.1046 1.89543 29 3 29H27C28.1046 29 29 28.1046 29 27V18.3813C27.25 17.4964 23.1798 15.9867 20.5 20.151C16.5 26.3667 11.625 24.5 7 21.5Z" fill="url(#paint2_linear_277_1455)"></path>
  </g>
  <g filter="url(#filter1_d_277_1455)">
    <path d="M8.49625 7.2854C7.9053 7.28589 7.32024 7.40278 6.77446 7.62938C6.22868 7.85598 5.73288 8.18786 5.31537 8.60607C4.89785 9.02428 4.5668 9.52064 4.34111 10.0668C4.11542 10.6129 3.99951 11.1982 4 11.7892C4.00049 12.3801 4.11738 12.9652 4.34398 13.5109C4.57058 14.0567 4.90246 14.5525 5.32067 14.97C5.73888 15.3875 6.23524 15.7186 6.78139 15.9443C7.32754 16.17 7.9128 16.2859 8.50375 16.2854C9.69722 16.2844 10.8414 15.8093 11.6846 14.9647C12.5278 14.1201 13.001 12.9751 13 11.7817C12.999 10.5882 12.5239 9.44398 11.6793 8.60077C10.8347 7.75756 9.68972 7.28441 8.49625 7.2854Z" fill="url(#paint3_linear_277_1455)"></path>
  </g>
  <path fill-rule="evenodd" clip-rule="evenodd" d="M11.915 10.5986C11.7076 10.4048 11.3447 10.1626 10.8781 10.1141C10.9062 10.0617 10.919 9.99505 10.9332 9.92189C10.9451 9.85991 10.958 9.79326 10.9818 9.72661V9.2422C10.9818 9.14532 10.8781 9.04844 10.7226 9H10.6707C10.567 9 10.4633 9.04844 10.4115 9.14532C10.2041 9.33909 9.94485 9.58129 9.78931 9.62973C9.42639 9.48441 9.01162 9.38753 8.59685 9.33909C8.13023 9.33909 7.71546 9.43597 7.40438 9.62973C7.24884 9.58129 6.98961 9.33909 6.83407 9.14532C6.67853 9.04844 6.57484 9 6.47114 9H6.4193C6.26376 9 6.16006 9.09688 6.16006 9.2422C6.16006 9.2496 6.15765 9.26602 6.15411 9.29009C6.13445 9.42372 6.08011 9.79315 6.21191 10.1626C5.74529 10.211 5.33052 10.4532 5.17498 10.647C5.01944 10.7439 4.9676 10.9376 5.01944 11.0345C5.12314 11.3252 5.53791 11.5189 6.05637 11.5189C6.26376 11.5189 6.47114 11.4705 6.67853 11.422L6.93776 13.1659C6.93776 13.1901 6.9248 13.2023 6.91184 13.2144C6.89888 13.2265 6.88591 13.2386 6.88591 13.2628C6.8708 13.3052 6.85128 13.3475 6.83121 13.3911C6.78243 13.497 6.73037 13.6099 6.73037 13.7472C6.73037 14.2316 7.19699 14.5707 7.81915 14.5707H8.545H9.27085C9.89301 14.5707 10.3596 14.2316 10.3596 13.7472C10.3596 13.5535 10.2559 13.3597 10.2041 13.2628C10.2041 13.2144 10.1522 13.1659 10.1522 13.1659L10.4115 11.422C10.6189 11.4705 10.8262 11.5189 11.0336 11.5189C11.5521 11.5189 11.9669 11.3252 12.0706 11.083C12.1224 10.9376 12.0706 10.7439 11.915 10.5986ZM7.55117 11.2791C7.55117 11.4189 7.43781 11.5323 7.29796 11.5323C7.15811 11.5323 7.04475 11.4189 7.04475 11.2791C7.04475 11.1392 7.15811 11.0258 7.29796 11.0258C7.43781 11.0258 7.55117 11.1392 7.55117 11.2791ZM9.83016 11.5323C9.97001 11.5323 10.0834 11.4189 10.0834 11.2791C10.0834 11.1392 9.97001 11.0258 9.83016 11.0258C9.69031 11.0258 9.57695 11.1392 9.57695 11.2791C9.57695 11.4189 9.69031 11.5323 9.83016 11.5323ZM8.05739 13.811C8.05739 13.9508 7.94402 14.0642 7.80417 14.0642C7.66433 14.0642 7.55096 13.9508 7.55096 13.811C7.55096 13.6711 7.66433 13.5578 7.80417 13.5578C7.94402 13.5578 8.05739 13.6711 8.05739 13.811ZM9.32338 14.0642C9.46323 14.0642 9.57659 13.9508 9.57659 13.811C9.57659 13.6711 9.46323 13.5578 9.32338 13.5578C9.18353 13.5578 9.07017 13.6711 9.07017 13.811C9.07017 13.9508 9.18353 14.0642 9.32338 14.0642Z" fill="url(#paint4_linear_277_1455)"></path>
  <path fill-rule="evenodd" clip-rule="evenodd" d="M11.915 10.5986C11.7076 10.4048 11.3447 10.1626 10.8781 10.1141C10.9062 10.0617 10.919 9.99505 10.9332 9.92189C10.9451 9.85991 10.958 9.79326 10.9818 9.72661V9.2422C10.9818 9.14532 10.8781 9.04844 10.7226 9H10.6707C10.567 9 10.4633 9.04844 10.4115 9.14532C10.2041 9.33909 9.94485 9.58129 9.78931 9.62973C9.42639 9.48441 9.01162 9.38753 8.59685 9.33909C8.13023 9.33909 7.71546 9.43597 7.40438 9.62973C7.24884 9.58129 6.98961 9.33909 6.83407 9.14532C6.67853 9.04844 6.57484 9 6.47114 9H6.4193C6.26376 9 6.16006 9.09688 6.16006 9.2422C6.16006 9.2496 6.15765 9.26602 6.15411 9.29009C6.13445 9.42372 6.08011 9.79315 6.21191 10.1626C5.74529 10.211 5.33052 10.4532 5.17498 10.647C5.01944 10.7439 4.9676 10.9376 5.01944 11.0345C5.12314 11.3252 5.53791 11.5189 6.05637 11.5189C6.26376 11.5189 6.47114 11.4705 6.67853 11.422L6.93776 13.1659C6.93776 13.1901 6.9248 13.2023 6.91184 13.2144C6.89888 13.2265 6.88591 13.2386 6.88591 13.2628C6.8708 13.3052 6.85128 13.3475 6.83121 13.3911C6.78243 13.497 6.73037 13.6099 6.73037 13.7472C6.73037 14.2316 7.19699 14.5707 7.81915 14.5707H8.545H9.27085C9.89301 14.5707 10.3596 14.2316 10.3596 13.7472C10.3596 13.5535 10.2559 13.3597 10.2041 13.2628C10.2041 13.2144 10.1522 13.1659 10.1522 13.1659L10.4115 11.422C10.6189 11.4705 10.8262 11.5189 11.0336 11.5189C11.5521 11.5189 11.9669 11.3252 12.0706 11.083C12.1224 10.9376 12.0706 10.7439 11.915 10.5986ZM7.55117 11.2791C7.55117 11.4189 7.43781 11.5323 7.29796 11.5323C7.15811 11.5323 7.04475 11.4189 7.04475 11.2791C7.04475 11.1392 7.15811 11.0258 7.29796 11.0258C7.43781 11.0258 7.55117 11.1392 7.55117 11.2791ZM9.83016 11.5323C9.97001 11.5323 10.0834 11.4189 10.0834 11.2791C10.0834 11.1392 9.97001 11.0258 9.83016 11.0258C9.69031 11.0258 9.57695 11.1392 9.57695 11.2791C9.57695 11.4189 9.69031 11.5323 9.83016 11.5323ZM8.05739 13.811C8.05739 13.9508 7.94402 14.0642 7.80417 14.0642C7.66433 14.0642 7.55096 13.9508 7.55096 13.811C7.55096 13.6711 7.66433 13.5578 7.80417 13.5578C7.94402 13.5578 8.05739 13.6711 8.05739 13.811ZM9.32338 14.0642C9.46323 14.0642 9.57659 13.9508 9.57659 13.811C9.57659 13.6711 9.46323 13.5578 9.32338 13.5578C9.18353 13.5578 9.07017 13.6711 9.07017 13.811C9.07017 13.9508 9.18353 14.0642 9.32338 14.0642Z" fill="url(#paint5_linear_277_1455)"></path>
  <defs>
    <filter id="filter0_i_277_1455" x="1" y="3.2854" width="28" height="26" filterUnits="userSpaceOnUse" color-interpolation-filters="sRGB">
      <feflood flood-opacity="0" result="BackgroundImageFix"></feflood>
      <feblend mode="normal" in="SourceGraphic" in2="BackgroundImageFix" result="shape"></feblend>
      <feColorMatrix in="SourceAlpha" type="matrix" values="0 0 0 0 0 0 0 0 0 0 0 0 0 0 0 0 0 0 127 0" result="hardAlpha"></feColorMatrix>
      <feoffset dy="2"></feoffset>
      <feGaussianBlur stdDeviation="1"></feGaussianBlur>
      <fecomposite in2="hardAlpha" operator="arithmetic" k2="-1" k3="1"></fecomposite>
      <feColorMatrix type="matrix" values="0 0 0 0 0 0 0 0 0 0.737255 0 0 0 0 0.478431 0 0 0 1 0"></feColorMatrix>
      <feblend mode="normal" in2="shape" result="effect1_innerShadow_277_1455"></feblend>
    </filter>
    <filter id="filter1_d_277_1455" x="3" y="7.2854" width="11" height="11" filterUnits="userSpaceOnUse" color-interpolation-filters="sRGB">
      <feflood flood-opacity="0" result="BackgroundImageFix"></feflood>
      <feColorMatrix in="SourceAlpha" type="matrix" values="0 0 0 0 0 0 0 0 0 0 0 0 0 0 0 0 0 0 127 0" result="hardAlpha"></feColorMatrix>
      <feoffset dy="1"></feoffset>
      <feGaussianBlur stdDeviation="0.5"></feGaussianBlur>
      <fecomposite in2="hardAlpha" operator="out"></fecomposite>
      <feColorMatrix type="matrix" values="0 0 0 0 0 0 0 0 0 0.623529 0 0 0 0 0.403922 0 0 0 0.5 0"></feColorMatrix>
      <feblend mode="normal" in2="BackgroundImageFix" result="effect1_dropShadow_277_1455"></feblend>
      <feblend mode="normal" in="SourceGraphic" in2="effect1_dropShadow_277_1455" result="shape"></feblend>
    </filter>
    <linearGradient id="paint0_linear_277_1455" x1="14.1765" y1="24.8854" x2="14.1765" y2="3.2854" gradientUnits="userSpaceOnUse">
      <stop stop-color="#64EDC4"></stop>
      <stop offset="1" stop-color="#00BC7A"></stop>
    </linearGradient>
    <linearGradient id="paint1_linear_277_1455" x1="14.1765" y1="24.8854" x2="14.1765" y2="3.2854" gradientUnits="userSpaceOnUse">
      <stop stop-color="#64EDC4"></stop>
      <stop offset="1" stop-color="#00BC7A"></stop>
    </linearGradient>
    <linearGradient id="paint2_linear_277_1455" x1="15" y1="23" x2="15" y2="29" gradientUnits="userSpaceOnUse">
      <stop stop-color="#55EEBC"></stop>
      <stop offset="1" stop-color="#75F9C1"></stop>
    </linearGradient>
    <linearGradient id="paint3_linear_277_1455" x1="8.5" y1="8.43213" x2="8.5" y2="15.1387" gradientUnits="userSpaceOnUse">
      <stop stop-color="white"></stop>
      <stop offset="1" stop-color="#DEFFF2"></stop>
    </linearGradient>
    <linearGradient id="paint4_linear_277_1455" x1="8.15111" y1="9.61897" x2="8.15111" y2="13.0233" gradientUnits="userSpaceOnUse">
      <stop stop-color="white"></stop>
      <stop offset="1" stop-color="#FFF5ED"></stop>
    </linearGradient>
    <linearGradient id="paint5_linear_277_1455" x1="8.33647" y1="14.0136" x2="8.33647" y2="9" gradientUnits="userSpaceOnUse">
      <stop stop-color="#2DD29B"></stop>
      <stop offset="1" stop-color="#00BC7A"></stop>
    </linearGradient>
  </defs>
</svg>