<svg xmlns="http://www.w3.org/2000/svg" width="30" height="30" viewBox="0 0 30 30" fill="none">
  <g filter="url(#filter0_i_277_1496)">
    <path d="M2 3C2 1.89543 2.89543 1 4 1H26C27.1046 1 28 1.89543 28 3V27C28 28.1046 27.1046 29 26 29H4C2.89543 29 2 28.1046 2 27V3Z" fill="url(#paint0_linear_277_1496)"></path>
  </g>
  <path d="M9.3125 21.6259C7.3625 20.446 3.625 21.1343 2 21.6259V27.0001C2 28.1047 2.89543 29.0001 4 29.0001H26C27.1046 29.0001 28 28.1047 28 27.0001V20.1511C26.375 19.4137 20.6875 19.4137 18.25 20.8885C15.8125 22.3634 11.75 23.1007 9.3125 21.6259Z" fill="url(#paint1_linear_277_1496)"></path>
  <g filter="url(#filter1_d_277_1496)">
    <path fill-rule="evenodd" clip-rule="evenodd" d="M16.5438 9.25397C17.1261 8.81805 17.5002 8.14109 17.5002 7.38093C17.5002 6.06598 16.3809 5 15.0002 5C13.6195 5 12.5002 6.06598 12.5002 7.38093C12.5002 8.14096 12.8741 8.81781 13.4563 9.25373L12.84 11.1368C12.7728 11.3423 12.581 11.4813 12.3648 11.4813H11C10.4477 11.4813 10 11.929 10 12.4813V14.4998C10 14.7759 10.2239 14.9998 10.5 14.9998H19.5C19.7761 14.9998 20 14.7759 20 14.4998V12.4813C20 11.929 19.5523 11.4813 19 11.4813H17.6352C17.419 11.4813 17.2272 11.3423 17.16 11.1368L16.5438 9.25397Z" fill="url(#paint2_linear_277_1496)"></path>
  </g>
  <g filter="url(#filter2_d_277_1496)">
    <path fill-rule="evenodd" clip-rule="evenodd" d="M6.95439 18.6001C6.5678 18.6001 6.25439 18.9135 6.25439 19.3001C6.25439 19.6867 6.5678 20.0001 6.9544 20.0001H23.5544C23.941 20.0001 24.2544 19.6867 24.2544 19.3001C24.2544 18.9135 23.941 18.6001 23.5544 18.6001H6.95439ZM6.95439 21.3999C6.5678 21.3999 6.25439 21.7133 6.25439 22.0999C6.25439 22.4865 6.5678 22.7999 6.9544 22.7999H23.5544C23.941 22.7999 24.2544 22.4865 24.2544 22.0999C24.2544 21.7133 23.941 21.3999 23.5544 21.3999H6.95439Z" fill="white"></path>
  </g>
  <defs>
    <filter id="filter0_i_277_1496" x="2" y="1" width="26" height="28.5" filterUnits="userSpaceOnUse" color-interpolation-filters="sRGB">
      <feflood flood-opacity="0" result="BackgroundImageFix"></feflood>
      <feblend mode="normal" in="SourceGraphic" in2="BackgroundImageFix" result="shape"></feblend>
      <feColorMatrix in="SourceAlpha" type="matrix" values="0 0 0 0 0 0 0 0 0 0 0 0 0 0 0 0 0 0 127 0" result="hardAlpha"></feColorMatrix>
      <feoffset dy="0.5"></feoffset>
      <feGaussianBlur stdDeviation="0.25"></feGaussianBlur>
      <fecomposite in2="hardAlpha" operator="arithmetic" k2="-1" k3="1"></fecomposite>
      <feColorMatrix type="matrix" values="0 0 0 0 0.108333 0 0 0 0 0.471119 0 0 0 0 1 0 0 0 1 0"></feColorMatrix>
      <feblend mode="normal" in2="shape" result="effect1_innerShadow_277_1496"></feblend>
    </filter>
    <filter id="filter1_d_277_1496" x="9.5" y="5" width="11" height="10.9998" filterUnits="userSpaceOnUse" color-interpolation-filters="sRGB">
      <feflood flood-opacity="0" result="BackgroundImageFix"></feflood>
      <feColorMatrix in="SourceAlpha" type="matrix" values="0 0 0 0 0 0 0 0 0 0 0 0 0 0 0 0 0 0 127 0" result="hardAlpha"></feColorMatrix>
      <feoffset dy="0.5"></feoffset>
      <feGaussianBlur stdDeviation="0.25"></feGaussianBlur>
      <fecomposite in2="hardAlpha" operator="out"></fecomposite>
      <feColorMatrix type="matrix" values="0 0 0 0 0.313726 0 0 0 0 0.733333 0 0 0 0 0.984314 0 0 0 1 0"></feColorMatrix>
      <feblend mode="normal" in2="BackgroundImageFix" result="effect1_dropShadow_277_1496"></feblend>
      <feblend mode="normal" in="SourceGraphic" in2="effect1_dropShadow_277_1496" result="shape"></feblend>
    </filter>
    <filter id="filter2_d_277_1496" x="5.75439" y="18.6001" width="19" height="5.19983" filterUnits="userSpaceOnUse" color-interpolation-filters="sRGB">
      <feflood flood-opacity="0" result="BackgroundImageFix"></feflood>
      <feColorMatrix in="SourceAlpha" type="matrix" values="0 0 0 0 0 0 0 0 0 0 0 0 0 0 0 0 0 0 127 0" result="hardAlpha"></feColorMatrix>
      <feoffset dy="0.5"></feoffset>
      <feGaussianBlur stdDeviation="0.25"></feGaussianBlur>
      <fecomposite in2="hardAlpha" operator="out"></fecomposite>
      <feColorMatrix type="matrix" values="0 0 0 0 0.0791667 0 0 0 0 0.518333 0 0 0 0 1 0 0 0 0.5 0"></feColorMatrix>
      <feblend mode="normal" in2="BackgroundImageFix" result="effect1_dropShadow_277_1496"></feblend>
      <feblend mode="normal" in="SourceGraphic" in2="effect1_dropShadow_277_1496" result="shape"></feblend>
    </filter>
    <linearGradient id="paint0_linear_277_1496" x1="15.7647" y1="29" x2="15.7647" y2="0.999999" gradientUnits="userSpaceOnUse">
      <stop stop-color="#79D0FF"></stop>
      <stop offset="1" stop-color="#297DFF"></stop>
    </linearGradient>
    <linearGradient id="paint1_linear_277_1496" x1="15" y1="19.6667" x2="15" y2="29.0001" gradientUnits="userSpaceOnUse">
      <stop stop-color="#7CC1FF"></stop>
      <stop offset="1" stop-color="#79D9FF"></stop>
    </linearGradient>
    <linearGradient id="paint2_linear_277_1496" x1="15" y1="5" x2="15" y2="15" gradientUnits="userSpaceOnUse">
      <stop stop-color="white"></stop>
      <stop offset="1" stop-color="#D7F2FF"></stop>
    </linearGradient>
  </defs>
</svg>