<svg xmlns="http://www.w3.org/2000/svg" width="28" height="23" viewBox="0 0 28 23" fill="none">
  <g filter="url(#filter0_i_60_431)">
    <path fill-rule="evenodd" clip-rule="evenodd" d="M0 11L28 11L28 2C28 0.895433 27.1046 2.51077e-06 26 2.40845e-06L2 0C0.895432 0 0 0.895431 0 2V11ZM26 23C27.1046 23 28 22.1046 28 21V12L0 12V21C0 22.1046 0.895431 23 2 23L26 23Z" fill="url(#paint0_linear_60_431)"></path>
  </g>
  <path d="M8.5 21C8.20817 20.8054 0 15.1841 0 19.8026V20.9999C0 22.1045 0.895431 22.9999 2 22.9999H26C27.1046 22.9999 28 22.1045 28 20.9999V16.4276C28 13.763 25 16 18.9 19.8026C16.472 21.3161 10 22 8.5 21Z" fill="url(#paint1_linear_60_431)"></path>
  <g filter="url(#filter1_d_60_431)">
    <path fill-rule="evenodd" clip-rule="evenodd" d="M24.8 4H19V6H24.8V4ZM25 16H19V18H25V16Z" fill="url(#paint2_linear_60_431)"></path>
  </g>
  <defs>
    <filter id="filter0_i_60_431" x="0" y="0" width="28" height="24" filterUnits="userSpaceOnUse" color-interpolation-filters="sRGB">
      <feflood flood-opacity="0" result="BackgroundImageFix"></feflood>
      <feblend mode="normal" in="SourceGraphic" in2="BackgroundImageFix" result="shape"></feblend>
      <feColorMatrix in="SourceAlpha" type="matrix" values="0 0 0 0 0 0 0 0 0 0 0 0 0 0 0 0 0 0 127 0" result="hardAlpha"></feColorMatrix>
      <feoffset dy="1"></feoffset>
      <feGaussianBlur stdDeviation="0.5"></feGaussianBlur>
      <fecomposite in2="hardAlpha" operator="arithmetic" k2="-1" k3="1"></fecomposite>
      <feColorMatrix type="matrix" values="0 0 0 0 0 0 0 0 0 0.546167 0 0 0 0 0.941667 0 0 0 1 0"></feColorMatrix>
      <feblend mode="normal" in2="shape" result="effect1_innerShadow_60_431"></feblend>
    </filter>
    <filter id="filter1_d_60_431" x="18" y="4" width="8" height="16" filterUnits="userSpaceOnUse" color-interpolation-filters="sRGB">
      <feflood flood-opacity="0" result="BackgroundImageFix"></feflood>
      <feColorMatrix in="SourceAlpha" type="matrix" values="0 0 0 0 0 0 0 0 0 0 0 0 0 0 0 0 0 0 127 0" result="hardAlpha"></feColorMatrix>
      <feoffset dy="1"></feoffset>
      <feGaussianBlur stdDeviation="0.5"></feGaussianBlur>
      <fecomposite in2="hardAlpha" operator="out"></fecomposite>
      <feColorMatrix type="matrix" values="0 0 0 0 0.027451 0 0 0 0 0.572549 0 0 0 0 0.94902 0 0 0 0.5 0"></feColorMatrix>
      <feblend mode="normal" in2="BackgroundImageFix" result="effect1_dropShadow_60_431"></feblend>
      <feblend mode="normal" in="SourceGraphic" in2="effect1_dropShadow_60_431" result="shape"></feblend>
    </filter>
    <linearGradient id="paint0_linear_60_431" x1="18.3731" y1="23" x2="14.3215" y2="-2.05299" gradientUnits="userSpaceOnUse">
      <stop stop-color="#67ECFF"></stop>
      <stop offset="1" stop-color="#1EB2FB"></stop>
    </linearGradient>
    <linearGradient id="paint1_linear_60_431" x1="14" y1="12.1645" x2="14" y2="20.158" gradientUnits="userSpaceOnUse">
      <stop offset="0.168301" stop-color="#80E5FF"></stop>
      <stop offset="1" stop-color="#6CEDFF"></stop>
    </linearGradient>
    <linearGradient id="paint2_linear_60_431" x1="20.9" y1="-2" x2="20.9" y2="18" gradientUnits="userSpaceOnUse">
      <stop stop-color="white"></stop>
      <stop offset="1" stop-color="#CAF5FF"></stop>
    </linearGradient>
  </defs>
</svg>