<svg xmlns="http://www.w3.org/2000/svg" width="28" height="25" viewBox="0 0 28 25" fill="none">
  <g filter="url(#filter0_i_52_54)">
    <path fill-rule="evenodd" clip-rule="evenodd" d="M26 25C27.1046 25 28 24.1045 28 23L28 6.24999H0V23C0 24.1045 0.895433 25 2 25L26 25ZM0 4.68749H28L28 2C28 0.895433 27.1046 2.2045e-06 26 2.10751e-06L2 0C0.895434 -9.69958e-08 3.76685e-06 0.895433 3.67072e-06 2L0 4.68749Z" fill="url(#paint0_linear_52_54)"></path>
  </g>
  <path d="M8.55556 18.7501C3.40831 18.7501 0.777778 19.5313 0 21.8751V23.0001C0 24.1046 0.895431 25.0001 2 25.0001H26C27.1046 25.0001 28 24.1046 28 23.0001V17.1877L27.9999 17.1876C26.4443 16.4063 21.7777 14.0626 17.1111 17.9689C14.9568 19.7722 11.3599 18.7501 8.55556 18.7501Z" fill="url(#paint1_linear_52_54)"></path>
  <g filter="url(#filter1_d_52_54)">
    <path fill-rule="evenodd" clip-rule="evenodd" d="M22.9251 10.9375C23.5919 10.9375 24.2687 11.1747 24.784 11.6585C25.8144 12.6262 25.8144 14.1916 24.7738 15.1498L24.2687 15.6241L21.2279 18.4797L20.8946 18.8023C20.7026 18.9826 20.4097 18.9826 20.2177 18.8023L19.8742 18.4797L17.7356 16.4714L16.8335 15.6241L16.3283 15.1498C15.2979 14.1821 15.2979 12.6262 16.3283 11.6585C17.3588 10.7003 19.0257 10.7003 20.0561 11.6585L20.1975 11.7913C20.2076 11.8008 20.2076 11.8103 20.1975 11.8198L19.6823 12.3036C19.5914 12.3985 19.5914 12.5408 19.6823 12.6262C19.7732 12.7116 19.9248 12.7116 20.0157 12.6262L21.0663 11.6585C21.5815 11.1747 22.2584 10.9375 22.9251 10.9375ZM3.11108 11.9375C3.11108 11.3852 3.5588 10.9375 4.11108 10.9375H11.1111C11.6634 10.9375 12.1111 11.3852 12.1111 11.9375C12.1111 12.4898 11.6634 12.9375 11.1111 12.9375H4.11108C3.5588 12.9375 3.11108 12.4898 3.11108 11.9375ZM3.11108 16.0625C3.11108 15.5102 3.5588 15.0625 4.11108 15.0625H8.11108C8.66337 15.0625 9.11108 15.5102 9.11108 16.0625C9.11108 16.6148 8.66337 17.0625 8.11108 17.0625H4.11108C3.5588 17.0625 3.11108 16.6148 3.11108 16.0625Z" fill="url(#paint2_linear_52_54)"></path>
  </g>
  <defs>
    <filter id="filter0_i_52_54" x="0" y="0" width="28" height="26" filterUnits="userSpaceOnUse" color-interpolation-filters="sRGB">
      <feflood flood-opacity="0" result="BackgroundImageFix"></feflood>
      <feblend mode="normal" in="SourceGraphic" in2="BackgroundImageFix" result="shape"></feblend>
      <feColorMatrix in="SourceAlpha" type="matrix" values="0 0 0 0 0 0 0 0 0 0 0 0 0 0 0 0 0 0 127 0" result="hardAlpha"></feColorMatrix>
      <feoffset dy="1"></feoffset>
      <feGaussianBlur stdDeviation="0.5"></feGaussianBlur>
      <fecomposite in2="hardAlpha" operator="arithmetic" k2="-1" k3="1"></fecomposite>
      <feColorMatrix type="matrix" values="0 0 0 0 0 0 0 0 0 0.546167 0 0 0 0 0.941667 0 0 0 1 0"></feColorMatrix>
      <feblend mode="normal" in2="shape" result="effect1_innerShadow_52_54"></feblend>
    </filter>
    <filter id="filter1_d_52_54" x="2.11108" y="10.9375" width="24.4443" height="10" filterUnits="userSpaceOnUse" color-interpolation-filters="sRGB">
      <feflood flood-opacity="0" result="BackgroundImageFix"></feflood>
      <feColorMatrix in="SourceAlpha" type="matrix" values="0 0 0 0 0 0 0 0 0 0 0 0 0 0 0 0 0 0 127 0" result="hardAlpha"></feColorMatrix>
      <feoffset dy="1"></feoffset>
      <feGaussianBlur stdDeviation="0.5"></feGaussianBlur>
      <fecomposite in2="hardAlpha" operator="out"></fecomposite>
      <feColorMatrix type="matrix" values="0 0 0 0 0.0791667 0 0 0 0 0.518333 0 0 0 0 1 0 0 0 0.6 0"></feColorMatrix>
      <feblend mode="normal" in2="BackgroundImageFix" result="effect1_dropShadow_52_54"></feblend>
      <feblend mode="normal" in="SourceGraphic" in2="effect1_dropShadow_52_54" result="shape"></feblend>
    </filter>
    <linearGradient id="paint0_linear_52_54" x1="16.2148" y1="25" x2="10.0869" y2="0.0125787" gradientUnits="userSpaceOnUse">
      <stop stop-color="#67ECFF"></stop>
      <stop offset="1" stop-color="#1EB2FB"></stop>
    </linearGradient>
    <linearGradient id="paint1_linear_52_54" x1="14" y1="17.1876" x2="14" y2="25.0001" gradientUnits="userSpaceOnUse">
      <stop offset="0.168301" stop-color="#80E5FF"></stop>
      <stop offset="1" stop-color="#6CEDFF"></stop>
    </linearGradient>
    <linearGradient id="paint2_linear_52_54" x1="14" y1="10.9375" x2="14" y2="18.75" gradientUnits="userSpaceOnUse">
      <stop stop-color="white"></stop>
      <stop offset="1" stop-color="#CEF8FF"></stop>
    </linearGradient>
  </defs>
</svg>