<svg xmlns="http://www.w3.org/2000/svg" fill="none" viewBox="0 0 28 28"><defs><linearGradient id="b" x1="13.341" x2="13.341" y1="26.667" y2="1.333" gradientUnits="userSpaceOnUse"><stop stop-color="#78CFFF"/><stop offset="1" stop-color="#297DFF"/></linearGradient><linearGradient id="d" x1="12.601" x2="12.601" y1="8" y2="17.333" gradientUnits="userSpaceOnUse"><stop stop-color="#fff"/><stop offset="1" stop-color="#E4F7FF"/></linearGradient><linearGradient id="e" x1="21.699" x2="21.699" y1="21.199" y2="28" gradientUnits="userSpaceOnUse"><stop stop-color="#7BC6FF"/><stop offset="1" stop-color="#7ADAFF"/></linearGradient><linearGradient id="f" x1="8.4" x2="8.4" y1="26.303" y2="19.293" gradientUnits="userSpaceOnUse"><stop stop-color="#7AD9FF"/><stop offset="1" stop-color="#7BC5FF"/></linearGradient><linearGradient id="h" x1="21" x2="21" y1="18.667" y2="24" gradientUnits="userSpaceOnUse"><stop offset=".22" stop-color="#fff"/><stop offset="1" stop-color="#EAF8FF"/></linearGradient><filter id="a" width="28" height="29" x="0" y="0" color-interpolation-filters="sRGB" filterUnits="userSpaceOnUse"><feColorMatrix in="SourceAlpha" result="hardAlpha" values="0 0 0 0 0 0 0 0 0 0 0 0 0 0 0 0 0 0 127 0"/><feGaussianBlur stdDeviation=".5"/><feColorMatrix values="0 0 0 0 0.0370312 0 0 0 0 0.422243 0 0 0 0 0.9875 0 0 0 0.8 0"/></filter><filter id="c" width="15" height="10.333" x="5.101" y="8" color-interpolation-filters="sRGB" filterUnits="userSpaceOnUse"><feColorMatrix in="SourceAlpha" result="hardAlpha" values="0 0 0 0 0 0 0 0 0 0 0 0 0 0 0 0 0 0 127 0"/><feGaussianBlur stdDeviation=".25"/><feColorMatrix values="0 0 0 0 0.0784314 0 0 0 0 0.517647 0 0 0 0 1 0 0 0 0.8 0"/></filter><filter id="g" width="9.095" height="9.471" x="16.7" y="17.667" color-interpolation-filters="sRGB" filterUnits="userSpaceOnUse"><feColorMatrix in="SourceAlpha" result="hardAlpha" values="0 0 0 0 0 0 0 0 0 0 0 0 0 0 0 0 0 0 127 0"/><feGaussianBlur stdDeviation=".25"/><feColorMatrix values="0 0 0 0 0.313726 0 0 0 0 0.733333 0 0 0 0 0.984314 0 0 0 1 0"/></filter></defs><g filter="url(#a)"><path fill="url(#b)" fill-rule="evenodd" d="M7 1a1 1 0 0 1 1-1h9.2a1 1 0 0 1 1 1v.667a1 1 0 0 1-1 1H8a1 1 0 0 1-1-1zm-1.4.333H2a2 2 0 0 0-2 2v21.334a2 2 0 0 0 2 2h13.76A7.1 7.1 0 0 1 14 22c0-4.05 3.447-7.333 7.7-7.333 1.26 0 2.45.288 3.5.8V3.332a2 2 0 0 0-2-2h-3.6V3a1 1 0 0 1-1 1h-12a1 1 0 0 1-1-1zM21.7 28c3.479 0 6.3-2.686 6.3-6s-2.821-6-6.3-6c-3.48 0-6.3 2.686-6.3 6s2.82 6 6.3 6" clip-rule="evenodd"/></g><g filter="url(#c)"><path fill="url(#d)" fill-rule="evenodd" d="M5.6 9a1 1 0 0 1 1-1h12a1 1 0 1 1 0 2h-12a1 1 0 0 1-1-1m0 3.667a1 1 0 0 1 1-1h12a1 1 0 1 1 0 2h-12a1 1 0 0 1-1-1m1 2.666a1 1 0 1 0 0 2h5a1 1 0 1 0 0-2z" clip-rule="evenodd"/></g><path fill="url(#e)" d="M20.3 23.333c-2.24.534-4.2-.666-4.9-1.333a6 6 0 0 0 6 6h.423a6.176 6.176 0 0 0 6.176-6.176.55.55 0 0 0-.487-.55c-4.416-.472-4.509 1.416-7.213 2.06"/><path fill="url(#f)" fill-rule="evenodd" d="M14.003 21.79c-2.763-.723-3.83-1.226-4.794-1.68-.612-.288-1.184-.557-2.121-.85-3.288-1.031-4.67.567-5.736 1.802-.467.54-.873 1.01-1.352 1.16v2.445a2 2 0 0 0 2 2h13.76a7.1 7.1 0 0 1-1.757-4.877" clip-rule="evenodd"/><g filter="url(#g)"><path fill="#EAF8FF" fill-rule="evenodd" d="m24.1 25.943-2.1-2 .99-.943 2.1 2a.644.644 0 0 1 0 .943.725.725 0 0 1-.99 0" clip-rule="evenodd"/><path fill="url(#h)" fill-rule="evenodd" d="M23.2 21.167a2.5 2.5 0 1 1-5 0 2.5 2.5 0 0 1 5 0m1 0a3.5 3.5 0 1 1-7 0 3.5 3.5 0 0 1 7 0" clip-rule="evenodd"/></g></svg>