<svg xmlns="http://www.w3.org/2000/svg" fill="none" viewBox="0 0 28 28"><defs><linearGradient id="b" x1="11.859" x2="11.859" y1="25.2" y2="0" gradientUnits="userSpaceOnUse"><stop stop-color="#FFCC63"/><stop offset="1" stop-color="#FC8731"/></linearGradient><linearGradient id="c" x1="14" x2="14" y1="18.2" y2="25.9" gradientUnits="userSpaceOnUse"><stop stop-color="#FFBC58"/><stop offset="1" stop-color="#FFD465"/></linearGradient><linearGradient id="e" x1="12.859" x2="12.859" y1="7.311" y2="16.722" gradientUnits="userSpaceOnUse"><stop stop-color="#fff"/><stop offset="1" stop-color="#FFF5ED"/></linearGradient><linearGradient id="g" x1="14" x2="14" y1="-.006" y2="27.994" gradientUnits="userSpaceOnUse"><stop stop-color="#fff"/><stop offset="1" stop-color="#FFF5ED"/></linearGradient><filter id="a" width="28" height="29" x="0" y="0" color-interpolation-filters="sRGB" filterUnits="userSpaceOnUse"><feColorMatrix in="SourceAlpha" result="hardAlpha" values="0 0 0 0 0 0 0 0 0 0 0 0 0 0 0 0 0 0 127 0"/><feGaussianBlur stdDeviation=".5"/><feColorMatrix values="0 0 0 0 0.996078 0 0 0 0 0.431373 0 0 0 0 0.0156863 0 0 0 1 0"/></filter><filter id="d" width="20.6" height="16.4" x="3.647" y="5.6" color-interpolation-filters="sRGB" filterUnits="userSpaceOnUse"><feColorMatrix in="SourceAlpha" result="hardAlpha" values="0 0 0 0 0 0 0 0 0 0 0 0 0 0 0 0 0 0 127 0"/><feGaussianBlur stdDeviation=".25"/><feColorMatrix values="0 0 0 0 0.996078 0 0 0 0 0.431373 0 0 0 0 0.0156863 0 0 0 1 0"/></filter><filter id="f" width="25.2" height="25.7" x="1.4" y="1.394" color-interpolation-filters="sRGB" filterUnits="userSpaceOnUse"><feColorMatrix in="SourceAlpha" result="hardAlpha" values="0 0 0 0 0 0 0 0 0 0 0 0 0 0 0 0 0 0 127 0"/><feGaussianBlur stdDeviation=".25"/><feColorMatrix values="0 0 0 0 0.996078 0 0 0 0 0.431373 0 0 0 0 0.0156863 0 0 0 0.8 0"/></filter></defs><g filter="url(#a)"><path fill="url(#b)" d="M0 2a2 2 0 0 1 2-2h24a2 2 0 0 1 2 2v24a2 2 0 0 1-2 2H2a2 2 0 0 1-2-2z"/></g><path fill="url(#c)" d="M8.488 19.151c-1.89-1.416-6.913-.59-8.488 0V26a2 2 0 0 0 2 2h24a2 2 0 0 0 2-2v-8.619c-1.575-.885-8.487-.885-10.85.885s-6.3 2.655-8.662.885"/><g filter="url(#d)"><path fill="url(#e)" d="M23.264 10.02c-.574-.537-1.577-1.206-2.867-1.34.144-.268.144-.67.287-1.071v-1.34c0-.267-.287-.535-.717-.669h-.143c-.287 0-.573.134-.717.402-.573.535-1.29 1.205-1.72 1.339-1.003-.402-2.15-.67-3.296-.804-1.29 0-2.437.268-3.297.804-.43-.134-1.146-.804-1.576-1.34-.43-.267-.717-.401-1.004-.401h-.143c-.43 0-.717.268-.717.67 0 .133-.286 1.339.144 2.544-1.29.134-2.437.803-2.867 1.339-.43.268-.573.803-.43 1.071.287.804 1.433 1.34 2.867 1.34.573 0 1.146-.134 1.72-.268l.716 4.82c0 .134-.143.134-.143.268-.143.402-.43.804-.43 1.34 0 1.339 1.29 2.276 3.01 2.276h4.013c1.72 0 3.01-.937 3.01-2.276 0-.536-.287-1.072-.43-1.34 0-.134-.143-.268-.143-.268l.716-4.82c.574.134 1.147.268 1.72.268 1.433 0 2.58-.536 2.867-1.206.143-.402 0-.937-.43-1.339"/></g><g filter="url(#f)"><path fill="url(#g)" d="M24.607 3.4h-4.002V1.394H26.6v6.001h-1.993zm0 21.188v-3.995H26.6v6.001h-5.995v-2.006zm-21.214 0h4.002v2.006H1.4v-6.001h1.993zm0-21.188v3.995H1.4v-6h5.995V3.4z"/></g><circle cx="10.5" cy="11.9" r=".7" fill="#FEA749"/><circle cx="17.5" cy="11.9" r=".7" fill="#FEA749"/><circle cx="11.9" cy="18.9" r=".7" fill="#FEA749"/><circle cx="16.1" cy="18.9" r=".7" fill="#FEA749"/></svg>