<svg xmlns="http://www.w3.org/2000/svg" fill="none" viewBox="0 0 28 25"><defs><linearGradient id="b" x1="16.215" x2="10.087" y1="25" y2=".013" gradientUnits="userSpaceOnUse"><stop stop-color="#67ECFF"/><stop offset="1" stop-color="#1EB2FB"/></linearGradient><linearGradient id="c" x1="14" x2="14" y1="17.188" y2="25" gradientUnits="userSpaceOnUse"><stop offset=".168" stop-color="#80E5FF"/><stop offset="1" stop-color="#6CEDFF"/></linearGradient><linearGradient id="e" x1="15.4" x2="15.4" y1="11.111" y2="22.222" gradientUnits="userSpaceOnUse"><stop stop-color="#fff"/><stop offset="1" stop-color="#CAF5FF"/></linearGradient><filter id="a" width="28" height="25.5" x="0" y="0" color-interpolation-filters="sRGB" filterUnits="userSpaceOnUse"><feColorMatrix in="SourceAlpha" result="hardAlpha" values="0 0 0 0 0 0 0 0 0 0 0 0 0 0 0 0 0 0 127 0"/><feGaussianBlur stdDeviation=".25"/><feColorMatrix values="0 0 0 0 0 0 0 0 0 0.546167 0 0 0 0 0.941667 0 0 0 1 0"/></filter><filter id="d" width="11.146" height="12.094" x="9.3" y="10.333" color-interpolation-filters="sRGB" filterUnits="userSpaceOnUse"><feColorMatrix in="SourceAlpha" result="hardAlpha" values="0 0 0 0 0 0 0 0 0 0 0 0 0 0 0 0 0 0 127 0"/><feGaussianBlur stdDeviation=".25"/><feColorMatrix values="0 0 0 0 0.027451 0 0 0 0 0.572549 0 0 0 0 0.94902 0 0 0 0.6 0"/></filter></defs><g filter="url(#a)"><path fill="url(#b)" fill-rule="evenodd" d="M28 23a2 2 0 0 1-2 2H2a2 2 0 0 1-2-2V6.25h28V4.688h-3.238L22.4 0H26a2 2 0 0 1 2 2zM19.6 0h-2.8l2.363 4.688h2.8zm-3.238 4.688L14 0h-2.8l2.363 4.688zm-5.6 0L8.4 0H5.6l2.363 4.688zm-5.6 0L2.8 0H2a2 2 0 0 0-2 2v2.688z" clip-rule="evenodd"/></g><path fill="url(#c)" d="M8.556 18.75c-5.148 0-7.778.781-8.556 3.125V23a2 2 0 0 0 2 2h24a2 2 0 0 0 2-2v-5.812c-1.556-.782-6.222-3.125-10.889.78-2.154 1.804-5.751.782-8.555.782"/><g filter="url(#d)"><path fill="url(#e)" d="M9.8 20.426v-9.091a1 1 0 0 1 1.444-.896l8.146 4.04a1 1 0 0 1 .083 1.746l-8.146 5.05a1 1 0 0 1-1.527-.85"/></g></svg>