<svg xmlns="http://www.w3.org/2000/svg" fill="none" viewBox="0 0 26 28"><defs><linearGradient id="b" x1="13" x2="13" y1="0" y2="28" gradientUnits="userSpaceOnUse"><stop stop-color="#FC8731"/><stop offset="1" stop-color="#FFCC63"/></linearGradient><linearGradient id="c" x1="13.696" x2="13.696" y1="16.8" y2="28.845" gradientUnits="userSpaceOnUse"><stop stop-color="#FFC059"/><stop offset="1" stop-color="#FFDD65"/></linearGradient><linearGradient id="e" x1="12.97" x2="12.97" y1="2.861" y2="25.597" gradientUnits="userSpaceOnUse"><stop stop-color="#fff"/><stop offset="1" stop-color="#FFEFCF"/></linearGradient><filter id="a" width="26" height="28.456" x="0" y=".272" color-interpolation-filters="sRGB" filterUnits="userSpaceOnUse"><feColorMatrix in="SourceAlpha" result="hardAlpha" values="0 0 0 0 0 0 0 0 0 0 0 0 0 0 0 0 0 0 127 0"/><feGaussianBlur stdDeviation=".5"/><feColorMatrix values="0 0 0 0 0.995833 0 0 0 0 0.430158 0 0 0 0 0.0165972 0 0 0 0.8 0"/></filter><filter id="d" width="18.333" height="17.8" x="3.833" y="5.861" color-interpolation-filters="sRGB" filterUnits="userSpaceOnUse"><feColorMatrix in="SourceAlpha" result="hardAlpha" values="0 0 0 0 0 0 0 0 0 0 0 0 0 0 0 0 0 0 127 0"/><feGaussianBlur stdDeviation=".25"/><feColorMatrix values="0 0 0 0 0.995833 0 0 0 0 0.430158 0 0 0 0 0.0165972 0 0 0 0.6 0"/></filter></defs><g filter="url(#a)"><path fill="url(#b)" d="M12.534.497a2 2 0 0 1 1.897.03l10.545 5.9A2 2 0 0 1 26 8.173v11.654a2 2 0 0 1-1.024 1.746l-10.544 5.9a2 2 0 0 1-1.898.03L1.079 21.56A2 2 0 0 1 0 19.785V8.215A2 2 0 0 1 1.079 6.44z"/></g><path fill="url(#c)" fill-rule="evenodd" d="M26 16.8v3.027a2 2 0 0 1-1.023 1.746l-10.545 5.9a2 2 0 0 1-1.898.03L1.079 21.56l-.042-.023c1.476-.692 5.173-1.573 10.519-.537 7.221 1.4 13.72-2.1 14.444-4.2" clip-rule="evenodd"/><g filter="url(#d)"><path fill="url(#e)" d="m21.142 10.783-7.672 2.662c-.34.123-.663.123-.94 0l-7.673-2.662c-.262-.055-.524.123-.524.357v2.84c0 .178.139.301.262.356l7.935 2.785c.339.124.662.124.94 0l7.934-2.785c.139-.055.262-.164.262-.356v-2.84c0-.302-.262-.48-.524-.357m-9.814 5.255c-.524-.179-1.002-.728-1.002-1.208s.463-.782 1.002-.604c.54.179 1.001.728 1.001 1.208s-.462.782-1.001.604M4.734 9.15l7.796 2.538c.262.124.6.124.862 0L21.19 9.15c.338-.123.338-.549 0-.658l-7.797-2.539a1.05 1.05 0 0 0-.862 0L4.734 8.492c-.34.055-.34.535 0 .658m16.932 10.276v-2.84c0-.247-.262-.425-.54-.356l-7.657 2.648c-.338.123-.662.123-.94 0l-7.672-2.662c-.262-.055-.524.123-.524.37v2.84c0 .179.139.302.262.357l7.935 2.785c.262.124.6.124.862 0l7.935-2.785c.216-.055.34-.233.34-.357m-10.338 2.058c-.524-.192-1.002-.727-1.002-1.207s.463-.782 1.002-.604c.54.179 1.001.728 1.001 1.208s-.462.782-1.001.603"/></g></svg>