<svg xmlns="http://www.w3.org/2000/svg" fill="none" viewBox="0 0 26 28"><defs><linearGradient id="b" x1="13" x2="13" y1="0" y2="28" gradientUnits="userSpaceOnUse"><stop stop-color="#297DFF"/><stop offset="1" stop-color="#79D0FF"/></linearGradient><linearGradient id="d" x1="19.5" x2="19.5" y1="0" y2="28" gradientUnits="userSpaceOnUse"><stop stop-color="#50ABFF"/><stop offset="1" stop-color="#8BCAFF"/></linearGradient><linearGradient id="e" x1="12.963" x2="12.963" y1="18" y2="27.3" gradientUnits="userSpaceOnUse"><stop stop-color="#60BCFF"/><stop offset="1" stop-color="#7ADAFF"/></linearGradient><linearGradient id="g" x1="13" x2="13" y1="3" y2="25" gradientUnits="userSpaceOnUse"><stop stop-color="#fff"/><stop offset=".805" stop-color="#EAF8FF"/></linearGradient><filter id="a" width="26" height="29" x="0" y="0" color-interpolation-filters="sRGB" filterUnits="userSpaceOnUse"><feColorMatrix in="SourceAlpha" result="hardAlpha" values="0 0 0 0 0 0 0 0 0 0 0 0 0 0 0 0 0 0 127 0"/><feGaussianBlur stdDeviation=".5"/><feColorMatrix values="0 0 0 0 0.0458333 0 0 0 0 0.420366 0 0 0 0 1 0 0 0 1 0"/></filter><filter id="c" width="13" height="29" x="13" y="0" color-interpolation-filters="sRGB" filterUnits="userSpaceOnUse"><feColorMatrix in="SourceAlpha" result="hardAlpha" values="0 0 0 0 0 0 0 0 0 0 0 0 0 0 0 0 0 0 127 0"/><feGaussianBlur stdDeviation=".5"/><feColorMatrix values="0 0 0 0 0.0458333 0 0 0 0 0.420366 0 0 0 0 1 0 0 0 1 0"/></filter><filter id="f" width="22" height="24" x="2" y="3" color-interpolation-filters="sRGB" filterUnits="userSpaceOnUse"><feColorMatrix in="SourceAlpha" result="hardAlpha" values="0 0 0 0 0 0 0 0 0 0 0 0 0 0 0 0 0 0 127 0"/><feGaussianBlur stdDeviation=".5"/><feColorMatrix values="0 0 0 0 0.0791667 0 0 0 0 0.518333 0 0 0 0 1 0 0 0 0.6 0"/></filter></defs><g filter="url(#a)"><path fill="url(#b)" d="m13 0 13 5.082v7.7c0 1.75-.382 3.5-.963 5.068-1.331 3.332-3.625 6.132-6.684 8.05C16.64 26.95 14.912 27.65 13 28c-1.912-.35-3.64-1.05-5.154-2.1-3.059-1.932-5.552-4.732-6.699-8.05A11.6 11.6 0 0 1 0 12.782v-7.7z"/></g><g filter="url(#c)"><path fill="url(#d)" d="M26 5.082 13 0v28c1.912-.35 3.64-1.05 5.353-2.1 3.059-1.918 5.353-4.718 6.683-8.05.582-1.568.964-3.318.964-5.068z"/></g><path fill="url(#e)" fill-rule="evenodd" d="M25.236 17.281q-.095.288-.2.569c-1.33 3.332-3.624 6.132-6.683 8.05C16.64 26.95 14.912 27.65 13 28c-1.912-.35-3.64-1.05-5.154-2.1-1.921-1.214-3.62-2.77-4.901-4.582 1.928.668 4.51 1.132 6.444.382 1.176-.456 1.969-1.06 2.703-1.619 1.52-1.159 2.79-2.125 6.686-1.181 2.719.659 5.374-1.278 6.409-2.033l.091-.067a11 11 0 0 1-.042.481" clip-rule="evenodd"/><g filter="url(#f)"><path fill="url(#g)" d="M12.993 13.918V3L3 6.917v7.001zV25c1.328-.341 2.641-.846 3.592-1.529 1.132-.682 2.083-1.542 3.019-2.565 1.705-2.047 3.019-4.436 3.396-6.988z"/></g></svg>