<svg xmlns="http://www.w3.org/2000/svg" fill="none" viewBox="0 0 24 28"><defs><linearGradient id="b" x1="12" x2="12" y1="0" y2="28" gradientUnits="userSpaceOnUse"><stop offset=".115" stop-color="#F04B42"/><stop offset="1" stop-color="#FF9E98" stop-opacity=".8"/></linearGradient><linearGradient id="c" x1="13.5" x2="13.5" y1="20.3" y2="28" gradientUnits="userSpaceOnUse"><stop stop-color="#FFA29C"/><stop offset="1" stop-color="#FFBDA8"/></linearGradient><linearGradient id="e" x1="12" x2="12" y1="12.6" y2="22.401" gradientUnits="userSpaceOnUse"><stop stop-color="#fff"/><stop offset="1" stop-color="#FFE4DD"/></linearGradient><filter id="a" width="24" height="29" x="0" y="0" color-interpolation-filters="sRGB" filterUnits="userSpaceOnUse"><feColorMatrix in="SourceAlpha" result="hardAlpha" values="0 0 0 0 0 0 0 0 0 0 0 0 0 0 0 0 0 0 127 0"/><feGaussianBlur stdDeviation=".5"/><feColorMatrix values="0 0 0 0 0.929412 0 0 0 0 0.172549 0 0 0 0 0.133333 0 0 0 0.8 0"/></filter><filter id="d" width="20" height="24.6" x="2" y="2" color-interpolation-filters="sRGB" filterUnits="userSpaceOnUse"><feColorMatrix in="SourceAlpha" result="hardAlpha" values="0 0 0 0 0 0 0 0 0 0 0 0 0 0 0 0 0 0 127 0"/><feGaussianBlur stdDeviation=".5"/><feColorMatrix values="0 0 0 0 0.94902 0 0 0 0 0.333333 0 0 0 0 0.298039 0 0 0 0.6 0"/></filter></defs><g filter="url(#a)"><path fill="url(#b)" d="M19 5.777c0 .173 0 .347 0 0C18.626 2.447 15.616 0 12 0S5.374 2.447 5 5.777q0 .52 0 0H1.684C.865 5.835 0 6.535 0 7.356v19.067C0 27.29.764 28 1.714 28h20.572c.95 0 1.714-.695 1.714-1.578V7.355c0-.869-.764-1.578-1.714-1.578z"/></g><path fill="url(#c)" d="M7.594 20.222C2.53 18.667 1.688 22.815 0 23.333V27a1 1 0 0 0 1 1h22a1 1 0 0 0 1-1v-8.333c-1.687-.778-4.174 5.347-7.125 4.666-6.75-1.555-6.395-2.224-9.281-3.11"/><g filter="url(#d)"><path fill="url(#e)" fill-rule="evenodd" d="M12 4a1 1 0 1 0 0-2 1 1 0 0 0 0 2M9 5a1 1 0 1 0 0-2 1 1 0 0 0 0 2m5 2a2 2 0 0 1-1 1.732V11h-2V8.732A2 2 0 1 1 14 7m1-2a1 1 0 1 0 0-2 1 1 0 0 0 0 2M4.439 24.6C3.619 24.6 3 24.053 3 23.344v-7.489c0-.723.619-1.255 1.439-1.255H9.34c.82 0 1.439.547 1.439 1.255v7.49c0 .723-.62 1.255-1.439 1.255zm10.22 0c-.819 0-1.438-.547-1.438-1.256v-7.489c0-.723.62-1.255 1.439-1.255h4.901c.82 0 1.439.547 1.439 1.255v7.49c0 .723-.619 1.255-1.439 1.255z" clip-rule="evenodd"/></g></svg>