<svg xmlns="http://www.w3.org/2000/svg" fill="none" viewBox="0 0 28 27"><defs><linearGradient id="b" x1="13.914" x2="13.914" y1="0" y2="27.353" gradientUnits="userSpaceOnUse"><stop stop-color="#00BC7A"/><stop offset="1" stop-color="#64EDC4"/></linearGradient><linearGradient id="c" x1="14" x2="14" y1="19.277" y2="23.035" gradientUnits="userSpaceOnUse"><stop stop-color="#55EEBC"/><stop offset="1" stop-color="#75F9C1"/></linearGradient><linearGradient id="e" x1="13.878" x2="13.878" y1="4.235" y2="17.156" gradientUnits="userSpaceOnUse"><stop stop-color="#fff"/><stop offset="1" stop-color="#CEFFF1"/></linearGradient><filter id="a" width="28" height="23.5" x="0" y="0" color-interpolation-filters="sRGB" filterUnits="userSpaceOnUse"><feColorMatrix in="SourceAlpha" result="hardAlpha" values="0 0 0 0 0 0 0 0 0 0 0 0 0 0 0 0 0 0 127 0"/><feGaussianBlur stdDeviation=".25"/><feColorMatrix values="0 0 0 0 0 0 0 0 0 0.623529 0 0 0 0 0.403922 0 0 0 0.6 0"/></filter><filter id="d" width="22" height="14.921" x="2.878" y="4.235" color-interpolation-filters="sRGB" filterUnits="userSpaceOnUse"><feColorMatrix in="SourceAlpha" result="hardAlpha" values="0 0 0 0 0 0 0 0 0 0 0 0 0 0 0 0 0 0 127 0"/><feGaussianBlur stdDeviation=".5"/><feColorMatrix values="0 0 0 0 0 0 0 0 0 0.623529 0 0 0 0 0.403922 0 0 0 0.5 0"/></filter><filter id="f" width="14" height="2.5" x="7" y="24.012" color-interpolation-filters="sRGB" filterUnits="userSpaceOnUse"><feColorMatrix in="SourceAlpha" result="hardAlpha" values="0 0 0 0 0 0 0 0 0 0 0 0 0 0 0 0 0 0 127 0"/><feGaussianBlur stdDeviation=".25"/><feColorMatrix values="0 0 0 0 0.00784314 0 0 0 0 0.705882 0 0 0 0 0.462745 0 0 0 0.4 0"/></filter></defs><g filter="url(#a)"><path fill="url(#b)" d="M2.492 0h22.706C26.305 0 28 .432 28 2.735V20.41c0 .864-.554 2.591-2.492 2.591H2.802C.587 23 0 21.273 0 20.409V2.735C0 .72 1.523 0 2.492 0"/></g><path fill="url(#c)" fill-rule="evenodd" d="M0 19.332v1.125C0 21.306.587 23 2.802 23h22.706C27.446 23 28 21.305 28 20.457v-2.91q-.245-.128-.53-.288c-1.833-1.018-4.896-2.72-9.97 1.18-2.518 1.936-5.6 2.759-9.625.893-3.765-1.745-5.511-.992-7.003-.35-.296.128-.582.252-.872.35" clip-rule="evenodd"/><g filter="url(#d)"><path fill="url(#e)" d="m21.08 9.164 1.947 1.253c.486.342.85.228.85-.342V4.833c0-.455-.364-.683-.972-.57l-4.986 1.938c-.487.114-.487.57-.122.798l1.703 1.14-5.473 6.836-4.744-6.04c-.365-.455-.973-.455-1.46-.227l-.12.114-3.65 5.356c-.364.455-.121 1.025.365 1.14.487.341.973.113 1.217-.343l2.919-4.216 4.621 6.04c.365.455.973.455 1.216.114l.122-.114z"/></g><g filter="url(#f)"><rect width="14" height="2" x="7" y="24.012" fill="#52E4B6" rx="1"/></g></svg>