<svg xmlns="http://www.w3.org/2000/svg" fill="none" viewBox="0 0 28 23"><defs><linearGradient id="b" x1="18.373" x2="14.322" y1="23" y2="-2.053" gradientUnits="userSpaceOnUse"><stop stop-color="#67ECFF"/><stop offset="1" stop-color="#1EB2FB"/></linearGradient><linearGradient id="c" x1="14" x2="14" y1="12.165" y2="20.158" gradientUnits="userSpaceOnUse"><stop offset=".168" stop-color="#80E5FF"/><stop offset="1" stop-color="#6CEDFF"/></linearGradient><linearGradient id="e" x1="20.9" x2="20.9" y1="-2" y2="18" gradientUnits="userSpaceOnUse"><stop stop-color="#fff"/><stop offset="1" stop-color="#CAF5FF"/></linearGradient><filter id="a" width="28" height="24" x="0" y="0" color-interpolation-filters="sRGB" filterUnits="userSpaceOnUse"><feColorMatrix in="SourceAlpha" result="hardAlpha" values="0 0 0 0 0 0 0 0 0 0 0 0 0 0 0 0 0 0 127 0"/><feGaussianBlur stdDeviation=".5"/><feColorMatrix values="0 0 0 0 0 0 0 0 0 0.546167 0 0 0 0 0.941667 0 0 0 1 0"/></filter><filter id="d" width="8" height="16" x="18" y="4" color-interpolation-filters="sRGB" filterUnits="userSpaceOnUse"><feColorMatrix in="SourceAlpha" result="hardAlpha" values="0 0 0 0 0 0 0 0 0 0 0 0 0 0 0 0 0 0 127 0"/><feGaussianBlur stdDeviation=".5"/><feColorMatrix values="0 0 0 0 0.027451 0 0 0 0 0.572549 0 0 0 0 0.94902 0 0 0 0.5 0"/></filter></defs><g filter="url(#a)"><path fill="url(#b)" fill-rule="evenodd" d="M0 11h28V2a2 2 0 0 0-2-2H2a2 2 0 0 0-2 2zm26 12a2 2 0 0 0 2-2v-9H0v9a2 2 0 0 0 2 2z" clip-rule="evenodd"/></g><path fill="url(#c)" d="M8.5 21c-.292-.195-8.5-5.816-8.5-1.197V21a2 2 0 0 0 2 2h24a2 2 0 0 0 2-2v-4.572c0-2.665-3-.428-9.1 3.375C16.472 21.316 10 22 8.5 21"/><g filter="url(#d)"><path fill="url(#e)" fill-rule="evenodd" d="M24.8 4H19v2h5.8zm.2 12h-6v2h6z" clip-rule="evenodd"/></g></svg>