<svg xmlns="http://www.w3.org/2000/svg" fill="none" viewBox="0 0 28 28"><defs><linearGradient id="b" x1="13.177" x2="13.177" y1="25.2" y2="0" gradientUnits="userSpaceOnUse"><stop stop-color="#64EDC4"/><stop offset="1" stop-color="#00BC7A"/></linearGradient><linearGradient id="c" x1="14" x2="14" y1="22" y2="28" gradientUnits="userSpaceOnUse"><stop stop-color="#55EEBC"/><stop offset="1" stop-color="#75F9C1"/></linearGradient><linearGradient id="e" x1="14" x2="14" y1="4" y2="23" gradientUnits="userSpaceOnUse"><stop stop-color="#fff"/><stop offset="1" stop-color="#CDFFEC"/></linearGradient><filter id="a" width="28" height="28.5" x="0" y="0" color-interpolation-filters="sRGB" filterUnits="userSpaceOnUse"><feColorMatrix in="SourceAlpha" result="hardAlpha" values="0 0 0 0 0 0 0 0 0 0 0 0 0 0 0 0 0 0 127 0"/><feGaussianBlur stdDeviation=".25"/><feColorMatrix values="0 0 0 0 0 0 0 0 0 0.623529 0 0 0 0 0.403922 0 0 0 0.6 0"/></filter><filter id="d" width="18" height="21" x="5" y="4" color-interpolation-filters="sRGB" filterUnits="userSpaceOnUse"><feColorMatrix in="SourceAlpha" result="hardAlpha" values="0 0 0 0 0 0 0 0 0 0 0 0 0 0 0 0 0 0 127 0"/><feGaussianBlur stdDeviation=".5"/><feColorMatrix values="0 0 0 0 0 0 0 0 0 0.623529 0 0 0 0 0.403922 0 0 0 0.6 0"/></filter></defs><g filter="url(#a)"><path fill="url(#b)" d="M0 3a3 3 0 0 1 3-3h22a3 3 0 0 1 3 3v22a3 3 0 0 1-3 3H3a3 3 0 0 1-3-3z"/></g><path fill="url(#c)" d="M6 20.5c-1.796-1.165-5 .5-6 1.651V26a2 2 0 0 0 2 2h24a2 2 0 0 0 2-2v-8.619c-1.75-.885-5.82-2.394-8.5 1.77-4 6.216-8.875 4.349-13.5 1.349"/><g filter="url(#d)"><path fill="url(#e)" fill-rule="evenodd" d="M8.317 6.28c3.091-3.04 8.212-3.04 11.304 0 2.608 2.565 3.092 6.46 1.352 9.5-.29.57-.773 1.14-1.256 1.615L14.017 23l-5.7-5.605c-.483-.475-.87-1.045-1.256-1.615-1.74-3.04-1.353-6.935 1.256-9.5m1.932 9.31c2.125 1.995 5.507 1.995 7.536 0 .483-.57.87-1.14 1.16-1.805.772-1.9.386-4.085-1.16-5.605-2.126-1.995-5.507-1.995-7.536 0-1.546 1.52-1.932 3.705-1.16 5.605.29.665.677 1.33 1.16 1.805m3.768-.475c-1.835 0-3.285-1.425-3.285-3.23s1.45-3.23 3.285-3.23 3.285 1.425 3.285 3.23-1.449 3.23-3.285 3.23" clip-rule="evenodd"/></g></svg>