<svg xmlns="http://www.w3.org/2000/svg" fill="none" viewBox="0 0 29 29"><defs><linearGradient id="b" x1="17.015" x2="9.437" y1="28.802" y2="1.214" gradientUnits="userSpaceOnUse"><stop stop-color="#67ECFF"/><stop offset="1" stop-color="#1EB2FB"/></linearGradient><linearGradient id="d" x1="14.481" x2="14.481" y1="7.648" y2="13.409" gradientUnits="userSpaceOnUse"><stop stop-color="#fff"/><stop offset="1" stop-color="#F3FDFF"/></linearGradient><linearGradient id="e" x1="16.75" x2="16.75" y1="17.422" y2="25.893" gradientUnits="userSpaceOnUse"><stop offset=".168" stop-color="#80E5FF"/><stop offset="1" stop-color="#6CEDFF"/></linearGradient><linearGradient id="g" x1="17" x2="17" y1="2.996" y2="30.996" gradientUnits="userSpaceOnUse"><stop stop-color="#fff"/><stop offset="1" stop-color="#E7FEFF"/></linearGradient><linearGradient id="i" x1="15.095" x2="15.095" y1="15.404" y2="22.996" gradientUnits="userSpaceOnUse"><stop stop-color="#fff"/><stop offset="1" stop-color="#DDFAFF"/></linearGradient><filter id="a" width="28" height="28.5" x=".8" y=".802" color-interpolation-filters="sRGB" filterUnits="userSpaceOnUse"><feColorMatrix in="SourceAlpha" result="hardAlpha" values="0 0 0 0 0 0 0 0 0 0 0 0 0 0 0 0 0 0 127 0"/><feGaussianBlur stdDeviation=".25"/><feColorMatrix values="0 0 0 0 0 0 0 0 0 0.546167 0 0 0 0 0.941667 0 0 0 1 0"/></filter><filter id="c" width="14" height="11.429" x="8.147" y="6.6" color-interpolation-filters="sRGB" filterUnits="userSpaceOnUse"><feColorMatrix in="SourceAlpha" result="hardAlpha" values="0 0 0 0 0 0 0 0 0 0 0 0 0 0 0 0 0 0 127 0"/><feGaussianBlur stdDeviation=".5"/><feColorMatrix values="0 0 0 0 0 0 0 0 0 0.546167 0 0 0 0 0.941667 0 0 0 0.6 0"/></filter><filter id="f" width="24" height="24.5" x="3" y="2.996" color-interpolation-filters="sRGB" filterUnits="userSpaceOnUse"><feColorMatrix in="SourceAlpha" result="hardAlpha" values="0 0 0 0 0 0 0 0 0 0 0 0 0 0 0 0 0 0 127 0"/><feGaussianBlur stdDeviation=".25"/><feColorMatrix values="0 0 0 0 0 0 0 0 0 0.545098 0 0 0 0 0.941176 0 0 0 0.8 0"/></filter><filter id="h" width="18.342" height="9.592" x="5.924" y="15.404" color-interpolation-filters="sRGB" filterUnits="userSpaceOnUse"><feColorMatrix in="SourceAlpha" result="hardAlpha" values="0 0 0 0 0 0 0 0 0 0 0 0 0 0 0 0 0 0 127 0"/><feGaussianBlur stdDeviation=".5"/><feColorMatrix values="0 0 0 0 0 0 0 0 0 0.545098 0 0 0 0 0.941176 0 0 0 0.4 0"/></filter></defs><g filter="url(#a)"><path fill="url(#b)" d="M28.8 26.802a2 2 0 0 1-2 2h-24a2 2 0 0 1-2-2v-24a2 2 0 0 1 2-2h24a2 2 0 0 1 2 2z"/></g><g filter="url(#c)"><path fill="url(#d)" d="M20.851 9.306c-.35-.328-.965-.738-1.755-.82.088-.164.088-.41.176-.656v-.82c0-.164-.176-.328-.439-.41h-.088a.49.49 0 0 0-.439.246c-.35.328-.79.738-1.053.82a8 8 0 0 0-2.018-.492c-.79 0-1.492.164-2.018.492-.263-.082-.702-.492-.965-.82-.264-.164-.44-.246-.615-.246h-.087c-.264 0-.44.164-.44.41 0 .082-.175.82.089 1.558-.79.082-1.492.492-1.755.82-.264.164-.351.491-.264.656.176.491.878.82 1.755.82.351 0 .702-.083 1.053-.165l.44 2.952c0 .082-.089.082-.089.164-.087.246-.263.492-.263.82 0 .82.79 1.394 1.843 1.394h2.457c1.053 0 1.843-.574 1.843-1.394 0-.328-.176-.656-.264-.82 0-.082-.087-.164-.087-.164l.439-2.952c.35.082.702.164 1.053.164.877 0 1.58-.328 1.755-.738.087-.246 0-.573-.264-.82"/></g><circle cx="13.037" cy="10.457" r=".429" fill="#3ECBFD"/><circle cx="17.322" cy="10.457" r=".429" fill="#3ECBFD"/><circle cx="13.894" cy="14.743" r=".429" fill="#3ECBFD"/><circle cx="16.465" cy="14.743" r=".429" fill="#3ECBFD"/><path fill="url(#e)" d="M9.944 23.634C4.5 20.622 1 22.5 1 24.011v2.894a2 2 0 0 0 2 2h24a2 2 0 0 0 2-2v-6.47c0-2.824-6.125-2.071-6.125 5.082 0 3.032-9.982-.252-12.93-1.883"/><g filter="url(#f)"><path fill="url(#g)" d="M25.007 5.002h-4.002V2.996H27v6.001h-1.993zm0 19.988v-3.995H27v6h-5.995V24.99zm-20.014 0h4.002v2.006H3v-6.001h1.993zm0-19.988v3.995H3V2.996h5.995v2.006z"/></g><g filter="url(#h)"><path fill="url(#i)" d="m22.178 16.778-1.494-1.374-1.495 1.374v1.813h-.725v-1.814l-1.494-1.373-1.495 1.374v1.813h-.725v-1.814l-1.486-1.373-1.494 1.374v1.813H11v-1.814l-1.494-1.373-1.494 1.374v1.813H6.924v.942h1.089v2.021H6.924v1.442h16.342v-1.442h-1.088v-2.021h1.088v-.942h-1.088zM11.77 21.563H11v-2.021h.769zm3.714 0h-.726v-2.021h.726zm3.714 0h-.726v-2.021h.726z"/></g></svg>