<svg xmlns="http://www.w3.org/2000/svg" fill="none" viewBox="0 0 28 28"><defs><linearGradient id="b" x1="12.95" x2="12.95" y1="28.818" y2="-1.484" gradientUnits="userSpaceOnUse"><stop stop-color="#FF9E98"/><stop offset="1" stop-color="#F04B42"/></linearGradient><linearGradient id="c" x1="12.6" x2="25.9" y1="18.2" y2="28" gradientUnits="userSpaceOnUse"><stop stop-color="#FEA495"/><stop offset="1" stop-color="#FFBDA8" stop-opacity=".533"/></linearGradient><linearGradient id="d" x1="9.45" x2="9.45" y1="25.9" y2="19.175" gradientUnits="userSpaceOnUse"><stop stop-color="#FFBDA8"/><stop offset="1" stop-color="#FF8A84"/></linearGradient><linearGradient id="f" x1="15.75" x2="15.75" y1="-2.826" y2="22.499" gradientUnits="userSpaceOnUse"><stop stop-color="#fff"/><stop offset="1" stop-color="#FFE4DD"/></linearGradient><linearGradient id="h" x1="21.7" x2="21.7" y1="18.27" y2="25.27" gradientUnits="userSpaceOnUse"><stop stop-color="#fff"/><stop offset="1" stop-color="#FFDED6"/></linearGradient><filter id="a" width="28" height="28.5" x="0" y="0" color-interpolation-filters="sRGB" filterUnits="userSpaceOnUse"><feColorMatrix in="SourceAlpha" result="hardAlpha" values="0 0 0 0 0 0 0 0 0 0 0 0 0 0 0 0 0 0 127 0"/><feGaussianBlur stdDeviation=".25"/><feColorMatrix values="0 0 0 0 0.929167 0 0 0 0 0.172884 0 0 0 0 0.131632 0 0 0 1 0"/></filter><filter id="e" width="17.8" height="16.4" x="3.7" y="5.6" color-interpolation-filters="sRGB" filterUnits="userSpaceOnUse"><feColorMatrix in="SourceAlpha" result="hardAlpha" values="0 0 0 0 0 0 0 0 0 0 0 0 0 0 0 0 0 0 127 0"/><feGaussianBlur stdDeviation=".25"/><feColorMatrix values="0 0 0 0 0.94902 0 0 0 0 0.333333 0 0 0 0 0.298039 0 0 0 0.8 0"/></filter><filter id="g" width="8" height="8.221" x="17.7" y="17.849" color-interpolation-filters="sRGB" filterUnits="userSpaceOnUse"><feColorMatrix in="SourceAlpha" result="hardAlpha" values="0 0 0 0 0 0 0 0 0 0 0 0 0 0 0 0 0 0 127 0"/><feGaussianBlur stdDeviation=".25"/><feColorMatrix values="0 0 0 0 0.94902 0 0 0 0 0.333333 0 0 0 0 0.298039 0 0 0 1 0"/></filter></defs><g filter="url(#a)"><path fill="url(#b)" fill-rule="evenodd" d="M0 2a2 2 0 0 1 2-2h21.2a2 2 0 0 1 2 2v12.84a7.7 7.7 0 0 0-9.44 11.76H2a2 2 0 0 1-2-2zm21.7 26a6.3 6.3 0 1 0 0-12.6 6.3 6.3 0 0 0 0 12.6" clip-rule="evenodd"/></g><path fill="url(#c)" d="M20.3 23.1c-2.24.56-4.2-.7-4.9-1.4a6.3 6.3 0 1 0 12.6 0v-.188a.577.577 0 0 0-.51-.577c-4.394-.486-4.49 1.49-7.19 2.165"/><path fill="url(#d)" fill-rule="evenodd" d="M14.003 21.48c-2.763-.76-3.83-1.287-4.794-1.764-.612-.303-1.184-.585-2.121-.894-3.288-1.082-4.67.597-5.736 1.893-.467.567-.873 1.06-1.352 1.218V24.6a2 2 0 0 0 2 2h13.76a7.67 7.67 0 0 1-1.757-5.12" clip-rule="evenodd"/><g filter="url(#e)"><path fill="url(#f)" fill-rule="evenodd" d="m4.573 6.253-.373-.28.373-.373H5.88l-.747.653zm.56.227.934-.787v3.734L5.6 9.8l-.467-.373zM9.1 7a.7.7 0 1 0 0 1.4h11.2a.7.7 0 1 0 0-1.4zm0 5.6a.7.7 0 1 0 0 1.4h8.4a.7.7 0 1 0 0-1.4zm-.7 6.3a.7.7 0 0 1 .7-.7h4.2a.7.7 0 1 1 0 1.4H9.1a.7.7 0 0 1-.7-.7m-4.06-5.075L4.2 15.33l.56-.49.105-1.26-.21-.21-.175.175-.105.105s0 .035-.035.07zm2.065 1.33-.245-.245H4.83l-.56.49h1.855zm-.385-1.61c.175 0 .21 0 .28-.07l.175-.175-.245-.28H5.04s-.035.035-.07.035c0 .022-.013.03-.032.041q-.018.01-.038.029l-.175.175.21.245zm-1.19-2.1.21.245h1.33l.315-.28-.07-.105c-.07-.07-.105-.105-.245-.105H5.075zm1.925.07-.315.28-.105 1.19.245.245.175-.175c.07-.07.105-.14.105-.245l.035-.84v-.21c0-.07-.035-.105-.035-.105zM6.09 20.79l-.28-.28v-.07H4.55l-.35.28.21.28h1.26c.14 0 .21 0 .28-.07zm.14-1.89-.21-.28H4.69l-.28.28.21.28h1.33zm-1.68-1.82.28.21h1.26l.35-.28-.07-.07-.14-.14h-1.4zm1.75 1.89-.28.28-.14 1.19.28.28.14-.07c.027-.053.053-.086.076-.115.037-.045.064-.079.064-.165l.07-.98v-.07c0-.07 0-.14-.07-.21zm.28-1.82-.07-.07-.35.28-.07 1.26.21.21.21-.21a.3.3 0 0 0 .057-.067c.013-.028.013-.062.013-.143l.07-.91v-.14c0-.07 0-.14-.07-.21" clip-rule="evenodd"/></g><g filter="url(#g)"><path fill="url(#h)" d="M22.4 18.2c.35-.354.875-.018 1.225.336s.525.71.175 1.064l-.525.53-1.4-1.417zm-3.325 3.349L21.7 18.89l1.4 1.418-2.625 2.658c-.35.355-2.275.71-2.275.71s.525-1.773.875-2.127m5.6 3.721H18.55c-.175 0-.35-.177-.35-.354 0-.178.175-.355.35-.355h6.125c.35 0 .525.177.525.355 0 .177-.175.354-.525.354"/></g></svg>