<svg xmlns="http://www.w3.org/2000/svg" fill="none" viewBox="0 0 28 25"><defs><linearGradient id="b" x1="16.215" x2="10.087" y1="25" y2=".013" gradientUnits="userSpaceOnUse"><stop stop-color="#67ECFF"/><stop offset="1" stop-color="#1EB2FB"/></linearGradient><linearGradient id="c" x1="14" x2="14" y1="17.188" y2="25" gradientUnits="userSpaceOnUse"><stop offset=".168" stop-color="#80E5FF"/><stop offset="1" stop-color="#6CEDFF"/></linearGradient><linearGradient id="e" x1="14" x2="14" y1="10.938" y2="18.75" gradientUnits="userSpaceOnUse"><stop stop-color="#fff"/><stop offset="1" stop-color="#CEF8FF"/></linearGradient><filter id="a" width="28" height="26" x="0" y="0" color-interpolation-filters="sRGB" filterUnits="userSpaceOnUse"><feColorMatrix in="SourceAlpha" result="hardAlpha" values="0 0 0 0 0 0 0 0 0 0 0 0 0 0 0 0 0 0 127 0"/><feGaussianBlur stdDeviation=".5"/><feColorMatrix values="0 0 0 0 0 0 0 0 0 0.546167 0 0 0 0 0.941667 0 0 0 1 0"/></filter><filter id="d" width="24.444" height="10" x="2.111" y="10.938" color-interpolation-filters="sRGB" filterUnits="userSpaceOnUse"><feColorMatrix in="SourceAlpha" result="hardAlpha" values="0 0 0 0 0 0 0 0 0 0 0 0 0 0 0 0 0 0 127 0"/><feGaussianBlur stdDeviation=".5"/><feColorMatrix values="0 0 0 0 0.0791667 0 0 0 0 0.518333 0 0 0 0 1 0 0 0 0.6 0"/></filter></defs><g filter="url(#a)"><path fill="url(#b)" fill-rule="evenodd" d="M26 25a2 2 0 0 0 2-2V6.25H0V23a2 2 0 0 0 2 2zM0 4.687h28V2a2 2 0 0 0-2-2H2a2 2 0 0 0-2 2z" clip-rule="evenodd"/></g><path fill="url(#c)" d="M8.556 18.75c-5.148 0-7.778.781-8.556 3.125V23a2 2 0 0 0 2 2h24a2 2 0 0 0 2-2v-5.812c-1.556-.782-6.222-3.125-10.889.78-2.154 1.804-5.751.782-8.555.782"/><g filter="url(#d)"><path fill="url(#e)" fill-rule="evenodd" d="M22.925 10.938c.667 0 1.344.237 1.859.72 1.03.968 1.03 2.534-.01 3.492l-.505.474-3.041 2.856-.333.322a.49.49 0 0 1-.677 0l-.344-.322-2.138-2.009-.902-.847-.506-.474c-1.03-.968-1.03-2.524 0-3.492 1.03-.958 2.698-.958 3.728 0l.142.133q.015.015 0 .029l-.516.484c-.09.095-.09.237 0 .322.091.086.243.086.334 0l1.05-.967a2.71 2.71 0 0 1 1.86-.722m-19.814 1a1 1 0 0 1 1-1h7a1 1 0 1 1 0 2h-7a1 1 0 0 1-1-1m0 4.124a1 1 0 0 1 1-1h4a1 1 0 1 1 0 2h-4a1 1 0 0 1-1-1" clip-rule="evenodd"/></g></svg>