<svg width="18" height="18" viewBox="0 0 18 18" fill="none" xmlns="http://www.w3.org/2000/svg">
<g id="diya" clip-path="url(#clip0_294_2029)">
<path id="Union" fill-rule="evenodd" clip-rule="evenodd" d="M15.5281 5.51564L17.7514 7.48568C18.2583 7.93536 17.9379 8.76743 17.2599 8.76743H15.2893V11.1688L12.029 12.2991C12.029 12.2991 8.11243 9.48631 6.00005 8.7766C4.95079 8.42481 3.41774 8.4707 2.70283 8.76743H0.806153C0.0681297 8.76743 -0.280082 7.86347 0.268428 7.37402L8.29424 0.217331C8.46673 0.0638218 8.69015 -0.0212 8.92181 -0.0214837C9.15346 -0.0217644 9.37709 0.0627127 9.54996 0.215801L13.1245 3.385V2.43668C13.1245 2.2302 13.294 2.06195 13.502 2.06195H15.1506C15.3586 2.06195 15.5281 2.2302 15.5281 2.43668V5.51564ZM7.56084 7.06811H10.3188V5.52787C10.3188 5.05372 9.93207 4.6698 9.45443 4.6698H8.42521C7.94757 4.6698 7.56084 5.05372 7.56084 5.52787V7.06811ZM16.1806 12.1859C16.4643 12.2944 16.6995 12.5 16.8439 12.7656C17.1613 13.3483 16.9718 14.0764 16.4079 14.4358L12.1199 17.1584C11.5008 17.5691 10.7954 17.8344 10.0575 17.9341C9.31959 18.0337 8.5685 17.9651 7.86129 17.7335L3.63961 16.3523C3.22052 16.2147 2.77216 16.1841 2.33767 16.2621L0.830807 16.5328C0.501085 16.5909 0.196015 16.3386 0.196015 16.0051V12.0406C0.196015 11.8677 0.279216 11.7071 0.419425 11.6062L2.10964 10.3948C2.74654 9.93868 3.5016 9.67298 4.2857 9.62907C5.06979 9.58517 5.85017 9.76489 6.5347 10.147C7.86899 10.8919 9.39897 11.7637 9.99062 12.1629C10.2279 12.3235 10.402 12.4872 10.5283 12.6447C10.4005 13.0501 10.1955 13.46 9.87968 13.6619L9.87946 13.662C9.76984 13.7325 9.44005 13.9446 8.67635 13.6481C7.55282 13.1135 6.60571 12.625 6.49212 12.5665C6.48514 12.5629 6.4813 12.5609 6.48077 12.5606C6.17416 12.4 5.79359 12.5193 5.63335 12.8237C5.5563 12.9702 5.54092 13.141 5.59061 13.2987C5.64029 13.4564 5.75097 13.5881 5.89836 13.6649C5.89889 13.6652 5.90274 13.6672 5.90976 13.6708C6.02534 13.7304 7.00059 14.2335 8.15249 14.7815L8.19101 14.7983C8.64091 14.9758 9.03535 15.0446 9.37431 15.0446C9.89355 15.0446 10.2864 14.884 10.5592 14.7096C11.0275 14.4098 11.3403 13.9556 11.5483 13.4921L15.297 12.1737C15.5836 12.073 15.897 12.0773 16.1806 12.1859Z" fill="white"/>
</g>
<defs>
<clipPath id="clip0_294_2029">
<rect width="18" height="18" fill="white"/>
</clipPath>
</defs>
</svg>
