<svg xmlns="http://www.w3.org/2000/svg" width="18" height="18" viewBox="0 0 18 18" fill="none">
  <path fill-rule="evenodd" clip-rule="evenodd" d="M17.5558 5.5913C17.0292 5.03478 16.1079 4.33913 14.9232 4.2C14.9945 4.04936 15.0272 3.85793 15.063 3.64781C15.0934 3.4698 15.1261 3.27838 15.1865 3.08696V1.69565C15.1865 1.41739 14.9232 1.13913 14.5283 1H14.3967C14.1335 1 13.8702 1.13913 13.7386 1.41739C13.2121 1.97391 12.5539 2.66957 12.159 2.8087C11.2377 2.3913 10.1846 2.11304 9.13163 1.97391C7.94698 1.97391 6.89397 2.25217 6.1042 2.8087C5.70932 2.66957 5.05119 1.97391 4.65631 1.41739C4.26143 1.13913 3.99817 1 3.73492 1H3.60329C3.20841 1 2.94515 1.27826 2.94515 1.69565C2.94515 1.71689 2.93902 1.76404 2.93004 1.83317C2.88013 2.21699 2.74217 3.27806 3.07678 4.33913C1.89214 4.47826 0.839123 5.17391 0.444242 5.73044C0.0493603 6.0087 -0.0822669 6.56522 0.0493601 6.84348C0.312614 7.67826 1.36563 8.23478 2.6819 8.23478C3.20841 8.23478 3.73492 8.09565 4.26143 7.95652L4.91956 12.9652C4.91956 13.0348 4.88665 13.0696 4.85375 13.1043C4.82084 13.1391 4.78793 13.1739 4.78793 13.2435C4.74956 13.3651 4.70001 13.4868 4.64905 13.6119C4.5252 13.916 4.39305 14.2405 4.39305 14.6348C4.39305 16.0261 5.5777 17 7.15722 17H9H10.8428C12.4223 17 13.6069 16.0261 13.6069 14.6348C13.6069 14.0783 13.3437 13.5217 13.2121 13.2435C13.2121 13.1043 13.0804 12.9652 13.0804 12.9652L13.7386 7.95652C14.2651 8.09565 14.7916 8.23478 15.3181 8.23478C16.6344 8.23478 17.6874 7.67826 17.9506 6.98261C18.0823 6.56522 17.9506 6.0087 17.5558 5.5913ZM8.00012 7.34203C8.00012 7.9258 7.55241 8.39903 7.00012 8.39903C6.44784 8.39903 6.00012 7.9258 6.00012 7.34203C6.00012 6.75826 6.44784 6.28502 7.00012 6.28502C7.55241 6.28502 8.00012 6.75826 8.00012 7.34203ZM11 8.39903C11.5523 8.39903 12 7.9258 12 7.34203C12 6.75826 11.5523 6.28502 11 6.28502C10.4477 6.28502 9.99998 6.75826 9.99998 7.34203C9.99998 7.9258 10.4477 8.39903 11 8.39903ZM6.49913 13.9392C6.23588 13.9392 5.97262 14.2175 5.97262 14.4957C5.97262 14.774 6.23588 15.0522 6.49913 15.0522C6.76238 15.0522 7.02564 14.774 7.02564 14.4957C7.02564 14.2175 6.76238 13.9392 6.49913 13.9392ZM10.9741 14.4957C10.9741 14.2175 11.2374 13.9392 11.5006 13.9392C11.7639 13.9392 12.0271 14.2175 12.0271 14.4957C12.0271 14.774 11.7639 15.0522 11.5006 15.0522C11.2374 15.0522 10.9741 14.774 10.9741 14.4957Z" fill="white"></path>
</svg>