<svg xmlns="http://www.w3.org/2000/svg" width="24" height="26" viewBox="0 0 24 26" fill="none">
  <path d="M2 26H22C23.1046 26 24 25.1046 24 24V6L18 0H2C0.895431 0 0 0.89543 0 2V24C0 25.1046 0.89543 26 2 26Z" fill="#FB4337"></path>
  <path d="M19 6H24L18 0V5C18 5.55228 18.4477 6 19 6Z" fill="#FFB9B4"></path>
  <path fill-rule="evenodd" clip-rule="evenodd" d="M15.4143 6.9279C15.5555 6.67099 15.8817 6.59181 16.1338 6.74138L16.9628 7.23318C17.2056 7.37721 17.2892 7.68931 17.1444 7.93165C15.972 10.0837 14.426 14.8868 16.0112 19.9277C16.1392 20.335 15.951 20.7822 15.5587 20.9507L15.1247 21.1371C14.7323 21.3055 14.2792 21.1357 14.0535 20.7732C12.8262 18.8028 9.98587 16.0135 5.79705 16.25C5.37442 16.3093 5.0098 15.9853 4.97415 15.56L4.93255 15.0637C4.89809 14.6527 5.1929 14.2842 5.60447 14.2573C7.86456 13.9133 12.2832 12.1539 15.4143 6.9279ZM13.6061 12.3057C12.379 13.4266 11.1164 14.2652 9.92001 14.878C11.2838 15.3856 12.4465 16.1452 13.4006 16.9797C13.2545 15.3171 13.3597 13.7349 13.6061 12.3057Z" fill="white"></path>
</svg>