<svg xmlns="http://www.w3.org/2000/svg" width="18" height="18" viewBox="0 0 18 18" fill="none">
  <g clip-path="url(#clip0_294_1890)">
    <path fill-rule="evenodd" clip-rule="evenodd" d="M2.30294 0.442623C-5.50268 14.7541 9.0372 18 9.0372 18C22.5812 14.635 17.0177 2.67414 16.0539 0.602077C15.9612 0.402887 15.9111 0.295082 15.9245 0.295082C11.9452 2.36066 9.0372 0 9.0372 0C6.43533 2.80328 2.30294 0.442623 2.30294 0.442623ZM4.09091 8.67936C5.1244 7.94963 5.77033 6.73342 6.02871 4.90909C6.54545 5.15233 6.93301 5.27396 7.32057 5.39558L7.32057 5.39559C7.0622 6.12531 6.80383 6.85504 6.41627 7.58477H6.54545C6.41627 9.40909 6.41627 11.4767 6.54545 13.7875H5.38277V12.5713V9.16585C5.25359 9.40909 5.1244 9.65233 4.86603 9.89558C4.60766 9.40909 4.34928 9.04423 4.09091 8.67936ZM13.7799 9.16585V10.2604H11.5837C12.1005 11.355 13.0048 12.0848 13.9091 12.4496C13.6507 12.8145 13.3923 13.1794 13.2632 13.5442C12.1005 13.0577 11.3254 12.2064 10.8086 11.2334V13.9091H9.51675V11.5983C9 12.328 8.22488 12.9361 7.32057 13.5442C7.0622 13.0577 6.80383 12.6929 6.54545 12.4496C6.93301 12.328 7.32057 12.0848 7.70813 11.8415C8.29434 11.4 8.66775 10.9585 9.11805 10.4261C9.16392 10.3719 9.2106 10.3167 9.25837 10.2604H7.0622V9.16585H9.77512V8.55774H7.83732V5.27396H12.8756V8.55774H10.8086V9.16585H13.7799ZM11.4545 6.36855H8.87081V7.58477H11.4545V6.36855Z" fill="white"></path>
  </g>
  <defs>
    <clipPath id="clip0_294_1890">
      <rect width="18" height="18" fill="white"></rect>
    </clipPath>
  </defs>
</svg>