<svg xmlns="http://www.w3.org/2000/svg" width="30" height="30" viewBox="0 0 30 30" fill="none">
  <ellipse cx="23.5" cy="21.4671" rx="5.5" ry="5.53298" fill="#D9D9D9"></ellipse>
  <ellipse cx="23.5" cy="21.4671" rx="5.5" ry="5.53298" fill="url(#paint0_linear_277_1596)"></ellipse>
  <g filter="url(#filter0_d_277_1596)">
    <path d="M22.8857 20.936C23.5785 20.5263 23.9248 19.9522 23.9248 19.2147V18.8617H25.2108V19.9522C25.2108 20.4592 25.4823 20.7129 26.0256 20.7129H26.7884V20.0371H26.2201C26.0107 20.0371 25.906 19.9522 25.906 19.7834V18.1775H23.2301V19.2917C23.2301 19.7577 22.9582 20.119 22.4153 20.3748L22.8857 20.936ZM22.4745 20.8201C22.2265 20.9704 21.9747 21.1139 21.7194 21.2505V19.9675H22.512V19.2689H21.7194V17.9238H21.0165V19.2689H20.1643V19.968H21.0165V21.5734C20.7177 21.6913 20.3786 21.801 20 21.9036L20.1792 22.6412C20.4618 22.5402 20.7412 22.4301 21.017 22.3109V23.9705C21.017 24.1601 20.9243 24.2549 20.7403 24.2549C20.5856 24.2549 20.4011 24.242 20.1869 24.2164L20.344 24.9228H20.9867C21.4753 24.9228 21.7198 24.6667 21.7198 24.1547V21.9806C21.9489 21.868 22.2006 21.7294 22.4745 21.5655V20.8201ZM25.3079 23.586C25.8009 23.0982 26.1661 22.4903 26.3696 21.8188V21.1429H22.7138V21.8498H23.125C23.3143 22.4798 23.6755 23.0459 24.2092 23.548C23.6808 23.9113 23.0476 24.206 22.3098 24.4312L22.6989 25.0458C23.5261 24.795 24.2241 24.4568 24.792 24.0318C25.2954 24.3956 25.9108 24.7258 26.6386 25.023L27.02 24.3927C26.3623 24.1626 25.7912 23.8935 25.3079 23.586ZM24.7098 23.1482C24.2764 22.7695 23.9671 22.337 23.7831 21.8498H25.6518C25.4376 22.3316 25.1234 22.7645 24.7098 23.1482Z" fill="white"></path>
    <path d="M22.8857 20.936C23.5785 20.5263 23.9248 19.9522 23.9248 19.2147V18.8617H25.2108V19.9522C25.2108 20.4592 25.4823 20.7129 26.0256 20.7129H26.7884V20.0371H26.2201C26.0107 20.0371 25.906 19.9522 25.906 19.7834V18.1775H23.2301V19.2917C23.2301 19.7577 22.9582 20.119 22.4153 20.3748L22.8857 20.936ZM22.4745 20.8201C22.2265 20.9704 21.9747 21.1139 21.7194 21.2505V19.9675H22.512V19.2689H21.7194V17.9238H21.0165V19.2689H20.1643V19.968H21.0165V21.5734C20.7177 21.6913 20.3786 21.801 20 21.9036L20.1792 22.6412C20.4618 22.5402 20.7412 22.4301 21.017 22.3109V23.9705C21.017 24.1601 20.9243 24.2549 20.7403 24.2549C20.5856 24.2549 20.4011 24.242 20.1869 24.2164L20.344 24.9228H20.9867C21.4753 24.9228 21.7198 24.6667 21.7198 24.1547V21.9806C21.9489 21.868 22.2006 21.7294 22.4745 21.5655V20.8201ZM25.3079 23.586C25.8009 23.0982 26.1661 22.4903 26.3696 21.8188V21.1429H22.7138V21.8498H23.125C23.3143 22.4798 23.6755 23.0459 24.2092 23.548C23.6808 23.9113 23.0476 24.206 22.3098 24.4312L22.6989 25.0458C23.5261 24.795 24.2241 24.4568 24.792 24.0318C25.2954 24.3956 25.9108 24.7258 26.6386 25.023L27.02 24.3927C26.3623 24.1626 25.7912 23.8935 25.3079 23.586ZM24.7098 23.1482C24.2764 22.7695 23.9671 22.337 23.7831 21.8498H25.6518C25.4376 22.3316 25.1234 22.7645 24.7098 23.1482Z" fill="url(#paint1_linear_277_1596)"></path>
  </g>
  <g filter="url(#filter1_i_277_1596)">
    <path d="M17.0325 17.188C16.0684 16.9381 15.0894 16.756 14.1022 16.6428C13.886 17.0899 12.5861 19.3242 12.478 19.5474C12.3694 19.6594 12.1532 19.6594 12.1532 19.5474C12.0445 19.4355 10.8539 17.0899 10.5291 16.6428C6.63065 17.0899 1 18.989 1 22.3401V25.9945C1 26.5529 1.43288 27 1.97446 27H17.4559C16.4115 25.4681 15.8506 23.632 15.852 21.7492C15.852 20.0826 16.2881 18.5267 17.0325 17.188ZM12.3694 14.6325C15.5101 14.6325 18 12.0624 18 8.82326V8.48809C17.7845 5.24965 15.1847 2.79085 12.0445 3.01407C9.22921 3.2373 6.95547 5.47155 6.73871 8.37615C6.52258 11.8391 9.12115 14.6325 12.3694 14.6325Z" fill="url(#paint2_linear_277_1596)"></path>
  </g>
  <defs>
    <filter id="filter0_d_277_1596" x="19" y="17.9238" width="9.02002" height="9.12195" filterUnits="userSpaceOnUse" color-interpolation-filters="sRGB">
      <feflood flood-opacity="0" result="BackgroundImageFix"></feflood>
      <feColorMatrix in="SourceAlpha" type="matrix" values="0 0 0 0 0 0 0 0 0 0 0 0 0 0 0 0 0 0 127 0" result="hardAlpha"></feColorMatrix>
      <feoffset dy="1"></feoffset>
      <feGaussianBlur stdDeviation="0.5"></feGaussianBlur>
      <fecomposite in2="hardAlpha" operator="out"></fecomposite>
      <feColorMatrix type="matrix" values="0 0 0 0 0 0 0 0 0 0.623529 0 0 0 0 0.403922 0 0 0 0.5 0"></feColorMatrix>
      <feblend mode="normal" in2="BackgroundImageFix" result="effect1_dropShadow_277_1596"></feblend>
      <feblend mode="normal" in="SourceGraphic" in2="effect1_dropShadow_277_1596" result="shape"></feblend>
    </filter>
    <filter id="filter1_i_277_1596" x="1" y="3" width="17" height="25" filterUnits="userSpaceOnUse" color-interpolation-filters="sRGB">
      <feflood flood-opacity="0" result="BackgroundImageFix"></feflood>
      <feblend mode="normal" in="SourceGraphic" in2="BackgroundImageFix" result="shape"></feblend>
      <feColorMatrix in="SourceAlpha" type="matrix" values="0 0 0 0 0 0 0 0 0 0 0 0 0 0 0 0 0 0 127 0" result="hardAlpha"></feColorMatrix>
      <feoffset dy="1"></feoffset>
      <feGaussianBlur stdDeviation="0.5"></feGaussianBlur>
      <fecomposite in2="hardAlpha" operator="arithmetic" k2="-1" k3="1"></fecomposite>
      <feColorMatrix type="matrix" values="0 0 0 0 0 0 0 0 0 0.737255 0 0 0 0 0.478431 0 0 0 1 0"></feColorMatrix>
      <feblend mode="normal" in2="shape" result="effect1_innerShadow_277_1596"></feblend>
    </filter>
    <linearGradient id="paint0_linear_277_1596" x1="23.1765" y1="25.8934" x2="23.1765" y2="15.9341" gradientUnits="userSpaceOnUse">
      <stop stop-color="#64EDC4"></stop>
      <stop offset="1" stop-color="#00BC7A"></stop>
    </linearGradient>
    <linearGradient id="paint1_linear_277_1596" x1="23.51" y1="18.8313" x2="23.51" y2="24.1383" gradientUnits="userSpaceOnUse">
      <stop stop-color="white"></stop>
      <stop offset="1" stop-color="#DEFFF2"></stop>
    </linearGradient>
    <linearGradient id="paint2_linear_277_1596" x1="9" y1="24.6" x2="9" y2="3" gradientUnits="userSpaceOnUse">
      <stop stop-color="#64EDC4"></stop>
      <stop offset="1" stop-color="#00BC7A"></stop>
    </linearGradient>
  </defs>
</svg>