<svg width="28" height="27" viewBox="0 0 28 27" fill="none" xmlns="http://www.w3.org/2000/svg">
<g id="&#230;&#179;&#168;&#229;&#134;&#140;&#232;&#175;&#134;&#229;&#136;&#171;&#232;&#174;&#176;&#229;&#189;&#149;--&#231;&#140;&#170;&#230;&#179;&#168;&#229;&#134;&#140;&#232;&#174;&#176;&#229;&#189;&#149;">
<g id="&#230;&#153;&#186;&#230;&#133;&#167;&#228;&#191;&#157;&#233;&#153;&#169;--&#232;&#174;&#162;&#229;&#141;&#149;&#230;&#159;&#165;&#232;&#175;&#162;">
<g id="&#230;&#153;&#186;&#230;&#133;&#167;&#228;&#191;&#157;&#233;&#153;&#169;--&#232;&#174;&#162;&#229;&#141;&#149;&#230;&#159;&#165;&#232;&#175;&#162;_2">
<g id="Union" filter="url(#filter0_i_298_2069)">
<path fill-rule="evenodd" clip-rule="evenodd" d="M0 2.33325C0 1.22868 0.895431 0.333252 2 0.333252H19L25.2 7.5V14.6412C24.1082 14.0208 22.8455 13.6665 21.5 13.6665C17.3579 13.6665 14 17.0244 14 21.1665C14 23.3396 14.9242 25.2968 16.401 26.6666H2C0.895429 26.6666 0 25.7712 0 24.6666V2.33325ZM21.3996 26.9999C24.7133 26.9999 27.3996 24.3136 27.3996 20.9999C27.3996 17.6862 24.7133 14.9999 21.3996 14.9999C18.0859 14.9999 15.3996 17.6862 15.3996 20.9999C15.3996 24.3136 18.0859 26.9999 21.3996 26.9999Z" fill="url(#paint0_linear_298_2069)"/>
</g>
<g id="1" filter="url(#filter1_i_298_2069)">
<path d="M20 0.333252H23.2C24.3046 0.333252 25.2 1.22868 25.2 2.33325V6L20 0.333252Z" fill="url(#paint1_linear_298_2069)"/>
</g>
<path id="Vector 6" d="M20.0661 22.3333C17.9327 22.8666 16.0661 21.6666 15.3994 20.9999C15.3994 24.3136 18.0857 26.9999 21.3994 26.9999C24.7131 26.9999 27.3994 24.3136 27.3994 20.9999V20.8204C27.3994 20.5409 27.1923 20.3023 26.9144 20.2715C22.7293 19.8085 22.637 21.6905 20.0661 22.3333Z" fill="url(#paint2_linear_298_2069)"/>
<path id="Subtract" fill-rule="evenodd" clip-rule="evenodd" d="M14.0454 21.8012C11.2505 21.0716 10.1783 20.5668 9.20873 20.1104C8.59663 19.8223 8.02544 19.5534 7.0875 19.2593C3.80007 18.2286 2.41867 19.8274 1.35195 21.0619C0.885485 21.6018 0.47919 22.072 0 22.2223V24.6667C0 25.7713 0.895429 26.6667 2 26.6667H16.8123C15.2988 25.4813 14.2686 23.7566 14.0454 21.8012Z" fill="url(#paint3_linear_298_2069)"/>
<g id="Union_2" filter="url(#filter2_d_298_2069)">
<path fill-rule="evenodd" clip-rule="evenodd" d="M4.30059 15.6664C3.91399 15.6664 3.60059 15.9798 3.60059 16.3664C3.60059 16.753 3.91399 17.0664 4.30059 17.0664H11.9006C12.2872 17.0664 12.6006 16.753 12.6006 16.3664C12.6006 15.9798 12.2872 15.6664 11.9006 15.6664H4.30059ZM4.30059 18.3331C3.91399 18.3331 3.60059 18.6465 3.60059 19.0331C3.60059 19.4197 3.91399 19.7331 4.30059 19.7331H9.90059C10.2872 19.7331 10.6006 19.4197 10.6006 19.0331C10.6006 18.6465 10.2872 18.3331 9.90059 18.3331H4.30059Z" fill="url(#paint4_linear_298_2069)"/>
</g>
<g id="Group 16">
<g id="Union_3" filter="url(#filter3_d_298_2069)">
<path d="M16.9007 7.053C16.6082 6.77971 16.0963 6.43809 15.4381 6.36977C15.5113 6.23312 15.5113 6.02815 15.5844 5.82318C15.5844 5.41325 15.5844 5.13995 15.5844 5.13995C15.5844 5.00331 15.4381 4.86666 15.2188 4.79834H15.1456C14.9994 4.79834 14.8531 4.86666 14.78 5.00331C14.4875 5.2766 14.1219 5.61822 13.9025 5.68654C13.3906 5.48157 12.8056 5.34492 12.2206 5.2766C11.5625 5.2766 10.9774 5.41325 10.5387 5.68654C10.3193 5.61822 9.95368 5.2766 9.7343 5.00331C9.51492 4.86666 9.36867 4.79834 9.22242 4.79834H9.14929C8.92991 4.79834 8.78366 4.93499 8.78366 5.13995C8.78366 5.20828 8.63741 5.82318 8.85678 6.43809C8.19865 6.50641 7.61364 6.84803 7.39426 7.12132C7.17488 7.25797 7.10176 7.53126 7.17488 7.66791C7.32114 8.07784 7.90614 8.35113 8.63741 8.35113C8.92991 8.35113 9.22241 8.28281 9.51492 8.21449L9.88055 10.6741C9.88055 10.7424 9.80742 10.7424 9.80742 10.8108C9.7343 11.0157 9.58805 11.2207 9.58805 11.494C9.58805 12.1772 10.2462 12.6555 11.1237 12.6555H12.1475H13.1712C14.0487 12.6555 14.7069 12.1772 14.7069 11.494C14.7069 11.2207 14.5606 10.9474 14.4875 10.8108C14.4875 10.7424 14.4144 10.6741 14.4144 10.6741L14.78 8.21449C15.0725 8.28281 15.365 8.35113 15.6575 8.35113C16.3888 8.35113 16.9738 8.07784 17.12 7.73623C17.1932 7.53126 17.12 7.25797 16.9007 7.053Z" fill="url(#paint5_linear_298_2069)"/>
</g>
<circle id="Ellipse 14" cx="10.3884" cy="8.01266" r="0.357143" fill="#489DFF"/>
<circle id="Ellipse 15" cx="13.9602" cy="8.01266" r="0.357143" fill="#489DFF"/>
<circle id="Ellipse 16" cx="11.1027" cy="11.5839" r="0.357143" fill="#489DFF"/>
<circle id="Ellipse 17" cx="13.2458" cy="11.5839" r="0.357143" fill="#489DFF"/>
</g>
<g id="Union_4" filter="url(#filter4_d_298_2069)">
<path fill-rule="evenodd" clip-rule="evenodd" d="M22.5807 19.9779C22.9884 19.6727 23.2503 19.1988 23.2503 18.6667C23.2503 17.7462 22.4668 17 21.5003 17C20.5338 17 19.7503 17.7462 19.7503 18.6667C19.7503 19.1986 20.012 19.6724 20.4195 19.9775L20.0218 21.1925C19.9546 21.3979 19.7629 21.5369 19.5466 21.5369H19C18.4477 21.5369 18 21.9846 18 22.5369V23.4999C18 23.776 18.2239 23.9999 18.5 23.9999H24.5C24.7761 23.9999 25 23.776 25 23.4999V22.5369C25 21.9846 24.5523 21.5369 24 21.5369H23.4534C23.2371 21.5369 23.0454 21.3979 22.9782 21.1925L22.5807 19.9779Z" fill="url(#paint6_linear_298_2069)"/>
</g>
</g>
</g>
</g>
<defs>
<filter id="filter0_i_298_2069" x="0" y="0.333252" width="27.3994" height="27.6666" filterUnits="userSpaceOnUse" color-interpolation-filters="sRGB">
<feFlood flood-opacity="0" result="BackgroundImageFix"/>
<feBlend mode="normal" in="SourceGraphic" in2="BackgroundImageFix" result="shape"/>
<feColorMatrix in="SourceAlpha" type="matrix" values="0 0 0 0 0 0 0 0 0 0 0 0 0 0 0 0 0 0 127 0" result="hardAlpha"/>
<feOffset dy="1"/>
<feGaussianBlur stdDeviation="0.5"/>
<feComposite in2="hardAlpha" operator="arithmetic" k2="-1" k3="1"/>
<feColorMatrix type="matrix" values="0 0 0 0 0.0370312 0 0 0 0 0.422243 0 0 0 0 0.9875 0 0 0 0.8 0"/>
<feBlend mode="normal" in2="shape" result="effect1_innerShadow_298_2069"/>
</filter>
<filter id="filter1_i_298_2069" x="20" y="0.333252" width="5.2002" height="6.66675" filterUnits="userSpaceOnUse" color-interpolation-filters="sRGB">
<feFlood flood-opacity="0" result="BackgroundImageFix"/>
<feBlend mode="normal" in="SourceGraphic" in2="BackgroundImageFix" result="shape"/>
<feColorMatrix in="SourceAlpha" type="matrix" values="0 0 0 0 0 0 0 0 0 0 0 0 0 0 0 0 0 0 127 0" result="hardAlpha"/>
<feOffset dy="1"/>
<feGaussianBlur stdDeviation="0.5"/>
<feComposite in2="hardAlpha" operator="arithmetic" k2="-1" k3="1"/>
<feColorMatrix type="matrix" values="0 0 0 0 0.0370312 0 0 0 0 0.422243 0 0 0 0 0.9875 0 0 0 0.8 0"/>
<feBlend mode="normal" in2="shape" result="effect1_innerShadow_298_2069"/>
</filter>
<filter id="filter2_d_298_2069" x="3.10059" y="15.6664" width="10" height="5.06677" filterUnits="userSpaceOnUse" color-interpolation-filters="sRGB">
<feFlood flood-opacity="0" result="BackgroundImageFix"/>
<feColorMatrix in="SourceAlpha" type="matrix" values="0 0 0 0 0 0 0 0 0 0 0 0 0 0 0 0 0 0 127 0" result="hardAlpha"/>
<feOffset dy="0.5"/>
<feGaussianBlur stdDeviation="0.25"/>
<feComposite in2="hardAlpha" operator="out"/>
<feColorMatrix type="matrix" values="0 0 0 0 0.0784314 0 0 0 0 0.517647 0 0 0 0 1 0 0 0 0.8 0"/>
<feBlend mode="normal" in2="BackgroundImageFix" result="effect1_dropShadow_298_2069"/>
<feBlend mode="normal" in="SourceGraphic" in2="effect1_dropShadow_298_2069" result="shape"/>
</filter>
<filter id="filter3_d_298_2069" x="6.14746" y="4.79834" width="12" height="9.85718" filterUnits="userSpaceOnUse" color-interpolation-filters="sRGB">
<feFlood flood-opacity="0" result="BackgroundImageFix"/>
<feColorMatrix in="SourceAlpha" type="matrix" values="0 0 0 0 0 0 0 0 0 0 0 0 0 0 0 0 0 0 127 0" result="hardAlpha"/>
<feOffset dy="1"/>
<feGaussianBlur stdDeviation="0.5"/>
<feComposite in2="hardAlpha" operator="out"/>
<feColorMatrix type="matrix" values="0 0 0 0 0 0 0 0 0 0.546167 0 0 0 0 0.941667 0 0 0 0.6 0"/>
<feBlend mode="normal" in2="BackgroundImageFix" result="effect1_dropShadow_298_2069"/>
<feBlend mode="normal" in="SourceGraphic" in2="effect1_dropShadow_298_2069" result="shape"/>
</filter>
<filter id="filter4_d_298_2069" x="17.5" y="17" width="8" height="7.99988" filterUnits="userSpaceOnUse" color-interpolation-filters="sRGB">
<feFlood flood-opacity="0" result="BackgroundImageFix"/>
<feColorMatrix in="SourceAlpha" type="matrix" values="0 0 0 0 0 0 0 0 0 0 0 0 0 0 0 0 0 0 127 0" result="hardAlpha"/>
<feOffset dy="0.5"/>
<feGaussianBlur stdDeviation="0.25"/>
<feComposite in2="hardAlpha" operator="out"/>
<feColorMatrix type="matrix" values="0 0 0 0 0.313726 0 0 0 0 0.733333 0 0 0 0 0.984314 0 0 0 1 0"/>
<feBlend mode="normal" in2="BackgroundImageFix" result="effect1_dropShadow_298_2069"/>
<feBlend mode="normal" in="SourceGraphic" in2="effect1_dropShadow_298_2069" result="shape"/>
</filter>
<linearGradient id="paint0_linear_298_2069" x1="13.341" y1="25.7301" x2="13.341" y2="1.60309" gradientUnits="userSpaceOnUse">
<stop stop-color="#78CFFF"/>
<stop offset="1" stop-color="#297DFF"/>
</linearGradient>
<linearGradient id="paint1_linear_298_2069" x1="12.27" y1="25.4126" x2="12.27" y2="1.58722" gradientUnits="userSpaceOnUse">
<stop stop-color="#78CFFF"/>
<stop offset="1" stop-color="#297DFF"/>
</linearGradient>
<linearGradient id="paint2_linear_298_2069" x1="21.3994" y1="20.1991" x2="21.3994" y2="26.9999" gradientUnits="userSpaceOnUse">
<stop stop-color="#7BC6FF"/>
<stop offset="1" stop-color="#7ADAFF"/>
</linearGradient>
<linearGradient id="paint3_linear_298_2069" x1="8.39967" y1="25.3026" x2="8.39967" y2="18.293" gradientUnits="userSpaceOnUse">
<stop stop-color="#7AD9FF"/>
<stop offset="1" stop-color="#7BC5FF"/>
</linearGradient>
<linearGradient id="paint4_linear_298_2069" x1="8.10059" y1="16.6664" x2="8.10059" y2="22.3331" gradientUnits="userSpaceOnUse">
<stop stop-color="white"/>
<stop offset="1" stop-color="#E4F7FF"/>
</linearGradient>
<linearGradient id="paint5_linear_298_2069" x1="12.1475" y1="4.79834" x2="12.1475" y2="12.6555" gradientUnits="userSpaceOnUse">
<stop stop-color="white"/>
<stop offset="1" stop-color="#D7F2FF"/>
</linearGradient>
<linearGradient id="paint6_linear_298_2069" x1="21.5" y1="17" x2="21.5" y2="24" gradientUnits="userSpaceOnUse">
<stop stop-color="white"/>
<stop offset="1" stop-color="#D7F2FF"/>
</linearGradient>
</defs>
</svg>
