<svg width="28" height="27" viewBox="0 0 28 27" fill="none" xmlns="http://www.w3.org/2000/svg">
<g id="&#230;&#179;&#168;&#229;&#134;&#140;&#232;&#175;&#134;&#229;&#136;&#171;&#232;&#174;&#176;&#229;&#189;&#149;--&#231;&#140;&#170;&#230;&#179;&#168;&#229;&#134;&#140;&#232;&#174;&#176;&#229;&#189;&#149;">
<g id="&#230;&#153;&#186;&#230;&#133;&#167;&#228;&#191;&#157;&#233;&#153;&#169;--&#232;&#174;&#162;&#229;&#141;&#149;&#230;&#159;&#165;&#232;&#175;&#162;">
<g id="&#230;&#153;&#186;&#230;&#133;&#167;&#228;&#191;&#157;&#233;&#153;&#169;--&#232;&#174;&#162;&#229;&#141;&#149;&#230;&#159;&#165;&#232;&#175;&#162;_2">
<g id="Union" filter="url(#filter0_i_298_2041)">
<path fill-rule="evenodd" clip-rule="evenodd" d="M0 2.33325C0 1.22868 0.895431 0.333252 2 0.333252H19L25.2 7.5V14.6412C24.1082 14.0208 22.8455 13.6665 21.5 13.6665C17.3579 13.6665 14 17.0244 14 21.1665C14 23.3396 14.9242 25.2968 16.401 26.6666H2C0.895429 26.6666 0 25.7712 0 24.6666V2.33325ZM21.3996 26.9999C24.7133 26.9999 27.3996 24.3136 27.3996 20.9999C27.3996 17.6862 24.7133 14.9999 21.3996 14.9999C18.0859 14.9999 15.3996 17.6862 15.3996 20.9999C15.3996 24.3136 18.0859 26.9999 21.3996 26.9999Z" fill="url(#paint0_linear_298_2041)"/>
</g>
<g id="1" filter="url(#filter1_i_298_2041)">
<path d="M20 0.333252H23.2C24.3046 0.333252 25.2 1.22868 25.2 2.33325V6L20 0.333252Z" fill="url(#paint1_linear_298_2041)"/>
</g>
<path id="Vector 6" d="M20.0663 22.3333C17.933 22.8666 16.0663 21.6666 15.3997 20.9999C15.3997 24.3136 18.086 26.9999 21.3996 26.9999C24.7133 26.9999 27.3997 24.3136 27.3997 20.9999V20.8204C27.3997 20.5409 27.1925 20.3023 26.9146 20.2715C22.7296 19.8085 22.6372 21.6905 20.0663 22.3333Z" fill="url(#paint2_linear_298_2041)"/>
<path id="Subtract" fill-rule="evenodd" clip-rule="evenodd" d="M14.0454 21.8012C11.2505 21.0716 10.1783 20.5668 9.20873 20.1104C8.59663 19.8223 8.02544 19.5534 7.0875 19.2593C3.80007 18.2286 2.41867 19.8274 1.35195 21.0619C0.885485 21.6018 0.47919 22.072 0 22.2223V24.6667C0 25.7713 0.895429 26.6667 2 26.6667H16.8123C15.2988 25.4813 14.2686 23.7566 14.0454 21.8012Z" fill="url(#paint3_linear_298_2041)"/>
<g id="Union_2" filter="url(#filter2_d_298_2041)">
<path fill-rule="evenodd" clip-rule="evenodd" d="M4.30034 15.6664C3.91374 15.6664 3.60034 15.9798 3.60034 16.3664C3.60034 16.753 3.91374 17.0664 4.30034 17.0664H11.9003C12.2869 17.0664 12.6003 16.753 12.6003 16.3664C12.6003 15.9798 12.2869 15.6664 11.9003 15.6664H4.30034ZM4.30034 18.3331C3.91374 18.3331 3.60034 18.6465 3.60034 19.0331C3.60034 19.4197 3.91374 19.7331 4.30034 19.7331H9.90034C10.2869 19.7331 10.6003 19.4197 10.6003 19.0331C10.6003 18.6465 10.2869 18.3331 9.90034 18.3331H4.30034Z" fill="url(#paint4_linear_298_2041)"/>
</g>
<g id="Vector" filter="url(#filter3_d_298_2041)">
<path fill-rule="evenodd" clip-rule="evenodd" d="M9.44511 4.35301C9.39613 4.32969 9.34205 4.31913 9.2879 4.32234C9.23375 4.32554 9.18129 4.3424 9.13541 4.37134C9.08953 4.40028 9.05172 4.44036 9.0255 4.48785C8.99928 4.53534 8.98551 4.58869 8.98547 4.64294V6.58437C8.98547 6.68658 8.93404 6.80937 8.83118 6.93601C8.51939 7.31723 8.08032 8.08994 8.08032 9.38915C8.08032 10.5733 8.63639 11.4142 9.48175 11.9445C10.3085 12.4633 11.3994 12.6787 12.5 12.6787C13.5993 12.6787 14.6908 12.4633 15.5188 11.9439C16.3635 11.4142 16.9196 10.5733 16.9196 9.38915C16.9196 8.08994 16.4805 7.31723 16.1688 6.93601C16.0659 6.80937 16.0145 6.68658 16.0145 6.58373V4.64294C16.0144 4.58869 16.0006 4.53534 15.9744 4.48785C15.9482 4.44036 15.9104 4.40028 15.8645 4.37134C15.8186 4.3424 15.7662 4.32554 15.712 4.32234C15.6579 4.31913 15.6038 4.32969 15.5548 4.35301L13.6314 5.26908L13.6121 5.26523C13.5072 5.24227 13.402 5.22084 13.2965 5.20094C13.0554 5.15594 12.7372 5.1058 12.5006 5.1058C12.264 5.1058 11.9458 5.15594 11.7048 5.20094C11.58 5.22473 11.4695 5.24787 11.3898 5.26523L11.3705 5.26908L9.44447 4.35365L9.44511 4.35301ZM14.3887 9.76587C14.3887 10.6299 13.5427 11.1519 12.5 11.1519C11.4573 11.1519 10.6113 10.6697 10.6113 9.76587C10.6113 8.86201 11.4573 8.37987 12.5 8.37987C13.5427 8.37987 14.3887 8.90187 14.3887 9.76587ZM10.6923 8.01794C10.5857 8.01794 10.4835 7.97561 10.4081 7.90026C10.3328 7.82491 10.2905 7.72271 10.2905 7.61615C10.2905 7.50959 10.3328 7.4074 10.4081 7.33205C10.4835 7.2567 10.5857 7.21437 10.6923 7.21437C10.7988 7.21437 10.901 7.2567 10.9764 7.33205C11.0517 7.4074 11.094 7.50959 11.094 7.61615C11.094 7.72271 11.0517 7.82491 10.9764 7.90026C10.901 7.97561 10.7988 8.01794 10.6923 8.01794ZM14.3083 8.01794C14.4149 8.01794 14.5171 7.97561 14.5924 7.90026C14.6678 7.82491 14.7101 7.72271 14.7101 7.61615C14.7101 7.50959 14.6678 7.4074 14.5924 7.33205C14.5171 7.2567 14.4149 7.21437 14.3083 7.21437C14.2018 7.21437 14.0996 7.2567 14.0242 7.33205C13.9489 7.4074 13.9065 7.50959 13.9065 7.61615C13.9065 7.72271 13.9489 7.82491 14.0242 7.90026C14.0996 7.97561 14.2018 8.01794 14.3083 8.01794ZM13.1428 10.248C13.2494 10.248 13.3516 10.2057 13.4269 10.1303C13.5023 10.055 13.5446 9.95279 13.5446 9.84623C13.5446 9.73967 13.5023 9.63747 13.4269 9.56212C13.3516 9.48677 13.2494 9.44444 13.1428 9.44444C13.0363 9.44444 12.9341 9.48677 12.8587 9.56212C12.7834 9.63747 12.741 9.73967 12.741 9.84623C12.741 9.95279 12.7834 10.055 12.8587 10.1303C12.9341 10.2057 13.0363 10.248 13.1428 10.248ZM11.4553 9.84623C11.4553 9.73967 11.4977 9.63747 11.573 9.56212C11.6484 9.48677 11.7505 9.44444 11.8571 9.44444C11.9637 9.44444 12.0659 9.48677 12.1412 9.56212C12.2166 9.63747 12.2589 9.73967 12.2589 9.84623C12.2589 9.95279 12.2166 10.055 12.1412 10.1303C12.0659 10.2057 11.9637 10.248 11.8571 10.248C11.7505 10.248 11.6484 10.2057 11.573 10.1303C11.4977 10.055 11.4553 9.95279 11.4553 9.84623Z" fill="white"/>
</g>
<g id="Union_3" filter="url(#filter4_d_298_2041)">
<path fill-rule="evenodd" clip-rule="evenodd" d="M22.5807 19.9779C22.9884 19.6727 23.2503 19.1988 23.2503 18.6667C23.2503 17.7462 22.4668 17 21.5003 17C20.5338 17 19.7503 17.7462 19.7503 18.6667C19.7503 19.1986 20.012 19.6724 20.4195 19.9775L20.0218 21.1925C19.9546 21.3979 19.7629 21.5369 19.5466 21.5369H19C18.4477 21.5369 18 21.9846 18 22.5369V23.4999C18 23.776 18.2239 23.9999 18.5 23.9999H24.5C24.7761 23.9999 25 23.776 25 23.4999V22.5369C25 21.9846 24.5523 21.5369 24 21.5369H23.4534C23.2371 21.5369 23.0454 21.3979 22.9782 21.1925L22.5807 19.9779Z" fill="url(#paint5_linear_298_2041)"/>
</g>
</g>
</g>
</g>
<defs>
<filter id="filter0_i_298_2041" x="0" y="0.333252" width="27.3997" height="27.6666" filterUnits="userSpaceOnUse" color-interpolation-filters="sRGB">
<feFlood flood-opacity="0" result="BackgroundImageFix"/>
<feBlend mode="normal" in="SourceGraphic" in2="BackgroundImageFix" result="shape"/>
<feColorMatrix in="SourceAlpha" type="matrix" values="0 0 0 0 0 0 0 0 0 0 0 0 0 0 0 0 0 0 127 0" result="hardAlpha"/>
<feOffset dy="1"/>
<feGaussianBlur stdDeviation="0.5"/>
<feComposite in2="hardAlpha" operator="arithmetic" k2="-1" k3="1"/>
<feColorMatrix type="matrix" values="0 0 0 0 0.0370312 0 0 0 0 0.422243 0 0 0 0 0.9875 0 0 0 0.8 0"/>
<feBlend mode="normal" in2="shape" result="effect1_innerShadow_298_2041"/>
</filter>
<filter id="filter1_i_298_2041" x="20" y="0.333252" width="5.19995" height="6.66675" filterUnits="userSpaceOnUse" color-interpolation-filters="sRGB">
<feFlood flood-opacity="0" result="BackgroundImageFix"/>
<feBlend mode="normal" in="SourceGraphic" in2="BackgroundImageFix" result="shape"/>
<feColorMatrix in="SourceAlpha" type="matrix" values="0 0 0 0 0 0 0 0 0 0 0 0 0 0 0 0 0 0 127 0" result="hardAlpha"/>
<feOffset dy="1"/>
<feGaussianBlur stdDeviation="0.5"/>
<feComposite in2="hardAlpha" operator="arithmetic" k2="-1" k3="1"/>
<feColorMatrix type="matrix" values="0 0 0 0 0.0370312 0 0 0 0 0.422243 0 0 0 0 0.9875 0 0 0 0.8 0"/>
<feBlend mode="normal" in2="shape" result="effect1_innerShadow_298_2041"/>
</filter>
<filter id="filter2_d_298_2041" x="3.10034" y="15.6664" width="10" height="5.06677" filterUnits="userSpaceOnUse" color-interpolation-filters="sRGB">
<feFlood flood-opacity="0" result="BackgroundImageFix"/>
<feColorMatrix in="SourceAlpha" type="matrix" values="0 0 0 0 0 0 0 0 0 0 0 0 0 0 0 0 0 0 127 0" result="hardAlpha"/>
<feOffset dy="0.5"/>
<feGaussianBlur stdDeviation="0.25"/>
<feComposite in2="hardAlpha" operator="out"/>
<feColorMatrix type="matrix" values="0 0 0 0 0.0784314 0 0 0 0 0.517647 0 0 0 0 1 0 0 0 0.8 0"/>
<feBlend mode="normal" in2="BackgroundImageFix" result="effect1_dropShadow_298_2041"/>
<feBlend mode="normal" in="SourceGraphic" in2="effect1_dropShadow_298_2041" result="shape"/>
</filter>
<filter id="filter3_d_298_2041" x="7.58032" y="4.32178" width="9.83936" height="9.35693" filterUnits="userSpaceOnUse" color-interpolation-filters="sRGB">
<feFlood flood-opacity="0" result="BackgroundImageFix"/>
<feColorMatrix in="SourceAlpha" type="matrix" values="0 0 0 0 0 0 0 0 0 0 0 0 0 0 0 0 0 0 127 0" result="hardAlpha"/>
<feOffset dy="0.5"/>
<feGaussianBlur stdDeviation="0.25"/>
<feComposite in2="hardAlpha" operator="out"/>
<feColorMatrix type="matrix" values="0 0 0 0 0.0784314 0 0 0 0 0.517647 0 0 0 0 1 0 0 0 0.8 0"/>
<feBlend mode="normal" in2="BackgroundImageFix" result="effect1_dropShadow_298_2041"/>
<feBlend mode="normal" in="SourceGraphic" in2="effect1_dropShadow_298_2041" result="shape"/>
</filter>
<filter id="filter4_d_298_2041" x="17.5" y="17" width="8" height="7.99988" filterUnits="userSpaceOnUse" color-interpolation-filters="sRGB">
<feFlood flood-opacity="0" result="BackgroundImageFix"/>
<feColorMatrix in="SourceAlpha" type="matrix" values="0 0 0 0 0 0 0 0 0 0 0 0 0 0 0 0 0 0 127 0" result="hardAlpha"/>
<feOffset dy="0.5"/>
<feGaussianBlur stdDeviation="0.25"/>
<feComposite in2="hardAlpha" operator="out"/>
<feColorMatrix type="matrix" values="0 0 0 0 0.313726 0 0 0 0 0.733333 0 0 0 0 0.984314 0 0 0 1 0"/>
<feBlend mode="normal" in2="BackgroundImageFix" result="effect1_dropShadow_298_2041"/>
<feBlend mode="normal" in="SourceGraphic" in2="effect1_dropShadow_298_2041" result="shape"/>
</filter>
<linearGradient id="paint0_linear_298_2041" x1="13.341" y1="25.7301" x2="13.341" y2="1.60309" gradientUnits="userSpaceOnUse">
<stop stop-color="#78CFFF"/>
<stop offset="1" stop-color="#297DFF"/>
</linearGradient>
<linearGradient id="paint1_linear_298_2041" x1="12.27" y1="25.4126" x2="12.27" y2="1.58722" gradientUnits="userSpaceOnUse">
<stop stop-color="#78CFFF"/>
<stop offset="1" stop-color="#297DFF"/>
</linearGradient>
<linearGradient id="paint2_linear_298_2041" x1="21.3997" y1="20.1991" x2="21.3997" y2="26.9999" gradientUnits="userSpaceOnUse">
<stop stop-color="#7BC6FF"/>
<stop offset="1" stop-color="#7ADAFF"/>
</linearGradient>
<linearGradient id="paint3_linear_298_2041" x1="8.39967" y1="25.3026" x2="8.39967" y2="18.293" gradientUnits="userSpaceOnUse">
<stop stop-color="#7AD9FF"/>
<stop offset="1" stop-color="#7BC5FF"/>
</linearGradient>
<linearGradient id="paint4_linear_298_2041" x1="8.10034" y1="16.6664" x2="8.10034" y2="22.3331" gradientUnits="userSpaceOnUse">
<stop stop-color="white"/>
<stop offset="1" stop-color="#E4F7FF"/>
</linearGradient>
<linearGradient id="paint5_linear_298_2041" x1="21.5" y1="17" x2="21.5" y2="24" gradientUnits="userSpaceOnUse">
<stop stop-color="white"/>
<stop offset="1" stop-color="#D7F2FF"/>
</linearGradient>
</defs>
</svg>
