<svg width="26" height="28" viewBox="0 0 26 28" fill="none" xmlns="http://www.w3.org/2000/svg">
<g id="&#230;&#153;&#186;&#230;&#133;&#167;&#228;&#191;&#157;&#233;&#153;&#169;--&#230;&#159;&#165;&#229;&#139;&#152;&#229;&#175;&#185;&#230;&#175;&#148;&#229;&#155;&#190;&#230;&#160;&#135;">
<g id="&#230;&#159;&#165;&#229;&#139;&#152;&#229;&#175;&#185;&#230;&#175;&#148;">
<g id="Subtract" filter="url(#filter0_i_297_1978)">
<path fill-rule="evenodd" clip-rule="evenodd" d="M19.4999 0H2C0.895431 0 0 0.895431 0 2V26C0 27.1046 0.89543 28 2 28H19.4999V0ZM21.1249 28H24C25.1046 28 26 27.1046 26 26V2C26 0.895431 25.1046 0 24 0H21.1249V28Z" fill="url(#paint0_linear_297_1978)"/>
</g>
<g id="Group 16">
<g id="Union" filter="url(#filter1_d_297_1978)">
<path d="M15.8513 7.50393C15.5003 7.17598 14.886 6.76604 14.0963 6.68405C14.184 6.52008 14.184 6.27412 14.2718 6.02815C14.2718 5.53623 14.2718 5.20828 14.2718 5.20828C14.2718 5.0443 14.0963 4.88033 13.833 4.79834H13.7453C13.5698 4.79834 13.3943 4.88033 13.3065 5.0443C12.9555 5.37225 12.5167 5.78219 12.2535 5.86418C11.6392 5.61822 10.9372 5.45424 10.2352 5.37225C9.44545 5.37225 8.74344 5.53623 8.21693 5.86418C7.95368 5.78219 7.51492 5.37225 7.25167 5.0443C6.98841 4.88033 6.81291 4.79834 6.63741 4.79834H6.54965C6.2864 4.79834 6.1109 4.96231 6.1109 5.20828C6.1109 5.29027 5.9354 6.02815 6.19865 6.76604C5.40889 6.84803 4.70688 7.25797 4.44362 7.58592C4.18037 7.74989 4.09262 8.07784 4.18037 8.24182C4.35587 8.73374 5.05788 9.06169 5.9354 9.06169C6.2864 9.06169 6.63741 8.97971 6.98841 8.89772L7.42717 11.8493C7.42717 11.9313 7.33942 11.9313 7.33942 12.0132C7.25167 12.2592 7.07616 12.5052 7.07616 12.8331C7.07616 13.653 7.86593 14.2269 8.91894 14.2269H10.1475H11.376C12.429 14.2269 13.2188 13.653 13.2188 12.8331C13.2188 12.5052 13.0433 12.1772 12.9555 12.0132C12.9555 11.9313 12.8678 11.8493 12.8678 11.8493L13.3065 8.89772C13.6575 8.97971 14.0085 9.06169 14.3595 9.06169C15.237 9.06169 15.9391 8.73374 16.1146 8.32381C16.2023 8.07784 16.1146 7.74989 15.8513 7.50393Z" fill="url(#paint1_linear_297_1978)"/>
</g>
<ellipse id="Ellipse 14" cx="8.03648" cy="8.6555" rx="0.428571" ry="0.428571" fill="#FDA043"/>
<ellipse id="Ellipse 15" cx="12.3224" cy="8.6555" rx="0.428571" ry="0.428571" fill="#FDA043"/>
<ellipse id="Ellipse 16" cx="8.8939" cy="12.941" rx="0.428571" ry="0.428571" fill="#FDA043"/>
<ellipse id="Ellipse 17" cx="11.4649" cy="12.941" rx="0.428571" ry="0.428571" fill="#FDA043"/>
</g>
<path id="Subtract_2" fill-rule="evenodd" clip-rule="evenodd" d="M19.4999 22.3623C18.3007 23.0795 17.1523 23.5495 16.25 23.3336C12.0133 22.3195 10.6832 21.6823 9.50107 21.1159C8.86954 20.8134 8.28021 20.531 7.3125 20.2223C3.92071 19.1401 2.49546 20.8187 1.39487 22.115C0.913595 22.6819 0.494403 23.1756 0 23.3334V26C0 27.1046 0.89543 28 2 28H19.4999V22.3623ZM21.1249 28H24C25.1046 28 26 27.1046 26 26V18.6668C25.2557 18.3106 23.7442 19.4023 22.0512 20.6249C21.7472 20.8445 21.4373 21.0684 21.1249 21.2888V28Z" fill="url(#paint2_linear_297_1978)"/>
<g id="Union_2" filter="url(#filter2_d_297_1978)">
<path fill-rule="evenodd" clip-rule="evenodd" d="M5.60034 17.6665C5.04806 17.6665 4.60034 18.1142 4.60034 18.6665C4.60034 19.2188 5.04806 19.6665 5.60034 19.6665H14.6003C15.1526 19.6665 15.6003 19.2188 15.6003 18.6665C15.6003 18.1142 15.1526 17.6665 14.6003 17.6665H5.60034ZM5.60034 21.3333C5.04806 21.3333 4.60034 21.781 4.60034 22.3333C4.60034 22.8855 5.04806 23.3333 5.60034 23.3333H12.1559C12.7082 23.3333 13.1559 22.8855 13.1559 22.3333C13.1559 21.781 12.7082 21.3333 12.1559 21.3333H5.60034Z" fill="url(#paint3_linear_297_1978)"/>
</g>
</g>
</g>
<defs>
<filter id="filter0_i_297_1978" x="0" y="0" width="26" height="29" filterUnits="userSpaceOnUse" color-interpolation-filters="sRGB">
<feFlood flood-opacity="0" result="BackgroundImageFix"/>
<feBlend mode="normal" in="SourceGraphic" in2="BackgroundImageFix" result="shape"/>
<feColorMatrix in="SourceAlpha" type="matrix" values="0 0 0 0 0 0 0 0 0 0 0 0 0 0 0 0 0 0 127 0" result="hardAlpha"/>
<feOffset dy="1"/>
<feGaussianBlur stdDeviation="0.5"/>
<feComposite in2="hardAlpha" operator="arithmetic" k2="-1" k3="1"/>
<feColorMatrix type="matrix" values="0 0 0 0 0.995833 0 0 0 0 0.430158 0 0 0 0 0.0165972 0 0 0 0.8 0"/>
<feBlend mode="normal" in2="shape" result="effect1_innerShadow_297_1978"/>
</filter>
<filter id="filter1_d_297_1978" x="3.64746" y="4.79834" width="13" height="10.4286" filterUnits="userSpaceOnUse" color-interpolation-filters="sRGB">
<feFlood flood-opacity="0" result="BackgroundImageFix"/>
<feColorMatrix in="SourceAlpha" type="matrix" values="0 0 0 0 0 0 0 0 0 0 0 0 0 0 0 0 0 0 127 0" result="hardAlpha"/>
<feOffset dy="0.5"/>
<feGaussianBlur stdDeviation="0.25"/>
<feComposite in2="hardAlpha" operator="out"/>
<feColorMatrix type="matrix" values="0 0 0 0 0.995833 0 0 0 0 0.430158 0 0 0 0 0.0165972 0 0 0 0.8 0"/>
<feBlend mode="normal" in2="BackgroundImageFix" result="effect1_dropShadow_297_1978"/>
<feBlend mode="normal" in="SourceGraphic" in2="effect1_dropShadow_297_1978" result="shape"/>
</filter>
<filter id="filter2_d_297_1978" x="4.10034" y="17.6665" width="12" height="6.66675" filterUnits="userSpaceOnUse" color-interpolation-filters="sRGB">
<feFlood flood-opacity="0" result="BackgroundImageFix"/>
<feColorMatrix in="SourceAlpha" type="matrix" values="0 0 0 0 0 0 0 0 0 0 0 0 0 0 0 0 0 0 127 0" result="hardAlpha"/>
<feOffset dy="0.5"/>
<feGaussianBlur stdDeviation="0.25"/>
<feComposite in2="hardAlpha" operator="out"/>
<feColorMatrix type="matrix" values="0 0 0 0 0.995833 0 0 0 0 0.430158 0 0 0 0 0.0165972 0 0 0 0.8 0"/>
<feBlend mode="normal" in2="BackgroundImageFix" result="effect1_dropShadow_297_1978"/>
<feBlend mode="normal" in="SourceGraphic" in2="effect1_dropShadow_297_1978" result="shape"/>
</filter>
<linearGradient id="paint0_linear_297_1978" x1="13.7647" y1="28" x2="13.7647" y2="-5.50764e-07" gradientUnits="userSpaceOnUse">
<stop stop-color="#FFCC63"/>
<stop offset="1" stop-color="#FC8731"/>
</linearGradient>
<linearGradient id="paint1_linear_297_1978" x1="10.0298" y1="15.6019" x2="10.0298" y2="5.42693" gradientUnits="userSpaceOnUse">
<stop stop-color="#FFE7D5"/>
<stop offset="0.812272" stop-color="white"/>
</linearGradient>
<linearGradient id="paint2_linear_297_1978" x1="13" y1="18.156" x2="13" y2="28.0001" gradientUnits="userSpaceOnUse">
<stop stop-color="#FFBC58"/>
<stop offset="1" stop-color="#FFDD65"/>
</linearGradient>
<linearGradient id="paint3_linear_297_1978" x1="9.9925" y1="24.1597" x2="9.9925" y2="18.0443" gradientUnits="userSpaceOnUse">
<stop stop-color="#FFE7D5"/>
<stop offset="0.812272" stop-color="white"/>
</linearGradient>
</defs>
</svg>
