<svg width="26" height="28" viewBox="0 0 26 28" fill="none" xmlns="http://www.w3.org/2000/svg">
<g id="&#230;&#153;&#186;&#230;&#133;&#167;&#228;&#191;&#157;&#233;&#153;&#169;--&#230;&#159;&#165;&#229;&#139;&#152;&#229;&#175;&#185;&#230;&#175;&#148;&#229;&#155;&#190;&#230;&#160;&#135;">
<g id="&#230;&#159;&#165;&#229;&#139;&#152;&#229;&#175;&#185;&#230;&#175;&#148;">
<g id="Subtract" filter="url(#filter0_i_297_1949)">
<path fill-rule="evenodd" clip-rule="evenodd" d="M19.4999 0H2C0.895431 0 0 0.895431 0 2V26C0 27.1046 0.89543 28 2 28H19.4999V0ZM21.1249 28H24C25.1046 28 26 27.1046 26 26V2C26 0.895431 25.1046 0 24 0H21.1249V28Z" fill="url(#paint0_linear_297_1949)"/>
</g>
<g id="Vector" filter="url(#filter1_d_297_1949)">
<path fill-rule="evenodd" clip-rule="evenodd" d="M6.62432 5.35711C6.56892 5.33072 6.50773 5.31879 6.44647 5.32241C6.38521 5.32604 6.32586 5.34511 6.27396 5.37785C6.22205 5.41059 6.17928 5.45594 6.14962 5.50966C6.11995 5.56339 6.10437 5.62374 6.10432 5.68511V7.88148C6.10432 7.99711 6.04614 8.13602 5.92978 8.27929C5.57705 8.71057 5.08032 9.58475 5.08032 11.0546C5.08032 12.3942 5.70941 13.3455 6.66578 13.9455C7.60105 14.5324 8.83523 14.776 10.0803 14.776C11.324 14.776 12.5589 14.5324 13.4956 13.9447C14.4512 13.3455 15.0803 12.3942 15.0803 11.0546C15.0803 9.58475 14.5836 8.71057 14.2309 8.27929C14.1145 8.13602 14.0563 7.99711 14.0563 7.88075V5.68511C14.0563 5.62374 14.0407 5.56339 14.011 5.50966C13.9814 5.45594 13.9386 5.41059 13.8867 5.37785C13.8348 5.34511 13.7754 5.32604 13.7142 5.32241C13.6529 5.31879 13.5917 5.33072 13.5363 5.35711L11.3603 6.39348L11.3385 6.38911C11.2198 6.36314 11.1008 6.3389 10.9814 6.31639C10.7087 6.26548 10.3487 6.20875 10.081 6.20875C9.81341 6.20875 9.45341 6.26548 9.18069 6.31639C9.0396 6.34329 8.9145 6.36948 8.82432 6.38911L8.8025 6.39348L6.6236 5.35784L6.62432 5.35711ZM12.217 11.4807C12.217 12.4582 11.26 13.0487 10.0803 13.0487C8.90069 13.0487 7.94359 12.5033 7.94359 11.4807C7.94359 10.4582 8.90069 9.91275 10.0803 9.91275C11.26 9.91275 12.217 10.5033 12.217 11.4807ZM8.03523 9.50329C7.91468 9.50329 7.79906 9.4554 7.71382 9.37016C7.62858 9.28492 7.58069 9.1693 7.58069 9.04875C7.58069 8.9282 7.62858 8.81258 7.71382 8.72734C7.79906 8.64209 7.91468 8.5942 8.03523 8.5942C8.15578 8.5942 8.2714 8.64209 8.35664 8.72734C8.44189 8.81258 8.48978 8.9282 8.48978 9.04875C8.48978 9.1693 8.44189 9.28492 8.35664 9.37016C8.2714 9.4554 8.15578 9.50329 8.03523 9.50329ZM12.1261 9.50329C12.2467 9.50329 12.3623 9.4554 12.4476 9.37016C12.5328 9.28492 12.5807 9.1693 12.5807 9.04875C12.5807 8.9282 12.5328 8.81258 12.4476 8.72734C12.3623 8.64209 12.2467 8.5942 12.1261 8.5942C12.0056 8.5942 11.89 8.64209 11.8047 8.72734C11.7195 8.81258 11.6716 8.9282 11.6716 9.04875C11.6716 9.1693 11.7195 9.28492 11.8047 9.37016C11.89 9.4554 12.0056 9.50329 12.1261 9.50329ZM10.8076 12.0262C10.9281 12.0262 11.0438 11.9783 11.129 11.8931C11.2143 11.8078 11.2621 11.6922 11.2621 11.5717C11.2621 11.4511 11.2143 11.3355 11.129 11.2502C11.0438 11.165 10.9281 11.1171 10.8076 11.1171C10.687 11.1171 10.5714 11.165 10.4862 11.2502C10.4009 11.3355 10.353 11.4511 10.353 11.5717C10.353 11.6922 10.4009 11.8078 10.4862 11.8931C10.5714 11.9783 10.687 12.0262 10.8076 12.0262ZM8.8985 11.5717C8.8985 11.4511 8.94639 11.3355 9.03164 11.2502C9.11688 11.165 9.2325 11.1171 9.35305 11.1171C9.4736 11.1171 9.58922 11.165 9.67446 11.2502C9.75971 11.3355 9.8076 11.4511 9.8076 11.5717C9.8076 11.6922 9.75971 11.8078 9.67446 11.8931C9.58922 11.9783 9.4736 12.0262 9.35305 12.0262C9.2325 12.0262 9.11688 11.9783 9.03164 11.8931C8.94639 11.8078 8.8985 11.6922 8.8985 11.5717Z" fill="url(#paint1_linear_297_1949)"/>
</g>
<path id="Subtract_2" fill-rule="evenodd" clip-rule="evenodd" d="M19.4999 22.3623C18.3007 23.0795 17.1523 23.5495 16.25 23.3336C12.0133 22.3195 10.6832 21.6823 9.50107 21.1159C8.86954 20.8134 8.28021 20.531 7.3125 20.2223C3.92071 19.1401 2.49546 20.8187 1.39487 22.115C0.913595 22.6819 0.494403 23.1756 0 23.3334V26C0 27.1046 0.89543 28 2 28H19.4999V22.3623ZM21.1249 28H24C25.1046 28 26 27.1046 26 26V18.6668C25.2557 18.3106 23.7442 19.4023 22.0512 20.6249C21.7472 20.8445 21.4373 21.0684 21.1249 21.2888V28Z" fill="url(#paint2_linear_297_1949)"/>
<g id="Union" filter="url(#filter2_d_297_1949)">
<path fill-rule="evenodd" clip-rule="evenodd" d="M5.60034 17.6665C5.04806 17.6665 4.60034 18.1142 4.60034 18.6665C4.60034 19.2188 5.04806 19.6665 5.60034 19.6665H14.6003C15.1526 19.6665 15.6003 19.2188 15.6003 18.6665C15.6003 18.1142 15.1526 17.6665 14.6003 17.6665H5.60034ZM5.60034 21.3333C5.04806 21.3333 4.60034 21.781 4.60034 22.3333C4.60034 22.8855 5.04806 23.3333 5.60034 23.3333H12.1559C12.7082 23.3333 13.1559 22.8855 13.1559 22.3333C13.1559 21.781 12.7082 21.3333 12.1559 21.3333H5.60034Z" fill="url(#paint3_linear_297_1949)"/>
</g>
</g>
</g>
<defs>
<filter id="filter0_i_297_1949" x="0" y="0" width="26" height="29" filterUnits="userSpaceOnUse" color-interpolation-filters="sRGB">
<feFlood flood-opacity="0" result="BackgroundImageFix"/>
<feBlend mode="normal" in="SourceGraphic" in2="BackgroundImageFix" result="shape"/>
<feColorMatrix in="SourceAlpha" type="matrix" values="0 0 0 0 0 0 0 0 0 0 0 0 0 0 0 0 0 0 127 0" result="hardAlpha"/>
<feOffset dy="1"/>
<feGaussianBlur stdDeviation="0.5"/>
<feComposite in2="hardAlpha" operator="arithmetic" k2="-1" k3="1"/>
<feColorMatrix type="matrix" values="0 0 0 0 0.995833 0 0 0 0 0.430158 0 0 0 0 0.0165972 0 0 0 0.8 0"/>
<feBlend mode="normal" in2="shape" result="effect1_innerShadow_297_1949"/>
</filter>
<filter id="filter1_d_297_1949" x="4.58032" y="5.32178" width="11" height="10.4542" filterUnits="userSpaceOnUse" color-interpolation-filters="sRGB">
<feFlood flood-opacity="0" result="BackgroundImageFix"/>
<feColorMatrix in="SourceAlpha" type="matrix" values="0 0 0 0 0 0 0 0 0 0 0 0 0 0 0 0 0 0 127 0" result="hardAlpha"/>
<feOffset dy="0.5"/>
<feGaussianBlur stdDeviation="0.25"/>
<feComposite in2="hardAlpha" operator="out"/>
<feColorMatrix type="matrix" values="0 0 0 0 0.995833 0 0 0 0 0.430158 0 0 0 0 0.0165972 0 0 0 0.8 0"/>
<feBlend mode="normal" in2="BackgroundImageFix" result="effect1_dropShadow_297_1949"/>
<feBlend mode="normal" in="SourceGraphic" in2="effect1_dropShadow_297_1949" result="shape"/>
</filter>
<filter id="filter2_d_297_1949" x="4.10034" y="17.6665" width="12" height="6.66675" filterUnits="userSpaceOnUse" color-interpolation-filters="sRGB">
<feFlood flood-opacity="0" result="BackgroundImageFix"/>
<feColorMatrix in="SourceAlpha" type="matrix" values="0 0 0 0 0 0 0 0 0 0 0 0 0 0 0 0 0 0 127 0" result="hardAlpha"/>
<feOffset dy="0.5"/>
<feGaussianBlur stdDeviation="0.25"/>
<feComposite in2="hardAlpha" operator="out"/>
<feColorMatrix type="matrix" values="0 0 0 0 0.995833 0 0 0 0 0.430158 0 0 0 0 0.0165972 0 0 0 0.8 0"/>
<feBlend mode="normal" in2="BackgroundImageFix" result="effect1_dropShadow_297_1949"/>
<feBlend mode="normal" in="SourceGraphic" in2="effect1_dropShadow_297_1949" result="shape"/>
</filter>
<linearGradient id="paint0_linear_297_1949" x1="13.7647" y1="28" x2="13.7647" y2="-5.50764e-07" gradientUnits="userSpaceOnUse">
<stop stop-color="#FFCC63"/>
<stop offset="1" stop-color="#FC8731"/>
</linearGradient>
<linearGradient id="paint1_linear_297_1949" x1="9.98228" y1="16.1548" x2="9.98228" y2="5.95208" gradientUnits="userSpaceOnUse">
<stop stop-color="#FFE7D5"/>
<stop offset="0.812272" stop-color="white"/>
</linearGradient>
<linearGradient id="paint2_linear_297_1949" x1="13" y1="18.156" x2="13" y2="28.0001" gradientUnits="userSpaceOnUse">
<stop stop-color="#FFBC58"/>
<stop offset="1" stop-color="#FFDD65"/>
</linearGradient>
<linearGradient id="paint3_linear_297_1949" x1="9.9925" y1="24.1597" x2="9.9925" y2="18.0443" gradientUnits="userSpaceOnUse">
<stop stop-color="#FFE7D5"/>
<stop offset="0.812272" stop-color="white"/>
</linearGradient>
</defs>
</svg>
