<svg xmlns="http://www.w3.org/2000/svg" width="24" height="26" viewBox="0 0 24 26" fill="none">
  <path fill-rule="evenodd" clip-rule="evenodd" d="M22 26H2C0.89543 26 0 25.1046 0 24V5H24V6V24C24 25.1046 23.1046 26 22 26ZM24 4V2C24 0.89543 23.1046 0 22 0H2C0.895431 0 0 0.89543 0 2V4H24Z" fill="url(#paint0_linear_179_2084)"></path>
  <g filter="url(#filter0_d_179_2084)">
    <path d="M5.17614 13.3562L7.98053 10.2407C8.11815 10.0879 8.31824 10 8.52873 10H15.4713C15.6817 10 15.8818 10.0879 16.0195 10.2407L18.8238 13.3562C19.0633 13.6222 19.0581 14.0178 18.8116 14.2779L12.2625 21.8787C12.1231 22.0404 11.8769 22.0404 11.7375 21.8787L5.18837 14.2779C4.94195 14.0178 4.9367 13.6222 5.17614 13.3562Z" fill="white"></path>
    <path d="M5.17614 13.3562L7.98053 10.2407C8.11815 10.0879 8.31824 10 8.52873 10H15.4713C15.6817 10 15.8818 10.0879 16.0195 10.2407L18.8238 13.3562C19.0633 13.6222 19.0581 14.0178 18.8116 14.2779L12.2625 21.8787C12.1231 22.0404 11.8769 22.0404 11.7375 21.8787L5.18837 14.2779C4.94195 14.0178 4.9367 13.6222 5.17614 13.3562Z" stroke="white"></path>
  </g>
  <path d="M9.2 13.4641L12 16.6891L14.8 13.4641" stroke="#FC8731" stroke-width="1.5" stroke-linecap="round" stroke-linejoin="round"></path>
  <defs>
    <filter id="filter0_d_179_2084" x="3" y="10" width="18" height="16" filterUnits="userSpaceOnUse" color-interpolation-filters="sRGB">
      <feflood flood-opacity="0" result="BackgroundImageFix"></feflood>
      <feColorMatrix in="SourceAlpha" type="matrix" values="0 0 0 0 0 0 0 0 0 0 0 0 0 0 0 0 0 0 127 0" result="hardAlpha"></feColorMatrix>
      <feoffset dy="2"></feoffset>
      <feGaussianBlur stdDeviation="1"></feGaussianBlur>
      <fecomposite in2="hardAlpha" operator="out"></fecomposite>
      <feColorMatrix type="matrix" values="0 0 0 0 0.996078 0 0 0 0 0.439216 0 0 0 0 0.027451 0 0 0 1 0"></feColorMatrix>
      <feblend mode="normal" in2="BackgroundImageFix" result="effect1_dropShadow_179_2084"></feblend>
      <feblend mode="normal" in="SourceGraphic" in2="effect1_dropShadow_179_2084" result="shape"></feblend>
    </filter>
    <linearGradient id="paint0_linear_179_2084" x1="11.5" y1="0" x2="11.5" y2="26" gradientUnits="userSpaceOnUse">
      <stop stop-color="#FE6E04"></stop>
      <stop offset="1" stop-color="#FC9F31"></stop>
    </linearGradient>
  </defs>
</svg>